G75*
G70*
%OFA0B0*%
%FSLAX24Y24*%
%IPPOS*%
%LPD*%
%AMOC8*
5,1,8,0,0,1.08239X$1,22.5*
%
%ADD10C,0.1340*%
%ADD11C,0.0520*%
%ADD12C,0.0674*%
%ADD13C,0.0830*%
%ADD14OC8,0.0830*%
%ADD15C,0.0680*%
%ADD16R,0.1025X0.1025*%
%ADD17C,0.0600*%
%ADD18OC8,0.0600*%
%ADD19C,0.0600*%
%ADD20C,0.1025*%
%ADD21C,0.0634*%
%ADD22C,0.1346*%
%ADD23R,0.0595X0.0595*%
%ADD24C,0.0595*%
%ADD25C,0.1070*%
%ADD26R,0.0730X0.0730*%
%ADD27C,0.0730*%
%ADD28OC8,0.0785*%
%ADD29C,0.0320*%
%ADD30C,0.0476*%
%ADD31C,0.0437*%
%ADD32R,0.0476X0.0476*%
%ADD33C,0.0340*%
D10*
X020878Y011494D03*
X050578Y011494D03*
X051278Y025794D03*
X020178Y025694D03*
D11*
X033988Y027494D03*
X034988Y027494D03*
X035988Y027494D03*
X036028Y015794D03*
X035028Y015794D03*
X034028Y015794D03*
X056018Y011524D03*
X056018Y010524D03*
X056018Y009524D03*
D12*
X053718Y010507D02*
X053718Y011101D01*
X052718Y011101D02*
X052718Y010507D01*
X051718Y010507D02*
X051718Y011101D01*
X037978Y010797D02*
X037978Y011391D01*
X036978Y011391D02*
X036978Y010797D01*
X035978Y010797D02*
X035978Y011391D01*
X034978Y011391D02*
X034978Y010797D01*
X033978Y010797D02*
X033978Y011391D01*
X032978Y011391D02*
X032978Y010797D01*
X031978Y010797D02*
X031978Y011391D01*
X030978Y011391D02*
X030978Y010797D01*
X029978Y010797D02*
X029978Y011391D01*
X028978Y011391D02*
X028978Y010797D01*
X027978Y010797D02*
X027978Y011391D01*
X026978Y011391D02*
X026978Y010797D01*
X025978Y010797D02*
X025978Y011391D01*
X024978Y011391D02*
X024978Y010797D01*
X023978Y010797D02*
X023978Y011391D01*
X022978Y011391D02*
X022978Y010797D01*
X034278Y018547D02*
X034278Y019141D01*
X035278Y019141D02*
X035278Y018547D01*
X036278Y018547D02*
X036278Y019141D01*
X053078Y018997D02*
X053078Y019591D01*
X054078Y019591D02*
X054078Y018997D01*
X056878Y018997D02*
X056878Y019591D01*
X057878Y019591D02*
X057878Y018997D01*
X060578Y018997D02*
X060578Y019591D01*
X061578Y019591D02*
X061578Y018997D01*
D13*
X029768Y004504D03*
X052578Y004294D03*
D14*
X054578Y004294D03*
X029768Y002504D03*
D15*
X027198Y006344D02*
X027198Y006944D01*
X026198Y006944D02*
X026198Y006344D01*
X025198Y006344D02*
X025198Y006944D01*
X024198Y006944D02*
X024198Y006344D01*
X023198Y006344D02*
X023198Y006944D01*
X022198Y006944D02*
X022198Y006344D01*
X030328Y018544D02*
X030328Y019144D01*
X031328Y019144D02*
X031328Y018544D01*
X030488Y023734D02*
X030488Y024334D01*
X029488Y024334D02*
X029488Y023734D01*
X005548Y025244D02*
X004948Y025244D01*
X004948Y026244D02*
X005548Y026244D01*
X054478Y026094D02*
X054478Y025494D01*
X055478Y025494D02*
X055478Y026094D01*
X057678Y026194D02*
X057678Y025594D01*
X058678Y025594D02*
X058678Y026194D01*
X061078Y026194D02*
X061078Y025594D01*
X062078Y025594D02*
X062078Y026194D01*
D16*
X047108Y017634D03*
X056518Y014374D03*
X059158Y014494D03*
X051608Y003564D03*
X048548Y002564D03*
X001828Y016224D03*
X001898Y019294D03*
X001918Y023444D03*
X032068Y027314D03*
X037808Y027574D03*
D17*
X039938Y027494D03*
X041298Y028094D03*
X043248Y027944D03*
X045288Y027924D03*
X050788Y027914D03*
X048168Y024594D03*
X046998Y022864D03*
X039378Y023144D03*
X039378Y024144D03*
X036378Y024144D03*
X036378Y023144D03*
X036378Y022144D03*
X036378Y021144D03*
X039378Y021144D03*
X039378Y022144D03*
X039488Y019514D03*
X035268Y025044D03*
X008028Y020324D03*
X007828Y015264D03*
X002848Y007214D03*
X013168Y007134D03*
D18*
X012368Y007134D03*
X013618Y009024D03*
X013618Y010024D03*
X002298Y010444D03*
X002298Y009444D03*
X002048Y007214D03*
X007828Y016064D03*
X008028Y019524D03*
X008058Y021304D03*
X008058Y022304D03*
X035268Y025844D03*
X039138Y027494D03*
X042098Y028094D03*
X044048Y027944D03*
X046088Y027924D03*
X051588Y027914D03*
X047368Y024594D03*
X046198Y022864D03*
X040288Y019514D03*
D19*
X028238Y021194D02*
X027718Y021194D01*
X027718Y022194D02*
X028238Y022194D01*
X028238Y023194D02*
X027718Y023194D01*
X025238Y023194D02*
X024718Y023194D01*
X024718Y022194D02*
X025238Y022194D01*
X025238Y021194D02*
X024718Y021194D01*
X025678Y017854D02*
X025678Y017334D01*
X026678Y017334D02*
X026678Y017854D01*
X027678Y017854D02*
X027678Y017334D01*
D20*
X037048Y002564D03*
X039048Y002564D03*
X044548Y002564D03*
D21*
X034768Y005524D03*
X033768Y005524D03*
X033768Y006824D03*
X034768Y006824D03*
D22*
X036618Y005674D03*
X031918Y005674D03*
D23*
X058018Y007054D03*
D24*
X058018Y009054D03*
X058018Y011054D03*
X058018Y013054D03*
D25*
X002068Y004499D02*
X002068Y003509D01*
X003628Y003509D02*
X003628Y004499D01*
X005188Y004499D02*
X005188Y003509D01*
X006748Y003509D02*
X006748Y004499D01*
X008308Y004499D02*
X008308Y003509D01*
X009868Y003509D02*
X009868Y004499D01*
X011428Y004499D02*
X011428Y003509D01*
X012988Y003509D02*
X012988Y004499D01*
X004643Y015324D02*
X003653Y015324D01*
X003653Y016884D02*
X004643Y016884D01*
X012243Y017264D02*
X013233Y017264D01*
X013233Y018824D02*
X012243Y018824D01*
X012243Y020384D02*
X013233Y020384D01*
X013233Y021944D02*
X012243Y021944D01*
X012243Y023504D02*
X013233Y023504D01*
X013233Y025064D02*
X012243Y025064D01*
X012243Y026624D02*
X013233Y026624D01*
X004753Y022074D02*
X003763Y022074D01*
X003763Y020514D02*
X004753Y020514D01*
X012243Y015704D02*
X013233Y015704D01*
X056418Y003619D02*
X056418Y002629D01*
X057978Y002629D02*
X057978Y003619D01*
X059538Y003619D02*
X059538Y002629D01*
X061098Y002629D02*
X061098Y003619D01*
X061113Y009164D02*
X062103Y009164D01*
X062103Y010724D02*
X061113Y010724D01*
D26*
X011268Y009474D03*
D27*
X009928Y009474D03*
X008588Y009474D03*
X007238Y009464D03*
X005918Y009474D03*
X004578Y009474D03*
X005258Y011484D03*
X006578Y011484D03*
X007938Y011484D03*
X009228Y011484D03*
X010618Y011474D03*
D28*
X011238Y007094D03*
X004238Y007094D03*
D29*
X022158Y010174D03*
X023468Y010324D03*
X027468Y008464D03*
X026928Y007924D03*
X032978Y010024D03*
X035548Y010024D03*
X038268Y010284D03*
X039788Y010274D03*
X040228Y010484D03*
X040228Y011314D03*
X039418Y011894D03*
X042698Y011894D03*
X046248Y013404D03*
X046203Y013849D03*
X047648Y013134D03*
X047611Y012291D03*
X046538Y011474D03*
X047158Y011264D03*
X047648Y011194D03*
X046768Y010684D03*
X046418Y010564D03*
X049048Y012214D03*
X049078Y012634D03*
X049238Y013124D03*
X049598Y013374D03*
X050048Y012864D03*
X050618Y013694D03*
X050288Y013784D03*
X049868Y014224D03*
X049358Y014454D03*
X048988Y014204D03*
X048578Y014264D03*
X049874Y015158D03*
X049858Y015174D03*
X050278Y015424D03*
X049778Y015694D03*
X050408Y015934D03*
X051438Y015154D03*
X051308Y014854D03*
X051518Y014524D03*
X050768Y014624D03*
X048788Y016254D03*
X047428Y016164D03*
X046298Y016524D03*
X045898Y016124D03*
X046268Y015504D03*
X046968Y015454D03*
X044078Y015514D03*
X040548Y016694D03*
X038873Y016694D03*
X038278Y016324D03*
X039488Y015034D03*
X045368Y017704D03*
X044768Y018844D03*
X044928Y021064D03*
X042578Y021904D03*
X039938Y021584D03*
X039188Y020124D03*
X035288Y021104D03*
X033358Y020754D03*
X032798Y019494D03*
X030278Y019694D03*
X032078Y017844D03*
X026648Y016224D03*
X026648Y015234D03*
X028878Y014264D03*
X027468Y012884D03*
X022158Y013734D03*
X023468Y015594D03*
X020978Y018494D03*
X022688Y019034D03*
X022938Y023184D03*
X024368Y025764D03*
X031918Y025764D03*
X035288Y022344D03*
X041058Y025814D03*
X044828Y027604D03*
X045758Y027074D03*
X046098Y027334D03*
X046608Y027974D03*
X045978Y028604D03*
X046558Y025174D03*
X047438Y025174D03*
X051638Y022314D03*
X053878Y023294D03*
X055328Y022854D03*
X056318Y022844D03*
X054498Y021904D03*
X053348Y021054D03*
X051638Y021214D03*
X050338Y018684D03*
X051718Y017524D03*
X053438Y018124D03*
X054808Y018124D03*
X055548Y017374D03*
X056778Y016594D03*
X057358Y015674D03*
X060518Y016594D03*
X062228Y016254D03*
X060848Y015414D03*
X054918Y012134D03*
X051388Y009334D03*
X049718Y009534D03*
X047058Y008564D03*
X046538Y008684D03*
X047628Y008060D03*
X049208Y007264D03*
X049728Y006984D03*
X050018Y006724D03*
X050508Y006484D03*
X049348Y006064D03*
X050278Y005674D03*
X051008Y005674D03*
X051498Y005284D03*
X052278Y004994D03*
X053378Y005194D03*
X044508Y008804D03*
X044278Y008564D03*
X043678Y008564D03*
X043268Y008814D03*
X043278Y006874D03*
X041338Y004384D03*
X040608Y003504D03*
X053508Y015934D03*
X053158Y016594D03*
X061058Y022994D03*
X061678Y022994D03*
X061478Y024694D03*
X058734Y024638D03*
X057948Y024374D03*
X055970Y024794D03*
X055960Y024794D03*
X053968Y024804D03*
X053878Y024154D03*
D30*
X055468Y020774D03*
X056518Y020744D03*
X050608Y012584D03*
X054898Y008604D03*
X021708Y010934D03*
X021668Y013704D03*
X018228Y015974D03*
X036548Y024854D03*
X036278Y025844D03*
X009258Y006004D03*
D31*
X012968Y006074D03*
X035078Y009154D03*
X039098Y009244D03*
X040978Y009704D03*
X041718Y010314D03*
X044378Y011234D03*
X051088Y013804D03*
X052628Y013784D03*
X052808Y013264D03*
X053628Y013384D03*
X053318Y015154D03*
X052468Y015154D03*
D32*
X045118Y020124D03*
X037208Y003454D03*
X006748Y004044D03*
D33*
X031318Y018434D03*
M02*
