G75*
G70*
%OFA0B0*%
%FSLAX24Y24*%
%IPPOS*%
%LPD*%
%AMOC8*
5,1,8,0,0,1.08239X$1,22.5*
%
%ADD10R,0.0079X0.0591*%
%ADD11R,0.0591X0.0079*%
%ADD12R,0.0276X0.0354*%
%ADD13R,0.0472X0.0984*%
%ADD14R,0.0354X0.0276*%
%ADD15R,0.0748X0.0433*%
%ADD16R,0.0984X0.0394*%
%ADD17C,0.0440*%
%ADD18C,0.0594*%
%ADD19R,0.0315X0.0315*%
%ADD20R,0.0480X0.0880*%
%ADD21R,0.1417X0.0866*%
%ADD22C,0.0750*%
%ADD23OC8,0.0750*%
%ADD24R,0.0138X0.0315*%
%ADD25C,0.0600*%
%ADD26R,0.0630X0.0710*%
%ADD27R,0.0945X0.0945*%
%ADD28C,0.0520*%
%ADD29OC8,0.0520*%
%ADD30C,0.0520*%
%ADD31R,0.0710X0.0630*%
%ADD32R,0.0630X0.0709*%
%ADD33C,0.0945*%
%ADD34C,0.0554*%
%ADD35C,0.1266*%
%ADD36R,0.0236X0.0866*%
%ADD37R,0.0709X0.0630*%
%ADD38R,0.0515X0.0515*%
%ADD39C,0.0515*%
%ADD40R,0.0472X0.0118*%
%ADD41C,0.0990*%
%ADD42R,0.0650X0.0650*%
%ADD43C,0.0650*%
%ADD44OC8,0.0705*%
%ADD45C,0.0100*%
%ADD46C,0.0080*%
%ADD47C,0.0240*%
%ADD48C,0.0396*%
%ADD49C,0.0120*%
%ADD50C,0.0357*%
%ADD51C,0.0160*%
%ADD52C,0.0240*%
%ADD53R,0.0396X0.0396*%
%ADD54C,0.0260*%
D10*
X016676Y009496D03*
X016833Y009496D03*
X016990Y009496D03*
X017148Y009496D03*
X017305Y009496D03*
X017463Y009496D03*
X017620Y009496D03*
X017778Y009496D03*
X017935Y009496D03*
X018093Y009496D03*
X018250Y009496D03*
X018408Y009496D03*
X018565Y009496D03*
X018723Y009496D03*
X018880Y009496D03*
X019038Y009496D03*
X019195Y009496D03*
X019353Y009496D03*
X019510Y009496D03*
X019668Y009496D03*
X019825Y009496D03*
X019983Y009496D03*
X020140Y009496D03*
X020298Y009496D03*
X020455Y009496D03*
X020455Y014771D03*
X020298Y014771D03*
X020140Y014771D03*
X019983Y014771D03*
X019825Y014771D03*
X019668Y014771D03*
X019510Y014771D03*
X019353Y014771D03*
X019195Y014771D03*
X019038Y014771D03*
X018880Y014771D03*
X018723Y014771D03*
X018565Y014771D03*
X018408Y014771D03*
X018250Y014771D03*
X018093Y014771D03*
X017935Y014771D03*
X017778Y014771D03*
X017620Y014771D03*
X017463Y014771D03*
X017305Y014771D03*
X017148Y014771D03*
X016990Y014771D03*
X016833Y014771D03*
X016676Y014771D03*
D11*
X015927Y014023D03*
X015927Y013866D03*
X015927Y013709D03*
X015927Y013551D03*
X015927Y013394D03*
X015927Y013236D03*
X015927Y013079D03*
X015927Y012921D03*
X015927Y012764D03*
X015927Y012606D03*
X015927Y012449D03*
X015927Y012291D03*
X015927Y012134D03*
X015927Y011976D03*
X015927Y011819D03*
X015927Y011661D03*
X015927Y011504D03*
X015927Y011346D03*
X015927Y011189D03*
X015927Y011031D03*
X015927Y010874D03*
X015927Y010716D03*
X015927Y010559D03*
X015927Y010401D03*
X015927Y010244D03*
X021203Y010244D03*
X021203Y010401D03*
X021203Y010559D03*
X021203Y010716D03*
X021203Y010874D03*
X021203Y011031D03*
X021203Y011189D03*
X021203Y011346D03*
X021203Y011504D03*
X021203Y011661D03*
X021203Y011819D03*
X021203Y011976D03*
X021203Y012134D03*
X021203Y012291D03*
X021203Y012449D03*
X021203Y012606D03*
X021203Y012764D03*
X021203Y012921D03*
X021203Y013079D03*
X021203Y013236D03*
X021203Y013394D03*
X021203Y013551D03*
X021203Y013709D03*
X021203Y013866D03*
X021203Y014023D03*
D12*
X023019Y015734D03*
X023531Y015734D03*
X022831Y012454D03*
X022319Y012454D03*
X022119Y007994D03*
X022631Y007994D03*
X013031Y005994D03*
X012519Y005994D03*
X055559Y026194D03*
X056071Y026194D03*
D13*
X023485Y011624D03*
X022186Y011624D03*
D14*
X024575Y009050D03*
X024575Y008538D03*
X020135Y008050D03*
X020135Y007538D03*
X017135Y007538D03*
X017135Y008050D03*
X016135Y008538D03*
X016135Y009050D03*
D15*
X017917Y008206D03*
X017917Y007301D03*
X019374Y007301D03*
X019374Y008206D03*
D16*
X021435Y008394D03*
X021435Y009394D03*
D17*
X008435Y009524D03*
X008435Y010524D03*
X008435Y011524D03*
X028425Y015794D03*
X029425Y015794D03*
X030425Y015794D03*
X030465Y027494D03*
X029465Y027494D03*
X028465Y027494D03*
D18*
X011375Y019591D02*
X011375Y018997D01*
X010375Y018997D02*
X010375Y019591D01*
X007575Y019591D02*
X007575Y018997D01*
X006575Y018997D02*
X006575Y019591D01*
X003875Y019591D02*
X003875Y018997D01*
X002875Y018997D02*
X002875Y019591D01*
X010735Y011101D02*
X010735Y010507D01*
X011735Y010507D02*
X011735Y011101D01*
X012735Y011101D02*
X012735Y010507D01*
X026475Y010797D02*
X026475Y011391D01*
X027475Y011391D02*
X027475Y010797D01*
X028475Y010797D02*
X028475Y011391D01*
X029475Y011391D02*
X029475Y010797D01*
X030475Y010797D02*
X030475Y011391D01*
X031475Y011391D02*
X031475Y010797D01*
X032475Y010797D02*
X032475Y011391D01*
X033475Y011391D02*
X033475Y010797D01*
X034475Y010797D02*
X034475Y011391D01*
X035475Y011391D02*
X035475Y010797D01*
X036475Y010797D02*
X036475Y011391D01*
X037475Y011391D02*
X037475Y010797D01*
X038475Y010797D02*
X038475Y011391D01*
X039475Y011391D02*
X039475Y010797D01*
X040475Y010797D02*
X040475Y011391D01*
X041475Y011391D02*
X041475Y010797D01*
X030175Y018547D02*
X030175Y019141D01*
X029175Y019141D02*
X029175Y018547D01*
X028175Y018547D02*
X028175Y019141D01*
D19*
X022261Y015764D03*
X021670Y015764D03*
X012975Y004989D03*
X012975Y004398D03*
D20*
X011485Y005974D03*
X010575Y005974D03*
X009665Y005974D03*
D21*
X010575Y008414D03*
D22*
X011875Y004294D03*
X034685Y004504D03*
D23*
X034685Y002504D03*
X009875Y004294D03*
D24*
X010919Y013959D03*
X011431Y013959D03*
X011175Y014628D03*
X009631Y023420D03*
X009375Y023420D03*
X009119Y023420D03*
X009119Y024168D03*
X009631Y024168D03*
X006231Y024368D03*
X005719Y024368D03*
X005719Y023620D03*
X005975Y023620D03*
X006231Y023620D03*
X003331Y023520D03*
X003075Y023520D03*
X002819Y023520D03*
X002819Y024268D03*
X003331Y024268D03*
D25*
X003375Y025594D02*
X003375Y026194D01*
X002375Y026194D02*
X002375Y025594D01*
X005775Y025594D02*
X005775Y026194D01*
X006775Y026194D02*
X006775Y025594D01*
X008975Y025494D02*
X008975Y026094D01*
X009975Y026094D02*
X009975Y025494D01*
X033125Y019144D02*
X033125Y018544D01*
X034125Y018544D02*
X034125Y019144D01*
X033965Y023734D02*
X033965Y024334D01*
X034965Y024334D02*
X034965Y023734D01*
X058905Y025244D02*
X059505Y025244D01*
X059505Y026244D02*
X058905Y026244D01*
X042255Y006944D02*
X042255Y006344D01*
X041255Y006344D02*
X041255Y006944D01*
X040255Y006944D02*
X040255Y006344D01*
X039255Y006344D02*
X039255Y006944D01*
X038255Y006944D02*
X038255Y006344D01*
X037255Y006344D02*
X037255Y006944D01*
D26*
X041285Y003804D03*
X042405Y003804D03*
X050105Y011644D03*
X051225Y011644D03*
X045945Y013884D03*
X044825Y013884D03*
X038235Y019394D03*
X037115Y019394D03*
X033335Y022094D03*
X032215Y022094D03*
X027105Y025394D03*
X025985Y025394D03*
X023705Y022914D03*
X022585Y022914D03*
X022575Y021934D03*
X023695Y021934D03*
X023355Y020674D03*
X022235Y020674D03*
X011435Y017294D03*
X010315Y017294D03*
X007635Y017294D03*
X006515Y017294D03*
X003935Y017294D03*
X002815Y017294D03*
X006715Y021374D03*
X007835Y021374D03*
X005175Y022044D03*
X004055Y022044D03*
X012715Y013174D03*
X013835Y013174D03*
X046945Y026704D03*
X048065Y026704D03*
D27*
X062535Y023444D03*
X062555Y019294D03*
X062625Y016224D03*
X032385Y027314D03*
X026645Y027574D03*
X017345Y017634D03*
X007935Y014374D03*
X005295Y014494D03*
X012845Y003564D03*
X015905Y002564D03*
D28*
X051285Y007134D03*
X061605Y007214D03*
X056625Y015264D03*
X056425Y020324D03*
X029185Y025044D03*
X028075Y024144D03*
X028075Y023144D03*
X028075Y022144D03*
X028075Y021144D03*
X025075Y021144D03*
X025075Y022144D03*
X025075Y023144D03*
X025075Y024144D03*
X017455Y022864D03*
X016285Y024594D03*
X013665Y027914D03*
X019165Y027924D03*
X021205Y027944D03*
X023155Y028094D03*
X024515Y027494D03*
X024965Y019514D03*
D29*
X024165Y019514D03*
X018255Y022864D03*
X017085Y024594D03*
X018365Y027924D03*
X020405Y027944D03*
X022355Y028094D03*
X025315Y027494D03*
X029185Y025844D03*
X012865Y027914D03*
X050835Y010024D03*
X050835Y009024D03*
X052085Y007134D03*
X062405Y007214D03*
X062155Y009444D03*
X062155Y010444D03*
X056625Y016064D03*
X056425Y019524D03*
X056395Y021304D03*
X056395Y022304D03*
D30*
X039735Y022194D02*
X039215Y022194D01*
X039215Y023194D02*
X039735Y023194D01*
X036735Y023194D02*
X036215Y023194D01*
X036215Y022194D02*
X036735Y022194D01*
X036735Y021194D02*
X036215Y021194D01*
X039215Y021194D02*
X039735Y021194D01*
X038775Y017854D02*
X038775Y017334D01*
X037775Y017334D02*
X037775Y017854D01*
X036775Y017854D02*
X036775Y017334D01*
D31*
X042925Y016034D03*
X042925Y014914D03*
X049885Y004554D03*
X049885Y003434D03*
X009575Y014034D03*
X009575Y015154D03*
X002325Y021174D03*
X002325Y022294D03*
D32*
X018254Y021044D03*
X019356Y021044D03*
X003796Y012994D03*
X002694Y012994D03*
X007754Y006534D03*
X008856Y006534D03*
X041754Y019844D03*
X042856Y019844D03*
D33*
X027405Y002564D03*
X025405Y002564D03*
X019905Y002564D03*
D34*
X029685Y005524D03*
X030685Y005524D03*
X030685Y006824D03*
X029685Y006824D03*
D35*
X027835Y005674D03*
X032535Y005674D03*
D36*
X023045Y024460D03*
X022545Y024460D03*
X022045Y024460D03*
X021545Y024460D03*
X020055Y024290D03*
X019555Y024290D03*
X019055Y024290D03*
X018555Y024290D03*
X017465Y026200D03*
X016965Y026200D03*
X016465Y026200D03*
X015965Y026200D03*
X018555Y026337D03*
X019055Y026337D03*
X019555Y026337D03*
X020055Y026337D03*
X021545Y026507D03*
X022045Y026507D03*
X022545Y026507D03*
X023045Y026507D03*
X017465Y028247D03*
X016965Y028247D03*
X016465Y028247D03*
X015965Y028247D03*
D37*
X020625Y022905D03*
X020625Y021803D03*
X049965Y007225D03*
X049965Y006123D03*
D38*
X006435Y007054D03*
D39*
X006435Y009054D03*
X006435Y011054D03*
X006435Y013054D03*
D40*
X012483Y014390D03*
X012483Y014646D03*
X012483Y014902D03*
X012483Y015158D03*
X014147Y015158D03*
X014147Y014902D03*
X014147Y014646D03*
X014147Y014390D03*
D41*
X003355Y003619D02*
X003355Y002629D01*
X004915Y002629D02*
X004915Y003619D01*
X006475Y003619D02*
X006475Y002629D01*
X008035Y002629D02*
X008035Y003619D01*
X003340Y009164D02*
X002350Y009164D01*
X002350Y010724D02*
X003340Y010724D01*
X051220Y015704D02*
X052210Y015704D01*
X052210Y017264D02*
X051220Y017264D01*
X051220Y018824D02*
X052210Y018824D01*
X052210Y020384D02*
X051220Y020384D01*
X051220Y021944D02*
X052210Y021944D01*
X052210Y023504D02*
X051220Y023504D01*
X051220Y025064D02*
X052210Y025064D01*
X052210Y026624D02*
X051220Y026624D01*
X059700Y022074D02*
X060690Y022074D01*
X060690Y020514D02*
X059700Y020514D01*
X059810Y016884D02*
X060800Y016884D01*
X060800Y015324D02*
X059810Y015324D01*
X059265Y004499D02*
X059265Y003509D01*
X057705Y003509D02*
X057705Y004499D01*
X056145Y004499D02*
X056145Y003509D01*
X054585Y003509D02*
X054585Y004499D01*
X053025Y004499D02*
X053025Y003509D01*
X051465Y003509D02*
X051465Y004499D01*
X060825Y004499D02*
X060825Y003509D01*
X062385Y003509D02*
X062385Y004499D01*
D42*
X053185Y009474D03*
D43*
X054525Y009474D03*
X055865Y009474D03*
X057215Y009464D03*
X058535Y009474D03*
X059875Y009474D03*
X059195Y011484D03*
X057875Y011484D03*
X056515Y011484D03*
X055225Y011484D03*
X053835Y011474D03*
D44*
X053215Y007094D03*
X060215Y007094D03*
D45*
X060215Y007664D01*
X059375Y008504D01*
X059375Y009344D01*
X058235Y010484D01*
X058235Y011124D01*
X057875Y011484D01*
X059195Y011484D02*
X059195Y010154D01*
X059875Y009474D01*
X057215Y009464D02*
X055585Y009464D01*
X053215Y007094D01*
X052825Y006704D01*
X050905Y006704D01*
X050384Y007225D01*
X049965Y007225D01*
X049435Y006524D02*
X049445Y008144D01*
X051585Y008184D01*
X051585Y010724D01*
X051225Y011644D01*
X053565Y011744D01*
X053835Y011474D01*
X054525Y010784D02*
X055225Y011484D01*
X054525Y010784D02*
X054525Y009474D01*
X054425Y009474D01*
X052085Y007134D01*
X051485Y006074D02*
X051555Y006004D01*
X055195Y006004D01*
X056145Y004214D02*
X057365Y005434D01*
X058555Y005434D01*
X060215Y007094D01*
X060785Y008164D01*
X063125Y008164D01*
X063125Y006364D01*
X063105Y006344D01*
X063105Y005844D01*
X062315Y005054D01*
X062315Y004074D01*
X062385Y004004D01*
X060495Y005304D02*
X058965Y005304D01*
X057705Y004044D01*
X057705Y004004D01*
X056145Y004004D02*
X056145Y004214D01*
X056145Y004004D02*
X053975Y001834D01*
X051045Y001834D01*
X049885Y002994D01*
X049885Y003434D01*
X049885Y004554D02*
X049885Y006043D01*
X049965Y006123D01*
X049534Y006103D01*
X049435Y006524D01*
X050835Y009024D02*
X050115Y009764D01*
X050105Y011644D01*
X055865Y009474D02*
X057205Y009474D01*
X057215Y009464D01*
X060495Y005304D02*
X062405Y007214D01*
X036775Y017594D02*
X036775Y019054D01*
X037115Y019394D01*
X038235Y019394D02*
X039475Y020634D01*
X039475Y021194D01*
X039305Y022024D02*
X038025Y022024D01*
X037195Y021194D01*
X036475Y021194D01*
X039305Y022024D02*
X039475Y022194D01*
X041375Y022194D01*
X041515Y022054D01*
X033115Y026484D02*
X029675Y025144D01*
X029205Y025084D01*
X029185Y025044D01*
X029165Y024954D01*
X027905Y024854D02*
X027905Y025574D01*
X028175Y025844D01*
X027115Y025974D02*
X027105Y025394D01*
X027115Y025974D02*
X032385Y027314D01*
X033115Y026484D02*
X033105Y028634D01*
X030615Y028634D01*
X028565Y028614D01*
X028145Y028584D01*
X028465Y027494D02*
X027175Y026274D01*
X025745Y026274D01*
X025075Y025604D01*
X025075Y024144D01*
X024115Y022824D02*
X023705Y022914D01*
X025075Y021144D02*
X024875Y020094D01*
X024165Y019514D01*
X027475Y022194D02*
X028075Y022144D01*
X028075Y022194D01*
X027475Y022194D02*
X027105Y023534D01*
X028045Y023174D02*
X028075Y023144D01*
X026565Y027494D02*
X025315Y027494D01*
X026565Y027494D02*
X026645Y027574D01*
X015075Y018954D02*
X012815Y021214D01*
X012815Y022314D02*
X011445Y023684D01*
X010195Y023684D01*
X009711Y024168D01*
X009631Y024168D01*
X009375Y023894D02*
X009119Y023638D01*
X009365Y023410D02*
X009375Y023420D01*
X009365Y023410D02*
X009365Y023094D01*
X009545Y022914D01*
X010195Y022914D01*
X010575Y023294D01*
X009631Y023420D02*
X009575Y023476D01*
X009575Y023694D01*
X009375Y023894D01*
X009375Y024594D01*
X008975Y024994D01*
X008975Y025794D01*
X008075Y026694D01*
X006075Y026694D01*
X005775Y026394D01*
X005775Y025894D01*
X005719Y024638D02*
X005719Y024368D01*
X005775Y023994D02*
X005675Y023894D01*
X005675Y023664D01*
X005719Y023620D01*
X005719Y023338D01*
X005575Y023194D01*
X003375Y023194D01*
X003375Y023476D01*
X003331Y023520D01*
X003375Y023194D02*
X003395Y022994D01*
X002809Y023030D02*
X002775Y022994D01*
X002809Y023030D02*
X002819Y023520D01*
X002819Y024268D02*
X002819Y024538D01*
X002975Y024694D01*
X005775Y023994D02*
X006175Y023994D01*
X006231Y023938D01*
X006231Y023620D01*
X005975Y023620D02*
X005975Y022994D01*
X006175Y022994D01*
X007325Y022684D02*
X008135Y022844D01*
X007325Y022684D02*
X007325Y022064D01*
X009125Y022854D02*
X009365Y023094D01*
X009119Y024168D02*
X008493Y024794D01*
X009975Y024754D02*
X010575Y024154D01*
X009975Y024754D02*
X009975Y025794D01*
X015075Y018954D02*
X015075Y018364D01*
X010530Y014819D02*
X010165Y015184D01*
X009605Y015184D01*
X009575Y015154D01*
X010530Y014819D02*
X010919Y014430D01*
X010919Y013959D01*
X010825Y013865D01*
X010825Y013384D01*
X011645Y013264D02*
X012625Y013264D01*
X012715Y013174D01*
X010865Y015154D02*
X010530Y014819D01*
X010865Y015154D02*
X011135Y015154D01*
X011985Y015154D02*
X011990Y015158D01*
X012483Y015158D01*
X013011Y015158D01*
X013015Y015154D01*
X016833Y014771D02*
X016833Y014306D01*
X016955Y014184D01*
X016955Y014164D01*
X020075Y011234D01*
X022735Y010314D02*
X022795Y010314D01*
X023475Y009704D01*
X025355Y009244D02*
X025535Y009244D01*
X025865Y009184D01*
X022631Y007994D02*
X022631Y007630D01*
X022475Y007474D01*
X020799Y007474D01*
X020445Y007828D01*
X020135Y007538D02*
X020135Y006924D01*
X019935Y006724D01*
X017065Y006724D01*
X016635Y007154D01*
X016635Y007794D01*
X016891Y008050D01*
X017135Y008050D01*
X016995Y008064D01*
X016825Y008060D01*
X019311Y008194D02*
X019374Y008206D01*
X014175Y005674D02*
X013445Y005674D01*
X013095Y005584D02*
X013475Y005194D01*
X013475Y004594D01*
X013275Y004394D01*
X012980Y004394D01*
X012975Y004398D01*
X012975Y004989D02*
X012955Y005009D01*
X012955Y005284D01*
X012971Y004994D02*
X012975Y004989D01*
X013095Y005584D02*
X012595Y005584D01*
X012519Y005650D01*
X012519Y005994D01*
X012975Y006050D02*
X012975Y006194D01*
X012775Y006394D01*
X011875Y006394D01*
X011485Y006004D01*
X011485Y005974D01*
X011875Y005584D01*
X011875Y004294D01*
X012845Y003564D01*
X011075Y005194D02*
X010575Y005694D01*
X012975Y006050D02*
X013031Y005994D01*
X003796Y011675D02*
X002845Y010724D01*
X003796Y011675D02*
X003796Y012994D01*
X003215Y013824D02*
X002694Y013303D01*
X002694Y012994D01*
X003215Y013824D02*
X004235Y013824D01*
X005155Y012904D01*
X006285Y012904D01*
X006435Y013054D01*
X055285Y022394D02*
X056071Y023180D01*
X056071Y026194D01*
X055559Y026194D02*
X055515Y026238D01*
X055515Y026694D01*
X055765Y026944D01*
X056255Y026944D01*
X056585Y026614D01*
X056585Y026244D01*
D46*
X048075Y026694D02*
X048065Y026704D01*
X042856Y019844D02*
X042635Y019623D01*
X042635Y019184D01*
X042485Y019034D01*
X041765Y019034D01*
X041115Y019464D02*
X041115Y017844D01*
X042925Y016034D01*
X040985Y015594D02*
X040975Y015634D01*
X040685Y015974D01*
X032075Y015964D01*
X031315Y016884D01*
X026485Y016884D01*
X025745Y017624D01*
X024955Y017624D01*
X023725Y018854D01*
X019685Y018844D01*
X020275Y018694D02*
X019085Y017704D01*
X019675Y017484D02*
X019675Y014749D01*
X019668Y014771D01*
X019825Y014771D02*
X019825Y017394D01*
X020385Y018294D01*
X023275Y018294D01*
X026615Y014974D01*
X040255Y014974D01*
X041445Y013854D01*
X041695Y013664D01*
X042295Y013734D02*
X040345Y015464D01*
X031685Y015464D01*
X031035Y016334D01*
X026175Y016324D01*
X026395Y016524D02*
X025921Y016984D01*
X025581Y016694D01*
X025921Y016984D02*
X025435Y017454D01*
X024825Y017454D01*
X023535Y018694D01*
X020275Y018694D01*
X020345Y018504D02*
X019675Y017484D01*
X019975Y017334D02*
X019975Y014744D01*
X019983Y014771D01*
X020135Y014747D02*
X020140Y014771D01*
X020135Y014747D02*
X020135Y017274D01*
X020525Y017944D01*
X023055Y017944D01*
X026495Y014504D01*
X039295Y014504D01*
X039475Y014324D01*
X039475Y011094D01*
X040475Y011094D02*
X040475Y014394D01*
X040175Y014694D01*
X026575Y014694D01*
X023175Y018094D01*
X020445Y018094D01*
X019975Y017334D01*
X018155Y016524D02*
X018155Y015634D01*
X018185Y015504D01*
X018093Y015301D01*
X018093Y014771D01*
X018095Y014439D01*
X018095Y014034D01*
X017835Y014034D01*
X017835Y013784D01*
X018205Y013404D01*
X018250Y013849D02*
X018250Y014771D01*
X017935Y014771D02*
X017935Y014742D01*
X017935Y016194D01*
X017845Y016274D01*
X017835Y016334D01*
X017785Y016554D01*
X017545Y016244D02*
X017155Y016634D01*
X016805Y016634D01*
X015075Y018364D01*
X011431Y016458D02*
X011295Y016594D01*
X011431Y016458D02*
X011431Y013959D01*
X011571Y013959D01*
X011585Y013934D01*
X011685Y013814D01*
X011825Y013784D01*
X012545Y013344D02*
X012715Y013174D01*
X013365Y013804D02*
X013635Y014014D01*
X014145Y014014D01*
X014195Y014009D01*
X014147Y014078D01*
X014147Y014390D01*
X014143Y014394D01*
X013855Y014394D01*
X013685Y014564D01*
X013685Y014624D01*
X013585Y014524D01*
X012935Y014524D01*
X012802Y014390D01*
X012483Y014390D01*
X012483Y014646D01*
X013007Y014902D02*
X013055Y014854D01*
X013145Y014854D01*
X014147Y014902D02*
X015317Y014902D01*
X015875Y014264D01*
X015927Y014023D02*
X015406Y014023D01*
X015405Y014134D01*
X015465Y014204D01*
X015245Y013864D02*
X015815Y013864D01*
X015927Y013866D01*
X015927Y013709D02*
X015793Y013704D01*
X015185Y013704D01*
X014840Y013959D01*
X014420Y013959D01*
X014375Y014004D01*
X014195Y014009D01*
X014165Y013784D02*
X014345Y013794D01*
X014485Y013654D01*
X014675Y013654D01*
X014695Y013634D01*
X014965Y013634D01*
X015055Y013544D01*
X015920Y013544D01*
X015927Y013551D01*
X015927Y013394D02*
X015315Y013394D01*
X015295Y013374D01*
X014855Y013374D01*
X014745Y012984D02*
X015085Y012864D01*
X015305Y012864D01*
X015475Y013074D01*
X015823Y013084D01*
X015830Y013234D02*
X015415Y013234D01*
X015335Y013124D01*
X015215Y013124D01*
X014745Y012984D02*
X014435Y013154D01*
X014225Y013274D01*
X013835Y013174D01*
X013835Y013254D01*
X013835Y013694D01*
X013835Y013174D02*
X013845Y012584D01*
X014405Y012864D02*
X014965Y012464D01*
X014965Y011754D01*
X015095Y011614D01*
X015095Y010994D01*
X014655Y010624D01*
X014655Y009524D01*
X014735Y009534D01*
X015325Y008984D02*
X015315Y010444D01*
X015505Y010874D01*
X015907Y010874D01*
X015927Y010874D01*
X016935Y010884D01*
X017045Y011164D01*
X017045Y010834D01*
X017555Y011114D01*
X018175Y011114D01*
X018415Y010174D01*
X018415Y009473D01*
X018408Y009496D01*
X018565Y009496D02*
X018565Y008009D01*
X017917Y007301D01*
X017854Y007394D01*
X017435Y007394D01*
X017291Y007538D01*
X017135Y007538D01*
X016825Y008624D02*
X015735Y007534D01*
X015515Y007534D01*
X015245Y007264D01*
X014725Y006984D02*
X017495Y004194D01*
X021545Y004194D01*
X022705Y003034D01*
X037685Y003054D01*
X039255Y004644D01*
X039255Y006644D01*
X038255Y006644D02*
X038245Y006654D01*
X038245Y007554D01*
X037875Y007924D01*
X037525Y007924D01*
X036985Y008464D02*
X036985Y012884D01*
X037475Y013194D02*
X037225Y013844D01*
X021455Y013864D01*
X021203Y013866D01*
X021203Y013709D02*
X021088Y013704D01*
X035365Y013694D01*
X036475Y012554D01*
X036475Y011094D01*
X035475Y011094D02*
X035475Y012184D01*
X034595Y013064D01*
X021945Y013104D01*
X021815Y013094D01*
X021068Y013074D01*
X021203Y013079D01*
X021203Y012921D02*
X021100Y012924D01*
X030905Y012894D01*
X030975Y012794D01*
X034115Y012794D01*
X034475Y012434D01*
X034475Y011094D01*
X033475Y011094D02*
X033475Y009574D01*
X033405Y009504D01*
X025825Y009504D01*
X024475Y010854D01*
X021715Y010854D01*
X021515Y011034D01*
X021075Y011034D01*
X021203Y011031D01*
X021203Y011189D02*
X021088Y011184D01*
X021635Y011184D01*
X021825Y011004D01*
X024535Y011004D01*
X025825Y009714D01*
X032245Y009714D01*
X032475Y009944D01*
X032475Y011094D01*
X031475Y011094D02*
X031475Y010024D01*
X029475Y011094D02*
X029475Y011834D01*
X029285Y012024D01*
X027715Y012024D01*
X027490Y011799D01*
X027255Y012034D01*
X025295Y012034D01*
X025035Y011894D01*
X024225Y011314D02*
X023945Y011594D01*
X023485Y011624D01*
X022851Y012217D01*
X022831Y012454D01*
X022319Y012454D02*
X022329Y011767D01*
X022186Y011624D01*
X021928Y011651D01*
X021203Y011661D01*
X021203Y011819D02*
X021520Y011829D01*
X021755Y011894D01*
X021203Y011819D02*
X021078Y011814D01*
X020375Y011834D01*
X020308Y011971D01*
X020298Y014771D01*
X020295Y014779D01*
X020295Y015234D01*
X020375Y015374D01*
X020375Y015514D01*
X020648Y014741D02*
X021670Y015764D01*
X022261Y015764D02*
X022989Y015764D01*
X023019Y015734D01*
X023531Y015734D02*
X023531Y016038D01*
X023905Y016694D01*
X026395Y016524D02*
X031115Y016524D01*
X031835Y015674D01*
X040435Y015674D01*
X042785Y013704D01*
X038475Y013434D02*
X037855Y014014D01*
X021143Y014014D01*
X021203Y014023D01*
X020648Y014741D02*
X020455Y014771D01*
X018565Y014771D02*
X018555Y016124D01*
X017775Y015684D02*
X017545Y015914D01*
X017545Y016244D01*
X017035Y016164D02*
X017025Y016164D01*
X016995Y016144D01*
X016995Y014756D01*
X016990Y014771D01*
X016676Y014771D02*
X016576Y015343D01*
X015665Y016254D01*
X015185Y015734D02*
X014865Y015934D01*
X014045Y015934D01*
X014675Y015694D02*
X014845Y015684D01*
X015075Y015634D01*
X020258Y010411D01*
X021203Y010401D01*
X021203Y010244D02*
X021073Y010244D01*
X020135Y010264D01*
X015255Y015244D01*
X015165Y015164D01*
X015095Y015244D01*
X015065Y015274D01*
X015075Y015274D01*
X014755Y015434D01*
X014775Y015434D01*
X014755Y015434D02*
X014175Y015424D01*
X014147Y015158D02*
X014580Y015158D01*
X014595Y015174D01*
X015185Y015734D02*
X020325Y010554D01*
X021068Y010564D01*
X021203Y010559D01*
X020465Y009864D02*
X020185Y009984D01*
X018895Y009984D01*
X018870Y009869D01*
X018880Y009496D01*
X018723Y009496D02*
X018723Y008506D01*
X018935Y008194D01*
X019311Y008194D01*
X019374Y008206D02*
X020135Y008050D01*
X020445Y007828D02*
X020135Y007538D01*
X020445Y007828D02*
X020455Y009214D01*
X020465Y009314D01*
X020455Y009496D01*
X020465Y009516D01*
X020465Y009864D01*
X020298Y009496D02*
X020305Y009428D01*
X020305Y008574D01*
X020175Y008564D01*
X019945Y008804D02*
X019905Y008854D01*
X019935Y008894D01*
X020145Y009004D01*
X020145Y009451D01*
X020140Y009496D01*
X021185Y008814D02*
X021435Y009064D01*
X021435Y009394D01*
X021465Y009424D01*
X022035Y009424D01*
X024359Y009420D01*
X024575Y009050D01*
X025015Y008978D02*
X024575Y008538D01*
X024031Y007994D01*
X022631Y007994D01*
X022119Y007994D02*
X022005Y007994D01*
X021605Y008394D01*
X021435Y008394D01*
X020935Y008394D01*
X020775Y008564D01*
X017915Y008684D02*
X017620Y008979D01*
X017620Y009496D01*
X017463Y009496D02*
X017455Y009454D01*
X017465Y008574D01*
X017395Y008564D01*
X017145Y008934D02*
X016835Y008624D01*
X016825Y008624D01*
X017145Y008934D02*
X017145Y009493D01*
X017148Y009496D01*
X017305Y009496D02*
X017305Y010144D01*
X017555Y011114D01*
X017465Y011254D02*
X017915Y011474D01*
X017465Y011254D02*
X017295Y011264D01*
X017045Y011164D02*
X017045Y012204D01*
X016955Y012294D01*
X015850Y012284D01*
X015455Y012284D01*
X015405Y012214D01*
X015305Y012454D02*
X015375Y012634D01*
X015305Y012454D02*
X015813Y012454D01*
X015927Y012449D01*
X015927Y012291D02*
X016843Y012291D01*
X015927Y012291D02*
X015850Y012284D01*
X015305Y012454D02*
X015255Y012434D01*
X015155Y012354D01*
X015155Y012064D01*
X015385Y011094D01*
X015418Y011031D01*
X015927Y011031D01*
X015373Y011031D01*
X015075Y010664D01*
X015862Y011194D02*
X015927Y011189D01*
X015862Y011194D02*
X016805Y011194D01*
X017685Y010684D02*
X017745Y010294D01*
X017795Y010174D01*
X017785Y010164D01*
X017785Y009503D01*
X017778Y009496D01*
X017935Y009496D02*
X017935Y009496D01*
X017935Y010374D01*
X018035Y010474D01*
X018035Y010564D01*
X016676Y009496D02*
X016165Y009304D01*
X016135Y009050D01*
X016135Y008538D02*
X015631Y008538D01*
X012975Y006212D01*
X012975Y006194D01*
X011895Y008344D02*
X010645Y008344D01*
X010575Y008414D01*
X009745Y008414D01*
X009555Y008604D01*
X010575Y008414D02*
X010905Y008744D01*
X011895Y008344D02*
X012295Y008744D01*
X015325Y008984D02*
X015631Y008538D01*
X012735Y010804D02*
X011745Y012014D01*
X009575Y014034D01*
X007095Y015674D02*
X006515Y016264D01*
X006515Y017294D01*
X006515Y017294D01*
X003935Y017294D02*
X003935Y017854D01*
X003405Y018384D01*
X003405Y020104D01*
X004700Y021399D01*
X004725Y021374D01*
X004055Y022114D02*
X003395Y022994D01*
X002775Y022994D02*
X002325Y022444D01*
X002325Y022294D01*
X003075Y021924D02*
X002325Y021174D01*
X001935Y020784D01*
X001935Y016544D01*
X002225Y016254D01*
X002875Y016124D02*
X003605Y015414D01*
X002875Y016124D02*
X002875Y017294D01*
X010315Y017294D02*
X010315Y016564D01*
X010945Y015934D01*
X014147Y014646D02*
X014903Y014646D01*
X015095Y014454D01*
X014775Y014224D02*
X015245Y013864D01*
X014775Y014224D02*
X014585Y014224D01*
X015927Y013709D02*
X016290Y013709D01*
X016445Y013514D01*
X016395Y013374D01*
X016595Y013134D01*
X016805Y013134D01*
X016395Y013374D02*
X016265Y013244D01*
X015830Y013234D01*
X015927Y013236D01*
X015927Y013394D02*
X015927Y013394D01*
X017615Y014766D02*
X017620Y014771D01*
X017615Y014766D02*
X017615Y015134D01*
X017605Y015184D01*
X017485Y015454D01*
X017775Y015684D02*
X017775Y014774D01*
X017778Y014771D01*
X024965Y015034D02*
X025705Y014264D01*
X035575Y014264D01*
X037475Y013194D02*
X037475Y011094D01*
X038475Y011094D02*
X038475Y013434D01*
X037805Y015234D02*
X037795Y015234D01*
X037665Y015254D01*
X026665Y015254D01*
X023415Y018504D01*
X020345Y018504D01*
X023355Y020674D02*
X023695Y021014D01*
X023695Y021934D01*
X034125Y018844D02*
X034175Y018894D01*
X037775Y017594D02*
X037795Y017604D01*
X037805Y016224D01*
X041115Y019464D02*
X041495Y019844D01*
X041754Y019844D01*
X041515Y020083D01*
X027490Y011799D02*
X027465Y011774D01*
X027465Y011104D01*
X027475Y011094D01*
X026525Y011044D02*
X026475Y011094D01*
X026525Y011044D02*
X026525Y010624D01*
X026185Y010284D01*
X026525Y010624D02*
X026835Y010314D01*
X028285Y010314D01*
X028475Y010504D01*
X028475Y011094D01*
X028895Y010674D01*
X028905Y010024D01*
X025015Y009894D02*
X025015Y009434D01*
X025015Y008978D01*
X025015Y009434D02*
X024415Y010034D01*
X024415Y010294D01*
X024225Y010484D01*
X024665Y010274D02*
X024735Y010174D01*
X025015Y009894D01*
X021785Y006874D02*
X021175Y006874D01*
X021785Y006874D02*
X022415Y006244D01*
X025085Y006244D01*
X026945Y004384D01*
X028865Y004384D01*
X029595Y005114D01*
X029725Y005374D01*
X029685Y005524D01*
X037255Y006644D02*
X037255Y009664D01*
X037595Y010004D01*
X040665Y010004D01*
X040985Y010324D01*
X041295Y009854D02*
X041575Y009854D01*
X042745Y010934D01*
X042295Y010174D02*
X042505Y009964D01*
X042485Y009964D01*
X042255Y009654D01*
X042255Y006644D01*
X042405Y006494D01*
X042405Y003804D01*
X041285Y003804D02*
X041285Y006614D01*
X041255Y006644D01*
X041255Y009814D01*
X041295Y009854D01*
X011105Y021054D02*
X010775Y021054D01*
X009955Y021904D01*
X005975Y022994D02*
X005175Y022194D01*
X003075Y021924D02*
X003075Y023520D01*
X003331Y024268D02*
X003331Y025850D01*
X003375Y025894D01*
X006231Y024368D02*
X006499Y024368D01*
X006505Y024374D01*
X008483Y024794D02*
X008493Y024794D01*
X010485Y024804D02*
X010725Y025044D01*
X010795Y025044D01*
X012685Y026934D01*
X012815Y026934D01*
X013665Y027784D01*
X013665Y027914D01*
X012865Y027914D02*
X009295Y027914D01*
X008785Y027404D01*
D47*
X008493Y024794D03*
X008483Y024794D03*
X010485Y024804D03*
X010575Y024154D03*
X010575Y023294D03*
X009125Y022854D03*
X008135Y022844D03*
X009955Y021904D03*
X011105Y021054D03*
X012815Y021214D03*
X012815Y022314D03*
X006505Y024374D03*
X005719Y024638D03*
X002975Y024694D03*
X002775Y022994D03*
X003395Y022994D03*
X009645Y018124D03*
X008905Y017374D03*
X007675Y016594D03*
X007095Y015674D03*
X003935Y016594D03*
X002225Y016254D03*
X003605Y015414D03*
X009535Y012134D03*
X013835Y013694D03*
X014165Y013784D03*
X014585Y014224D03*
X015095Y014454D03*
X015465Y014204D03*
X015875Y014264D03*
X014855Y013374D03*
X015215Y013124D03*
X015375Y012634D03*
X014405Y012864D03*
X015405Y012214D03*
X016843Y012291D03*
X016805Y013134D03*
X018205Y013404D03*
X018250Y013849D03*
X017485Y015454D03*
X018185Y015504D03*
X018555Y016124D03*
X018155Y016524D03*
X017025Y016164D03*
X015665Y016254D03*
X014675Y015694D03*
X014595Y015174D03*
X014580Y015158D03*
X014175Y015424D03*
X013015Y015154D03*
X013145Y014854D03*
X012935Y014524D03*
X013685Y014624D03*
X014045Y015934D03*
X011295Y016594D03*
X010945Y015934D03*
X012735Y017524D03*
X011015Y018124D03*
X014115Y018684D03*
X019085Y017704D03*
X019685Y018844D03*
X023905Y016694D03*
X025581Y016694D03*
X026175Y016324D03*
X024965Y015034D03*
X020375Y015514D03*
X021755Y011894D03*
X024225Y011314D03*
X025035Y011894D03*
X024225Y010484D03*
X024665Y010274D03*
X026185Y010284D03*
X028905Y010024D03*
X031475Y010024D03*
X036985Y008464D03*
X037525Y007924D03*
X042295Y010174D03*
X040985Y010324D03*
X036985Y012884D03*
X035575Y014264D03*
X037805Y015234D03*
X037805Y016224D03*
X040985Y015594D03*
X042295Y013734D03*
X032375Y017844D03*
X031655Y019494D03*
X034175Y019694D03*
X031095Y020754D03*
X029165Y021104D03*
X029165Y022344D03*
X024515Y021584D03*
X021875Y021904D03*
X019525Y021064D03*
X025265Y020124D03*
X017895Y025174D03*
X017015Y025174D03*
X018695Y027074D03*
X018355Y027334D03*
X017845Y027974D03*
X018475Y028604D03*
X019625Y027604D03*
X023395Y025814D03*
X032535Y025764D03*
X040085Y025764D03*
X041515Y023184D03*
X041765Y019034D03*
X043475Y018494D03*
X021185Y008814D03*
X020775Y008564D03*
X020175Y008564D03*
X019945Y008804D03*
X017915Y008684D03*
X017395Y008564D03*
X016825Y008060D03*
X015245Y007264D03*
X014725Y006984D03*
X014435Y006724D03*
X013945Y006484D03*
X015105Y006064D03*
X014175Y005674D03*
X013445Y005674D03*
X012955Y005284D03*
X012175Y004994D03*
X011075Y005194D03*
X013065Y009334D03*
X014735Y009534D03*
X017685Y010684D03*
X018035Y010564D03*
X017295Y011264D03*
X016805Y011194D03*
X017915Y011474D03*
X021175Y006874D03*
X023115Y004384D03*
X023845Y003504D03*
D48*
X009555Y008604D03*
X013845Y012584D03*
X008985Y020774D03*
X007935Y020744D03*
X027905Y024854D03*
X028175Y025844D03*
X046225Y015974D03*
X042785Y013704D03*
X042745Y010934D03*
X055195Y006004D03*
D49*
X044675Y013994D02*
X043355Y012674D01*
X042885Y012674D01*
X041695Y013664D01*
X042735Y013664D02*
X042745Y013664D01*
X042785Y013704D01*
X044135Y015194D01*
X045745Y015194D01*
X046025Y014914D01*
X045945Y013884D01*
X044825Y013884D02*
X044675Y013994D01*
X042845Y013684D02*
X042755Y013684D01*
X042735Y013664D01*
X042845Y013684D02*
X042745Y013784D01*
X042925Y014914D02*
X043575Y015564D01*
X043765Y015564D01*
X044175Y015974D01*
X046225Y015974D01*
X055275Y020654D02*
X055605Y020324D01*
X056425Y020324D01*
X056585Y020164D01*
X056795Y020164D01*
X057275Y019684D01*
X057275Y018334D01*
X056555Y017614D01*
X056555Y017574D01*
X060305Y016884D02*
X060965Y016224D01*
X062625Y016224D01*
X060305Y015324D02*
X057685Y015324D01*
X057525Y015164D01*
X055275Y020654D02*
X055275Y021184D01*
X056395Y022304D01*
X056395Y021304D02*
X056495Y021204D01*
X057765Y021204D01*
X058635Y022074D01*
X060195Y022074D01*
X059205Y026244D02*
X056585Y026244D01*
X024965Y019514D02*
X024465Y019054D01*
X022625Y019054D01*
X022215Y019424D01*
X022235Y020674D01*
X020115Y020804D02*
X020115Y019684D01*
X019515Y019084D01*
X018905Y019084D01*
X017045Y020944D01*
X017045Y021564D01*
X016945Y021664D01*
X012385Y021664D01*
X012385Y020984D01*
X014275Y019094D01*
X014505Y019094D01*
X014615Y018984D01*
X014615Y018134D01*
X013115Y016634D01*
X012145Y016634D01*
X011675Y016164D01*
X011675Y014514D01*
X012545Y013644D01*
X012545Y013344D01*
X012715Y013174D02*
X012655Y013054D01*
X012545Y012494D01*
X013715Y011324D01*
X013715Y010344D01*
X013105Y009734D01*
X013105Y009374D01*
X011735Y010744D02*
X010385Y009394D01*
X009555Y009394D01*
X008445Y008284D01*
X008445Y007214D01*
X008325Y007094D01*
X008325Y006024D01*
X008565Y005784D01*
X009475Y005784D01*
X009665Y005974D01*
X008856Y006534D02*
X008856Y007745D01*
X009295Y008184D01*
X008435Y009524D02*
X007754Y008843D01*
X007754Y006534D01*
X006435Y009054D02*
X006435Y009664D01*
X007785Y011014D01*
X007785Y012424D01*
X008005Y012644D01*
X009535Y012134D02*
X009555Y012134D01*
X009575Y012154D01*
X009585Y012154D01*
X009565Y012134D01*
X009555Y012134D01*
X009535Y012134D02*
X009585Y012084D01*
X009585Y010324D01*
X008785Y009524D01*
X008435Y009524D01*
X006435Y011054D02*
X006105Y010724D01*
X002845Y010724D01*
X011735Y010804D02*
X011735Y010744D01*
X013145Y014854D02*
X013097Y014902D01*
X012483Y014902D01*
X017345Y016994D02*
X017785Y016554D01*
X017345Y016994D02*
X017345Y017634D01*
X020115Y020804D02*
X020045Y020874D01*
X020045Y022325D01*
X020625Y022905D01*
X009325Y022214D02*
X009325Y021164D01*
X008985Y020774D01*
X007935Y020744D02*
X007935Y021274D01*
X007835Y021374D01*
X007325Y022064D02*
X006715Y021454D01*
X006715Y021374D01*
X004700Y021399D02*
X004055Y022044D01*
X008805Y022734D02*
X009325Y022214D01*
X008805Y022734D02*
X008805Y023104D01*
X009119Y023418D01*
X009119Y023420D01*
X025825Y009234D02*
X025865Y009184D01*
X026205Y009204D01*
X029375Y009154D01*
X027405Y002564D02*
X027945Y002024D01*
X031745Y002024D01*
X032225Y002504D01*
X034685Y002504D01*
D50*
X029375Y009154D03*
X025355Y009244D03*
X023475Y009704D03*
X022735Y010314D03*
X020075Y011234D03*
X013365Y013804D03*
X011825Y013784D03*
X011645Y013264D03*
X010825Y013384D03*
X011135Y015154D03*
X011985Y015154D03*
X051485Y006074D03*
D51*
X057525Y015164D02*
X056625Y016064D01*
X056555Y016134D02*
X056555Y017574D01*
X055285Y022394D02*
X051715Y018824D01*
X051875Y021894D02*
X051865Y021904D01*
X051795Y021904D01*
X051825Y021934D01*
X051795Y021904D02*
X051775Y021904D01*
X051735Y021944D01*
X051715Y021944D01*
X049475Y021944D01*
X049425Y021994D01*
X048065Y026624D02*
X048065Y026704D01*
X048065Y026624D02*
X051715Y026624D01*
X036475Y022194D02*
X036125Y022194D01*
X035165Y021234D01*
X035165Y018474D01*
X034565Y017874D01*
X033815Y017874D01*
X033135Y018434D01*
X033125Y018844D01*
X032375Y017844D02*
X027545Y017844D01*
X025265Y020124D01*
X023115Y021314D02*
X023035Y021234D01*
X022735Y021234D01*
X022235Y020734D01*
X022235Y020674D01*
X021107Y021803D01*
X020625Y021803D01*
X021875Y021904D02*
X022545Y021904D01*
X022575Y021934D01*
X023115Y021314D02*
X023115Y023494D01*
X022865Y023744D01*
X020602Y023744D01*
X020055Y024290D01*
X020055Y023944D01*
X018865Y022754D01*
X018865Y022744D01*
X018445Y022324D01*
X018175Y022324D01*
X018254Y022245D01*
X018254Y021044D01*
X019335Y021023D02*
X019356Y021044D01*
X019505Y021044D01*
X019525Y021064D01*
X019335Y021023D02*
X019335Y020124D01*
X018175Y022324D02*
X017995Y022324D01*
X017455Y022864D01*
X017895Y023304D01*
X017895Y025174D01*
X017465Y024974D02*
X017085Y024594D01*
X017465Y024974D02*
X017465Y026200D01*
X016965Y026200D02*
X016965Y026724D01*
X017325Y027084D01*
X017915Y027084D01*
X018165Y027334D01*
X018355Y027334D01*
X018695Y027074D02*
X018555Y026934D01*
X018555Y026337D01*
X019055Y026337D02*
X019055Y027144D01*
X018365Y027834D01*
X018365Y027924D01*
X018042Y028247D01*
X017465Y028247D01*
X017845Y027974D02*
X017845Y027704D01*
X017615Y027474D01*
X016255Y027474D01*
X016165Y027564D01*
X016075Y027564D01*
X015975Y027664D01*
X015975Y028237D01*
X015965Y028247D01*
X013999Y028247D01*
X013665Y027914D01*
X016465Y026200D02*
X016465Y024774D01*
X016285Y024594D01*
X016965Y025224D02*
X017015Y025174D01*
X016965Y025224D02*
X016965Y026200D01*
X018555Y024894D02*
X018805Y025144D01*
X021095Y025144D01*
X021625Y025674D01*
X021825Y025674D01*
X022045Y025894D01*
X022045Y026507D01*
X021545Y026507D02*
X021545Y027284D01*
X022355Y028094D01*
X022545Y027484D02*
X023155Y028094D01*
X023955Y027914D02*
X024275Y028234D01*
X024575Y028234D01*
X025315Y027494D01*
X024545Y027464D02*
X024515Y027494D01*
X024545Y027464D02*
X024545Y025804D01*
X023202Y024460D01*
X023045Y024460D01*
X023045Y023924D01*
X022865Y023744D01*
X021545Y024460D02*
X021545Y024764D01*
X022195Y025414D01*
X022995Y025414D01*
X023395Y025814D01*
X023955Y026374D01*
X023955Y027914D01*
X022545Y027484D02*
X022545Y026507D01*
X021185Y027544D02*
X020785Y027144D01*
X019945Y027144D01*
X019555Y026754D01*
X019555Y026337D01*
X019625Y027604D02*
X020065Y027604D01*
X020405Y027944D01*
X021185Y027924D02*
X021185Y027544D01*
X021185Y027924D02*
X021205Y027944D01*
X018475Y028604D02*
X028135Y028604D01*
X028965Y028014D02*
X027085Y028014D01*
X026645Y027574D01*
X028965Y028014D02*
X029465Y027514D01*
X029465Y027494D01*
X027105Y025394D02*
X027105Y023534D01*
X022585Y022914D02*
X022577Y022905D01*
X020625Y022905D01*
X018555Y023164D02*
X018255Y022864D01*
X018555Y023164D02*
X018555Y024290D01*
X018555Y024894D01*
X009119Y024168D02*
X008505Y023554D01*
X008505Y020424D01*
X007575Y019494D01*
X007575Y019294D01*
X007575Y019494D02*
X007575Y019934D01*
X007115Y020394D01*
X004875Y020394D01*
X003875Y019394D01*
X003875Y019294D01*
X002875Y019294D02*
X002875Y017294D01*
X002815Y017294D01*
X003935Y017294D02*
X003935Y016594D01*
X006515Y017294D02*
X006515Y019294D01*
X006575Y019294D01*
X008505Y020424D02*
X011045Y020424D01*
X011375Y020094D01*
X011375Y019294D01*
X010375Y019294D02*
X010315Y019294D01*
X010315Y017294D01*
X011375Y017294D02*
X011375Y016594D01*
X011295Y016594D01*
X011375Y017294D02*
X011435Y017294D01*
X012735Y017524D02*
X012955Y017524D01*
X014115Y018684D01*
X008905Y017374D02*
X008605Y017074D01*
X008605Y016784D01*
X007695Y015874D01*
X007695Y015474D01*
X006715Y014494D01*
X005545Y014494D01*
X005295Y014494D01*
X007675Y016594D02*
X007675Y017294D01*
X007635Y017294D01*
X006175Y022994D02*
X006935Y023644D01*
X006945Y025764D01*
X006945Y025894D01*
X006775Y025894D01*
X005775Y025894D02*
X005775Y025394D01*
X005175Y024794D01*
X005175Y023794D01*
X005375Y023594D01*
X005693Y023594D01*
X005719Y023620D01*
X002819Y023520D02*
X002375Y023520D01*
X002375Y025894D01*
X008075Y026694D02*
X008785Y027404D01*
X012295Y008744D02*
X014165Y008744D01*
X014435Y006724D02*
X015105Y006064D01*
X012971Y004994D02*
X012175Y004994D01*
X023115Y004384D02*
X023845Y003504D01*
X027245Y003454D02*
X030695Y004154D01*
X030685Y005524D01*
D52*
X034685Y002504D02*
X037545Y002504D01*
X037605Y002564D01*
X044225Y002564D01*
X047535Y005874D01*
X047535Y013024D01*
X053855Y014174D01*
X055695Y016044D01*
X056555Y016134D01*
X049425Y021994D02*
X048935Y021504D01*
X046485Y021504D01*
X043475Y018494D01*
X042856Y019844D02*
X046945Y023933D01*
X046945Y026704D01*
X040085Y025764D02*
X032535Y025764D01*
X029165Y024954D02*
X028945Y024074D01*
X028045Y023174D01*
X028075Y022194D02*
X028675Y021594D01*
X028675Y019344D01*
X028175Y018844D01*
X029175Y018844D02*
X029175Y020494D01*
X030775Y022094D01*
X032215Y022094D01*
X033335Y022094D02*
X033335Y020534D01*
X034175Y019694D01*
X034175Y018894D01*
X031655Y019494D02*
X031095Y020754D01*
X029165Y021104D02*
X029165Y022344D01*
X025985Y023604D02*
X025225Y023194D01*
X025075Y023144D01*
X024115Y022824D01*
X024425Y022054D02*
X023695Y021934D01*
X024425Y022054D02*
X025075Y022144D01*
X024515Y021584D02*
X024595Y021504D01*
X024595Y021484D01*
X024935Y021144D01*
X025075Y021144D01*
X025985Y023604D02*
X025985Y025394D01*
X011405Y019264D02*
X011375Y019294D01*
X011405Y019264D02*
X011405Y018514D01*
X011015Y018124D01*
X009645Y018124D02*
X009525Y018004D01*
X009525Y017244D01*
X009235Y016954D01*
X009235Y016204D01*
X008845Y015814D01*
X008845Y014384D01*
X009195Y014034D01*
X009575Y014034D01*
X008185Y012644D01*
X008005Y012644D01*
X005545Y014494D02*
X005525Y014514D01*
X002145Y014514D01*
X001505Y013874D01*
X001505Y006194D01*
X002335Y005364D01*
X005895Y005364D01*
X006475Y004784D01*
X006475Y003124D01*
X009875Y004294D02*
X010575Y004994D01*
X010575Y005694D01*
X010575Y005974D01*
X010575Y008414D01*
X009555Y008604D02*
X009295Y008344D01*
X009295Y008184D01*
X013065Y009334D02*
X013105Y009374D01*
X014165Y008744D02*
X015075Y009234D01*
X015075Y010664D01*
X013945Y006484D02*
X015115Y005314D01*
X015255Y005334D01*
X017045Y003534D01*
X017995Y003534D01*
X019115Y002364D01*
X019905Y002564D01*
X037605Y002564D02*
X040325Y005284D01*
X040325Y006574D01*
X040255Y006644D01*
X041515Y020083D02*
X041515Y022054D01*
X041515Y022184D01*
X041505Y022194D01*
X041515Y022184D02*
X041515Y023184D01*
D53*
X019335Y020124D03*
X027245Y003454D03*
X057705Y004044D03*
D54*
X033135Y018434D03*
M02*
