%
M48
M72
T01C0.0080
T02C0.0100
T03C0.0197
T04C0.0236
T05C0.0240
T06C0.0315
T07C0.0320
T08C0.0354
T09C0.0394
T10C0.0400
T11C0.0433
T12C0.0470
T13C0.0630
T14C0.0660
T15C0.0866
T16C0.1260
%
T01
X11075Y5194
X12175Y4994
X12955Y5284
X13445Y5674
X14175Y5674
X15105Y6064
X13945Y6484
X14435Y6724
X14725Y6984
X15245Y7264
X16825Y8060
X17395Y8564
X17915Y8684
X19945Y8804
X20175Y8564
X20775Y8564
X21185Y8814
X24225Y10484
X24665Y10274
X26185Y10284
X24225Y11314
X25035Y11894
X21755Y11894
X18205Y13404
X18250Y13849
X16805Y13134
X16843Y12291
X17915Y11474
X17295Y11264
X16805Y11194
X17685Y10684
X18035Y10564
X15405Y12214
X15375Y12634
X15215Y13124
X14855Y13374
X14405Y12864
X13835Y13694
X14165Y13784
X14585Y14224
X15095Y14454
X15465Y14204
X15875Y14264
X14580Y15158
X14595Y15174
X14175Y15424
X14675Y15694
X14045Y15934
X13015Y15154
X13145Y14854
X12935Y14524
X13685Y14624
X15665Y16254
X17025Y16164
X18155Y16524
X18555Y16124
X18185Y15504
X17485Y15454
X20375Y15514
X23905Y16694
X25581Y16694
X26175Y16324
X24965Y15034
X19085Y17704
X19685Y18844
X19525Y21064
X21875Y21904
X24515Y21584
X25265Y20124
X29165Y21104
X31095Y20754
X31655Y19494
X34175Y19694
X32375Y17844
X37805Y16224
X37805Y15234
X35575Y14264
X36985Y12884
X42295Y13734
X40985Y15594
X43475Y18494
X41765Y19034
X41515Y23184
X40085Y25764
X32535Y25764
X29165Y22344
X23395Y25814
X19625Y27604
X18695Y27074
X18355Y27334
X17845Y27974
X18475Y28604
X17895Y25174
X17015Y25174
X12815Y22314
X10575Y23294
X9125Y22854
X8135Y22844
X9955Y21904
X11105Y21054
X12815Y21214
X14115Y18684
X12735Y17524
X11015Y18124
X9645Y18124
X8905Y17374
X7675Y16594
X7095Y15674
X3935Y16594
X2225Y16254
X3605Y15414
X9535Y12134
X13065Y9334
X14735Y9534
X21175Y6874
X23115Y4384
X23845Y3504
X36985Y8464
X37525Y7924
X42295Y10174
X40985Y10324
X31475Y10024
X28905Y10024
X11295Y16594
X10945Y15934
X3395Y22994
X2775Y22994
X2975Y24694
X5719Y24638
X6505Y24374
X8483Y24794
X8493Y24794
X10485Y24804
X10575Y24154
T02
X33135Y18434
T03
X20075Y11234
X22735Y10314
X23475Y9704
X25355Y9244
X29375Y9154
X13365Y13804
X11825Y13784
X11645Y13264
X10825Y13384
X11135Y15154
X11985Y15154
X51485Y6074
T04
X55195Y6004
X57705Y4044
X42745Y10934
X42785Y13704
X46225Y15974
X27905Y24854
X28175Y25844
X19335Y20124
X8985Y20774
X7935Y20744
X13845Y12584
X9555Y8604
X27245Y3454
T05
X8435Y9524
X8435Y10524
X8435Y11524
X28425Y15794
X29425Y15794
X30425Y15794
X30465Y27494
X29465Y27494
X28465Y27494
T06
X6435Y13054
X6435Y11054
X6435Y9054
X6435Y7054
T07
X9875Y4294
X11875Y4294
X34685Y4504
X34685Y2504
X50835Y9024
X50835Y10024
X51285Y7134
X52085Y7134
X61605Y7214
X62405Y7214
X62155Y9444
X62155Y10444
X56625Y15264
X56625Y16064
X56425Y19524
X56425Y20324
X56395Y21304
X56395Y22304
X39475Y22194
X39475Y23194
X36475Y23194
X36475Y22194
X36475Y21194
X39475Y21194
X38775Y17594
X37775Y17594
X36775Y17594
X28075Y21144
X28075Y22144
X28075Y23144
X28075Y24144
X29185Y25044
X29185Y25844
X25315Y27494
X24515Y27494
X23155Y28094
X22355Y28094
X21205Y27944
X20405Y27944
X19165Y27924
X18365Y27924
X13665Y27914
X12865Y27914
X16285Y24594
X17085Y24594
X17455Y22864
X18255Y22864
X25075Y23144
X25075Y24144
X25075Y22144
X25075Y21144
X24965Y19514
X24165Y19514
T08
X29685Y6824
X30685Y6824
X30685Y5524
X29685Y5524
T09
X29475Y11094
X28475Y11094
X27475Y11094
X26475Y11094
X30475Y11094
X31475Y11094
X32475Y11094
X33475Y11094
X34475Y11094
X35475Y11094
X36475Y11094
X37475Y11094
X38475Y11094
X39475Y11094
X40475Y11094
X41475Y11094
X30175Y18844
X29175Y18844
X28175Y18844
X11375Y19294
X10375Y19294
X7575Y19294
X6575Y19294
X3875Y19294
X2875Y19294
X10735Y10804
X11735Y10804
X12735Y10804
T10
X33125Y18844
X34125Y18844
X33965Y24034
X34965Y24034
X59205Y25244
X59205Y26244
X42255Y6644
X41255Y6644
X40255Y6644
X39255Y6644
X38255Y6644
X37255Y6644
X9975Y25794
X8975Y25794
X6775Y25894
X5775Y25894
X3375Y25894
X2375Y25894
T11
X53185Y9474
X54525Y9474
X55865Y9474
X57215Y9464
X58535Y9474
X59875Y9474
X59195Y11484
X57875Y11484
X56515Y11484
X55225Y11484
X53835Y11474
T12
X53215Y7094
X60215Y7094
T13
X62625Y16224
X62555Y19294
X62535Y23444
X32385Y27314
X26645Y27574
X17345Y17634
X7935Y14374
X5295Y14494
X12845Y3564
X15905Y2564
X19905Y2564
X25405Y2564
X27405Y2564
T14
X3355Y3124
X4915Y3124
X6475Y3124
X8035Y3124
X2845Y9164
X2845Y10724
X51465Y4004
X53025Y4004
X54585Y4004
X56145Y4004
X57705Y4004
X59265Y4004
X60825Y4004
X62385Y4004
X60305Y15324
X60305Y16884
X60195Y20514
X60195Y22074
X51715Y21944
X51715Y23504
X51715Y25064
X51715Y26624
X51715Y20384
X51715Y18824
X51715Y17264
X51715Y15704
T15
X32535Y5674
X27835Y5674
T16
X13875Y11494
X43575Y11494
X44275Y25694
X13175Y25794
M30
