G75*
G70*
%OFA0B0*%
%FSLAX24Y24*%
%IPPOS*%
%LPD*%
%AMOC8*
5,1,8,0,0,1.08239X$1,22.5*
%
%ADD10C,0.0440*%
%ADD11C,0.0594*%
%ADD12C,0.0750*%
%ADD13OC8,0.0750*%
%ADD14C,0.0600*%
%ADD15R,0.0945X0.0945*%
%ADD16C,0.0520*%
%ADD17OC8,0.0520*%
%ADD18C,0.0520*%
%ADD19C,0.0945*%
%ADD20C,0.0554*%
%ADD21C,0.1266*%
%ADD22R,0.0515X0.0515*%
%ADD23C,0.0515*%
%ADD24C,0.0990*%
%ADD25R,0.0650X0.0650*%
%ADD26C,0.0650*%
%ADD27OC8,0.0705*%
%ADD28C,0.0080*%
%ADD29C,0.0240*%
%ADD30C,0.0396*%
%ADD31C,0.0160*%
%ADD32C,0.0120*%
%ADD33C,0.0357*%
%ADD34C,0.0100*%
%ADD35C,0.0240*%
%ADD36R,0.0396X0.0396*%
%ADD37C,0.0260*%
%ADD38C,0.0400*%
D10*
X034028Y015794D03*
X035028Y015794D03*
X036028Y015794D03*
X056018Y011524D03*
X056018Y010524D03*
X056018Y009524D03*
X035988Y027494D03*
X034988Y027494D03*
X033988Y027494D03*
D11*
X034278Y019141D02*
X034278Y018547D01*
X035278Y018547D02*
X035278Y019141D01*
X036278Y019141D02*
X036278Y018547D01*
X035978Y011391D02*
X035978Y010797D01*
X034978Y010797D02*
X034978Y011391D01*
X033978Y011391D02*
X033978Y010797D01*
X032978Y010797D02*
X032978Y011391D01*
X031978Y011391D02*
X031978Y010797D01*
X030978Y010797D02*
X030978Y011391D01*
X029978Y011391D02*
X029978Y010797D01*
X028978Y010797D02*
X028978Y011391D01*
X027978Y011391D02*
X027978Y010797D01*
X026978Y010797D02*
X026978Y011391D01*
X025978Y011391D02*
X025978Y010797D01*
X024978Y010797D02*
X024978Y011391D01*
X023978Y011391D02*
X023978Y010797D01*
X022978Y010797D02*
X022978Y011391D01*
X036978Y011391D02*
X036978Y010797D01*
X037978Y010797D02*
X037978Y011391D01*
X051718Y011101D02*
X051718Y010507D01*
X052718Y010507D02*
X052718Y011101D01*
X053718Y011101D02*
X053718Y010507D01*
X054078Y018997D02*
X054078Y019591D01*
X053078Y019591D02*
X053078Y018997D01*
X056878Y018997D02*
X056878Y019591D01*
X057878Y019591D02*
X057878Y018997D01*
X060578Y018997D02*
X060578Y019591D01*
X061578Y019591D02*
X061578Y018997D01*
D12*
X029768Y004504D03*
X052578Y004294D03*
D13*
X054578Y004294D03*
X029768Y002504D03*
D14*
X027198Y006344D02*
X027198Y006944D01*
X026198Y006944D02*
X026198Y006344D01*
X025198Y006344D02*
X025198Y006944D01*
X024198Y006944D02*
X024198Y006344D01*
X023198Y006344D02*
X023198Y006944D01*
X022198Y006944D02*
X022198Y006344D01*
X030328Y018544D02*
X030328Y019144D01*
X031328Y019144D02*
X031328Y018544D01*
X030488Y023734D02*
X030488Y024334D01*
X029488Y024334D02*
X029488Y023734D01*
X005548Y025244D02*
X004948Y025244D01*
X004948Y026244D02*
X005548Y026244D01*
X054478Y026094D02*
X054478Y025494D01*
X055478Y025494D02*
X055478Y026094D01*
X057678Y026194D02*
X057678Y025594D01*
X058678Y025594D02*
X058678Y026194D01*
X061078Y026194D02*
X061078Y025594D01*
X062078Y025594D02*
X062078Y026194D01*
D15*
X047108Y017634D03*
X056518Y014374D03*
X059158Y014494D03*
X051608Y003564D03*
X048548Y002564D03*
X001828Y016224D03*
X001898Y019294D03*
X001918Y023444D03*
X032068Y027314D03*
X037808Y027574D03*
D16*
X039938Y027494D03*
X041298Y028094D03*
X043248Y027944D03*
X045288Y027924D03*
X050788Y027914D03*
X048168Y024594D03*
X046998Y022864D03*
X039378Y023144D03*
X039378Y024144D03*
X036378Y024144D03*
X036378Y023144D03*
X036378Y022144D03*
X036378Y021144D03*
X039378Y021144D03*
X039378Y022144D03*
X039488Y019514D03*
X035268Y025044D03*
X008028Y020324D03*
X007828Y015264D03*
X002848Y007214D03*
X013168Y007134D03*
D17*
X012368Y007134D03*
X013618Y009024D03*
X013618Y010024D03*
X002298Y010444D03*
X002298Y009444D03*
X002048Y007214D03*
X007828Y016064D03*
X008028Y019524D03*
X008058Y021304D03*
X008058Y022304D03*
X035268Y025844D03*
X039138Y027494D03*
X042098Y028094D03*
X044048Y027944D03*
X046088Y027924D03*
X051588Y027914D03*
X047368Y024594D03*
X046198Y022864D03*
X040288Y019514D03*
D18*
X028238Y021194D02*
X027718Y021194D01*
X027718Y022194D02*
X028238Y022194D01*
X028238Y023194D02*
X027718Y023194D01*
X025238Y023194D02*
X024718Y023194D01*
X024718Y022194D02*
X025238Y022194D01*
X025238Y021194D02*
X024718Y021194D01*
X025678Y017854D02*
X025678Y017334D01*
X026678Y017334D02*
X026678Y017854D01*
X027678Y017854D02*
X027678Y017334D01*
D19*
X037048Y002564D03*
X039048Y002564D03*
X044548Y002564D03*
D20*
X034768Y005524D03*
X033768Y005524D03*
X033768Y006824D03*
X034768Y006824D03*
D21*
X036618Y005674D03*
X031918Y005674D03*
D22*
X058018Y007054D03*
D23*
X058018Y009054D03*
X058018Y011054D03*
X058018Y013054D03*
D24*
X002068Y004499D02*
X002068Y003509D01*
X003628Y003509D02*
X003628Y004499D01*
X005188Y004499D02*
X005188Y003509D01*
X006748Y003509D02*
X006748Y004499D01*
X008308Y004499D02*
X008308Y003509D01*
X009868Y003509D02*
X009868Y004499D01*
X011428Y004499D02*
X011428Y003509D01*
X012988Y003509D02*
X012988Y004499D01*
X004643Y015324D02*
X003653Y015324D01*
X003653Y016884D02*
X004643Y016884D01*
X012243Y017264D02*
X013233Y017264D01*
X013233Y018824D02*
X012243Y018824D01*
X012243Y020384D02*
X013233Y020384D01*
X013233Y021944D02*
X012243Y021944D01*
X012243Y023504D02*
X013233Y023504D01*
X013233Y025064D02*
X012243Y025064D01*
X012243Y026624D02*
X013233Y026624D01*
X004753Y022074D02*
X003763Y022074D01*
X003763Y020514D02*
X004753Y020514D01*
X012243Y015704D02*
X013233Y015704D01*
X056418Y003619D02*
X056418Y002629D01*
X057978Y002629D02*
X057978Y003619D01*
X059538Y003619D02*
X059538Y002629D01*
X061098Y002629D02*
X061098Y003619D01*
X061113Y009164D02*
X062103Y009164D01*
X062103Y010724D02*
X061113Y010724D01*
D25*
X011268Y009474D03*
D26*
X009928Y009474D03*
X008588Y009474D03*
X007238Y009464D03*
X005918Y009474D03*
X004578Y009474D03*
X005258Y011484D03*
X006578Y011484D03*
X007938Y011484D03*
X009228Y011484D03*
X010618Y011474D03*
D27*
X011238Y007094D03*
X004238Y007094D03*
D28*
X021708Y010934D02*
X021668Y013704D01*
X022158Y013734D02*
X022158Y010174D01*
X023468Y010324D02*
X023468Y015594D01*
X026648Y015234D02*
X026648Y016224D01*
X028878Y014264D02*
X027468Y012884D01*
X032978Y010024D02*
X035208Y010024D01*
X035208Y010294D01*
X035808Y010294D01*
X035808Y010034D01*
X035808Y010024D01*
X035808Y010034D02*
X046578Y010034D01*
X047648Y011194D01*
X047428Y011494D02*
X047158Y011264D01*
X047428Y011494D02*
X048248Y011494D01*
X048758Y012004D01*
X048758Y012814D01*
X048818Y012874D01*
X048818Y013304D01*
X049218Y013704D01*
X049218Y013754D01*
X049358Y013894D01*
X049358Y014454D01*
X048988Y014204D02*
X048158Y015034D01*
X039488Y015034D01*
X038278Y016324D02*
X038618Y016754D01*
X038618Y017154D01*
X038998Y017154D01*
X045208Y017114D01*
X045898Y016124D01*
X046298Y016524D02*
X046178Y016954D01*
X045368Y017704D01*
X044768Y018844D02*
X047428Y016164D01*
X046268Y015504D02*
X044078Y015514D01*
X046968Y015454D02*
X049098Y017214D01*
X050268Y017214D01*
X052448Y019474D01*
X052448Y020414D01*
X053348Y021054D01*
X054498Y021904D02*
X056358Y021904D01*
X056618Y022164D01*
X056618Y023444D01*
X057548Y024374D01*
X057948Y024374D01*
X055970Y024794D02*
X053968Y024804D01*
X039938Y027494D02*
X039828Y027494D01*
X038978Y026644D01*
X037658Y026644D01*
X036728Y025714D01*
X036728Y025404D01*
X036668Y025344D01*
X035768Y025344D01*
X035268Y025844D01*
X031918Y025764D02*
X030488Y024334D01*
X030488Y024034D01*
X029488Y024034D02*
X029418Y023964D01*
X029418Y021644D01*
X031328Y019734D01*
X031318Y018434D01*
X030278Y019694D02*
X029638Y019054D01*
X028518Y019054D01*
X028498Y019034D01*
X022688Y019034D01*
X035028Y015794D02*
X035028Y013044D01*
X033948Y011964D01*
X033948Y011124D01*
X033978Y011094D01*
X035548Y010024D02*
X035548Y009364D01*
X035558Y009324D01*
X035538Y009004D01*
X035548Y008164D01*
X034278Y007454D01*
X034278Y006364D01*
X034188Y006314D01*
X033768Y005524D01*
X033768Y006824D02*
X033768Y006834D01*
X034768Y006824D02*
X035528Y007424D01*
X038888Y007424D01*
X038888Y006584D01*
X046698Y006584D01*
X047058Y007024D01*
X047058Y008564D01*
X046538Y008684D02*
X044828Y008684D01*
X044528Y008334D01*
X044008Y008334D01*
X043278Y007654D01*
X043278Y006874D01*
X043678Y008564D02*
X044278Y008564D01*
X044508Y008804D02*
X043268Y008814D01*
X040228Y010484D02*
X040228Y011314D01*
X039418Y011894D02*
X042698Y011894D01*
X039788Y010274D02*
X038268Y010284D01*
X036988Y011104D02*
X036978Y011094D01*
X036988Y011104D02*
X036988Y012494D01*
X036028Y013454D01*
X036028Y015794D01*
X038873Y016694D02*
X040548Y016694D01*
X046203Y013849D02*
X046638Y013504D01*
X047088Y013504D01*
X047648Y013134D01*
X047611Y012291D02*
X046248Y013404D01*
X047638Y011634D02*
X048578Y012574D01*
X048578Y014264D01*
X049868Y014224D02*
X050048Y013874D01*
X050048Y012864D01*
X049598Y012764D02*
X049598Y013374D01*
X049618Y013394D01*
X049618Y015024D01*
X049753Y015158D01*
X049874Y015158D01*
X050278Y015424D02*
X060848Y015414D01*
X062228Y016254D02*
X048788Y016254D01*
X049778Y015694D02*
X057358Y015674D01*
X053508Y015934D02*
X050408Y015944D01*
X050408Y015934D01*
X051208Y015154D02*
X050998Y014944D01*
X050998Y014384D01*
X050678Y014064D01*
X050558Y014064D01*
X050288Y013784D01*
X050618Y013694D02*
X051158Y014234D01*
X051158Y014704D01*
X051308Y014854D01*
X051208Y015154D02*
X051438Y015154D01*
X051088Y013804D02*
X052628Y013784D01*
X052578Y012124D02*
X050608Y012584D01*
X049598Y012764D02*
X049068Y012254D01*
X049048Y012214D01*
X049078Y012634D02*
X049178Y013074D01*
X049238Y013124D01*
X047638Y011634D02*
X047048Y011634D01*
X046748Y011254D01*
X046758Y010824D01*
X046768Y010684D01*
X046528Y010674D02*
X046418Y010564D01*
X046528Y010674D02*
X046528Y011334D01*
X046538Y011474D01*
X049718Y009534D02*
X049728Y006984D01*
X050488Y006064D02*
X050618Y006064D01*
X054898Y008604D02*
X056668Y008604D01*
X054918Y012134D02*
X052578Y012124D01*
X029768Y004504D02*
X029758Y004484D01*
X026928Y007924D02*
X027468Y008464D01*
D29*
X027468Y008464D03*
X026928Y007924D03*
X022158Y010174D03*
X023468Y010324D03*
X027468Y012884D03*
X028878Y014264D03*
X026648Y015234D03*
X026648Y016224D03*
X023468Y015594D03*
X022158Y013734D03*
X032078Y017844D03*
X032798Y019494D03*
X030278Y019694D03*
X033358Y020754D03*
X035288Y021104D03*
X035288Y022344D03*
X039938Y021584D03*
X042578Y021904D03*
X044928Y021064D03*
X044768Y018844D03*
X045368Y017704D03*
X046298Y016524D03*
X045898Y016124D03*
X046268Y015504D03*
X046968Y015454D03*
X047428Y016164D03*
X048788Y016254D03*
X049778Y015694D03*
X049858Y015174D03*
X049874Y015158D03*
X050278Y015424D03*
X051438Y015154D03*
X051308Y014854D03*
X051518Y014524D03*
X050768Y014624D03*
X049868Y014224D03*
X049358Y014454D03*
X048988Y014204D03*
X048578Y014264D03*
X049598Y013374D03*
X049238Y013124D03*
X049078Y012634D03*
X050048Y012864D03*
X050618Y013694D03*
X050288Y013784D03*
X047648Y013134D03*
X046248Y013404D03*
X046203Y013849D03*
X047611Y012291D03*
X046538Y011474D03*
X047158Y011264D03*
X047648Y011194D03*
X046768Y010684D03*
X046418Y010564D03*
X049048Y012214D03*
X049718Y009534D03*
X051388Y009334D03*
X047628Y008060D03*
X047058Y008564D03*
X046538Y008684D03*
X044508Y008804D03*
X044278Y008564D03*
X043678Y008564D03*
X043268Y008814D03*
X040228Y010484D03*
X039788Y010274D03*
X038268Y010284D03*
X040228Y011314D03*
X039418Y011894D03*
X042698Y011894D03*
X039488Y015034D03*
X038278Y016324D03*
X038873Y016694D03*
X040548Y016694D03*
X044078Y015514D03*
X050408Y015934D03*
X053158Y016594D03*
X053508Y015934D03*
X055548Y017374D03*
X054808Y018124D03*
X053438Y018124D03*
X051718Y017524D03*
X050338Y018684D03*
X051638Y021214D03*
X053348Y021054D03*
X054498Y021904D03*
X055328Y022854D03*
X056318Y022844D03*
X053878Y023294D03*
X053878Y024154D03*
X053968Y024804D03*
X055960Y024794D03*
X055970Y024794D03*
X057948Y024374D03*
X058734Y024638D03*
X061478Y024694D03*
X061678Y022994D03*
X061058Y022994D03*
X051638Y022314D03*
X047438Y025174D03*
X046558Y025174D03*
X045758Y027074D03*
X046098Y027334D03*
X046608Y027974D03*
X045978Y028604D03*
X044828Y027604D03*
X041058Y025814D03*
X031918Y025764D03*
X024368Y025764D03*
X022938Y023184D03*
X022688Y019034D03*
X020978Y018494D03*
X039188Y020124D03*
X054918Y012134D03*
X060848Y015414D03*
X062228Y016254D03*
X060518Y016594D03*
X057358Y015674D03*
X056778Y016594D03*
X049208Y007264D03*
X049728Y006984D03*
X050018Y006724D03*
X050508Y006484D03*
X049348Y006064D03*
X050278Y005674D03*
X051008Y005674D03*
X051498Y005284D03*
X052278Y004994D03*
X053378Y005194D03*
X043278Y006874D03*
X041338Y004384D03*
X040608Y003504D03*
X035548Y010024D03*
X032978Y010024D03*
D30*
X021708Y010934D03*
X021668Y013704D03*
X018228Y015974D03*
X036548Y024854D03*
X036278Y025844D03*
X055468Y020774D03*
X056518Y020744D03*
X050608Y012584D03*
X054898Y008604D03*
X009258Y006004D03*
D31*
X008948Y015274D02*
X010738Y018624D01*
X011478Y018894D01*
X011538Y018834D01*
X011698Y018834D01*
X011688Y018824D01*
X011292Y018824D01*
X011292Y018826D01*
X011292Y018824D02*
X012738Y018824D01*
X013887Y018824D01*
X013887Y018191D01*
X010338Y020504D02*
X009728Y019894D01*
X009288Y019454D01*
X008098Y019454D01*
X010338Y020504D02*
X010338Y021824D01*
X012018Y023504D01*
X012738Y023504D01*
X012738Y020384D02*
X015538Y020384D01*
X015548Y020394D01*
X020978Y018494D02*
X028438Y018494D01*
X029058Y017874D01*
X032048Y017874D01*
X032078Y017844D01*
X034278Y018844D02*
X035428Y017694D01*
X037978Y017694D01*
X039488Y019514D01*
X039388Y020124D02*
X040348Y021084D01*
X041758Y021084D01*
X042578Y021904D01*
X043418Y021064D01*
X044928Y021064D01*
X045118Y020124D02*
X046188Y019054D01*
X048188Y019054D01*
X048558Y018684D01*
X050338Y018684D01*
X051718Y017524D02*
X051868Y017374D01*
X055548Y017374D01*
X056778Y016594D02*
X053158Y016594D01*
X056778Y016594D02*
X060518Y016594D01*
X050878Y009864D02*
X050878Y009694D01*
X050878Y008334D01*
X050318Y007774D01*
X050018Y006724D01*
X050268Y005974D02*
X049208Y007034D01*
X049208Y007264D01*
X049348Y006064D02*
X042758Y006064D01*
X041338Y004644D01*
X041338Y004384D01*
X040608Y003504D02*
X040348Y003504D01*
X039048Y002564D01*
X037048Y002564D02*
X037208Y003454D01*
X035868Y004004D02*
X035148Y002534D01*
X034228Y002534D01*
X034038Y002544D01*
X033368Y002544D01*
X031108Y004274D01*
X030398Y004484D01*
X029768Y004504D01*
X029758Y004484D02*
X029758Y006414D01*
X032008Y007344D01*
X033258Y007344D01*
X033768Y006834D01*
X035868Y004004D02*
X049458Y004004D01*
X050618Y005294D01*
X050618Y006064D01*
X052118Y007434D01*
X052118Y008964D01*
X052388Y009234D01*
X053398Y009234D01*
X053438Y009234D01*
X050488Y006064D02*
X050398Y005974D01*
X050268Y005974D01*
X037978Y011094D02*
X037978Y017694D01*
X039188Y020124D02*
X039388Y020124D01*
X046558Y025174D02*
X047438Y025174D01*
X045758Y027074D02*
X045358Y027074D01*
X044828Y027604D01*
X045288Y027924D02*
X046098Y027334D01*
X046608Y027974D02*
X045978Y028604D01*
X007828Y015264D02*
X006898Y015264D01*
D32*
X005278Y016884D01*
X004148Y016884D01*
X007828Y015264D02*
X008938Y015264D01*
X008948Y015274D01*
X017338Y015084D02*
X017338Y013464D01*
X021538Y009264D01*
X022108Y009264D01*
X022978Y010134D01*
X022978Y011094D01*
X022978Y010184D01*
X022088Y009294D01*
X034928Y009134D01*
X035078Y009154D01*
X050878Y009694D02*
X051718Y010534D01*
X051718Y010804D01*
X053718Y010804D02*
X053718Y009514D01*
X053438Y009234D01*
X056018Y010524D02*
X056058Y010524D01*
X057378Y009204D01*
X057378Y008744D01*
X057238Y008604D01*
X056668Y008604D01*
X056018Y010524D02*
X056548Y011054D01*
X058018Y011054D01*
X058038Y011954D02*
X058038Y013034D01*
X058018Y013054D01*
X057738Y013054D01*
X058038Y011954D02*
X060828Y009164D01*
X061608Y009164D01*
X056518Y020744D02*
X055468Y020774D01*
X018228Y015974D02*
X017338Y015084D01*
X009728Y019894D02*
X008318Y021304D01*
X008058Y021304D01*
X007278Y021304D02*
X007278Y021074D01*
X008028Y020324D01*
X007178Y021404D02*
X006288Y020514D01*
X004258Y020514D01*
X004248Y020504D01*
X004058Y020504D01*
X002848Y019294D01*
X001898Y019294D01*
X002478Y021594D02*
X003778Y021594D01*
X004258Y022074D01*
X006928Y021654D02*
X006928Y023564D01*
X005248Y025244D01*
X006928Y021654D02*
X007178Y021404D01*
X007278Y021304D01*
D33*
X035078Y009154D03*
X039098Y009244D03*
X040978Y009704D03*
X041718Y010314D03*
X044378Y011234D03*
X051088Y013804D03*
X052628Y013784D03*
X052808Y013264D03*
X053628Y013384D03*
X053318Y015154D03*
X052468Y015154D03*
X012968Y006074D03*
D34*
X012968Y006934D01*
X013168Y007134D01*
X013618Y007584D01*
X013618Y009024D01*
X013048Y009414D02*
X013048Y007814D01*
X012368Y007134D01*
X011888Y006094D02*
X011888Y008854D01*
X011268Y009474D01*
X009928Y009474D02*
X009868Y009414D01*
X009868Y004004D01*
X007988Y006054D02*
X006748Y004814D01*
X006748Y004044D01*
X005378Y004194D02*
X005188Y004004D01*
X005188Y004874D01*
X002848Y007214D01*
X002848Y009894D01*
X002298Y010444D01*
X002298Y009444D02*
X002298Y007464D01*
X002048Y007214D01*
X004578Y008334D02*
X005378Y007534D01*
X005378Y004194D01*
X007988Y006054D02*
X009208Y006054D01*
X009258Y006004D01*
X011888Y006094D02*
X012988Y004994D01*
X012988Y004004D01*
X004578Y008334D02*
X004578Y009474D01*
X013048Y009414D02*
X013618Y009984D01*
X013618Y010024D01*
X034028Y015794D02*
X034278Y016044D01*
X034278Y018844D01*
X036378Y021144D02*
X036538Y021144D01*
X037498Y022104D01*
X037498Y023904D01*
X036548Y024854D01*
X036278Y025844D02*
X036278Y026104D01*
X035468Y026914D01*
X034638Y026914D01*
X033988Y027494D01*
X051638Y022314D02*
X051638Y021214D01*
X055328Y022854D02*
X056318Y022844D01*
X053878Y023294D02*
X053878Y024154D01*
X055960Y024794D02*
X055970Y024794D01*
X058578Y024794D01*
X058734Y024638D01*
X058790Y024694D01*
X061478Y024694D01*
X061678Y022994D02*
X061058Y022994D01*
X053318Y015154D02*
X052468Y015154D01*
X052808Y013264D02*
X053018Y013054D01*
X057738Y013054D01*
X056448Y014374D02*
X055318Y013244D01*
X053768Y013244D01*
X053628Y013384D01*
X056448Y014374D02*
X056518Y014374D01*
X044378Y011234D02*
X044338Y011004D01*
X043648Y010304D01*
X041728Y010304D01*
X041718Y010314D01*
X040978Y009704D02*
X039418Y009624D01*
X039098Y009244D01*
X047628Y008060D02*
X047872Y008050D01*
X050278Y005674D01*
X051008Y005674D02*
X051498Y005284D01*
X052278Y004994D02*
X052478Y005194D01*
X053378Y005194D01*
X002478Y021594D02*
X001918Y023444D01*
D35*
X013848Y018274D02*
X013887Y018191D01*
X014588Y016684D01*
X024768Y016684D01*
X025678Y017594D01*
X025678Y016744D01*
X025978Y016604D01*
X031618Y016604D01*
X032798Y017564D01*
X032798Y019494D01*
X033358Y020754D02*
X034938Y020754D01*
X035288Y021104D01*
X035288Y022344D02*
X036378Y023144D01*
X039938Y024694D02*
X039938Y021584D01*
X039938Y024694D02*
X041058Y025814D01*
X035268Y025844D02*
X035218Y025834D01*
X032148Y025834D01*
X031918Y025764D01*
X024368Y025764D02*
X022458Y023854D01*
X022458Y023664D01*
X022938Y023184D01*
X022458Y023854D02*
X019008Y023854D01*
X015548Y020394D01*
X012738Y015704D02*
X016998Y011444D01*
X016998Y003734D01*
X019108Y001624D01*
X060168Y001624D01*
X059538Y003124D02*
X059538Y007004D01*
X058018Y007054D01*
X051388Y007884D02*
X051388Y009334D01*
X050878Y009864D02*
X050898Y009884D01*
X051388Y007884D02*
X050508Y007004D01*
X050508Y006484D01*
X053438Y018124D02*
X054808Y018124D01*
D36*
X045118Y020124D03*
X037208Y003454D03*
X006748Y004044D03*
D37*
X031318Y018434D03*
D38*
X054568Y002344D02*
X055348Y003124D01*
X056418Y003124D01*
X054568Y002344D02*
X048728Y002344D01*
X048548Y002564D01*
X060168Y001624D02*
X060228Y001564D01*
X060458Y001654D01*
X061098Y002264D01*
X061098Y003124D01*
M02*
