G75*
G70*
%OFA0B0*%
%FSLAX24Y24*%
%IPPOS*%
%LPD*%
%AMOC8*
5,1,8,0,0,1.08239X$1,22.5*
%
%ADD10C,0.1340*%
%ADD11R,0.0159X0.0671*%
%ADD12R,0.0671X0.0159*%
%ADD13R,0.0356X0.0434*%
%ADD14R,0.0552X0.1064*%
%ADD15R,0.0434X0.0356*%
%ADD16R,0.0828X0.0513*%
%ADD17R,0.1064X0.0474*%
%ADD18C,0.0520*%
%ADD19C,0.0674*%
%ADD20R,0.0395X0.0395*%
%ADD21R,0.0560X0.0960*%
%ADD22R,0.1497X0.0946*%
%ADD23C,0.0830*%
%ADD24OC8,0.0830*%
%ADD25R,0.0177X0.0354*%
%ADD26C,0.0680*%
%ADD27R,0.0710X0.0790*%
%ADD28R,0.1025X0.1025*%
%ADD29C,0.0600*%
%ADD30OC8,0.0600*%
%ADD31C,0.0600*%
%ADD32R,0.0218X0.0395*%
%ADD33R,0.0790X0.0710*%
%ADD34R,0.0710X0.0789*%
%ADD35C,0.1025*%
%ADD36C,0.0634*%
%ADD37C,0.1346*%
%ADD38R,0.0316X0.0946*%
%ADD39R,0.0789X0.0710*%
%ADD40R,0.0595X0.0595*%
%ADD41C,0.0595*%
%ADD42R,0.0552X0.0198*%
%ADD43C,0.1070*%
%ADD44R,0.0730X0.0730*%
%ADD45C,0.0730*%
%ADD46OC8,0.0785*%
%ADD47C,0.0320*%
%ADD48C,0.0476*%
%ADD49C,0.0437*%
%ADD50R,0.0476X0.0476*%
%ADD51C,0.0340*%
D10*
X013875Y011494D03*
X043575Y011494D03*
X044275Y025694D03*
X013175Y025794D03*
D11*
X016676Y014771D03*
X016833Y014771D03*
X016990Y014771D03*
X017148Y014771D03*
X017305Y014771D03*
X017463Y014771D03*
X017620Y014771D03*
X017778Y014771D03*
X017935Y014771D03*
X018093Y014771D03*
X018250Y014771D03*
X018408Y014771D03*
X018565Y014771D03*
X018723Y014771D03*
X018880Y014771D03*
X019038Y014771D03*
X019195Y014771D03*
X019353Y014771D03*
X019510Y014771D03*
X019668Y014771D03*
X019825Y014771D03*
X019983Y014771D03*
X020140Y014771D03*
X020298Y014771D03*
X020455Y014771D03*
X020455Y009496D03*
X020298Y009496D03*
X020140Y009496D03*
X019983Y009496D03*
X019825Y009496D03*
X019668Y009496D03*
X019510Y009496D03*
X019353Y009496D03*
X019195Y009496D03*
X019038Y009496D03*
X018880Y009496D03*
X018723Y009496D03*
X018565Y009496D03*
X018408Y009496D03*
X018250Y009496D03*
X018093Y009496D03*
X017935Y009496D03*
X017778Y009496D03*
X017620Y009496D03*
X017463Y009496D03*
X017305Y009496D03*
X017148Y009496D03*
X016990Y009496D03*
X016833Y009496D03*
X016676Y009496D03*
D12*
X015927Y010244D03*
X015927Y010401D03*
X015927Y010559D03*
X015927Y010716D03*
X015927Y010874D03*
X015927Y011031D03*
X015927Y011189D03*
X015927Y011346D03*
X015927Y011504D03*
X015927Y011661D03*
X015927Y011819D03*
X015927Y011976D03*
X015927Y012134D03*
X015927Y012291D03*
X015927Y012449D03*
X015927Y012606D03*
X015927Y012764D03*
X015927Y012921D03*
X015927Y013079D03*
X015927Y013236D03*
X015927Y013394D03*
X015927Y013551D03*
X015927Y013709D03*
X015927Y013866D03*
X015927Y014023D03*
X021203Y014023D03*
X021203Y013866D03*
X021203Y013709D03*
X021203Y013551D03*
X021203Y013394D03*
X021203Y013236D03*
X021203Y013079D03*
X021203Y012921D03*
X021203Y012764D03*
X021203Y012606D03*
X021203Y012449D03*
X021203Y012291D03*
X021203Y012134D03*
X021203Y011976D03*
X021203Y011819D03*
X021203Y011661D03*
X021203Y011504D03*
X021203Y011346D03*
X021203Y011189D03*
X021203Y011031D03*
X021203Y010874D03*
X021203Y010716D03*
X021203Y010559D03*
X021203Y010401D03*
X021203Y010244D03*
D13*
X022319Y012454D03*
X022831Y012454D03*
X023019Y015734D03*
X023531Y015734D03*
X022631Y007994D03*
X022119Y007994D03*
X013031Y005994D03*
X012519Y005994D03*
X055559Y026194D03*
X056071Y026194D03*
D14*
X023485Y011624D03*
X022186Y011624D03*
D15*
X024575Y009050D03*
X024575Y008538D03*
X020135Y008050D03*
X020135Y007538D03*
X017135Y007538D03*
X017135Y008050D03*
X016135Y008538D03*
X016135Y009050D03*
D16*
X017917Y008206D03*
X017917Y007301D03*
X019374Y007301D03*
X019374Y008206D03*
D17*
X021435Y008394D03*
X021435Y009394D03*
D18*
X008435Y009524D03*
X008435Y010524D03*
X008435Y011524D03*
X028425Y015794D03*
X029425Y015794D03*
X030425Y015794D03*
X030465Y027494D03*
X029465Y027494D03*
X028465Y027494D03*
D19*
X011375Y019591D02*
X011375Y018997D01*
X010375Y018997D02*
X010375Y019591D01*
X007575Y019591D02*
X007575Y018997D01*
X006575Y018997D02*
X006575Y019591D01*
X003875Y019591D02*
X003875Y018997D01*
X002875Y018997D02*
X002875Y019591D01*
X010735Y011101D02*
X010735Y010507D01*
X011735Y010507D02*
X011735Y011101D01*
X012735Y011101D02*
X012735Y010507D01*
X026475Y010797D02*
X026475Y011391D01*
X027475Y011391D02*
X027475Y010797D01*
X028475Y010797D02*
X028475Y011391D01*
X029475Y011391D02*
X029475Y010797D01*
X030475Y010797D02*
X030475Y011391D01*
X031475Y011391D02*
X031475Y010797D01*
X032475Y010797D02*
X032475Y011391D01*
X033475Y011391D02*
X033475Y010797D01*
X034475Y010797D02*
X034475Y011391D01*
X035475Y011391D02*
X035475Y010797D01*
X036475Y010797D02*
X036475Y011391D01*
X037475Y011391D02*
X037475Y010797D01*
X038475Y010797D02*
X038475Y011391D01*
X039475Y011391D02*
X039475Y010797D01*
X040475Y010797D02*
X040475Y011391D01*
X041475Y011391D02*
X041475Y010797D01*
X030175Y018547D02*
X030175Y019141D01*
X029175Y019141D02*
X029175Y018547D01*
X028175Y018547D02*
X028175Y019141D01*
D20*
X022261Y015764D03*
X021670Y015764D03*
X012975Y004989D03*
X012975Y004398D03*
D21*
X011485Y005974D03*
X010575Y005974D03*
X009665Y005974D03*
D22*
X010575Y008414D03*
D23*
X011875Y004294D03*
X034685Y004504D03*
D24*
X034685Y002504D03*
X009875Y004294D03*
D25*
X009631Y023420D03*
X009375Y023420D03*
X009119Y023420D03*
X009119Y024168D03*
X009631Y024168D03*
X006231Y024368D03*
X005719Y024368D03*
X005719Y023620D03*
X005975Y023620D03*
X006231Y023620D03*
X003331Y023520D03*
X003075Y023520D03*
X002819Y023520D03*
X002819Y024268D03*
X003331Y024268D03*
D26*
X003375Y025594D02*
X003375Y026194D01*
X002375Y026194D02*
X002375Y025594D01*
X005775Y025594D02*
X005775Y026194D01*
X006775Y026194D02*
X006775Y025594D01*
X008975Y025494D02*
X008975Y026094D01*
X009975Y026094D02*
X009975Y025494D01*
X033125Y019144D02*
X033125Y018544D01*
X034125Y018544D02*
X034125Y019144D01*
X033965Y023734D02*
X033965Y024334D01*
X034965Y024334D02*
X034965Y023734D01*
X058905Y025244D02*
X059505Y025244D01*
X059505Y026244D02*
X058905Y026244D01*
X042255Y006944D02*
X042255Y006344D01*
X041255Y006344D02*
X041255Y006944D01*
X040255Y006944D02*
X040255Y006344D01*
X039255Y006344D02*
X039255Y006944D01*
X038255Y006944D02*
X038255Y006344D01*
X037255Y006344D02*
X037255Y006944D01*
D27*
X041285Y003804D03*
X042405Y003804D03*
X050105Y011644D03*
X051225Y011644D03*
X045945Y013884D03*
X044825Y013884D03*
X038235Y019394D03*
X037115Y019394D03*
X033335Y022094D03*
X032215Y022094D03*
X027105Y025394D03*
X025985Y025394D03*
X023705Y022914D03*
X022585Y022914D03*
X022575Y021934D03*
X023695Y021934D03*
X023355Y020674D03*
X022235Y020674D03*
X011435Y017294D03*
X010315Y017294D03*
X007635Y017294D03*
X006515Y017294D03*
X003935Y017294D03*
X002815Y017294D03*
X006715Y021374D03*
X007835Y021374D03*
X005175Y022044D03*
X004055Y022044D03*
X012715Y013174D03*
X013835Y013174D03*
X046945Y026704D03*
X048065Y026704D03*
D28*
X062535Y023444D03*
X062555Y019294D03*
X062625Y016224D03*
X032385Y027314D03*
X026645Y027574D03*
X017345Y017634D03*
X007935Y014374D03*
X005295Y014494D03*
X012845Y003564D03*
X015905Y002564D03*
D29*
X051285Y007134D03*
X061605Y007214D03*
X056625Y015264D03*
X056425Y020324D03*
X029185Y025044D03*
X028075Y024144D03*
X028075Y023144D03*
X028075Y022144D03*
X028075Y021144D03*
X025075Y021144D03*
X025075Y022144D03*
X025075Y023144D03*
X025075Y024144D03*
X017455Y022864D03*
X016285Y024594D03*
X013665Y027914D03*
X019165Y027924D03*
X021205Y027944D03*
X023155Y028094D03*
X024515Y027494D03*
X024965Y019514D03*
D30*
X024165Y019514D03*
X018255Y022864D03*
X017085Y024594D03*
X018365Y027924D03*
X020405Y027944D03*
X022355Y028094D03*
X025315Y027494D03*
X029185Y025844D03*
X012865Y027914D03*
X050835Y010024D03*
X050835Y009024D03*
X052085Y007134D03*
X062405Y007214D03*
X062155Y009444D03*
X062155Y010444D03*
X056625Y016064D03*
X056425Y019524D03*
X056395Y021304D03*
X056395Y022304D03*
D31*
X039735Y022194D02*
X039215Y022194D01*
X039215Y023194D02*
X039735Y023194D01*
X036735Y023194D02*
X036215Y023194D01*
X036215Y022194D02*
X036735Y022194D01*
X036735Y021194D02*
X036215Y021194D01*
X039215Y021194D02*
X039735Y021194D01*
X038775Y017854D02*
X038775Y017334D01*
X037775Y017334D02*
X037775Y017854D01*
X036775Y017854D02*
X036775Y017334D01*
D32*
X011431Y013959D03*
X010919Y013959D03*
X011175Y014628D03*
D33*
X009575Y015154D03*
X009575Y014034D03*
X002325Y021174D03*
X002325Y022294D03*
X042925Y016034D03*
X042925Y014914D03*
X049885Y004554D03*
X049885Y003434D03*
D34*
X042856Y019844D03*
X041754Y019844D03*
X019356Y021044D03*
X018254Y021044D03*
X003796Y012994D03*
X002694Y012994D03*
X007754Y006534D03*
X008856Y006534D03*
D35*
X019905Y002564D03*
X025405Y002564D03*
X027405Y002564D03*
D36*
X029685Y005524D03*
X030685Y005524D03*
X030685Y006824D03*
X029685Y006824D03*
D37*
X027835Y005674D03*
X032535Y005674D03*
D38*
X023045Y024460D03*
X022545Y024460D03*
X022045Y024460D03*
X021545Y024460D03*
X020055Y024290D03*
X019555Y024290D03*
X019055Y024290D03*
X018555Y024290D03*
X017465Y026200D03*
X016965Y026200D03*
X016465Y026200D03*
X015965Y026200D03*
X018555Y026337D03*
X019055Y026337D03*
X019555Y026337D03*
X020055Y026337D03*
X021545Y026507D03*
X022045Y026507D03*
X022545Y026507D03*
X023045Y026507D03*
X017465Y028247D03*
X016965Y028247D03*
X016465Y028247D03*
X015965Y028247D03*
D39*
X020625Y022905D03*
X020625Y021803D03*
X049965Y007225D03*
X049965Y006123D03*
D40*
X006435Y007054D03*
D41*
X006435Y009054D03*
X006435Y011054D03*
X006435Y013054D03*
D42*
X012483Y014390D03*
X012483Y014646D03*
X012483Y014902D03*
X012483Y015158D03*
X014147Y015158D03*
X014147Y014902D03*
X014147Y014646D03*
X014147Y014390D03*
D43*
X003355Y003619D02*
X003355Y002629D01*
X004915Y002629D02*
X004915Y003619D01*
X006475Y003619D02*
X006475Y002629D01*
X008035Y002629D02*
X008035Y003619D01*
X003340Y009164D02*
X002350Y009164D01*
X002350Y010724D02*
X003340Y010724D01*
X051220Y015704D02*
X052210Y015704D01*
X052210Y017264D02*
X051220Y017264D01*
X051220Y018824D02*
X052210Y018824D01*
X052210Y020384D02*
X051220Y020384D01*
X051220Y021944D02*
X052210Y021944D01*
X052210Y023504D02*
X051220Y023504D01*
X051220Y025064D02*
X052210Y025064D01*
X052210Y026624D02*
X051220Y026624D01*
X059700Y022074D02*
X060690Y022074D01*
X060690Y020514D02*
X059700Y020514D01*
X059810Y016884D02*
X060800Y016884D01*
X060800Y015324D02*
X059810Y015324D01*
X059265Y004499D02*
X059265Y003509D01*
X057705Y003509D02*
X057705Y004499D01*
X056145Y004499D02*
X056145Y003509D01*
X054585Y003509D02*
X054585Y004499D01*
X053025Y004499D02*
X053025Y003509D01*
X051465Y003509D02*
X051465Y004499D01*
X060825Y004499D02*
X060825Y003509D01*
X062385Y003509D02*
X062385Y004499D01*
D44*
X053185Y009474D03*
D45*
X054525Y009474D03*
X055865Y009474D03*
X057215Y009464D03*
X058535Y009474D03*
X059875Y009474D03*
X059195Y011484D03*
X057875Y011484D03*
X056515Y011484D03*
X055225Y011484D03*
X053835Y011474D03*
D46*
X053215Y007094D03*
X060215Y007094D03*
D47*
X042295Y010174D03*
X040985Y010324D03*
X036985Y008464D03*
X037525Y007924D03*
X031475Y010024D03*
X028905Y010024D03*
X026185Y010284D03*
X024665Y010274D03*
X024225Y010484D03*
X024225Y011314D03*
X025035Y011894D03*
X021755Y011894D03*
X018205Y013404D03*
X018250Y013849D03*
X016805Y013134D03*
X016843Y012291D03*
X017915Y011474D03*
X017295Y011264D03*
X016805Y011194D03*
X017685Y010684D03*
X018035Y010564D03*
X015405Y012214D03*
X015375Y012634D03*
X015215Y013124D03*
X014855Y013374D03*
X014405Y012864D03*
X013835Y013694D03*
X014165Y013784D03*
X014585Y014224D03*
X015095Y014454D03*
X015465Y014204D03*
X015875Y014264D03*
X014580Y015158D03*
X014595Y015174D03*
X014175Y015424D03*
X014675Y015694D03*
X014045Y015934D03*
X013015Y015154D03*
X013145Y014854D03*
X012935Y014524D03*
X013685Y014624D03*
X015665Y016254D03*
X017025Y016164D03*
X018155Y016524D03*
X018555Y016124D03*
X018185Y015504D03*
X017485Y015454D03*
X020375Y015514D03*
X023905Y016694D03*
X025581Y016694D03*
X026175Y016324D03*
X024965Y015034D03*
X019085Y017704D03*
X019685Y018844D03*
X019525Y021064D03*
X021875Y021904D03*
X024515Y021584D03*
X025265Y020124D03*
X029165Y021104D03*
X031095Y020754D03*
X031655Y019494D03*
X034175Y019694D03*
X032375Y017844D03*
X037805Y016224D03*
X037805Y015234D03*
X035575Y014264D03*
X036985Y012884D03*
X042295Y013734D03*
X040985Y015594D03*
X043475Y018494D03*
X041765Y019034D03*
X041515Y023184D03*
X040085Y025764D03*
X032535Y025764D03*
X029165Y022344D03*
X023395Y025814D03*
X019625Y027604D03*
X018695Y027074D03*
X018355Y027334D03*
X017845Y027974D03*
X018475Y028604D03*
X017895Y025174D03*
X017015Y025174D03*
X012815Y022314D03*
X010575Y023294D03*
X009125Y022854D03*
X008135Y022844D03*
X009955Y021904D03*
X011105Y021054D03*
X012815Y021214D03*
X014115Y018684D03*
X012735Y017524D03*
X011015Y018124D03*
X009645Y018124D03*
X008905Y017374D03*
X007675Y016594D03*
X007095Y015674D03*
X003935Y016594D03*
X002225Y016254D03*
X003605Y015414D03*
X009535Y012134D03*
X013065Y009334D03*
X014735Y009534D03*
X017395Y008564D03*
X017915Y008684D03*
X016825Y008060D03*
X015245Y007264D03*
X014725Y006984D03*
X014435Y006724D03*
X013945Y006484D03*
X015105Y006064D03*
X014175Y005674D03*
X013445Y005674D03*
X012955Y005284D03*
X012175Y004994D03*
X011075Y005194D03*
X019945Y008804D03*
X020175Y008564D03*
X020775Y008564D03*
X021185Y008814D03*
X021175Y006874D03*
X023115Y004384D03*
X023845Y003504D03*
X010945Y015934D03*
X011295Y016594D03*
X003395Y022994D03*
X002775Y022994D03*
X002975Y024694D03*
X005719Y024638D03*
X006505Y024374D03*
X008483Y024794D03*
X008493Y024794D03*
X010485Y024804D03*
X010575Y024154D03*
D48*
X008985Y020774D03*
X007935Y020744D03*
X013845Y012584D03*
X009555Y008604D03*
X042745Y010934D03*
X042785Y013704D03*
X046225Y015974D03*
X027905Y024854D03*
X028175Y025844D03*
X055195Y006004D03*
D49*
X051485Y006074D03*
X029375Y009154D03*
X025355Y009244D03*
X023475Y009704D03*
X022735Y010314D03*
X020075Y011234D03*
X013365Y013804D03*
X011825Y013784D03*
X011645Y013264D03*
X010825Y013384D03*
X011135Y015154D03*
X011985Y015154D03*
D50*
X019335Y020124D03*
X027245Y003454D03*
X057705Y004044D03*
D51*
X033135Y018434D03*
M02*
