G75*
G70*
%OFA0B0*%
%FSLAX24Y24*%
%IPPOS*%
%LPD*%
%AMOC8*
5,1,8,0,0,1.08239X$1,22.5*
%
%ADD10C,0.0680*%
%ADD11C,0.0600*%
%ADD12OC8,0.0600*%
%ADD13C,0.0640*%
%ADD14C,0.0740*%
%ADD15C,0.1380*%
%ADD16C,0.1070*%
%ADD17C,0.0966*%
%ADD18C,0.0520*%
%ADD19C,0.1080*%
%ADD20OC8,0.1080*%
%ADD21OC8,0.0710*%
%ADD22C,0.0710*%
%ADD23C,0.0740*%
%ADD24C,0.0516*%
%ADD25R,0.0516X0.0516*%
%ADD26C,0.0480*%
%ADD27C,0.0848*%
%ADD28C,0.1740*%
%ADD29C,0.1975*%
%ADD30C,0.0671*%
%ADD31C,0.0555*%
%ADD32C,0.1582*%
%ADD33C,0.1261*%
D10*
X018666Y002323D02*
X018666Y002923D01*
X019666Y002923D02*
X019666Y002323D01*
X025916Y003823D02*
X025916Y004423D01*
X026916Y004423D02*
X026916Y003823D01*
X027916Y003823D02*
X027916Y004423D01*
X028916Y004423D02*
X028916Y003823D01*
X034666Y003423D02*
X034666Y002823D01*
X035666Y002823D02*
X035666Y003423D01*
X036666Y003423D02*
X036666Y002823D01*
X037666Y002823D02*
X037666Y003423D01*
X046666Y007573D02*
X046666Y008173D01*
X047666Y008173D02*
X047666Y007573D01*
X048666Y007573D02*
X048666Y008173D01*
X063366Y005373D02*
X063966Y005373D01*
X063966Y004373D02*
X063366Y004373D01*
X037666Y036823D02*
X037666Y037423D01*
X036666Y037423D02*
X036666Y036823D01*
X035666Y036823D02*
X035666Y037423D01*
X019166Y037673D02*
X019166Y037073D01*
X018166Y037073D02*
X018166Y037673D01*
D11*
X017926Y032623D02*
X017406Y032623D01*
X017406Y031623D02*
X017926Y031623D01*
X017926Y030623D02*
X017406Y030623D01*
X017406Y029623D02*
X017926Y029623D01*
X020406Y029623D02*
X020926Y029623D01*
X020926Y030623D02*
X020406Y030623D01*
X020406Y031623D02*
X020926Y031623D01*
X020926Y032623D02*
X020406Y032623D01*
X024166Y029383D02*
X024166Y028863D01*
X025166Y028863D02*
X025166Y029383D01*
X026166Y029383D02*
X026166Y028863D01*
X027166Y028863D02*
X027166Y029383D01*
X028166Y029383D02*
X028166Y028863D01*
X029166Y028863D02*
X029166Y029383D01*
X030166Y029383D02*
X030166Y028863D01*
X030166Y026383D02*
X030166Y025863D01*
X029166Y025863D02*
X029166Y026383D01*
X028166Y026383D02*
X028166Y025863D01*
X027166Y025863D02*
X027166Y026383D01*
X026166Y026383D02*
X026166Y025863D01*
X025166Y025863D02*
X025166Y026383D01*
X024166Y026383D02*
X024166Y025863D01*
X020926Y024623D02*
X020406Y024623D01*
X020406Y023623D02*
X020926Y023623D01*
X020926Y022623D02*
X020406Y022623D01*
X020406Y021623D02*
X020926Y021623D01*
X017926Y021623D02*
X017406Y021623D01*
X017406Y022623D02*
X017926Y022623D01*
X017926Y023623D02*
X017406Y023623D01*
X017406Y024623D02*
X017926Y024623D01*
X024166Y022383D02*
X024166Y021863D01*
X025166Y021863D02*
X025166Y022383D01*
X026166Y022383D02*
X026166Y021863D01*
X027166Y021863D02*
X027166Y022383D01*
X028166Y022383D02*
X028166Y021863D01*
X029166Y021863D02*
X029166Y022383D01*
X030166Y022383D02*
X030166Y021863D01*
X030166Y019383D02*
X030166Y018863D01*
X029166Y018863D02*
X029166Y019383D01*
X028166Y019383D02*
X028166Y018863D01*
X027166Y018863D02*
X027166Y019383D01*
X026166Y019383D02*
X026166Y018863D01*
X025166Y018863D02*
X025166Y019383D01*
X024166Y019383D02*
X024166Y018863D01*
X020926Y016623D02*
X020406Y016623D01*
X020406Y015623D02*
X020926Y015623D01*
X020926Y014623D02*
X020406Y014623D01*
X020406Y013623D02*
X020926Y013623D01*
X023666Y014623D02*
X023666Y015143D01*
X024666Y015143D02*
X024666Y014623D01*
X025666Y014623D02*
X025666Y015143D01*
X026666Y015143D02*
X026666Y014623D01*
X027666Y014623D02*
X027666Y015143D01*
X028666Y015143D02*
X028666Y014623D01*
X029666Y014623D02*
X029666Y015143D01*
X030666Y015143D02*
X030666Y014623D01*
X030666Y011623D02*
X030666Y011103D01*
X029666Y011103D02*
X029666Y011623D01*
X028666Y011623D02*
X028666Y011103D01*
X027666Y011103D02*
X027666Y011623D01*
X026666Y011623D02*
X026666Y011103D01*
X025666Y011103D02*
X025666Y011623D01*
X024666Y011623D02*
X024666Y011103D01*
X023666Y011103D02*
X023666Y011623D01*
X020926Y008623D02*
X020406Y008623D01*
X020406Y007623D02*
X020926Y007623D01*
X020926Y006623D02*
X020406Y006623D01*
X020406Y005623D02*
X020926Y005623D01*
X017926Y005623D02*
X017406Y005623D01*
X017406Y006623D02*
X017926Y006623D01*
X017926Y007623D02*
X017406Y007623D01*
X017406Y008623D02*
X017926Y008623D01*
X017926Y013623D02*
X017406Y013623D01*
X017406Y014623D02*
X017926Y014623D01*
X017926Y015623D02*
X017406Y015623D01*
X017406Y016623D02*
X017926Y016623D01*
X049166Y018363D02*
X049166Y018883D01*
X050166Y018883D02*
X050166Y018363D01*
X051166Y018363D02*
X051166Y018883D01*
X052166Y018883D02*
X052166Y018363D01*
X053166Y018363D02*
X053166Y018883D01*
X054166Y018883D02*
X054166Y018363D01*
X055166Y018363D02*
X055166Y018883D01*
X055166Y021363D02*
X055166Y021883D01*
X054166Y021883D02*
X054166Y021363D01*
X053166Y021363D02*
X053166Y021883D01*
X052166Y021883D02*
X052166Y021363D01*
X051166Y021363D02*
X051166Y021883D01*
X050166Y021883D02*
X050166Y021363D01*
X049166Y021363D02*
X049166Y021883D01*
X049166Y026863D02*
X049166Y027383D01*
X050166Y027383D02*
X050166Y026863D01*
X051166Y026863D02*
X051166Y027383D01*
X052166Y027383D02*
X052166Y026863D01*
X053166Y026863D02*
X053166Y027383D01*
X054166Y027383D02*
X054166Y026863D01*
X055166Y026863D02*
X055166Y027383D01*
X055166Y029863D02*
X055166Y030383D01*
X054166Y030383D02*
X054166Y029863D01*
X053166Y029863D02*
X053166Y030383D01*
X052166Y030383D02*
X052166Y029863D01*
X051166Y029863D02*
X051166Y030383D01*
X050166Y030383D02*
X050166Y029863D01*
X049166Y029863D02*
X049166Y030383D01*
X058906Y020873D02*
X059426Y020873D01*
X059426Y019873D02*
X058906Y019873D01*
X058906Y018873D02*
X059426Y018873D01*
X059426Y017873D02*
X058906Y017873D01*
X061906Y017873D02*
X062426Y017873D01*
X062426Y018873D02*
X061906Y018873D01*
X061906Y019873D02*
X062426Y019873D01*
X062426Y020873D02*
X061906Y020873D01*
X055166Y013883D02*
X055166Y013363D01*
X054166Y013363D02*
X054166Y013883D01*
X053166Y013883D02*
X053166Y013363D01*
X052166Y013363D02*
X052166Y013883D01*
X051166Y013883D02*
X051166Y013363D01*
X050166Y013363D02*
X050166Y013883D01*
X049166Y013883D02*
X049166Y013363D01*
X049166Y010883D02*
X049166Y010363D01*
X050166Y010363D02*
X050166Y010883D01*
X051166Y010883D02*
X051166Y010363D01*
X052166Y010363D02*
X052166Y010883D01*
X053166Y010883D02*
X053166Y010363D01*
X054166Y010363D02*
X054166Y010883D01*
X055166Y010883D02*
X055166Y010363D01*
D12*
X056416Y010623D03*
X057666Y010623D03*
X059166Y013373D03*
X057666Y013623D03*
X056416Y013623D03*
X059166Y014873D03*
X062166Y014873D03*
X062166Y013373D03*
X057666Y018623D03*
X056416Y018623D03*
X056416Y021623D03*
X057666Y021623D03*
X057666Y027123D03*
X056416Y027123D03*
X056416Y030123D03*
X057666Y030123D03*
X045666Y029123D03*
X045666Y028123D03*
X046916Y021623D03*
X047916Y021623D03*
X045666Y021123D03*
X045666Y019123D03*
X046916Y018623D03*
X047916Y018623D03*
X047916Y013873D03*
X046916Y013873D03*
X045666Y012873D03*
X045666Y011873D03*
X046916Y010873D03*
X047916Y010873D03*
X032166Y011623D03*
X032166Y014623D03*
X031666Y020123D03*
X031666Y021123D03*
X031666Y027123D03*
X031666Y028123D03*
X025666Y032623D03*
X025666Y034123D03*
X025666Y035623D03*
X025666Y037123D03*
X022666Y037123D03*
X022666Y035623D03*
X022666Y034123D03*
X022666Y032623D03*
X040166Y035123D03*
X040166Y038123D03*
X022166Y014623D03*
X022166Y011623D03*
X022416Y005623D03*
X023666Y005623D03*
X023666Y002623D03*
X022416Y002623D03*
X031166Y002623D03*
X032416Y002623D03*
X032416Y005623D03*
X031166Y005623D03*
D13*
X020166Y010343D02*
X020166Y010903D01*
X019166Y010903D02*
X019166Y010343D01*
X018166Y010343D02*
X018166Y010903D01*
X018166Y018343D02*
X018166Y018903D01*
X019166Y018903D02*
X019166Y018343D01*
X020166Y018343D02*
X020166Y018903D01*
X020166Y026343D02*
X020166Y026903D01*
X019166Y026903D02*
X019166Y026343D01*
X018166Y026343D02*
X018166Y026903D01*
X018166Y034343D02*
X018166Y034903D01*
X019166Y034903D02*
X019166Y034343D01*
X020166Y034343D02*
X020166Y034903D01*
D14*
X008996Y033123D02*
X008336Y033123D01*
X008336Y032123D02*
X008996Y032123D01*
X008996Y031123D02*
X008336Y031123D01*
X008336Y025123D02*
X008996Y025123D01*
X008996Y024123D02*
X008336Y024123D01*
X008336Y023123D02*
X008996Y023123D01*
X008996Y017623D02*
X008336Y017623D01*
X008336Y016623D02*
X008996Y016623D01*
X008996Y015623D02*
X008336Y015623D01*
X008336Y009623D02*
X008996Y009623D01*
X008996Y008623D02*
X008336Y008623D01*
X008336Y007623D02*
X008996Y007623D01*
D15*
X001766Y008623D03*
X001766Y016623D03*
X001766Y024123D03*
X001766Y032123D03*
D16*
X011386Y035878D02*
X011386Y036868D01*
X012946Y036868D02*
X012946Y035878D01*
X029616Y035878D02*
X029616Y036868D01*
X031176Y036868D02*
X031176Y035878D01*
X032736Y035878D02*
X032736Y036868D01*
X046386Y036378D02*
X046386Y037368D01*
X047946Y037368D02*
X047946Y036378D01*
X051116Y036378D02*
X051116Y037368D01*
X052676Y037368D02*
X052676Y036378D01*
X054236Y036378D02*
X054236Y037368D01*
X057616Y037368D02*
X057616Y036378D01*
X059176Y036378D02*
X059176Y037368D01*
X060736Y037368D02*
X060736Y036378D01*
X061921Y025403D02*
X062911Y025403D01*
X062911Y023843D02*
X061921Y023843D01*
X060716Y003618D02*
X060716Y002628D01*
X059156Y002628D02*
X059156Y003618D01*
X057596Y003618D02*
X057596Y002628D01*
X054216Y002628D02*
X054216Y003618D01*
X052656Y003618D02*
X052656Y002628D01*
X051096Y002628D02*
X051096Y003618D01*
X047946Y003618D02*
X047946Y002628D01*
X046386Y002628D02*
X046386Y003618D01*
X012946Y003618D02*
X012946Y002628D01*
X011386Y002628D02*
X011386Y003618D01*
D17*
X035823Y009123D02*
X036709Y009123D01*
X036973Y008123D02*
X037859Y008123D01*
X037859Y010123D02*
X036973Y010123D01*
X036709Y011123D02*
X035823Y011123D01*
X036723Y012123D02*
X037609Y012123D01*
X036709Y013123D02*
X035823Y013123D01*
X041923Y012623D02*
X042809Y012623D01*
X042723Y011123D02*
X043609Y011123D01*
X042809Y009623D02*
X041923Y009623D01*
X042723Y008123D02*
X043609Y008123D01*
X043609Y018123D02*
X042723Y018123D01*
X042809Y019623D02*
X041923Y019623D01*
X042723Y021123D02*
X043609Y021123D01*
X042809Y022623D02*
X041923Y022623D01*
X037859Y020123D02*
X036973Y020123D01*
X036709Y021123D02*
X035823Y021123D01*
X036723Y022123D02*
X037609Y022123D01*
X036709Y023123D02*
X035823Y023123D01*
X035823Y019123D02*
X036709Y019123D01*
X036973Y018123D02*
X037859Y018123D01*
X037859Y028123D02*
X036973Y028123D01*
X036709Y029123D02*
X035823Y029123D01*
X036973Y030123D02*
X037859Y030123D01*
X036709Y031123D02*
X035823Y031123D01*
X036723Y032123D02*
X037609Y032123D01*
X036709Y033123D02*
X035823Y033123D01*
X041923Y032623D02*
X042809Y032623D01*
X042723Y031123D02*
X043609Y031123D01*
X042809Y029623D02*
X041923Y029623D01*
X042723Y028123D02*
X043609Y028123D01*
D18*
X042666Y035623D03*
X042666Y036623D03*
X042666Y037623D03*
X043166Y004123D03*
X043166Y003123D03*
X043166Y002123D03*
X040166Y002123D03*
X040166Y003123D03*
X040166Y004123D03*
D19*
X062166Y029123D03*
D20*
X062166Y031123D03*
D21*
X061666Y010373D03*
D22*
X061666Y009373D03*
D23*
X062666Y016373D03*
X058666Y016373D03*
X034416Y018873D03*
X034416Y022873D03*
X034416Y028623D03*
X034416Y032623D03*
X034166Y012373D03*
X034166Y008373D03*
D24*
X032166Y009623D03*
X029416Y012373D03*
X030166Y012873D03*
X027166Y012873D03*
X025916Y012373D03*
X024666Y013873D03*
X023166Y013373D03*
X027666Y016623D03*
X023166Y018123D03*
X022166Y017123D03*
X027666Y020623D03*
X029666Y020623D03*
X030166Y023123D03*
X027666Y023123D03*
X027166Y024623D03*
X023666Y024623D03*
X022666Y023623D03*
X023666Y021123D03*
X023166Y026623D03*
X021166Y027623D03*
X022666Y029123D03*
X025166Y031123D03*
X038166Y032623D03*
X040666Y030123D03*
X040166Y027123D03*
X039166Y026623D03*
X043666Y027123D03*
X052166Y026123D03*
X053166Y026123D03*
X053666Y028123D03*
X058666Y031373D03*
X056666Y032623D03*
X048166Y032623D03*
X062166Y027123D03*
X047916Y019873D03*
X049166Y017623D03*
X050166Y015623D03*
X048666Y012623D03*
X055166Y017123D03*
X040166Y007623D03*
X027916Y005373D03*
X025916Y005623D03*
X022166Y009373D03*
D25*
X032666Y032623D03*
D26*
X033666Y035873D03*
X036666Y025873D03*
X038166Y024873D03*
X039166Y024373D03*
X032166Y018873D03*
X043666Y015873D03*
X043666Y012873D03*
X035666Y005373D03*
X049166Y024873D03*
X049666Y027873D03*
X054666Y028873D03*
X055666Y026373D03*
X057166Y026373D03*
D27*
X014416Y020373D03*
X014416Y017623D03*
X010666Y017623D03*
X014416Y011123D03*
X012166Y006123D03*
D28*
X012916Y020873D03*
D29*
X008916Y002373D03*
X063416Y002373D03*
X063416Y037873D03*
X008916Y037873D03*
D30*
X058656Y026373D03*
D31*
X061666Y001123D03*
D32*
X046166Y024373D03*
D33*
X053166Y033373D03*
X062666Y033373D03*
M02*
