G75*
G70*
%OFA0B0*%
%FSLAX24Y24*%
%IPPOS*%
%LPD*%
%AMOC8*
5,1,8,0,0,1.08239X$1,22.5*
%
%ADD10C,0.0600*%
%ADD11C,0.0520*%
%ADD12OC8,0.0520*%
%ADD13C,0.0560*%
%ADD14C,0.0660*%
%ADD15C,0.0990*%
%ADD16C,0.0886*%
%ADD17C,0.0440*%
%ADD18C,0.1000*%
%ADD19OC8,0.1000*%
%ADD20OC8,0.0630*%
%ADD21C,0.0630*%
%ADD22C,0.0660*%
%ADD23C,0.0160*%
%ADD24C,0.0436*%
%ADD25R,0.0436X0.0436*%
%ADD26C,0.0100*%
%ADD27C,0.0400*%
%ADD28C,0.0400*%
%ADD29C,0.0768*%
%ADD30C,0.0200*%
%ADD31C,0.1000*%
%ADD32C,0.1800*%
%ADD33C,0.0800*%
%ADD34C,0.1660*%
%ADD35C,0.1895*%
%ADD36C,0.0240*%
%ADD37C,0.0591*%
%ADD38C,0.0475*%
%ADD39C,0.0700*%
%ADD40C,0.1502*%
%ADD41C,0.1181*%
D10*
X001304Y004373D02*
X001904Y004373D01*
X001904Y005373D02*
X001304Y005373D01*
X016604Y007573D02*
X016604Y008173D01*
X017604Y008173D02*
X017604Y007573D01*
X018604Y007573D02*
X018604Y008173D01*
X027604Y003423D02*
X027604Y002823D01*
X028604Y002823D02*
X028604Y003423D01*
X029604Y003423D02*
X029604Y002823D01*
X030604Y002823D02*
X030604Y003423D01*
X036354Y003823D02*
X036354Y004423D01*
X037354Y004423D02*
X037354Y003823D01*
X038354Y003823D02*
X038354Y004423D01*
X039354Y004423D02*
X039354Y003823D01*
X045604Y002923D02*
X045604Y002323D01*
X046604Y002323D02*
X046604Y002923D01*
X047104Y037073D02*
X047104Y037673D01*
X046104Y037673D02*
X046104Y037073D01*
X029604Y036823D02*
X029604Y037423D01*
X028604Y037423D02*
X028604Y036823D01*
X027604Y036823D02*
X027604Y037423D01*
D11*
X016104Y030383D02*
X016104Y029863D01*
X015104Y029863D02*
X015104Y030383D01*
X014104Y030383D02*
X014104Y029863D01*
X013104Y029863D02*
X013104Y030383D01*
X012104Y030383D02*
X012104Y029863D01*
X011104Y029863D02*
X011104Y030383D01*
X010104Y030383D02*
X010104Y029863D01*
X010104Y027383D02*
X010104Y026863D01*
X011104Y026863D02*
X011104Y027383D01*
X012104Y027383D02*
X012104Y026863D01*
X013104Y026863D02*
X013104Y027383D01*
X014104Y027383D02*
X014104Y026863D01*
X015104Y026863D02*
X015104Y027383D01*
X016104Y027383D02*
X016104Y026863D01*
X016104Y021883D02*
X016104Y021363D01*
X015104Y021363D02*
X015104Y021883D01*
X014104Y021883D02*
X014104Y021363D01*
X013104Y021363D02*
X013104Y021883D01*
X012104Y021883D02*
X012104Y021363D01*
X011104Y021363D02*
X011104Y021883D01*
X010104Y021883D02*
X010104Y021363D01*
X010104Y018883D02*
X010104Y018363D01*
X011104Y018363D02*
X011104Y018883D01*
X012104Y018883D02*
X012104Y018363D01*
X013104Y018363D02*
X013104Y018883D01*
X014104Y018883D02*
X014104Y018363D01*
X015104Y018363D02*
X015104Y018883D01*
X016104Y018883D02*
X016104Y018363D01*
X016104Y013883D02*
X016104Y013363D01*
X015104Y013363D02*
X015104Y013883D01*
X014104Y013883D02*
X014104Y013363D01*
X013104Y013363D02*
X013104Y013883D01*
X012104Y013883D02*
X012104Y013363D01*
X011104Y013363D02*
X011104Y013883D01*
X010104Y013883D02*
X010104Y013363D01*
X010104Y010883D02*
X010104Y010363D01*
X011104Y010363D02*
X011104Y010883D01*
X012104Y010883D02*
X012104Y010363D01*
X013104Y010363D02*
X013104Y010883D01*
X014104Y010883D02*
X014104Y010363D01*
X015104Y010363D02*
X015104Y010883D01*
X016104Y010883D02*
X016104Y010363D01*
X006364Y017873D02*
X005844Y017873D01*
X005844Y018873D02*
X006364Y018873D01*
X006364Y019873D02*
X005844Y019873D01*
X005844Y020873D02*
X006364Y020873D01*
X003364Y020873D02*
X002844Y020873D01*
X002844Y019873D02*
X003364Y019873D01*
X003364Y018873D02*
X002844Y018873D01*
X002844Y017873D02*
X003364Y017873D01*
X034604Y015143D02*
X034604Y014623D01*
X035604Y014623D02*
X035604Y015143D01*
X036604Y015143D02*
X036604Y014623D01*
X037604Y014623D02*
X037604Y015143D01*
X038604Y015143D02*
X038604Y014623D01*
X039604Y014623D02*
X039604Y015143D01*
X040604Y015143D02*
X040604Y014623D01*
X041604Y014623D02*
X041604Y015143D01*
X044344Y015623D02*
X044864Y015623D01*
X044864Y016623D02*
X044344Y016623D01*
X044344Y014623D02*
X044864Y014623D01*
X044864Y013623D02*
X044344Y013623D01*
X047344Y013623D02*
X047864Y013623D01*
X047864Y014623D02*
X047344Y014623D01*
X047344Y015623D02*
X047864Y015623D01*
X047864Y016623D02*
X047344Y016623D01*
X041104Y018863D02*
X041104Y019383D01*
X040104Y019383D02*
X040104Y018863D01*
X039104Y018863D02*
X039104Y019383D01*
X038104Y019383D02*
X038104Y018863D01*
X037104Y018863D02*
X037104Y019383D01*
X036104Y019383D02*
X036104Y018863D01*
X035104Y018863D02*
X035104Y019383D01*
X035104Y021863D02*
X035104Y022383D01*
X036104Y022383D02*
X036104Y021863D01*
X037104Y021863D02*
X037104Y022383D01*
X038104Y022383D02*
X038104Y021863D01*
X039104Y021863D02*
X039104Y022383D01*
X040104Y022383D02*
X040104Y021863D01*
X041104Y021863D02*
X041104Y022383D01*
X044344Y022623D02*
X044864Y022623D01*
X044864Y021623D02*
X044344Y021623D01*
X044344Y023623D02*
X044864Y023623D01*
X044864Y024623D02*
X044344Y024623D01*
X047344Y024623D02*
X047864Y024623D01*
X047864Y023623D02*
X047344Y023623D01*
X047344Y022623D02*
X047864Y022623D01*
X047864Y021623D02*
X047344Y021623D01*
X041104Y025863D02*
X041104Y026383D01*
X040104Y026383D02*
X040104Y025863D01*
X039104Y025863D02*
X039104Y026383D01*
X038104Y026383D02*
X038104Y025863D01*
X037104Y025863D02*
X037104Y026383D01*
X036104Y026383D02*
X036104Y025863D01*
X035104Y025863D02*
X035104Y026383D01*
X035104Y028863D02*
X035104Y029383D01*
X036104Y029383D02*
X036104Y028863D01*
X037104Y028863D02*
X037104Y029383D01*
X038104Y029383D02*
X038104Y028863D01*
X039104Y028863D02*
X039104Y029383D01*
X040104Y029383D02*
X040104Y028863D01*
X041104Y028863D02*
X041104Y029383D01*
X044344Y029623D02*
X044864Y029623D01*
X044864Y030623D02*
X044344Y030623D01*
X044344Y031623D02*
X044864Y031623D01*
X044864Y032623D02*
X044344Y032623D01*
X047344Y032623D02*
X047864Y032623D01*
X047864Y031623D02*
X047344Y031623D01*
X047344Y030623D02*
X047864Y030623D01*
X047864Y029623D02*
X047344Y029623D01*
X041604Y011623D02*
X041604Y011103D01*
X040604Y011103D02*
X040604Y011623D01*
X039604Y011623D02*
X039604Y011103D01*
X038604Y011103D02*
X038604Y011623D01*
X037604Y011623D02*
X037604Y011103D01*
X036604Y011103D02*
X036604Y011623D01*
X035604Y011623D02*
X035604Y011103D01*
X034604Y011103D02*
X034604Y011623D01*
X044344Y008623D02*
X044864Y008623D01*
X044864Y007623D02*
X044344Y007623D01*
X044344Y006623D02*
X044864Y006623D01*
X044864Y005623D02*
X044344Y005623D01*
X047344Y005623D02*
X047864Y005623D01*
X047864Y006623D02*
X047344Y006623D01*
X047344Y007623D02*
X047864Y007623D01*
X047864Y008623D02*
X047344Y008623D01*
D12*
X042854Y005623D03*
X041604Y005623D03*
X041604Y002623D03*
X042854Y002623D03*
X034104Y002623D03*
X032854Y002623D03*
X032854Y005623D03*
X034104Y005623D03*
X033104Y011623D03*
X033104Y014623D03*
X033604Y020123D03*
X033604Y021123D03*
X033604Y027123D03*
X033604Y028123D03*
X039604Y032623D03*
X039604Y034123D03*
X039604Y035623D03*
X039604Y037123D03*
X042604Y037123D03*
X042604Y035623D03*
X042604Y034123D03*
X042604Y032623D03*
X025104Y035123D03*
X025104Y038123D03*
X019604Y029123D03*
X019604Y028123D03*
X018354Y021623D03*
X017354Y021623D03*
X019604Y021123D03*
X019604Y019123D03*
X018354Y018623D03*
X017354Y018623D03*
X017354Y013873D03*
X018354Y013873D03*
X019604Y012873D03*
X019604Y011873D03*
X018354Y010873D03*
X017354Y010873D03*
X008854Y010623D03*
X007604Y010623D03*
X006104Y013373D03*
X007604Y013623D03*
X008854Y013623D03*
X006104Y014873D03*
X003104Y014873D03*
X003104Y013373D03*
X007604Y018623D03*
X008854Y018623D03*
X008854Y021623D03*
X007604Y021623D03*
X007604Y027123D03*
X008854Y027123D03*
X008854Y030123D03*
X007604Y030123D03*
X043104Y014623D03*
X043104Y011623D03*
D13*
X045104Y010903D02*
X045104Y010343D01*
X046104Y010343D02*
X046104Y010903D01*
X047104Y010903D02*
X047104Y010343D01*
X047104Y018343D02*
X047104Y018903D01*
X046104Y018903D02*
X046104Y018343D01*
X045104Y018343D02*
X045104Y018903D01*
X045104Y026343D02*
X045104Y026903D01*
X046104Y026903D02*
X046104Y026343D01*
X047104Y026343D02*
X047104Y026903D01*
X047104Y034343D02*
X047104Y034903D01*
X046104Y034903D02*
X046104Y034343D01*
X045104Y034343D02*
X045104Y034903D01*
D14*
X056274Y033123D02*
X056934Y033123D01*
X056934Y032123D02*
X056274Y032123D01*
X056274Y031123D02*
X056934Y031123D01*
X056934Y025123D02*
X056274Y025123D01*
X056274Y024123D02*
X056934Y024123D01*
X056934Y023123D02*
X056274Y023123D01*
X056274Y017623D02*
X056934Y017623D01*
X056934Y016623D02*
X056274Y016623D01*
X056274Y015623D02*
X056934Y015623D01*
X056934Y009623D02*
X056274Y009623D01*
X056274Y008623D02*
X056934Y008623D01*
X056934Y007623D02*
X056274Y007623D01*
D15*
X053884Y003618D02*
X053884Y002628D01*
X052324Y002628D02*
X052324Y003618D01*
X018884Y003618D02*
X018884Y002628D01*
X017324Y002628D02*
X017324Y003618D01*
X014174Y003618D02*
X014174Y002628D01*
X012614Y002628D02*
X012614Y003618D01*
X011054Y003618D02*
X011054Y002628D01*
X007674Y002628D02*
X007674Y003618D01*
X006114Y003618D02*
X006114Y002628D01*
X004554Y002628D02*
X004554Y003618D01*
X003349Y023843D02*
X002359Y023843D01*
X002359Y025403D02*
X003349Y025403D01*
X004534Y036378D02*
X004534Y037368D01*
X006094Y037368D02*
X006094Y036378D01*
X007654Y036378D02*
X007654Y037368D01*
X011034Y037368D02*
X011034Y036378D01*
X012594Y036378D02*
X012594Y037368D01*
X014154Y037368D02*
X014154Y036378D01*
X017324Y036378D02*
X017324Y037368D01*
X018884Y037368D02*
X018884Y036378D01*
X032534Y036868D02*
X032534Y035878D01*
X034094Y035878D02*
X034094Y036868D01*
X035654Y036868D02*
X035654Y035878D01*
X052324Y035878D02*
X052324Y036868D01*
X053884Y036868D02*
X053884Y035878D01*
D16*
X029447Y033123D02*
X028561Y033123D01*
X028547Y032123D02*
X027661Y032123D01*
X028561Y031123D02*
X029447Y031123D01*
X028297Y030123D02*
X027411Y030123D01*
X028561Y029123D02*
X029447Y029123D01*
X028297Y028123D02*
X027411Y028123D01*
X023347Y029623D02*
X022461Y029623D01*
X022547Y031123D02*
X021661Y031123D01*
X022461Y032623D02*
X023347Y032623D01*
X022547Y028123D02*
X021661Y028123D01*
X028561Y023123D02*
X029447Y023123D01*
X028547Y022123D02*
X027661Y022123D01*
X028561Y021123D02*
X029447Y021123D01*
X028297Y020123D02*
X027411Y020123D01*
X028561Y019123D02*
X029447Y019123D01*
X028297Y018123D02*
X027411Y018123D01*
X023347Y019623D02*
X022461Y019623D01*
X022547Y021123D02*
X021661Y021123D01*
X022461Y022623D02*
X023347Y022623D01*
X022547Y018123D02*
X021661Y018123D01*
X028561Y013123D02*
X029447Y013123D01*
X028547Y012123D02*
X027661Y012123D01*
X028561Y011123D02*
X029447Y011123D01*
X028297Y010123D02*
X027411Y010123D01*
X028561Y009123D02*
X029447Y009123D01*
X028297Y008123D02*
X027411Y008123D01*
X023347Y009623D02*
X022461Y009623D01*
X022547Y011123D02*
X021661Y011123D01*
X022461Y012623D02*
X023347Y012623D01*
X022547Y008123D02*
X021661Y008123D01*
D17*
X022104Y004123D03*
X022104Y003123D03*
X022104Y002123D03*
X025104Y002123D03*
X025104Y003123D03*
X025104Y004123D03*
X022604Y035623D03*
X022604Y036623D03*
X022604Y037623D03*
D18*
X003104Y029123D03*
D19*
X003104Y031123D03*
D20*
X003604Y010373D03*
D21*
X003604Y009373D03*
D22*
X002604Y016373D03*
X006604Y016373D03*
X030854Y018873D03*
X030854Y022873D03*
X030854Y028623D03*
X030854Y032623D03*
X031104Y012373D03*
X031104Y008373D03*
D23*
X029004Y009123D02*
X026604Y009123D01*
X026104Y008623D01*
X026104Y007623D01*
X023604Y005123D01*
X023604Y003123D01*
X022604Y002123D01*
X022104Y002123D01*
X022104Y003123D02*
X022104Y004123D01*
X022104Y003123D01*
X022104Y004123D02*
X022104Y005123D01*
X024604Y008623D01*
X024604Y030123D01*
X024104Y031123D02*
X024104Y022373D01*
X024104Y013123D01*
X023604Y012623D01*
X022904Y012623D01*
X026604Y011623D02*
X026604Y035123D01*
X025104Y035123D01*
X026604Y035123D02*
X026604Y036123D01*
X027604Y037123D01*
X029104Y038123D02*
X029604Y037623D01*
X029604Y037123D01*
X029604Y036123D01*
X027104Y033623D01*
X027104Y032623D01*
X026104Y032123D02*
X026104Y026623D01*
X025104Y027123D02*
X025104Y014873D01*
X025104Y007623D01*
X027854Y008123D02*
X028104Y007873D01*
X028104Y005123D01*
X025104Y002123D01*
X025104Y003123D02*
X025104Y004123D01*
X031604Y005123D02*
X031604Y019623D01*
X031604Y029123D01*
X035604Y032373D01*
X035654Y036373D01*
X035604Y037873D02*
X034104Y036373D01*
X034104Y036623D01*
X034104Y036373D02*
X034104Y036123D01*
X034094Y036133D01*
X034094Y036373D01*
X032534Y036373D02*
X032534Y034193D01*
X032604Y033623D01*
X032604Y032623D01*
X035604Y031873D02*
X033104Y029373D01*
X033104Y018873D01*
X033604Y019623D02*
X034104Y019123D01*
X035104Y019123D01*
X035104Y017623D01*
X035604Y017123D01*
X037104Y017123D01*
X041104Y017123D01*
X041604Y016623D01*
X042604Y016623D01*
X044604Y014623D01*
X043604Y013623D01*
X043604Y007623D01*
X043604Y005623D01*
X044604Y006623D01*
X045604Y006623D02*
X045604Y006123D01*
X045104Y005623D01*
X044604Y005623D01*
X043604Y005623D02*
X043604Y004623D01*
X044104Y004123D01*
X045604Y004123D01*
X046604Y003123D01*
X046604Y002623D01*
X044104Y003623D02*
X044104Y004123D01*
X044104Y003623D02*
X043104Y002623D01*
X042854Y002623D01*
X042354Y002123D01*
X033104Y002123D01*
X032854Y002373D01*
X032854Y002623D01*
X034104Y002623D02*
X034104Y003123D01*
X033104Y004123D01*
X032604Y004123D01*
X031604Y005123D01*
X034104Y002623D02*
X041604Y002623D01*
X037354Y005373D02*
X033104Y009623D01*
X034604Y010623D02*
X035104Y010123D01*
X037104Y010123D01*
X037604Y010623D01*
X037604Y011623D01*
X036604Y011623D02*
X035604Y011623D01*
X035854Y012373D02*
X039354Y012373D01*
X039604Y011623D02*
X040604Y011623D01*
X041604Y011623D02*
X041604Y010623D01*
X041354Y010123D01*
X038854Y010123D01*
X038604Y010623D01*
X038604Y011623D01*
X038104Y012873D02*
X035104Y012873D01*
X035604Y013373D02*
X034604Y014123D01*
X034604Y014623D01*
X035604Y014623D02*
X035604Y015623D01*
X036104Y016123D01*
X039104Y016123D01*
X039604Y015623D01*
X039604Y014623D01*
X040604Y013873D02*
X037354Y013873D01*
X036604Y014623D01*
X035604Y015623D02*
X031604Y019623D01*
X033604Y019623D02*
X033604Y020123D01*
X033604Y021123D02*
X033604Y023623D01*
X035104Y025123D01*
X040104Y025123D01*
X041104Y024123D01*
X041104Y022123D01*
X041604Y022123D01*
X042604Y023623D01*
X041604Y024623D02*
X041104Y025123D01*
X041104Y026123D01*
X041604Y027123D02*
X040604Y027123D01*
X040104Y027623D01*
X040104Y029123D01*
X039104Y030623D02*
X038104Y029623D01*
X038104Y029123D01*
X037104Y029123D01*
X036104Y029123D01*
X035104Y030623D02*
X037604Y030623D01*
X038104Y031123D01*
X040104Y031123D01*
X040104Y031873D02*
X035604Y031873D01*
X035104Y030623D02*
X033604Y029123D01*
X033604Y028123D01*
X033604Y027123D02*
X033604Y026623D01*
X034104Y026123D01*
X035104Y026123D01*
X036104Y024123D02*
X037604Y024123D01*
X038104Y024623D01*
X036104Y024123D02*
X035104Y023123D01*
X037104Y022123D02*
X037104Y021623D01*
X037604Y021123D01*
X039604Y021123D01*
X040104Y021623D01*
X040104Y022123D01*
X039104Y022123D02*
X039104Y022623D01*
X038604Y023123D01*
X037604Y023123D01*
X037604Y020623D02*
X035604Y020623D01*
X036104Y019123D02*
X036104Y018123D01*
X036604Y017623D01*
X041604Y017623D01*
X042104Y018123D01*
X043104Y017123D02*
X044604Y015623D01*
X045104Y015623D01*
X045604Y015123D01*
X045604Y014123D01*
X045104Y013623D01*
X044604Y013623D01*
X042104Y013373D02*
X035604Y013373D01*
X034604Y013623D02*
X034604Y011623D01*
X034604Y010623D01*
X034604Y013623D02*
X033604Y014623D01*
X033104Y014623D01*
X037104Y017123D02*
X037604Y016623D01*
X038104Y019123D02*
X037104Y019123D01*
X040104Y019123D02*
X040104Y019623D01*
X041604Y021123D01*
X043854Y022123D02*
X044354Y022623D01*
X044604Y022623D01*
X045104Y022623D01*
X045604Y023123D01*
X045604Y024123D01*
X045104Y024623D01*
X044604Y024623D01*
X044354Y024873D01*
X044354Y025623D01*
X041854Y028123D01*
X041854Y029873D01*
X042604Y030623D01*
X039104Y030623D01*
X040104Y031873D02*
X040104Y034373D01*
X036604Y037873D01*
X035604Y037873D01*
X029104Y038123D02*
X025104Y038123D01*
X023604Y035623D02*
X022604Y036623D01*
X023604Y035623D02*
X023604Y034123D01*
X026104Y032123D01*
X024104Y031123D02*
X022904Y032323D01*
X022904Y032623D01*
X017104Y032623D02*
X016104Y031123D01*
X016104Y030123D01*
X015104Y029873D02*
X014104Y028873D01*
X010604Y028873D01*
X010104Y028123D02*
X011604Y028123D01*
X011604Y017123D01*
X013104Y015623D01*
X014104Y016623D01*
X014104Y018623D01*
X014604Y019123D02*
X015104Y018623D01*
X014604Y019123D02*
X014604Y022373D01*
X014604Y027873D01*
X016104Y027123D02*
X016104Y024873D01*
X013104Y026123D02*
X012604Y024123D01*
X012604Y019623D01*
X013104Y019123D01*
X013104Y018623D01*
X013104Y018123D01*
X011104Y018623D02*
X011104Y021623D01*
X012104Y021623D02*
X012104Y026123D01*
X009604Y026373D02*
X009604Y016373D01*
X006604Y016373D01*
X010104Y017123D02*
X010104Y018623D01*
X010104Y021623D01*
X006604Y021373D02*
X004604Y021373D01*
X003104Y019873D01*
X006604Y021373D02*
X006604Y024873D01*
X008104Y026373D01*
X007604Y027123D02*
X007354Y027373D01*
X007104Y027373D01*
X006604Y027873D01*
X006604Y031373D01*
X008104Y031623D02*
X008604Y032623D01*
X008104Y031623D02*
X008104Y028623D01*
X008854Y027873D01*
X008854Y027123D01*
X010104Y028123D02*
X008854Y029373D01*
X008854Y030123D01*
X003104Y031123D02*
X002604Y031123D01*
X003104Y029123D02*
X003104Y027123D01*
X014604Y022623D02*
X014604Y022373D01*
X017354Y021623D02*
X017354Y019873D01*
X018354Y019873D02*
X018604Y019123D01*
X019104Y018623D01*
X019104Y014623D01*
X018354Y013873D01*
X016604Y012623D02*
X016104Y012123D01*
X016104Y010623D01*
X014104Y010623D02*
X014104Y013623D01*
X014104Y014623D01*
X013104Y015623D01*
X015104Y015623D02*
X015104Y013623D01*
X016104Y013623D02*
X016104Y017623D01*
X016604Y018373D02*
X016604Y027873D01*
X021604Y027123D02*
X022104Y027123D01*
X022904Y026323D01*
X022904Y022623D01*
X018354Y021623D02*
X018354Y019873D01*
X010604Y018123D02*
X010104Y018623D01*
X010604Y018123D02*
X010604Y012623D01*
X012104Y011123D01*
X012104Y010623D01*
X012104Y011623D01*
X013104Y012623D01*
X013104Y013623D01*
X012104Y010623D02*
X011104Y010623D01*
X012104Y010623D01*
X026604Y011623D02*
X027104Y011123D01*
X029004Y011123D01*
X039354Y005623D02*
X043104Y009373D01*
X044604Y008623D02*
X043604Y007623D01*
X044604Y007623D02*
X045604Y006623D01*
X041604Y014623D02*
X041604Y016623D01*
X043854Y017373D02*
X043854Y022123D01*
X042104Y026623D02*
X041604Y027123D01*
X042604Y029123D02*
X044104Y027623D01*
X044604Y029623D02*
X045104Y029623D01*
X045604Y030123D01*
X045604Y031123D01*
X045104Y031623D01*
X044604Y031623D01*
X045104Y031623D02*
X045604Y032123D01*
X045604Y032623D01*
X042604Y035623D01*
X044104Y032623D02*
X044604Y032623D01*
X044104Y032623D02*
X043604Y032123D01*
X043604Y030623D01*
X044604Y030623D01*
X043604Y030623D02*
X042604Y030623D01*
X030104Y029873D02*
X029604Y029873D01*
X014604Y038623D02*
X014104Y038403D01*
X014354Y038653D01*
X043854Y017373D02*
X044604Y016623D01*
D24*
X043104Y017123D03*
X042104Y018123D03*
X041604Y021123D03*
X037604Y020623D03*
X035604Y020623D03*
X035104Y023123D03*
X037604Y023123D03*
X038104Y024623D03*
X041604Y024623D03*
X042604Y023623D03*
X042104Y026623D03*
X044104Y027623D03*
X042604Y029123D03*
X040104Y031123D03*
X027104Y032623D03*
X024604Y030123D03*
X025104Y027123D03*
X026104Y026623D03*
X021604Y027123D03*
X013104Y026123D03*
X012104Y026123D03*
X011604Y028123D03*
X006604Y031373D03*
X008604Y032623D03*
X017104Y032623D03*
X003104Y027123D03*
X017354Y019873D03*
X016104Y017623D03*
X015104Y015623D03*
X016604Y012623D03*
X010104Y017123D03*
X025104Y007623D03*
X033104Y009623D03*
X035854Y012373D03*
X035104Y012873D03*
X038104Y012873D03*
X039354Y012373D03*
X040604Y013873D03*
X042104Y013373D03*
X037604Y016623D03*
X043104Y009373D03*
X039354Y005623D03*
X037354Y005373D03*
D25*
X032604Y032623D03*
D26*
X029604Y029873D02*
X029104Y029373D01*
X029004Y029123D01*
X028604Y025873D02*
X027604Y024873D01*
X027104Y024873D01*
X026104Y024373D02*
X026104Y014873D01*
X025104Y014873D01*
X021604Y015873D02*
X021604Y012873D01*
X021604Y015873D02*
X021604Y017873D01*
X022104Y017873D01*
X022104Y018123D01*
X017104Y017873D02*
X016604Y018373D01*
X017104Y017873D02*
X017104Y013873D01*
X017354Y013873D01*
X016604Y007873D02*
X005604Y007873D01*
X005604Y016373D01*
X006104Y016873D01*
X007104Y016873D01*
X007104Y021873D01*
X007604Y022373D01*
X008604Y022373D01*
X008604Y026373D01*
X008104Y026873D01*
X008104Y027373D01*
X007604Y027873D01*
X007104Y027873D01*
X007104Y031873D01*
X008604Y033373D01*
X009104Y033373D01*
X012104Y030373D01*
X012104Y030123D01*
X015104Y030123D02*
X015104Y029873D01*
X015604Y027873D02*
X016604Y027873D01*
X014604Y027873D02*
X012604Y027873D01*
X012104Y027373D01*
X012104Y027123D01*
X022904Y022623D02*
X023104Y022373D01*
X024104Y022373D01*
X006104Y018873D02*
X003604Y016373D01*
X002604Y016373D01*
X027604Y003373D02*
X027604Y003123D01*
X027604Y003373D02*
X029604Y005373D01*
X034094Y036373D02*
X034104Y036373D01*
X019604Y038873D02*
X019481Y038444D01*
D27*
X031604Y035873D03*
X028604Y025873D03*
X027104Y024873D03*
X026104Y024373D03*
X033104Y018873D03*
X021604Y015873D03*
X021604Y012873D03*
X029604Y005373D03*
X016104Y024873D03*
X015604Y027873D03*
X010604Y028873D03*
X009604Y026373D03*
X008104Y026373D03*
D28*
X003838Y006207D02*
X002004Y004373D01*
X001604Y004373D01*
X006114Y003123D02*
X006104Y002613D01*
X006104Y002123D01*
X006604Y001623D01*
X016604Y001623D01*
X017324Y002343D01*
X017324Y003123D01*
X047104Y010623D02*
X047604Y010623D01*
X048104Y010123D01*
X052112Y010123D01*
X053187Y011197D01*
X050854Y011123D02*
X050604Y011873D01*
X050604Y015123D01*
X049104Y016623D01*
X047604Y016623D01*
X047104Y018623D02*
X049854Y018623D01*
X050854Y017623D01*
X050854Y020373D02*
X050854Y023123D01*
X049604Y024623D01*
X047604Y024623D01*
X056604Y015623D02*
X057104Y015623D01*
X057604Y014873D01*
X057604Y006873D01*
X057104Y006123D01*
X053104Y006123D01*
X050604Y007623D02*
X050104Y008123D01*
X047604Y008623D01*
X050604Y007623D02*
X056604Y007623D01*
D29*
X053104Y006123D03*
X050854Y011123D03*
X050854Y017623D03*
X050854Y020373D03*
X054604Y017623D03*
D30*
X047604Y015623D02*
X047104Y015623D01*
X046604Y016123D01*
X046604Y017623D01*
X046104Y018623D01*
X045104Y018623D02*
X045104Y017623D01*
X046104Y016623D01*
X046104Y015123D01*
X047104Y014623D01*
X047604Y014623D01*
X047104Y010623D02*
X047104Y009123D01*
X046604Y008623D01*
X046604Y006123D01*
X047604Y005623D01*
X047604Y021623D02*
X046604Y022123D01*
X046604Y025623D01*
X047104Y026123D01*
X047104Y026623D01*
X047104Y030623D02*
X046104Y031623D01*
X046104Y033123D01*
X045104Y034623D01*
X046104Y034623D02*
X046604Y034123D01*
X046604Y032123D01*
X047104Y031623D01*
X047604Y031623D01*
X047604Y030623D02*
X047104Y030623D01*
D31*
X052354Y034623D02*
X052324Y036373D01*
X053884Y036373D02*
X054634Y034153D01*
X020604Y038123D02*
X019481Y038444D01*
X018854Y038623D01*
X014354Y038653D01*
X018604Y035873D02*
X018604Y025373D01*
X019104Y024373D01*
X005614Y023633D02*
X001104Y021123D01*
X001104Y008123D01*
X003838Y006207D01*
X006114Y004613D01*
X006114Y003123D01*
X018884Y003123D02*
X018884Y004903D01*
X020604Y006623D01*
X020604Y038123D01*
X007654Y036873D02*
X007604Y036823D01*
X007604Y035123D01*
X005614Y033133D01*
X005614Y028123D01*
X005614Y023633D01*
X006094Y036873D02*
X006104Y036883D01*
D32*
X052354Y034873D02*
X052354Y034623D01*
X052354Y020873D01*
X052354Y012123D01*
X053187Y011197D01*
X054604Y009623D01*
X054604Y017623D02*
X054604Y032123D01*
X054604Y034623D01*
X054634Y034153D01*
D33*
X054604Y032123D02*
X056604Y032123D01*
X056604Y017623D02*
X054604Y017623D01*
X054604Y009623D02*
X056604Y009623D01*
D34*
X052354Y020873D03*
D35*
X001854Y002373D03*
X056354Y002373D03*
X056354Y037873D03*
X001854Y037873D03*
D36*
X005614Y028123D02*
X006604Y026373D01*
X006614Y026373D01*
X019604Y038873D02*
X041604Y038873D01*
X044104Y036373D01*
X046604Y036373D01*
X047104Y037373D01*
X031604Y035873D02*
X031604Y029873D01*
X030104Y029873D01*
X030104Y002373D01*
X028354Y001123D01*
X003604Y001123D01*
D37*
X006614Y026373D03*
D38*
X003604Y001123D03*
D39*
X002854Y023843D02*
X002824Y023873D01*
X001604Y023873D01*
X001104Y024373D01*
X001104Y032373D01*
X002104Y033373D01*
X002604Y033373D01*
X006104Y036883D02*
X006104Y037873D01*
X006854Y038623D01*
X011104Y038623D01*
X012594Y038113D01*
X012594Y036873D01*
X011104Y038623D02*
X014604Y038623D01*
X017324Y036873D02*
X017324Y034093D01*
X017104Y033873D01*
X012604Y033873D01*
X012104Y033373D01*
X018604Y035873D02*
X018884Y036873D01*
D40*
X019104Y024373D03*
D41*
X012104Y033373D03*
X002604Y033373D03*
M02*
