G75*
G70*
%OFA0B0*%
%FSLAX24Y24*%
%IPPOS*%
%LPD*%
%AMOC8*
5,1,8,0,0,1.08239X$1,22.5*
%
%ADD10C,0.0680*%
%ADD11C,0.0600*%
%ADD12OC8,0.0600*%
%ADD13C,0.0640*%
%ADD14C,0.0740*%
%ADD15C,0.1380*%
%ADD16C,0.1070*%
%ADD17C,0.0966*%
%ADD18C,0.0520*%
%ADD19C,0.1080*%
%ADD20OC8,0.1080*%
%ADD21OC8,0.0710*%
%ADD22C,0.0710*%
%ADD23C,0.0740*%
%ADD24C,0.0516*%
%ADD25R,0.0516X0.0516*%
%ADD26C,0.0480*%
%ADD27C,0.0848*%
%ADD28C,0.1740*%
%ADD29C,0.1975*%
%ADD30C,0.0671*%
%ADD31C,0.0555*%
%ADD32C,0.1582*%
%ADD33C,0.1261*%
D10*
X001304Y004373D02*
X001904Y004373D01*
X001904Y005373D02*
X001304Y005373D01*
X016604Y007573D02*
X016604Y008173D01*
X017604Y008173D02*
X017604Y007573D01*
X018604Y007573D02*
X018604Y008173D01*
X027604Y003423D02*
X027604Y002823D01*
X028604Y002823D02*
X028604Y003423D01*
X029604Y003423D02*
X029604Y002823D01*
X030604Y002823D02*
X030604Y003423D01*
X036354Y003823D02*
X036354Y004423D01*
X037354Y004423D02*
X037354Y003823D01*
X038354Y003823D02*
X038354Y004423D01*
X039354Y004423D02*
X039354Y003823D01*
X045604Y002923D02*
X045604Y002323D01*
X046604Y002323D02*
X046604Y002923D01*
X047104Y037073D02*
X047104Y037673D01*
X046104Y037673D02*
X046104Y037073D01*
X029604Y036823D02*
X029604Y037423D01*
X028604Y037423D02*
X028604Y036823D01*
X027604Y036823D02*
X027604Y037423D01*
D11*
X016104Y030383D02*
X016104Y029863D01*
X015104Y029863D02*
X015104Y030383D01*
X014104Y030383D02*
X014104Y029863D01*
X013104Y029863D02*
X013104Y030383D01*
X012104Y030383D02*
X012104Y029863D01*
X011104Y029863D02*
X011104Y030383D01*
X010104Y030383D02*
X010104Y029863D01*
X010104Y027383D02*
X010104Y026863D01*
X011104Y026863D02*
X011104Y027383D01*
X012104Y027383D02*
X012104Y026863D01*
X013104Y026863D02*
X013104Y027383D01*
X014104Y027383D02*
X014104Y026863D01*
X015104Y026863D02*
X015104Y027383D01*
X016104Y027383D02*
X016104Y026863D01*
X016104Y021883D02*
X016104Y021363D01*
X015104Y021363D02*
X015104Y021883D01*
X014104Y021883D02*
X014104Y021363D01*
X013104Y021363D02*
X013104Y021883D01*
X012104Y021883D02*
X012104Y021363D01*
X011104Y021363D02*
X011104Y021883D01*
X010104Y021883D02*
X010104Y021363D01*
X010104Y018883D02*
X010104Y018363D01*
X011104Y018363D02*
X011104Y018883D01*
X012104Y018883D02*
X012104Y018363D01*
X013104Y018363D02*
X013104Y018883D01*
X014104Y018883D02*
X014104Y018363D01*
X015104Y018363D02*
X015104Y018883D01*
X016104Y018883D02*
X016104Y018363D01*
X016104Y013883D02*
X016104Y013363D01*
X015104Y013363D02*
X015104Y013883D01*
X014104Y013883D02*
X014104Y013363D01*
X013104Y013363D02*
X013104Y013883D01*
X012104Y013883D02*
X012104Y013363D01*
X011104Y013363D02*
X011104Y013883D01*
X010104Y013883D02*
X010104Y013363D01*
X010104Y010883D02*
X010104Y010363D01*
X011104Y010363D02*
X011104Y010883D01*
X012104Y010883D02*
X012104Y010363D01*
X013104Y010363D02*
X013104Y010883D01*
X014104Y010883D02*
X014104Y010363D01*
X015104Y010363D02*
X015104Y010883D01*
X016104Y010883D02*
X016104Y010363D01*
X006364Y017873D02*
X005844Y017873D01*
X005844Y018873D02*
X006364Y018873D01*
X006364Y019873D02*
X005844Y019873D01*
X005844Y020873D02*
X006364Y020873D01*
X003364Y020873D02*
X002844Y020873D01*
X002844Y019873D02*
X003364Y019873D01*
X003364Y018873D02*
X002844Y018873D01*
X002844Y017873D02*
X003364Y017873D01*
X034604Y015143D02*
X034604Y014623D01*
X035604Y014623D02*
X035604Y015143D01*
X036604Y015143D02*
X036604Y014623D01*
X037604Y014623D02*
X037604Y015143D01*
X038604Y015143D02*
X038604Y014623D01*
X039604Y014623D02*
X039604Y015143D01*
X040604Y015143D02*
X040604Y014623D01*
X041604Y014623D02*
X041604Y015143D01*
X044344Y015623D02*
X044864Y015623D01*
X044864Y016623D02*
X044344Y016623D01*
X044344Y014623D02*
X044864Y014623D01*
X044864Y013623D02*
X044344Y013623D01*
X047344Y013623D02*
X047864Y013623D01*
X047864Y014623D02*
X047344Y014623D01*
X047344Y015623D02*
X047864Y015623D01*
X047864Y016623D02*
X047344Y016623D01*
X041104Y018863D02*
X041104Y019383D01*
X040104Y019383D02*
X040104Y018863D01*
X039104Y018863D02*
X039104Y019383D01*
X038104Y019383D02*
X038104Y018863D01*
X037104Y018863D02*
X037104Y019383D01*
X036104Y019383D02*
X036104Y018863D01*
X035104Y018863D02*
X035104Y019383D01*
X035104Y021863D02*
X035104Y022383D01*
X036104Y022383D02*
X036104Y021863D01*
X037104Y021863D02*
X037104Y022383D01*
X038104Y022383D02*
X038104Y021863D01*
X039104Y021863D02*
X039104Y022383D01*
X040104Y022383D02*
X040104Y021863D01*
X041104Y021863D02*
X041104Y022383D01*
X044344Y022623D02*
X044864Y022623D01*
X044864Y021623D02*
X044344Y021623D01*
X044344Y023623D02*
X044864Y023623D01*
X044864Y024623D02*
X044344Y024623D01*
X047344Y024623D02*
X047864Y024623D01*
X047864Y023623D02*
X047344Y023623D01*
X047344Y022623D02*
X047864Y022623D01*
X047864Y021623D02*
X047344Y021623D01*
X041104Y025863D02*
X041104Y026383D01*
X040104Y026383D02*
X040104Y025863D01*
X039104Y025863D02*
X039104Y026383D01*
X038104Y026383D02*
X038104Y025863D01*
X037104Y025863D02*
X037104Y026383D01*
X036104Y026383D02*
X036104Y025863D01*
X035104Y025863D02*
X035104Y026383D01*
X035104Y028863D02*
X035104Y029383D01*
X036104Y029383D02*
X036104Y028863D01*
X037104Y028863D02*
X037104Y029383D01*
X038104Y029383D02*
X038104Y028863D01*
X039104Y028863D02*
X039104Y029383D01*
X040104Y029383D02*
X040104Y028863D01*
X041104Y028863D02*
X041104Y029383D01*
X044344Y029623D02*
X044864Y029623D01*
X044864Y030623D02*
X044344Y030623D01*
X044344Y031623D02*
X044864Y031623D01*
X044864Y032623D02*
X044344Y032623D01*
X047344Y032623D02*
X047864Y032623D01*
X047864Y031623D02*
X047344Y031623D01*
X047344Y030623D02*
X047864Y030623D01*
X047864Y029623D02*
X047344Y029623D01*
X041604Y011623D02*
X041604Y011103D01*
X040604Y011103D02*
X040604Y011623D01*
X039604Y011623D02*
X039604Y011103D01*
X038604Y011103D02*
X038604Y011623D01*
X037604Y011623D02*
X037604Y011103D01*
X036604Y011103D02*
X036604Y011623D01*
X035604Y011623D02*
X035604Y011103D01*
X034604Y011103D02*
X034604Y011623D01*
X044344Y008623D02*
X044864Y008623D01*
X044864Y007623D02*
X044344Y007623D01*
X044344Y006623D02*
X044864Y006623D01*
X044864Y005623D02*
X044344Y005623D01*
X047344Y005623D02*
X047864Y005623D01*
X047864Y006623D02*
X047344Y006623D01*
X047344Y007623D02*
X047864Y007623D01*
X047864Y008623D02*
X047344Y008623D01*
D12*
X042854Y005623D03*
X041604Y005623D03*
X041604Y002623D03*
X042854Y002623D03*
X034104Y002623D03*
X032854Y002623D03*
X032854Y005623D03*
X034104Y005623D03*
X033104Y011623D03*
X033104Y014623D03*
X033604Y020123D03*
X033604Y021123D03*
X033604Y027123D03*
X033604Y028123D03*
X039604Y032623D03*
X039604Y034123D03*
X039604Y035623D03*
X039604Y037123D03*
X042604Y037123D03*
X042604Y035623D03*
X042604Y034123D03*
X042604Y032623D03*
X025104Y035123D03*
X025104Y038123D03*
X019604Y029123D03*
X019604Y028123D03*
X018354Y021623D03*
X017354Y021623D03*
X019604Y021123D03*
X019604Y019123D03*
X018354Y018623D03*
X017354Y018623D03*
X017354Y013873D03*
X018354Y013873D03*
X019604Y012873D03*
X019604Y011873D03*
X018354Y010873D03*
X017354Y010873D03*
X008854Y010623D03*
X007604Y010623D03*
X006104Y013373D03*
X007604Y013623D03*
X008854Y013623D03*
X006104Y014873D03*
X003104Y014873D03*
X003104Y013373D03*
X007604Y018623D03*
X008854Y018623D03*
X008854Y021623D03*
X007604Y021623D03*
X007604Y027123D03*
X008854Y027123D03*
X008854Y030123D03*
X007604Y030123D03*
X043104Y014623D03*
X043104Y011623D03*
D13*
X045104Y010903D02*
X045104Y010343D01*
X046104Y010343D02*
X046104Y010903D01*
X047104Y010903D02*
X047104Y010343D01*
X047104Y018343D02*
X047104Y018903D01*
X046104Y018903D02*
X046104Y018343D01*
X045104Y018343D02*
X045104Y018903D01*
X045104Y026343D02*
X045104Y026903D01*
X046104Y026903D02*
X046104Y026343D01*
X047104Y026343D02*
X047104Y026903D01*
X047104Y034343D02*
X047104Y034903D01*
X046104Y034903D02*
X046104Y034343D01*
X045104Y034343D02*
X045104Y034903D01*
D14*
X056274Y033123D02*
X056934Y033123D01*
X056934Y032123D02*
X056274Y032123D01*
X056274Y031123D02*
X056934Y031123D01*
X056934Y025123D02*
X056274Y025123D01*
X056274Y024123D02*
X056934Y024123D01*
X056934Y023123D02*
X056274Y023123D01*
X056274Y017623D02*
X056934Y017623D01*
X056934Y016623D02*
X056274Y016623D01*
X056274Y015623D02*
X056934Y015623D01*
X056934Y009623D02*
X056274Y009623D01*
X056274Y008623D02*
X056934Y008623D01*
X056934Y007623D02*
X056274Y007623D01*
D15*
X063504Y008623D03*
X063504Y016623D03*
X063504Y024123D03*
X063504Y032123D03*
D16*
X053884Y035878D02*
X053884Y036868D01*
X052324Y036868D02*
X052324Y035878D01*
X035654Y035878D02*
X035654Y036868D01*
X034094Y036868D02*
X034094Y035878D01*
X032534Y035878D02*
X032534Y036868D01*
X018884Y036378D02*
X018884Y037368D01*
X017324Y037368D02*
X017324Y036378D01*
X014154Y036378D02*
X014154Y037368D01*
X012594Y037368D02*
X012594Y036378D01*
X011034Y036378D02*
X011034Y037368D01*
X007654Y037368D02*
X007654Y036378D01*
X006094Y036378D02*
X006094Y037368D01*
X004534Y037368D02*
X004534Y036378D01*
X003349Y025403D02*
X002359Y025403D01*
X002359Y023843D02*
X003349Y023843D01*
X004554Y003618D02*
X004554Y002628D01*
X006114Y002628D02*
X006114Y003618D01*
X007674Y003618D02*
X007674Y002628D01*
X011054Y002628D02*
X011054Y003618D01*
X012614Y003618D02*
X012614Y002628D01*
X014174Y002628D02*
X014174Y003618D01*
X017324Y003618D02*
X017324Y002628D01*
X018884Y002628D02*
X018884Y003618D01*
X052324Y003618D02*
X052324Y002628D01*
X053884Y002628D02*
X053884Y003618D01*
D17*
X029447Y009123D02*
X028561Y009123D01*
X028297Y008123D02*
X027411Y008123D01*
X027411Y010123D02*
X028297Y010123D01*
X028561Y011123D02*
X029447Y011123D01*
X028547Y012123D02*
X027661Y012123D01*
X028561Y013123D02*
X029447Y013123D01*
X023347Y012623D02*
X022461Y012623D01*
X022547Y011123D02*
X021661Y011123D01*
X022461Y009623D02*
X023347Y009623D01*
X022547Y008123D02*
X021661Y008123D01*
X021661Y018123D02*
X022547Y018123D01*
X022461Y019623D02*
X023347Y019623D01*
X022547Y021123D02*
X021661Y021123D01*
X022461Y022623D02*
X023347Y022623D01*
X027411Y020123D02*
X028297Y020123D01*
X028561Y021123D02*
X029447Y021123D01*
X028547Y022123D02*
X027661Y022123D01*
X028561Y023123D02*
X029447Y023123D01*
X029447Y019123D02*
X028561Y019123D01*
X028297Y018123D02*
X027411Y018123D01*
X027411Y028123D02*
X028297Y028123D01*
X028561Y029123D02*
X029447Y029123D01*
X028297Y030123D02*
X027411Y030123D01*
X028561Y031123D02*
X029447Y031123D01*
X028547Y032123D02*
X027661Y032123D01*
X028561Y033123D02*
X029447Y033123D01*
X023347Y032623D02*
X022461Y032623D01*
X022547Y031123D02*
X021661Y031123D01*
X022461Y029623D02*
X023347Y029623D01*
X022547Y028123D02*
X021661Y028123D01*
D18*
X022604Y035623D03*
X022604Y036623D03*
X022604Y037623D03*
X022104Y004123D03*
X022104Y003123D03*
X022104Y002123D03*
X025104Y002123D03*
X025104Y003123D03*
X025104Y004123D03*
D19*
X003104Y029123D03*
D20*
X003104Y031123D03*
D21*
X003604Y010373D03*
D22*
X003604Y009373D03*
D23*
X002604Y016373D03*
X006604Y016373D03*
X030854Y018873D03*
X030854Y022873D03*
X030854Y028623D03*
X030854Y032623D03*
X031104Y012373D03*
X031104Y008373D03*
D24*
X033104Y009623D03*
X035854Y012373D03*
X035104Y012873D03*
X038104Y012873D03*
X039354Y012373D03*
X040604Y013873D03*
X042104Y013373D03*
X037604Y016623D03*
X042104Y018123D03*
X043104Y017123D03*
X037604Y020623D03*
X035604Y020623D03*
X035104Y023123D03*
X037604Y023123D03*
X038104Y024623D03*
X041604Y024623D03*
X042604Y023623D03*
X041604Y021123D03*
X042104Y026623D03*
X044104Y027623D03*
X042604Y029123D03*
X040104Y031123D03*
X027104Y032623D03*
X024604Y030123D03*
X025104Y027123D03*
X026104Y026623D03*
X021604Y027123D03*
X013104Y026123D03*
X012104Y026123D03*
X011604Y028123D03*
X006604Y031373D03*
X008604Y032623D03*
X017104Y032623D03*
X003104Y027123D03*
X017354Y019873D03*
X016104Y017623D03*
X015104Y015623D03*
X016604Y012623D03*
X010104Y017123D03*
X025104Y007623D03*
X037354Y005373D03*
X039354Y005623D03*
X043104Y009373D03*
D25*
X032604Y032623D03*
D26*
X031604Y035873D03*
X028604Y025873D03*
X027104Y024873D03*
X026104Y024373D03*
X033104Y018873D03*
X021604Y015873D03*
X021604Y012873D03*
X029604Y005373D03*
X016104Y024873D03*
X015604Y027873D03*
X010604Y028873D03*
X009604Y026373D03*
X008104Y026373D03*
D27*
X050854Y020373D03*
X050854Y017623D03*
X054604Y017623D03*
X050854Y011123D03*
X053104Y006123D03*
D28*
X052354Y020873D03*
D29*
X001854Y002373D03*
X056354Y002373D03*
X056354Y037873D03*
X001854Y037873D03*
D30*
X006614Y026373D03*
D31*
X003604Y001123D03*
D32*
X019104Y024373D03*
D33*
X012104Y033373D03*
X002604Y033373D03*
M02*
