%
M48
M72
T01C0.0240
T02C0.0276
T03C0.0315
T04C0.0320
T05C0.0360
T06C0.0394
T07C0.0400
T08C0.0440
T09C0.0512
T10C0.0591
T11C0.0660
T12C0.0787
T13C0.1102
T14C0.1260
T15C0.1300
T16C0.1495
%
T01
X32166Y18873
X39166Y24373
X38166Y24873
X36666Y25873
X49166Y24873
X49666Y27873
X54666Y28873
X55666Y26373
X57166Y26373
X42666Y35623
X42666Y36623
X42666Y37623
X33666Y35873
X43666Y15873
X43666Y12873
X35666Y5373
X40166Y4123
X40166Y3123
X40166Y2123
X43166Y2123
X43166Y3123
X43166Y4123
T02
X40166Y7623
X32166Y9623
X29416Y12373
X30166Y12873
X27166Y12873
X25916Y12373
X24666Y13873
X23166Y13373
X27666Y16623
X23166Y18123
X22166Y17123
X27666Y20623
X29666Y20623
X30166Y23123
X27666Y23123
X27166Y24623
X23666Y24623
X22666Y23623
X23666Y21123
X23166Y26623
X21166Y27623
X22666Y29123
X25166Y31123
X32666Y32623
X38166Y32623
X40666Y30123
X40166Y27123
X39166Y26623
X43666Y27123
X52166Y26123
X53166Y26123
X53666Y28123
X58666Y31373
X56666Y32623
X48166Y32623
X62166Y27123
X47916Y19873
X49166Y17623
X50166Y15623
X48666Y12623
X55166Y17123
X27916Y5373
X25916Y5623
X22166Y9373
T03
X61666Y1123
T04
X61666Y9373
X61666Y10373
X57666Y10623
X56416Y10623
X55166Y10623
X54166Y10623
X53166Y10623
X52166Y10623
X51166Y10623
X50166Y10623
X49166Y10623
X47916Y10873
X46916Y10873
X45666Y11873
X45666Y12873
X46916Y13873
X47916Y13873
X49166Y13623
X50166Y13623
X51166Y13623
X52166Y13623
X53166Y13623
X54166Y13623
X55166Y13623
X56416Y13623
X57666Y13623
X59166Y13373
X59166Y14873
X62166Y14873
X62166Y13373
X62166Y17873
X62166Y18873
X62166Y19873
X62166Y20873
X59166Y20873
X57666Y21623
X56416Y21623
X55166Y21623
X54166Y21623
X53166Y21623
X52166Y21623
X51166Y21623
X50166Y21623
X49166Y21623
X47916Y21623
X46916Y21623
X45666Y21123
X45666Y19123
X46916Y18623
X47916Y18623
X49166Y18623
X50166Y18623
X51166Y18623
X52166Y18623
X53166Y18623
X54166Y18623
X55166Y18623
X56416Y18623
X57666Y18623
X59166Y18873
X59166Y19873
X59166Y17873
X57666Y27123
X56416Y27123
X55166Y27123
X54166Y27123
X53166Y27123
X52166Y27123
X51166Y27123
X50166Y27123
X49166Y27123
X45666Y28123
X45666Y29123
X49166Y30123
X50166Y30123
X51166Y30123
X52166Y30123
X53166Y30123
X54166Y30123
X55166Y30123
X56416Y30123
X57666Y30123
X40166Y35123
X40166Y38123
X25666Y37123
X25666Y35623
X25666Y34123
X25666Y32623
X22666Y32623
X20666Y32623
X20666Y31623
X20666Y30623
X20666Y29623
X17666Y29623
X17666Y30623
X17666Y31623
X17666Y32623
X22666Y34123
X22666Y35623
X22666Y37123
X24166Y29123
X25166Y29123
X26166Y29123
X27166Y29123
X28166Y29123
X29166Y29123
X30166Y29123
X31666Y28123
X31666Y27123
X30166Y26123
X29166Y26123
X28166Y26123
X27166Y26123
X26166Y26123
X25166Y26123
X24166Y26123
X20666Y24623
X20666Y23623
X20666Y22623
X20666Y21623
X17666Y21623
X17666Y22623
X17666Y23623
X17666Y24623
X24166Y22123
X25166Y22123
X26166Y22123
X27166Y22123
X28166Y22123
X29166Y22123
X30166Y22123
X31666Y21123
X31666Y20123
X30166Y19123
X29166Y19123
X28166Y19123
X27166Y19123
X26166Y19123
X25166Y19123
X24166Y19123
X20666Y16623
X20666Y15623
X20666Y14623
X20666Y13623
X22166Y14623
X23666Y14623
X24666Y14623
X25666Y14623
X26666Y14623
X27666Y14623
X28666Y14623
X29666Y14623
X30666Y14623
X32166Y14623
X32166Y11623
X30666Y11623
X29666Y11623
X28666Y11623
X27666Y11623
X26666Y11623
X25666Y11623
X24666Y11623
X23666Y11623
X22166Y11623
X17666Y13623
X17666Y14623
X17666Y15623
X17666Y16623
X17666Y8623
X17666Y7623
X17666Y6623
X17666Y5623
X20666Y5623
X20666Y6623
X20666Y7623
X20666Y8623
X22416Y5623
X23666Y5623
X23666Y2623
X22416Y2623
X31166Y2623
X32416Y2623
X32416Y5623
X31166Y5623
T05
X20166Y10623
X19166Y10623
X18166Y10623
X18166Y18623
X19166Y18623
X20166Y18623
X20166Y26623
X19166Y26623
X18166Y26623
X18166Y34623
X19166Y34623
X20166Y34623
T06
X58656Y26373
T07
X62166Y29123
X62166Y31123
X37666Y37123
X36666Y37123
X35666Y37123
X19166Y37373
X18166Y37373
X46666Y7873
X47666Y7873
X48666Y7873
X37666Y3123
X36666Y3123
X35666Y3123
X34666Y3123
X28916Y4123
X27916Y4123
X26916Y4123
X25916Y4123
X19666Y2623
X18666Y2623
X63666Y4373
X63666Y5373
T08
X62666Y16373
X58666Y16373
X34416Y18873
X34416Y22873
X34416Y28623
X34416Y32623
X8666Y32123
X8666Y33123
X8666Y31123
X8666Y25123
X8666Y24123
X8666Y23123
X8666Y17623
X8666Y16623
X8666Y15623
X8666Y9623
X8666Y8623
X8666Y7623
X34166Y8373
X34166Y12373
T09
X14416Y11123
X12166Y6123
X10666Y17623
X14416Y17623
X14416Y20373
T10
X36266Y21123
X37416Y20123
X36266Y19123
X37416Y18123
X42366Y19623
X43166Y21123
X42366Y22623
X37166Y22123
X36266Y23123
X43166Y18123
X36266Y13123
X37166Y12123
X36266Y11123
X37416Y10123
X36266Y9123
X37416Y8123
X42366Y9623
X43166Y11123
X42366Y12623
X43166Y8123
X43166Y28123
X42366Y29623
X43166Y31123
X42366Y32623
X37416Y30123
X36266Y31123
X37166Y32123
X36266Y33123
X36266Y29123
X37416Y28123
T11
X32736Y36373
X31176Y36373
X29616Y36373
X12946Y36373
X11386Y36373
X46386Y36873
X47946Y36873
X51116Y36873
X52676Y36873
X54236Y36873
X57616Y36873
X59176Y36873
X60736Y36873
X62416Y25403
X62416Y23843
X60716Y3123
X59156Y3123
X57596Y3123
X54216Y3123
X52656Y3123
X51096Y3123
X47946Y3123
X46386Y3123
X12946Y3123
X11386Y3123
T12
X53166Y33373
X62666Y33373
T13
X46166Y24373
T14
X12916Y20873
T15
X1766Y24123
X1766Y16623
X1766Y8623
X1766Y32123
T16
X8916Y2373
X63416Y2373
X63416Y37873
X8916Y37873
M30
