G75*
G70*
%OFA0B0*%
%FSLAX24Y24*%
%IPPOS*%
%LPD*%
%AMOC8*
5,1,8,0,0,1.08239X$1,22.5*
%
%ADD10C,0.0600*%
%ADD11OC8,0.0600*%
%ADD12C,0.1070*%
%ADD13C,0.0680*%
%ADD14C,0.0520*%
%ADD15C,0.1064*%
%ADD16C,0.0740*%
%ADD17C,0.0520*%
%ADD18OC8,0.0710*%
%ADD19C,0.0710*%
%ADD20OC8,0.1320*%
%ADD21C,0.0634*%
%ADD22C,0.1346*%
%ADD23C,0.0480*%
%ADD24C,0.0476*%
%ADD25C,0.1975*%
%ADD26C,0.0671*%
D10*
X016341Y007101D02*
X016861Y007101D01*
X016861Y008101D02*
X016341Y008101D01*
X016341Y009101D02*
X016861Y009101D01*
X016861Y010101D02*
X016341Y010101D01*
X019341Y010101D02*
X019861Y010101D01*
X019861Y009101D02*
X019341Y009101D01*
X019341Y008101D02*
X019861Y008101D01*
X019861Y007101D02*
X019341Y007101D01*
X021101Y005621D02*
X021101Y005101D01*
X022101Y005101D02*
X022101Y005621D01*
X023101Y005621D02*
X023101Y005101D01*
X024101Y005101D02*
X024101Y005621D01*
X025101Y005621D02*
X025101Y005101D01*
X026101Y005101D02*
X026101Y005621D01*
X027101Y005621D02*
X027101Y005101D01*
X028101Y005101D02*
X028101Y005621D01*
X028101Y002101D02*
X028101Y001581D01*
X027101Y001581D02*
X027101Y002101D01*
X026101Y002101D02*
X026101Y001581D01*
X025101Y001581D02*
X025101Y002101D01*
X024101Y002101D02*
X024101Y001581D01*
X023101Y001581D02*
X023101Y002101D01*
X022101Y002101D02*
X022101Y001581D01*
X021101Y001581D02*
X021101Y002101D01*
X031341Y009101D02*
X031861Y009101D01*
X031861Y010101D02*
X031341Y010101D01*
X031341Y011101D02*
X031861Y011101D01*
X031861Y012101D02*
X031341Y012101D01*
X034341Y012101D02*
X034861Y012101D01*
X034861Y011101D02*
X034341Y011101D01*
X034341Y010101D02*
X034861Y010101D01*
X034861Y009101D02*
X034341Y009101D01*
X034341Y014601D02*
X034861Y014601D01*
X034861Y015601D02*
X034341Y015601D01*
X034341Y016601D02*
X034861Y016601D01*
X034861Y017601D02*
X034341Y017601D01*
X032361Y017601D02*
X031841Y017601D01*
X031841Y016601D02*
X032361Y016601D01*
X032361Y015601D02*
X031841Y015601D01*
X031841Y014601D02*
X032361Y014601D01*
X029361Y014601D02*
X028841Y014601D01*
X028841Y015601D02*
X029361Y015601D01*
X029361Y016601D02*
X028841Y016601D01*
X028841Y017601D02*
X029361Y017601D01*
X031341Y019601D02*
X031861Y019601D01*
X031861Y020601D02*
X031341Y020601D01*
X031341Y021601D02*
X031861Y021601D01*
X031861Y022601D02*
X031341Y022601D01*
X034341Y022601D02*
X034861Y022601D01*
X034861Y021601D02*
X034341Y021601D01*
X034341Y020601D02*
X034861Y020601D01*
X034861Y019601D02*
X034341Y019601D01*
X037341Y017601D02*
X037861Y017601D01*
X037861Y016601D02*
X037341Y016601D01*
X037341Y015601D02*
X037861Y015601D01*
X037861Y014601D02*
X037341Y014601D01*
X023601Y015341D02*
X023601Y015861D01*
X022601Y015861D02*
X022601Y015341D01*
X021601Y015341D02*
X021601Y015861D01*
X020601Y015861D02*
X020601Y015341D01*
X019601Y015341D02*
X019601Y015861D01*
X018601Y015861D02*
X018601Y015341D01*
X017601Y015341D02*
X017601Y015861D01*
X016601Y015861D02*
X016601Y015341D01*
X015601Y015341D02*
X015601Y015861D01*
X014601Y015861D02*
X014601Y015341D01*
X013601Y015341D02*
X013601Y015861D01*
X012601Y015861D02*
X012601Y015341D01*
X011601Y015341D02*
X011601Y015861D01*
X010601Y015861D02*
X010601Y015341D01*
X009601Y015341D02*
X009601Y015861D01*
X008601Y015861D02*
X008601Y015341D01*
X007601Y015341D02*
X007601Y015861D01*
X006601Y015861D02*
X006601Y015341D01*
X005601Y015341D02*
X005601Y015861D01*
X004601Y015861D02*
X004601Y015341D01*
X004601Y021341D02*
X004601Y021861D01*
X005601Y021861D02*
X005601Y021341D01*
X006601Y021341D02*
X006601Y021861D01*
X007601Y021861D02*
X007601Y021341D01*
X008601Y021341D02*
X008601Y021861D01*
X009601Y021861D02*
X009601Y021341D01*
X010601Y021341D02*
X010601Y021861D01*
X011601Y021861D02*
X011601Y021341D01*
X012601Y021341D02*
X012601Y021861D01*
X013601Y021861D02*
X013601Y021341D01*
X014601Y021341D02*
X014601Y021861D01*
X015601Y021861D02*
X015601Y021341D01*
X016601Y021341D02*
X016601Y021861D01*
X017601Y021861D02*
X017601Y021341D01*
X018601Y021341D02*
X018601Y021861D01*
X019601Y021861D02*
X019601Y021341D01*
X020601Y021341D02*
X020601Y021861D01*
X021601Y021861D02*
X021601Y021341D01*
X022601Y021341D02*
X022601Y021861D01*
X023601Y021861D02*
X023601Y021341D01*
D11*
X021601Y023101D03*
X018601Y023101D03*
X018601Y026101D03*
X021601Y026101D03*
X023101Y026101D03*
X026101Y026101D03*
X027101Y022101D03*
X028601Y022101D03*
X030101Y022101D03*
X030101Y019101D03*
X028601Y019101D03*
X027101Y019101D03*
X026101Y014101D03*
X026101Y012101D03*
X023101Y012101D03*
X023101Y014101D03*
X022601Y010101D03*
X024101Y010101D03*
X025601Y010101D03*
X027101Y010101D03*
X028601Y010101D03*
X028601Y007101D03*
X027101Y007101D03*
X025601Y007101D03*
X024101Y007101D03*
X022601Y007101D03*
X021101Y007101D03*
X021101Y010101D03*
X016101Y012101D03*
X016101Y014101D03*
X014601Y014101D03*
X013601Y014101D03*
X008601Y014101D03*
X007601Y014101D03*
X005101Y014351D03*
X002101Y014351D03*
X011101Y010101D03*
X012601Y009101D03*
X012601Y008101D03*
X011101Y007101D03*
X010601Y006101D03*
X012101Y006101D03*
X009101Y006101D03*
X007601Y006101D03*
X006101Y006101D03*
X004601Y006101D03*
X004601Y003101D03*
X006101Y003101D03*
X007601Y003101D03*
X009101Y003101D03*
X010601Y003101D03*
X012101Y003101D03*
X012601Y001601D03*
X011601Y001601D03*
X010101Y001601D03*
X009101Y001601D03*
X007601Y001601D03*
X006601Y001601D03*
X005101Y001601D03*
X004101Y001601D03*
X014101Y001601D03*
X015101Y001601D03*
X016601Y001601D03*
X017601Y001601D03*
X014601Y008101D03*
X014601Y009101D03*
X013601Y022601D03*
X012601Y022601D03*
X011601Y023101D03*
X010101Y023101D03*
X006101Y023601D03*
X004601Y023601D03*
X004601Y026601D03*
X006101Y026601D03*
X010101Y026101D03*
X011601Y026101D03*
X033601Y026101D03*
X036601Y026101D03*
X036101Y022101D03*
X037601Y021101D03*
X037601Y020101D03*
X036101Y019101D03*
X036101Y006601D03*
X037601Y005101D03*
X038601Y005101D03*
X039101Y006601D03*
D12*
X041106Y008321D02*
X042096Y008321D01*
X042096Y009881D02*
X041106Y009881D01*
X041106Y013051D02*
X042096Y013051D01*
X042096Y014611D02*
X041106Y014611D01*
X041106Y016171D02*
X042096Y016171D01*
X042096Y018761D02*
X041106Y018761D01*
X041106Y020321D02*
X042096Y020321D01*
X042096Y021881D02*
X041106Y021881D01*
X041106Y023441D02*
X042096Y023441D01*
D13*
X042101Y025801D02*
X042101Y026401D01*
X043101Y026401D02*
X043101Y025801D01*
X041101Y025801D02*
X041101Y026401D01*
X038101Y027801D02*
X038101Y028401D01*
X037101Y028401D02*
X037101Y027801D01*
X035101Y027801D02*
X035101Y028401D01*
X034101Y028401D02*
X034101Y027801D01*
X033101Y027801D02*
X033101Y028401D01*
X030601Y028401D02*
X030601Y027801D01*
X029601Y027801D02*
X029601Y028401D01*
X026601Y028401D02*
X026601Y027801D01*
X025601Y027801D02*
X025601Y028401D01*
X024601Y028401D02*
X024601Y027801D01*
X022101Y027801D02*
X022101Y028401D01*
X021101Y028401D02*
X021101Y027801D01*
X020101Y027801D02*
X020101Y028401D01*
X017101Y028401D02*
X017101Y027801D01*
X016101Y027801D02*
X016101Y028401D01*
X015101Y028401D02*
X015101Y027801D01*
X012101Y027801D02*
X012101Y028401D01*
X011101Y028401D02*
X011101Y027801D01*
X010101Y027801D02*
X010101Y028401D01*
X007101Y028401D02*
X007101Y027801D01*
X006101Y027801D02*
X006101Y028401D01*
X005101Y028401D02*
X005101Y027801D01*
X003101Y025901D02*
X003101Y025301D01*
X002101Y025301D02*
X002101Y025901D01*
X001101Y025901D02*
X001101Y025301D01*
X001101Y023901D02*
X001101Y023301D01*
X002101Y023301D02*
X002101Y023901D01*
X003101Y023901D02*
X003101Y023301D01*
X002401Y021101D02*
X001801Y021101D01*
X001801Y020101D02*
X002401Y020101D01*
X002401Y019101D02*
X001801Y019101D01*
X001801Y018101D02*
X002401Y018101D01*
X002401Y017101D02*
X001801Y017101D01*
X001801Y016101D02*
X002401Y016101D01*
X002621Y012991D02*
X002021Y012991D01*
X002021Y011211D02*
X002621Y011211D01*
X004581Y011211D02*
X005181Y011211D01*
X007101Y009901D02*
X007101Y009301D01*
X008101Y009301D02*
X008101Y009901D01*
X009101Y009901D02*
X009101Y009301D01*
X009101Y007901D02*
X009101Y007301D01*
X008101Y007301D02*
X008101Y007901D01*
X007101Y007901D02*
X007101Y007301D01*
X005181Y007461D02*
X004581Y007461D01*
X002621Y007461D02*
X002021Y007461D01*
X002021Y009241D02*
X002621Y009241D01*
X004581Y009241D02*
X005181Y009241D01*
X005181Y012991D02*
X004581Y012991D01*
X013801Y005101D02*
X014401Y005101D01*
X014401Y004101D02*
X013801Y004101D01*
X016301Y004101D02*
X016901Y004101D01*
X016901Y005101D02*
X016301Y005101D01*
X019051Y004351D02*
X019651Y004351D01*
X019651Y003351D02*
X019051Y003351D01*
X019051Y002351D02*
X019651Y002351D01*
D14*
X020601Y012881D02*
X020601Y013321D01*
X018601Y013321D02*
X018601Y012881D01*
D15*
X008337Y012498D03*
X008337Y024703D03*
X037865Y024703D03*
X037865Y012498D03*
D16*
X035699Y024703D03*
X034699Y024703D03*
X033699Y024703D03*
X032699Y024703D03*
X031699Y024703D03*
X030699Y024703D03*
X029699Y024703D03*
X028699Y024703D03*
X027699Y024703D03*
X026699Y024703D03*
X025699Y024703D03*
X024699Y024703D03*
X023699Y024703D03*
X022699Y024703D03*
X021699Y024703D03*
X020699Y024703D03*
D17*
X016601Y025101D03*
X015601Y025101D03*
X014601Y025101D03*
X037601Y010601D03*
X037601Y009601D03*
X037601Y008601D03*
D18*
X034101Y006601D03*
X031101Y006601D03*
X031101Y003601D03*
X034101Y003601D03*
D19*
X033101Y003601D03*
X030101Y003601D03*
X030101Y006601D03*
X033101Y006601D03*
D20*
X033601Y001601D03*
X031601Y001601D03*
X029601Y001601D03*
X041601Y003601D03*
X043601Y003601D03*
X042601Y005601D03*
X015101Y006601D03*
X001601Y005101D03*
X040601Y028601D03*
D21*
X038351Y002751D03*
X037351Y002751D03*
X037351Y001451D03*
X038351Y001451D03*
D22*
X040201Y001601D03*
X035501Y001601D03*
D23*
X034601Y001101D03*
X038601Y002101D03*
X039701Y004101D03*
X040901Y005301D03*
X036101Y007601D03*
X036101Y011101D03*
X035601Y013101D03*
X030101Y011601D03*
X029601Y009101D03*
X025101Y008601D03*
X022601Y008601D03*
X028501Y003701D03*
X014101Y011101D03*
X013601Y010101D03*
X013601Y006101D03*
X007101Y012101D03*
X010101Y014601D03*
X010101Y020101D03*
X017601Y020601D03*
X019101Y020101D03*
X019601Y020101D03*
X018601Y019101D03*
X020101Y018101D03*
X022501Y018501D03*
X025101Y016601D03*
X024601Y015601D03*
X025701Y015301D03*
X025101Y021101D03*
X022601Y022601D03*
X022601Y023601D03*
X022101Y024101D03*
X020601Y023101D03*
X019601Y023101D03*
X020601Y026101D03*
X017101Y026101D03*
X027101Y027101D03*
X032601Y026101D03*
X034101Y027101D03*
X035601Y026601D03*
X036601Y025101D03*
X036601Y024101D03*
X037601Y023101D03*
X039601Y024601D03*
X033101Y023601D03*
X028101Y022601D03*
X003601Y006101D03*
D24*
X036101Y023101D03*
X037101Y023101D03*
D25*
X001851Y001601D03*
X001851Y028601D03*
X043351Y028601D03*
X043351Y001601D03*
D26*
X038101Y013601D03*
M02*
