G75*
G70*
%OFA0B0*%
%FSLAX24Y24*%
%IPPOS*%
%LPD*%
%AMOC8*
5,1,8,0,0,1.08239X$1,22.5*
%
%ADD10C,0.0520*%
%ADD11OC8,0.0520*%
%ADD12C,0.0990*%
%ADD13C,0.0600*%
%ADD14C,0.0440*%
%ADD15C,0.0660*%
%ADD16C,0.0440*%
%ADD17OC8,0.0630*%
%ADD18C,0.0630*%
%ADD19OC8,0.1240*%
%ADD20C,0.0554*%
%ADD21C,0.1266*%
%ADD22C,0.1000*%
%ADD23C,0.0100*%
%ADD24C,0.0400*%
%ADD25C,0.0120*%
%ADD26C,0.0396*%
%ADD27C,0.0160*%
%ADD28C,0.1895*%
%ADD29C,0.0591*%
D10*
X010342Y009101D02*
X010862Y009101D01*
X010862Y010101D02*
X010342Y010101D01*
X010342Y011101D02*
X010862Y011101D01*
X010862Y012101D02*
X010342Y012101D01*
X013342Y012101D02*
X013862Y012101D01*
X013862Y011101D02*
X013342Y011101D01*
X013342Y010101D02*
X013862Y010101D01*
X013862Y009101D02*
X013342Y009101D01*
X017102Y005621D02*
X017102Y005101D01*
X018102Y005101D02*
X018102Y005621D01*
X019102Y005621D02*
X019102Y005101D01*
X020102Y005101D02*
X020102Y005621D01*
X021102Y005621D02*
X021102Y005101D01*
X022102Y005101D02*
X022102Y005621D01*
X023102Y005621D02*
X023102Y005101D01*
X024102Y005101D02*
X024102Y005621D01*
X025342Y007101D02*
X025862Y007101D01*
X025862Y008101D02*
X025342Y008101D01*
X025342Y009101D02*
X025862Y009101D01*
X025862Y010101D02*
X025342Y010101D01*
X028342Y010101D02*
X028862Y010101D01*
X028862Y009101D02*
X028342Y009101D01*
X028342Y008101D02*
X028862Y008101D01*
X028862Y007101D02*
X028342Y007101D01*
X024102Y002101D02*
X024102Y001581D01*
X023102Y001581D02*
X023102Y002101D01*
X022102Y002101D02*
X022102Y001581D01*
X021102Y001581D02*
X021102Y002101D01*
X020102Y002101D02*
X020102Y001581D01*
X019102Y001581D02*
X019102Y002101D01*
X018102Y002101D02*
X018102Y001581D01*
X017102Y001581D02*
X017102Y002101D01*
X016362Y014601D02*
X015842Y014601D01*
X015842Y015601D02*
X016362Y015601D01*
X016362Y016601D02*
X015842Y016601D01*
X015842Y017601D02*
X016362Y017601D01*
X013362Y017601D02*
X012842Y017601D01*
X012842Y016601D02*
X013362Y016601D01*
X013362Y015601D02*
X012842Y015601D01*
X012842Y014601D02*
X013362Y014601D01*
X010862Y014601D02*
X010342Y014601D01*
X010342Y015601D02*
X010862Y015601D01*
X010862Y016601D02*
X010342Y016601D01*
X010342Y017601D02*
X010862Y017601D01*
X010862Y019601D02*
X010342Y019601D01*
X010342Y020601D02*
X010862Y020601D01*
X010862Y021601D02*
X010342Y021601D01*
X010342Y022601D02*
X010862Y022601D01*
X013342Y022601D02*
X013862Y022601D01*
X013862Y021601D02*
X013342Y021601D01*
X013342Y020601D02*
X013862Y020601D01*
X013862Y019601D02*
X013342Y019601D01*
X007862Y017601D02*
X007342Y017601D01*
X007342Y016601D02*
X007862Y016601D01*
X007862Y015601D02*
X007342Y015601D01*
X007342Y014601D02*
X007862Y014601D01*
X021602Y015341D02*
X021602Y015861D01*
X022602Y015861D02*
X022602Y015341D01*
X023602Y015341D02*
X023602Y015861D01*
X024602Y015861D02*
X024602Y015341D01*
X025602Y015341D02*
X025602Y015861D01*
X026602Y015861D02*
X026602Y015341D01*
X027602Y015341D02*
X027602Y015861D01*
X028602Y015861D02*
X028602Y015341D01*
X029602Y015341D02*
X029602Y015861D01*
X030602Y015861D02*
X030602Y015341D01*
X031602Y015341D02*
X031602Y015861D01*
X032602Y015861D02*
X032602Y015341D01*
X033602Y015341D02*
X033602Y015861D01*
X034602Y015861D02*
X034602Y015341D01*
X035602Y015341D02*
X035602Y015861D01*
X036602Y015861D02*
X036602Y015341D01*
X037602Y015341D02*
X037602Y015861D01*
X038602Y015861D02*
X038602Y015341D01*
X039602Y015341D02*
X039602Y015861D01*
X040602Y015861D02*
X040602Y015341D01*
X040602Y021341D02*
X040602Y021861D01*
X039602Y021861D02*
X039602Y021341D01*
X038602Y021341D02*
X038602Y021861D01*
X037602Y021861D02*
X037602Y021341D01*
X036602Y021341D02*
X036602Y021861D01*
X035602Y021861D02*
X035602Y021341D01*
X034602Y021341D02*
X034602Y021861D01*
X033602Y021861D02*
X033602Y021341D01*
X032602Y021341D02*
X032602Y021861D01*
X031602Y021861D02*
X031602Y021341D01*
X030602Y021341D02*
X030602Y021861D01*
X029602Y021861D02*
X029602Y021341D01*
X028602Y021341D02*
X028602Y021861D01*
X027602Y021861D02*
X027602Y021341D01*
X026602Y021341D02*
X026602Y021861D01*
X025602Y021861D02*
X025602Y021341D01*
X024602Y021341D02*
X024602Y021861D01*
X023602Y021861D02*
X023602Y021341D01*
X022602Y021341D02*
X022602Y021861D01*
X021602Y021861D02*
X021602Y021341D01*
D11*
X023602Y023101D03*
X026602Y023101D03*
X026602Y026101D03*
X023602Y026101D03*
X022102Y026101D03*
X019102Y026101D03*
X018102Y022101D03*
X016602Y022101D03*
X015102Y022101D03*
X015102Y019101D03*
X016602Y019101D03*
X018102Y019101D03*
X019102Y014101D03*
X019102Y012101D03*
X022102Y012101D03*
X022102Y014101D03*
X022602Y010101D03*
X021102Y010101D03*
X019602Y010101D03*
X018102Y010101D03*
X016602Y010101D03*
X016602Y007101D03*
X018102Y007101D03*
X019602Y007101D03*
X021102Y007101D03*
X022602Y007101D03*
X024102Y007101D03*
X024102Y010101D03*
X029102Y012101D03*
X029102Y014101D03*
X030602Y014101D03*
X031602Y014101D03*
X036602Y014101D03*
X037602Y014101D03*
X040102Y014351D03*
X043102Y014351D03*
X034102Y010101D03*
X032602Y009101D03*
X032602Y008101D03*
X034102Y007101D03*
X034602Y006101D03*
X033102Y006101D03*
X036102Y006101D03*
X037602Y006101D03*
X039102Y006101D03*
X040602Y006101D03*
X040602Y003101D03*
X039102Y003101D03*
X037602Y003101D03*
X036102Y003101D03*
X034602Y003101D03*
X033102Y003101D03*
X032602Y001601D03*
X033602Y001601D03*
X035102Y001601D03*
X036102Y001601D03*
X037602Y001601D03*
X038602Y001601D03*
X040102Y001601D03*
X041102Y001601D03*
X031102Y001601D03*
X030102Y001601D03*
X028602Y001601D03*
X027602Y001601D03*
X030602Y008101D03*
X030602Y009101D03*
X031602Y022601D03*
X032602Y022601D03*
X033602Y023101D03*
X035102Y023101D03*
X039102Y023601D03*
X040602Y023601D03*
X040602Y026601D03*
X039102Y026601D03*
X035102Y026101D03*
X033602Y026101D03*
X011602Y026101D03*
X008602Y026101D03*
X009102Y022101D03*
X007602Y021101D03*
X007602Y020101D03*
X009102Y019101D03*
X009102Y006601D03*
X007602Y005101D03*
X006602Y005101D03*
X006102Y006601D03*
D12*
X004097Y008321D02*
X003107Y008321D01*
X003107Y009881D02*
X004097Y009881D01*
X004097Y013051D02*
X003107Y013051D01*
X003107Y014611D02*
X004097Y014611D01*
X004097Y016171D02*
X003107Y016171D01*
X003107Y018761D02*
X004097Y018761D01*
X004097Y020321D02*
X003107Y020321D01*
X003107Y021881D02*
X004097Y021881D01*
X004097Y023441D02*
X003107Y023441D01*
D13*
X003102Y025801D02*
X003102Y026401D01*
X002102Y026401D02*
X002102Y025801D01*
X004102Y025801D02*
X004102Y026401D01*
X007102Y027801D02*
X007102Y028401D01*
X008102Y028401D02*
X008102Y027801D01*
X010102Y027801D02*
X010102Y028401D01*
X011102Y028401D02*
X011102Y027801D01*
X012102Y027801D02*
X012102Y028401D01*
X014602Y028401D02*
X014602Y027801D01*
X015602Y027801D02*
X015602Y028401D01*
X018602Y028401D02*
X018602Y027801D01*
X019602Y027801D02*
X019602Y028401D01*
X020602Y028401D02*
X020602Y027801D01*
X023102Y027801D02*
X023102Y028401D01*
X024102Y028401D02*
X024102Y027801D01*
X025102Y027801D02*
X025102Y028401D01*
X028102Y028401D02*
X028102Y027801D01*
X029102Y027801D02*
X029102Y028401D01*
X030102Y028401D02*
X030102Y027801D01*
X033102Y027801D02*
X033102Y028401D01*
X034102Y028401D02*
X034102Y027801D01*
X035102Y027801D02*
X035102Y028401D01*
X038102Y028401D02*
X038102Y027801D01*
X039102Y027801D02*
X039102Y028401D01*
X040102Y028401D02*
X040102Y027801D01*
X042102Y025901D02*
X042102Y025301D01*
X043102Y025301D02*
X043102Y025901D01*
X044102Y025901D02*
X044102Y025301D01*
X044102Y023901D02*
X044102Y023301D01*
X043102Y023301D02*
X043102Y023901D01*
X042102Y023901D02*
X042102Y023301D01*
X042802Y021101D02*
X043402Y021101D01*
X043402Y020101D02*
X042802Y020101D01*
X042802Y019101D02*
X043402Y019101D01*
X043402Y018101D02*
X042802Y018101D01*
X042802Y017101D02*
X043402Y017101D01*
X043402Y016101D02*
X042802Y016101D01*
X042582Y012991D02*
X043182Y012991D01*
X043182Y011211D02*
X042582Y011211D01*
X040622Y011211D02*
X040022Y011211D01*
X038102Y009901D02*
X038102Y009301D01*
X037102Y009301D02*
X037102Y009901D01*
X036102Y009901D02*
X036102Y009301D01*
X036102Y007901D02*
X036102Y007301D01*
X037102Y007301D02*
X037102Y007901D01*
X038102Y007901D02*
X038102Y007301D01*
X040022Y007461D02*
X040622Y007461D01*
X042582Y007461D02*
X043182Y007461D01*
X043182Y009241D02*
X042582Y009241D01*
X040622Y009241D02*
X040022Y009241D01*
X040022Y012991D02*
X040622Y012991D01*
X031402Y005101D02*
X030802Y005101D01*
X030802Y004101D02*
X031402Y004101D01*
X028902Y004101D02*
X028302Y004101D01*
X028302Y005101D02*
X028902Y005101D01*
X026152Y004351D02*
X025552Y004351D01*
X025552Y003351D02*
X026152Y003351D01*
X026152Y002351D02*
X025552Y002351D01*
D14*
X024602Y012881D02*
X024602Y013321D01*
X026602Y013321D02*
X026602Y012881D01*
D15*
X024504Y024703D03*
X023504Y024703D03*
X022504Y024703D03*
X021504Y024703D03*
X020504Y024703D03*
X019504Y024703D03*
X018504Y024703D03*
X017504Y024703D03*
X016504Y024703D03*
X015504Y024703D03*
X014504Y024703D03*
X013504Y024703D03*
X012504Y024703D03*
X011504Y024703D03*
X010504Y024703D03*
X009504Y024703D03*
D16*
X028602Y025101D03*
X029602Y025101D03*
X030602Y025101D03*
X007602Y010601D03*
X007602Y009601D03*
X007602Y008601D03*
D17*
X011102Y006601D03*
X014102Y006601D03*
X014102Y003601D03*
X011102Y003601D03*
D18*
X012102Y003601D03*
X015102Y003601D03*
X015102Y006601D03*
X012102Y006601D03*
D19*
X011602Y001601D03*
X013602Y001601D03*
X015602Y001601D03*
X003602Y003601D03*
X001602Y003601D03*
X002602Y005601D03*
X030102Y006601D03*
X043602Y005101D03*
X004602Y028601D03*
D20*
X006852Y002751D03*
X007852Y002751D03*
X007852Y001451D03*
X006852Y001451D03*
D21*
X005002Y001601D03*
X009702Y001601D03*
D22*
X003602Y008321D02*
X002382Y008321D01*
X001602Y009101D01*
X001602Y019601D01*
X001602Y021101D01*
X001602Y022851D01*
X002102Y023351D01*
X003512Y023351D01*
X003602Y023441D01*
X003602Y023601D01*
X003602Y014611D02*
X003612Y014601D01*
X005102Y014601D01*
X005602Y014101D01*
X005602Y010601D01*
X004882Y009881D01*
X003602Y009881D01*
X003602Y013051D02*
X003602Y013101D01*
D23*
X005602Y014101D02*
X008102Y014101D01*
X010102Y016101D01*
X011102Y016101D01*
X011602Y016601D01*
X013102Y016601D01*
X013102Y017601D02*
X012602Y018101D01*
X008102Y018101D01*
X007602Y017601D01*
X007602Y016601D02*
X004602Y019601D01*
X001602Y019601D01*
X003602Y020101D02*
X003602Y020321D01*
X003602Y020101D02*
X005602Y020101D01*
X006602Y019101D01*
X008102Y019101D01*
X009102Y020101D01*
X013102Y020101D01*
X013602Y020601D01*
X015602Y021101D02*
X017102Y019601D01*
X018602Y019601D01*
X018602Y012101D01*
X019102Y012101D01*
X022102Y012101D01*
X029102Y012101D01*
X029602Y011601D02*
X030102Y012101D01*
X030102Y016601D01*
X027602Y016601D01*
X026602Y015601D01*
X027602Y015601D02*
X025102Y013101D01*
X024602Y013101D01*
X023602Y014101D01*
X022102Y014101D01*
X022602Y014601D02*
X019602Y014601D01*
X019102Y014101D01*
X019502Y015301D02*
X022702Y018501D01*
X024602Y017601D02*
X022602Y015601D01*
X023602Y015601D02*
X022602Y014601D01*
X020602Y015601D02*
X024602Y019601D01*
X032602Y019601D01*
X034602Y021601D01*
X033602Y021601D02*
X032102Y020101D01*
X026102Y020101D01*
X025602Y020101D02*
X025352Y019851D01*
X023352Y019851D01*
X020102Y016601D01*
X018102Y017101D02*
X011102Y017101D01*
X010602Y016601D01*
X008602Y016601D01*
X007602Y015601D01*
X010602Y015601D02*
X011102Y015601D01*
X011602Y016101D01*
X015602Y016101D01*
X016102Y015601D01*
X016602Y015101D02*
X017102Y015601D01*
X017102Y016601D01*
X016102Y016601D01*
X016602Y015101D02*
X013602Y015101D01*
X013102Y015601D01*
X010102Y012601D02*
X009602Y013101D01*
X010102Y012601D02*
X014602Y012601D01*
X015602Y011601D01*
X015602Y011101D01*
X013602Y011101D01*
X015602Y009101D01*
X024602Y009101D01*
X025102Y009601D01*
X029102Y009601D01*
X030602Y008101D01*
X031102Y008601D01*
X036102Y008601D01*
X037102Y009601D01*
X038102Y009601D02*
X038602Y010101D01*
X041102Y010101D01*
X041102Y011601D01*
X040602Y012101D01*
X039102Y012101D01*
X039102Y013601D01*
X038102Y014601D01*
X035602Y014601D01*
X034602Y015601D01*
X035102Y014601D02*
X031602Y011101D01*
X031102Y011101D01*
X023602Y011101D01*
X022602Y010101D01*
X023602Y009601D02*
X018602Y009601D01*
X018102Y010101D01*
X020102Y008601D02*
X019102Y007601D01*
X009102Y007601D01*
X008102Y009101D02*
X007602Y008601D01*
X008102Y009101D02*
X010602Y009101D01*
X010602Y010101D02*
X009602Y011101D01*
X009102Y011101D01*
X008602Y011601D02*
X012602Y011601D01*
X013102Y012101D01*
X013602Y012101D01*
X013102Y011601D02*
X015102Y011601D01*
X013102Y011601D02*
X012602Y011101D01*
X010602Y011101D01*
X008602Y011601D02*
X007602Y010601D01*
X003602Y008321D02*
X003602Y008101D01*
X004602Y007101D01*
X011602Y007101D01*
X012102Y006601D01*
X014602Y006101D02*
X016602Y004101D01*
X012602Y004101D01*
X012102Y003601D01*
X014602Y003101D02*
X015102Y003601D01*
X014602Y003101D02*
X008102Y003101D01*
X006602Y004601D01*
X002602Y004601D01*
X001602Y003601D01*
X004302Y005301D02*
X000702Y008901D01*
X000702Y025301D01*
X003502Y025301D01*
X004302Y026101D01*
X004102Y026101D01*
X004102Y027101D02*
X003102Y026101D01*
X004102Y027101D02*
X010102Y027101D01*
X010602Y027101D02*
X010602Y025101D01*
X010504Y024703D01*
X010102Y024101D02*
X014102Y024101D01*
X013602Y024601D01*
X013504Y024703D01*
X012102Y025601D02*
X011602Y024601D01*
X011504Y024703D01*
X012102Y025601D02*
X028602Y025601D01*
X029602Y025101D01*
X029102Y024601D02*
X030602Y024601D01*
X032602Y022601D01*
X034102Y022601D01*
X034102Y026101D01*
X035102Y026101D01*
X035102Y025601D02*
X035602Y025601D01*
X035602Y027101D01*
X019102Y027101D01*
X018602Y028101D01*
X018102Y027101D02*
X011102Y027101D01*
X012102Y028101D02*
X012102Y029101D01*
X016602Y029101D01*
X020102Y029101D01*
X020602Y028101D01*
X021102Y029101D01*
X024102Y029101D01*
X024102Y028101D01*
X024102Y029101D02*
X029602Y029101D01*
X030102Y028101D01*
X030602Y026101D02*
X028102Y026101D01*
X028602Y025101D02*
X029102Y024601D01*
X029602Y023601D02*
X022602Y023601D01*
X023102Y024101D02*
X030602Y024101D01*
X030602Y021601D01*
X029602Y021601D02*
X029602Y023601D01*
X029102Y022101D02*
X028102Y023101D01*
X026602Y023101D01*
X025602Y023101D02*
X024602Y023101D01*
X022602Y022601D02*
X027602Y022601D01*
X028602Y021601D01*
X029102Y022101D02*
X029102Y020601D01*
X031602Y020601D01*
X032602Y021601D01*
X033602Y023101D02*
X030602Y026101D01*
X033102Y026601D02*
X033602Y026101D01*
X034102Y026101D01*
X033102Y026601D02*
X012602Y026601D01*
X012602Y026101D02*
X019102Y026101D01*
X018602Y023601D02*
X021602Y020601D01*
X027602Y020601D01*
X026602Y019101D02*
X026102Y019101D01*
X025102Y018101D01*
X024602Y017601D02*
X044102Y017601D01*
X044102Y009101D01*
X043602Y008601D01*
X039102Y008601D01*
X039102Y007601D01*
X040602Y006101D01*
X041602Y006101D02*
X040102Y004601D01*
X030102Y004601D01*
X029602Y004101D01*
X028602Y004101D01*
X029602Y004601D02*
X030102Y005101D01*
X031102Y005101D01*
X031102Y004101D02*
X044602Y004101D01*
X044602Y005101D01*
X043602Y005101D01*
X044602Y005101D02*
X044602Y026101D01*
X043602Y027101D01*
X041102Y027101D01*
X041102Y029101D01*
X034602Y029101D01*
X035102Y028101D01*
X038102Y028101D02*
X038602Y026601D01*
X039102Y026601D01*
X041102Y025601D02*
X042102Y025601D01*
X042102Y024601D02*
X043102Y025601D01*
X042102Y024601D02*
X041602Y024601D01*
X041602Y023601D01*
X041102Y023101D01*
X038102Y023101D01*
X036602Y021601D01*
X036602Y020601D02*
X035602Y021601D01*
X036602Y020601D02*
X040602Y020601D01*
X043102Y023101D01*
X043102Y023601D01*
X041102Y025601D02*
X039102Y023601D01*
X035102Y023101D02*
X035102Y025601D01*
X035102Y020101D02*
X043102Y020101D01*
X043102Y017101D02*
X039102Y017101D01*
X037602Y015601D01*
X036602Y016601D01*
X031602Y016601D01*
X030602Y015601D01*
X028602Y015601D02*
X028602Y014101D01*
X027602Y014101D01*
X026602Y013101D01*
X028602Y014101D02*
X029102Y014101D01*
X029602Y011601D02*
X022602Y011601D01*
X021102Y010101D01*
X022602Y008601D02*
X024602Y008601D01*
X024602Y007101D01*
X025102Y006601D01*
X026602Y006601D01*
X027602Y005601D01*
X038602Y005601D01*
X039102Y006101D01*
X040322Y007461D02*
X040602Y007601D01*
X042602Y007601D01*
X042882Y007461D01*
X042602Y009101D02*
X042882Y009241D01*
X042602Y009101D02*
X040602Y009101D01*
X040322Y009241D01*
X040102Y011101D02*
X040322Y011211D01*
X040102Y011101D02*
X039602Y011101D01*
X036602Y014101D01*
X031602Y009101D01*
X032602Y009101D01*
X031602Y009101D02*
X030602Y009101D01*
X031602Y010101D02*
X028602Y010101D01*
X032602Y008101D02*
X033102Y008101D01*
X034102Y007101D01*
X034602Y006601D01*
X036102Y006601D01*
X037102Y007601D01*
X034102Y010101D02*
X035102Y011101D01*
X037102Y011101D01*
X038102Y012101D01*
X040102Y014351D02*
X040102Y014601D01*
X040602Y014601D01*
X040602Y015601D01*
X042602Y015601D01*
X043102Y016101D01*
X033102Y006101D02*
X031602Y006101D01*
X029602Y004601D02*
X026602Y004601D01*
X026102Y005101D01*
X025602Y005101D01*
X025102Y004601D01*
X022602Y004601D01*
X022102Y005101D01*
X021602Y004601D01*
X019602Y004601D01*
X019102Y005101D01*
X018102Y004101D01*
X016602Y004101D01*
X016702Y003701D02*
X015902Y002901D01*
X007902Y002901D01*
X007852Y002751D01*
X008102Y002101D02*
X008602Y002601D01*
X024102Y002601D01*
X025852Y004351D01*
X027602Y005101D02*
X026602Y006101D01*
X021102Y006101D01*
X021102Y005101D01*
X021102Y006101D02*
X021102Y006601D01*
X017102Y006601D01*
X016602Y007101D01*
X015102Y006601D02*
X014602Y006101D01*
X008602Y006101D01*
X007602Y005101D01*
X006602Y005101D02*
X004602Y007101D01*
X005502Y004101D02*
X006852Y002751D01*
X006602Y002101D02*
X008102Y002101D01*
X007852Y001451D02*
X007852Y001351D01*
X008602Y000601D01*
X010102Y000601D01*
X010602Y001101D01*
X019102Y001101D02*
X022102Y001101D01*
X027102Y001101D01*
X032102Y001101D01*
X032602Y001601D01*
X033102Y002101D01*
X035602Y002101D01*
X038102Y002101D01*
X037602Y001601D01*
X038102Y002101D02*
X039602Y002101D01*
X040102Y001601D01*
X035602Y002101D02*
X035102Y001601D01*
X034102Y002601D02*
X032102Y002601D01*
X031102Y001601D01*
X030102Y001601D02*
X029602Y002101D01*
X028102Y002101D01*
X027602Y001601D01*
X027102Y001101D01*
X023102Y002101D02*
X022102Y001101D01*
X019102Y001101D02*
X019102Y002101D01*
X027602Y005101D02*
X028602Y005101D01*
X034102Y002601D02*
X034602Y003101D01*
X024102Y010101D02*
X023602Y009601D01*
X018102Y017101D02*
X018102Y019101D01*
X020102Y021101D02*
X018102Y023101D01*
X009602Y023101D01*
X009102Y022601D01*
X008102Y022601D01*
X007602Y023101D01*
X007602Y022601D02*
X004602Y022601D01*
X003602Y021601D01*
X003602Y021881D01*
X004602Y021101D02*
X001602Y021101D01*
X004602Y021101D02*
X005102Y021601D01*
X008102Y021601D01*
X008602Y021101D01*
X015602Y021101D01*
X016602Y022101D01*
X017102Y022601D02*
X014602Y022601D01*
X014102Y022101D01*
X011102Y022101D01*
X010602Y021601D01*
X009602Y021601D02*
X008602Y021601D01*
X007602Y022601D01*
X008602Y023601D02*
X003602Y023601D01*
X005602Y024601D02*
X007602Y026601D01*
X009602Y026601D01*
X008602Y025101D02*
X008602Y024101D01*
X008602Y023601D02*
X009602Y024601D01*
X009504Y024703D01*
X009602Y024601D02*
X010102Y024101D01*
X012102Y023601D02*
X018602Y023601D01*
X023602Y026101D02*
X024602Y026101D01*
X012102Y029101D02*
X008602Y029101D01*
X005102Y029101D01*
X004602Y028601D01*
X010602Y022601D02*
X009602Y021601D01*
D24*
X007602Y023101D03*
X008602Y024101D03*
X008602Y025101D03*
X009602Y026601D03*
X011102Y027101D03*
X012602Y026101D03*
X012102Y023601D03*
X017102Y022601D03*
X020102Y021101D03*
X022602Y022601D03*
X022602Y023601D03*
X023102Y024101D03*
X024602Y023101D03*
X025602Y023101D03*
X027602Y020601D03*
X026102Y020101D03*
X025602Y020101D03*
X026602Y019101D03*
X025102Y018101D03*
X022702Y018501D03*
X020102Y016601D03*
X020602Y015601D03*
X019502Y015301D03*
X015102Y011601D03*
X015602Y009101D03*
X020102Y008601D03*
X022602Y008601D03*
X016702Y003701D03*
X010602Y001101D03*
X006602Y002101D03*
X005502Y004101D03*
X004302Y005301D03*
X009102Y007601D03*
X009102Y011101D03*
X009602Y013101D03*
X005602Y024601D03*
X018102Y027101D03*
X024602Y026101D03*
X028102Y026101D03*
X035102Y020101D03*
X035102Y014601D03*
X038102Y012101D03*
X031602Y010101D03*
X031102Y011101D03*
X031602Y006101D03*
X041602Y006101D03*
D25*
X024504Y024703D02*
X024500Y024703D01*
X023852Y025351D01*
X014152Y025351D01*
X013504Y024703D01*
X012102Y026101D02*
X011602Y026101D01*
X012102Y026101D02*
X012602Y026601D01*
X010602Y027101D02*
X010102Y027101D01*
X009102Y023101D02*
X008102Y023101D01*
D26*
X008102Y023101D03*
X009102Y023101D03*
D27*
X008102Y028101D02*
X008102Y028601D01*
X008602Y029101D01*
X015602Y028101D02*
X016602Y029101D01*
X015602Y013601D02*
X016102Y013101D01*
X016102Y012101D01*
X017602Y010601D01*
X019102Y010601D01*
X019602Y010101D01*
X015602Y013601D02*
X007102Y013601D01*
D28*
X001852Y001601D03*
X001852Y028601D03*
X043352Y028601D03*
X043352Y001601D03*
D29*
X007102Y013601D03*
M02*
