%
M48
M72
T01C0.0236
T02C0.0240
T03C0.0320
T04C0.0354
T05C0.0394
T06C0.0400
T07C0.0660
T08C0.0790
T09C0.0866
T10C0.0984
T11C0.1495
%
T01
X36101Y23101
X37101Y23101
T02
X37601Y23101
X36601Y24101
X36601Y25101
X35601Y26601
X34101Y27101
X32601Y26101
X33101Y23601
X28101Y22601
X25101Y21101
X22601Y22601
X22601Y23601
X22101Y24101
X20601Y23101
X19601Y23101
X16601Y25101
X15601Y25101
X14601Y25101
X17101Y26101
X20601Y26101
X27101Y27101
X17601Y20601
X19101Y20101
X19601Y20101
X18601Y19101
X20101Y18101
X22501Y18501
X25101Y16601
X24601Y15601
X25701Y15301
X20601Y13101
X18601Y13101
X14101Y11101
X13601Y10101
X13601Y6101
X7101Y12101
X10101Y14601
X10101Y20101
X22601Y8601
X25101Y8601
X29601Y9101
X30101Y11601
X35601Y13101
X36101Y11101
X37601Y10601
X37601Y9601
X37601Y8601
X36101Y7601
X40901Y5301
X39701Y4101
X38601Y2101
X34601Y1101
X28501Y3701
X3601Y6101
X39601Y24601
T03
X36601Y26101
X33601Y26101
X34601Y22601
X36101Y22101
X34601Y21601
X34601Y20601
X34601Y19601
X36101Y19101
X37601Y20101
X37601Y21101
X37601Y17601
X37601Y16601
X37601Y15601
X37601Y14601
X34601Y14601
X34601Y15601
X34601Y16601
X34601Y17601
X32101Y17601
X32101Y16601
X32101Y15601
X32101Y14601
X29101Y14601
X29101Y15601
X29101Y16601
X29101Y17601
X28601Y19101
X30101Y19101
X31601Y19601
X31601Y20601
X31601Y21601
X30101Y22101
X28601Y22101
X27101Y22101
X23601Y21601
X22601Y21601
X21601Y21601
X20601Y21601
X19601Y21601
X18601Y21601
X17601Y21601
X16601Y21601
X15601Y21601
X14601Y21601
X13601Y21601
X12601Y21601
X11601Y21601
X10601Y21601
X9601Y21601
X8601Y21601
X7601Y21601
X6601Y21601
X5601Y21601
X4601Y21601
X4601Y23601
X6101Y23601
X10101Y23101
X11601Y23101
X12601Y22601
X13601Y22601
X11601Y26101
X10101Y26101
X6101Y26601
X4601Y26601
X18601Y26101
X21601Y26101
X23101Y26101
X26101Y26101
X21601Y23101
X18601Y23101
X27101Y19101
X23601Y15601
X22601Y15601
X21601Y15601
X20601Y15601
X19601Y15601
X18601Y15601
X17601Y15601
X16601Y15601
X15601Y15601
X14601Y15601
X13601Y15601
X12601Y15601
X11601Y15601
X10601Y15601
X9601Y15601
X8601Y15601
X7601Y15601
X6601Y15601
X5601Y15601
X4601Y15601
X5101Y14351
X7601Y14101
X8601Y14101
X13601Y14101
X14601Y14101
X16101Y14101
X16101Y12101
X16601Y10101
X16601Y9101
X16601Y8101
X16601Y7101
X14601Y8101
X14601Y9101
X12601Y9101
X11101Y10101
X12601Y8101
X11101Y7101
X10601Y6101
X12101Y6101
X9101Y6101
X7601Y6101
X6101Y6101
X4601Y6101
X4601Y3101
X6101Y3101
X7601Y3101
X9101Y3101
X10601Y3101
X12101Y3101
X12601Y1601
X11601Y1601
X10101Y1601
X9101Y1601
X7601Y1601
X6601Y1601
X5101Y1601
X4101Y1601
X14101Y1601
X15101Y1601
X16601Y1601
X17601Y1601
X21101Y2101
X22101Y2101
X23101Y2101
X24101Y2101
X25101Y2101
X26101Y2101
X27101Y2101
X28101Y2101
X30101Y3601
X31101Y3601
X33101Y3601
X34101Y3601
X37601Y5101
X38601Y5101
X39101Y6601
X36101Y6601
X34101Y6601
X33101Y6601
X31101Y6601
X30101Y6601
X28601Y7101
X27101Y7101
X25601Y7101
X24101Y7101
X22601Y7101
X21101Y7101
X19601Y7101
X19601Y8101
X19601Y9101
X19601Y10101
X21101Y10101
X22601Y10101
X24101Y10101
X25601Y10101
X27101Y10101
X28601Y10101
X31601Y10101
X31601Y11101
X31601Y12101
X34601Y12101
X34601Y11101
X34601Y10101
X34601Y9101
X31601Y9101
X26101Y12101
X26101Y14101
X23101Y14101
X23101Y12101
X23101Y5101
X24101Y5101
X25101Y5101
X26101Y5101
X27101Y5101
X28101Y5101
X22101Y5101
X21101Y5101
X2101Y14351
X31601Y22601
T04
X37351Y2751
X38351Y2751
X38351Y1451
X37351Y1451
T05
X38101Y13601
X35699Y24703
X34699Y24703
X33699Y24703
X32699Y24703
X31699Y24703
X30699Y24703
X29699Y24703
X28699Y24703
X27699Y24703
X26699Y24703
X25699Y24703
X24699Y24703
X23699Y24703
X22699Y24703
X21699Y24703
X20699Y24703
T06
X21101Y28101
X22101Y28101
X20101Y28101
X17101Y28101
X16101Y28101
X15101Y28101
X12101Y28101
X11101Y28101
X10101Y28101
X7101Y28101
X6101Y28101
X5101Y28101
X3101Y25601
X2101Y25601
X1101Y25601
X1101Y23601
X2101Y23601
X3101Y23601
X2101Y21101
X2101Y20101
X2101Y19101
X2101Y18101
X2101Y17101
X2101Y16101
X2321Y12991
X4881Y12991
X4881Y11211
X2321Y11211
X2321Y9241
X4881Y9241
X7101Y9601
X8101Y9601
X9101Y9601
X9101Y7601
X8101Y7601
X7101Y7601
X4881Y7461
X2321Y7461
X14101Y5101
X14101Y4101
X16601Y4101
X16601Y5101
X19351Y4351
X19351Y3351
X19351Y2351
X41101Y26101
X42101Y26101
X43101Y26101
X38101Y28101
X37101Y28101
X35101Y28101
X34101Y28101
X33101Y28101
X30601Y28101
X29601Y28101
X26601Y28101
X25601Y28101
X24601Y28101
T07
X41601Y23441
X41601Y21881
X41601Y20321
X41601Y18761
X41601Y16171
X41601Y14611
X41601Y13051
X41601Y9881
X41601Y8321
T08
X42601Y5601
X43601Y3601
X41601Y3601
X33601Y1601
X31601Y1601
X29601Y1601
X15101Y6601
X1601Y5101
X40601Y28601
T09
X40201Y1601
X35501Y1601
T10
X37865Y12498
X37865Y24703
X8337Y24703
X8337Y12498
T11
X1851Y1601
X1851Y28601
X43351Y28601
X43351Y1601
M30
