G75*
G70*
%OFA0B0*%
%FSLAX24Y24*%
%IPPOS*%
%LPD*%
%AMOC8*
5,1,8,0,0,1.08239X$1,22.5*
%
%ADD10OC8,0.0600*%
%ADD11C,0.2000*%
%ADD12C,0.0520*%
%ADD13OC8,0.0560*%
%ADD14R,0.0945X0.0945*%
%ADD15C,0.0594*%
%ADD16C,0.0600*%
%ADD17C,0.0750*%
%ADD18OC8,0.0750*%
%ADD19OC8,0.0630*%
%ADD20C,0.0100*%
%ADD21C,0.0050*%
%ADD22C,0.0280*%
%ADD23C,0.0310*%
%ADD24C,0.0260*%
%ADD25C,0.0160*%
%ADD26R,0.0396X0.0396*%
%ADD27C,0.0080*%
%ADD28C,0.0357*%
%ADD29C,0.0400*%
D10*
X016535Y007544D03*
X017615Y007544D03*
X018695Y007544D03*
X019775Y007544D03*
X020855Y007544D03*
X020315Y006544D03*
X019235Y006544D03*
X018155Y006544D03*
X017075Y006544D03*
X033035Y007544D03*
X034115Y007544D03*
X035195Y007544D03*
X036275Y007544D03*
X037355Y007544D03*
X036815Y006544D03*
X035735Y006544D03*
X034655Y006544D03*
X033575Y006544D03*
D11*
X030265Y007044D03*
X023625Y007044D03*
X013765Y007044D03*
X040125Y007044D03*
D12*
X035195Y010284D02*
X035195Y010804D01*
X034195Y010804D02*
X034195Y010284D01*
X033195Y010284D02*
X033195Y010804D01*
X032195Y010804D02*
X032195Y010284D01*
X031195Y010284D02*
X031195Y010804D01*
X030195Y010804D02*
X030195Y010284D01*
X029195Y010284D02*
X029195Y010804D01*
X028195Y010804D02*
X028195Y010284D01*
X028195Y013284D02*
X028195Y013804D01*
X029195Y013804D02*
X029195Y013284D01*
X030195Y013284D02*
X030195Y013804D01*
X031195Y013804D02*
X031195Y013284D01*
X032195Y013284D02*
X032195Y013804D01*
X033195Y013804D02*
X033195Y013284D01*
X034195Y013284D02*
X034195Y013804D01*
X035195Y013804D02*
X035195Y013284D01*
X014395Y013504D02*
X014395Y012984D01*
X013395Y012984D02*
X013395Y013504D01*
X012395Y013504D02*
X012395Y012984D01*
X011395Y012984D02*
X011395Y013504D01*
X010395Y013504D02*
X010395Y012984D01*
X009395Y012984D02*
X009395Y013504D01*
X008395Y013504D02*
X008395Y012984D01*
X008395Y010504D02*
X008395Y009984D01*
X009395Y009984D02*
X009395Y010504D01*
X010395Y010504D02*
X010395Y009984D01*
X011395Y009984D02*
X011395Y010504D01*
X012395Y010504D02*
X012395Y009984D01*
X013395Y009984D02*
X013395Y010504D01*
X014395Y010504D02*
X014395Y009984D01*
X011895Y016044D02*
X011895Y016564D01*
X010895Y016564D02*
X010895Y016044D01*
X009895Y016044D02*
X009895Y016564D01*
X008895Y016564D02*
X008895Y016044D01*
X008895Y019044D02*
X008895Y019564D01*
X009895Y019564D02*
X009895Y019044D01*
X010895Y019044D02*
X010895Y019564D01*
X011895Y019564D02*
X011895Y019044D01*
D13*
X016095Y012344D03*
X016095Y011344D03*
X026195Y011544D03*
X026195Y012544D03*
X026195Y014044D03*
X026195Y015044D03*
X028695Y015044D03*
X029695Y015044D03*
X031195Y016544D03*
X032195Y016544D03*
X033195Y015544D03*
X034195Y015544D03*
D14*
X006375Y028824D03*
X004175Y029314D03*
D15*
X004091Y021884D02*
X003498Y021884D01*
X003498Y020884D02*
X004091Y020884D01*
X003761Y017914D02*
X003168Y017914D01*
X003168Y016914D02*
X003761Y016914D01*
X003891Y013944D02*
X003298Y013944D01*
X003298Y012944D02*
X003891Y012944D01*
X003791Y010044D02*
X003198Y010044D01*
X003198Y009044D02*
X003791Y009044D01*
X003791Y008044D02*
X003198Y008044D01*
X003198Y007044D02*
X003791Y007044D01*
X039805Y030127D02*
X039805Y030721D01*
X040805Y030721D02*
X040805Y030127D01*
X041805Y030127D02*
X041805Y030721D01*
X047598Y022354D02*
X048191Y022354D01*
X048191Y021354D02*
X047598Y021354D01*
X047598Y020354D02*
X048191Y020354D01*
X048131Y018034D02*
X047538Y018034D01*
X047538Y017034D02*
X048131Y017034D01*
X048131Y016034D02*
X047538Y016034D01*
X047558Y012974D02*
X048151Y012974D01*
X048151Y011974D02*
X047558Y011974D01*
X047558Y010974D02*
X048151Y010974D01*
D16*
X032825Y018244D02*
X032825Y018844D01*
X031825Y018844D02*
X031825Y018244D01*
X030825Y018244D02*
X030825Y018844D01*
X029825Y018844D02*
X029825Y018244D01*
X028825Y018244D02*
X028825Y018844D01*
X027825Y018844D02*
X027825Y018244D01*
X013395Y031484D02*
X013395Y032084D01*
X012395Y032084D02*
X012395Y031484D01*
X011395Y031484D02*
X011395Y032084D01*
X010395Y032084D02*
X010395Y031484D01*
X009395Y031484D02*
X009395Y032084D01*
X008395Y032084D02*
X008395Y031484D01*
X008995Y004944D02*
X008995Y004344D01*
X009995Y004344D02*
X009995Y004944D01*
X007095Y004944D02*
X007095Y004344D01*
X006095Y004344D02*
X006095Y004944D01*
X004395Y004944D02*
X004395Y004344D01*
X003395Y004344D02*
X003395Y004944D01*
D17*
X010535Y026204D03*
X033225Y030294D03*
D18*
X035225Y030294D03*
X008535Y026204D03*
D19*
X008495Y027734D03*
X010495Y027734D03*
D20*
X006695Y029044D02*
X006375Y028824D01*
X006695Y029044D02*
X040695Y029044D01*
X041695Y030044D01*
X041805Y030424D01*
X040415Y027864D02*
X044265Y027864D01*
X045215Y027004D02*
X045785Y027014D01*
X046755Y027014D01*
X046475Y027344D02*
X046435Y027354D01*
X039965Y027354D01*
X039965Y027344D01*
X039795Y027514D01*
X040135Y027169D02*
X039380Y027169D01*
X036905Y024604D01*
X036915Y024094D02*
X029095Y024094D01*
X027795Y022804D01*
X026745Y022924D01*
X026725Y022474D02*
X027765Y022474D01*
X029175Y023884D01*
X036995Y023884D01*
X039830Y026719D01*
X045235Y026714D01*
X045465Y026714D01*
X045445Y026724D01*
X045215Y027004D02*
X040205Y027004D01*
X040205Y027014D01*
X040135Y027014D01*
X040135Y027169D01*
X039515Y026814D02*
X036915Y024094D01*
X036015Y024354D02*
X031185Y024354D01*
X031025Y025374D02*
X032075Y025374D01*
X031495Y026644D02*
X032795Y026644D01*
X031495Y026644D02*
X031395Y026744D01*
X031565Y027554D02*
X029865Y025854D01*
X029865Y025824D01*
X029205Y025134D01*
X027485Y024844D02*
X026035Y023364D01*
X026015Y022304D01*
X026245Y022024D02*
X026885Y021964D01*
X026755Y021484D02*
X027375Y022104D01*
X026755Y021484D02*
X025785Y021484D01*
X025505Y021174D01*
X025355Y020644D02*
X019795Y015594D01*
X017055Y015594D01*
X014875Y015484D02*
X017365Y017974D01*
X021245Y017974D01*
X022205Y017014D02*
X026695Y017014D01*
X027365Y017684D02*
X028065Y017684D01*
X028105Y017724D01*
X035715Y017724D01*
X036405Y017034D01*
X047835Y017034D01*
X047835Y018034D02*
X042535Y018034D01*
X047895Y020354D02*
X036975Y020354D01*
X036005Y021324D01*
X030525Y021324D01*
X030045Y021214D02*
X030705Y020554D01*
X032775Y020554D01*
X034735Y018594D01*
X037125Y021354D02*
X037015Y021464D01*
X036555Y021924D01*
X031145Y021924D01*
X031075Y021854D01*
X030845Y021854D01*
X032115Y022184D02*
X032545Y022154D01*
X047895Y022354D01*
X037205Y027554D02*
X031565Y027554D01*
X031095Y028744D02*
X021395Y028744D01*
X020495Y027844D01*
X016195Y027844D01*
X015795Y028244D01*
X014665Y024434D02*
X012315Y024434D01*
X016845Y019484D02*
X016995Y019484D01*
X019141Y019484D01*
X021565Y020904D02*
X004195Y020904D01*
X003795Y020884D01*
X005195Y014544D02*
X003595Y012944D01*
X005195Y014544D02*
X024195Y014544D01*
X026195Y012544D01*
X025695Y012044D02*
X047695Y012044D01*
X047855Y011974D01*
X047195Y011544D02*
X027195Y011544D01*
X026195Y011544D01*
X017195Y011544D01*
X016195Y012544D01*
X016095Y012344D01*
X016195Y012544D02*
X015695Y013044D01*
X014595Y013044D01*
X014395Y013244D01*
X013395Y013244D02*
X012695Y012544D01*
X010695Y012544D01*
X010195Y013044D01*
X010395Y013244D01*
X011345Y011984D02*
X011655Y011674D01*
X014215Y011674D01*
X014875Y012334D01*
X015515Y011484D02*
X014395Y010244D01*
X011395Y010244D02*
X007995Y007044D01*
X003495Y007044D01*
X003495Y010044D02*
X008195Y010044D01*
X008395Y010244D01*
X010195Y010544D02*
X010395Y010244D01*
X010195Y010544D02*
X007695Y013044D01*
X007695Y014044D01*
X023695Y014044D01*
X025695Y012044D01*
X027195Y011544D02*
X028195Y010544D01*
X029195Y010544D02*
X028195Y009544D01*
X018695Y009544D01*
X016695Y007544D01*
X016535Y007544D01*
X018695Y007544D02*
X020195Y009044D01*
X028695Y009044D01*
X030195Y010544D01*
X031195Y010544D02*
X029195Y008544D01*
X020695Y008544D01*
X019695Y007544D01*
X019775Y007544D01*
X028195Y014544D02*
X029195Y013544D01*
X028195Y014544D02*
X026695Y014544D01*
X026195Y014044D01*
X028575Y015624D02*
X025985Y018214D01*
X026005Y018214D01*
X025725Y018864D02*
X028645Y016044D01*
X029565Y016044D01*
X030685Y014924D01*
X031135Y014924D01*
X031715Y014344D01*
X030735Y014594D02*
X029705Y015624D01*
X028575Y015624D01*
X030725Y015394D02*
X031695Y015394D01*
X032725Y014364D01*
X032725Y012784D01*
X032965Y012544D01*
X034015Y012544D01*
X027825Y018464D02*
X027805Y018444D01*
X027805Y018714D01*
X026455Y020164D01*
X026455Y020874D01*
X026485Y020904D01*
X022345Y020904D01*
X022345Y020914D01*
X021565Y020914D02*
X021565Y020904D01*
X021965Y021614D02*
X021965Y019134D01*
X023445Y021144D02*
X024875Y021194D01*
X025725Y020474D02*
X025725Y018864D01*
X026005Y018984D02*
X025985Y020194D01*
X026165Y020374D01*
X026165Y020414D01*
X026485Y020904D02*
X028695Y020904D01*
X028925Y020544D02*
X028785Y020484D01*
X027895Y019544D02*
X027295Y019544D01*
X027825Y018544D02*
X027825Y018464D01*
X028325Y021974D02*
X029355Y021974D01*
X024565Y022094D02*
X022440Y022089D01*
X021965Y021614D01*
X023465Y025664D02*
X024375Y025664D01*
X025135Y026104D02*
X023035Y026104D01*
X023925Y029354D02*
X025825Y032064D01*
X029515Y027834D02*
X029555Y026844D01*
X047195Y011544D02*
X047695Y011044D01*
X047855Y010974D01*
D21*
X005095Y003944D02*
X004395Y004644D01*
X004195Y005444D02*
X006995Y005444D01*
X006195Y004644D01*
X006095Y004644D01*
X006995Y005444D02*
X008195Y005444D01*
X008995Y004644D01*
X012195Y003944D02*
X005095Y003944D01*
X004195Y005444D02*
X003395Y004644D01*
X012195Y003944D02*
X018895Y010644D01*
X017395Y015344D02*
X017495Y015444D01*
X020295Y015444D01*
X023695Y018844D01*
X025495Y018844D01*
X027295Y019544D02*
X026945Y020154D01*
X027095Y020544D02*
X027445Y020194D01*
X027445Y019794D01*
X027895Y019544D02*
X028245Y019514D01*
X029565Y019514D01*
X029495Y020544D01*
X028925Y020544D01*
X028785Y020484D02*
X028095Y020484D01*
X027595Y020244D02*
X029245Y020244D01*
X029895Y020844D02*
X029895Y021044D01*
X029795Y021144D01*
X029795Y021844D01*
X030095Y021844D01*
X031895Y023644D01*
X034495Y023644D01*
X033895Y025144D02*
X034095Y025344D01*
X037295Y025344D01*
X041695Y029744D01*
X041995Y029744D01*
X042195Y029944D01*
X042195Y032444D01*
X013995Y032444D01*
X013395Y031844D01*
X013395Y031784D01*
X013495Y031044D02*
X011095Y031044D01*
X010395Y031744D01*
X010395Y031784D01*
X011695Y032544D02*
X008295Y032544D01*
X005795Y030044D01*
X005795Y028244D01*
X015795Y028244D01*
X013595Y029344D02*
X010795Y029344D01*
X008395Y031744D01*
X008395Y031784D01*
X011695Y032544D02*
X012395Y031844D01*
X012395Y031784D01*
X013495Y031044D02*
X014795Y032344D01*
X029595Y032344D01*
X032595Y029344D01*
X030895Y028044D02*
X030395Y027544D01*
X030395Y026944D01*
X029895Y026444D01*
X029095Y026794D02*
X029095Y028044D01*
X027295Y029344D02*
X027095Y029344D01*
X027295Y029344D02*
X027895Y029944D01*
X032075Y025374D02*
X032195Y025444D01*
X036995Y025444D01*
X038595Y027044D01*
X037015Y021464D02*
X036995Y021444D01*
X047795Y021444D01*
X047895Y021354D01*
X047895Y020354D02*
X047695Y020294D01*
X045445Y020294D01*
X044945Y019794D01*
X029195Y022344D02*
X028695Y022344D01*
X028595Y022244D01*
X028195Y021744D02*
X027595Y022344D01*
X026995Y022344D01*
X026895Y022244D01*
X026595Y022244D01*
X026295Y022544D01*
X026295Y023044D01*
X025795Y022944D02*
X024695Y021844D01*
X022895Y021844D01*
X022095Y021044D01*
X022095Y019344D01*
X022195Y019244D01*
X022195Y018644D01*
X011495Y018644D01*
X010895Y019244D01*
X010895Y019304D01*
X010495Y019944D02*
X009895Y019344D01*
X009895Y019304D01*
X010495Y019944D02*
X021795Y019944D01*
X021795Y021644D01*
X022395Y022244D01*
X023995Y022244D01*
X025595Y023844D01*
X025195Y023794D02*
X004695Y023794D01*
X002945Y022044D01*
X002945Y019544D01*
X008695Y019544D01*
X008895Y019304D01*
X007795Y017844D02*
X003795Y017844D01*
X003465Y017914D01*
X004795Y018544D02*
X022695Y018544D01*
X022795Y018644D01*
X022345Y020294D02*
X024245Y020294D01*
X024595Y020644D01*
X027445Y020494D02*
X027595Y020244D01*
X028175Y019794D02*
X028955Y019794D01*
X028195Y021544D02*
X028195Y021744D01*
X025695Y024294D02*
X025195Y023794D01*
X016995Y019484D02*
X016995Y019444D01*
X011795Y019444D01*
X011895Y019304D01*
X008995Y016644D02*
X008895Y016304D01*
X008995Y016644D02*
X007795Y017844D01*
D22*
X014875Y015484D03*
X014875Y012334D03*
X011345Y011984D03*
X021245Y017974D03*
X022205Y017014D03*
X019141Y019484D03*
X016845Y019484D03*
X023445Y021144D03*
X024565Y022094D03*
X025505Y021174D03*
X025725Y020474D03*
X026165Y020414D03*
X026005Y018984D03*
X026005Y018214D03*
X026695Y017014D03*
X027365Y017684D03*
X030735Y014594D03*
X031715Y014344D03*
X034735Y018594D03*
X030845Y021854D03*
X030045Y021214D03*
X029355Y021974D03*
X028325Y021974D03*
X026885Y021964D03*
X026725Y022474D03*
X026245Y022024D03*
X026015Y022304D03*
X029205Y024614D03*
X029205Y025134D03*
X031025Y025374D03*
X032075Y025374D03*
X031185Y024354D03*
X032115Y022184D03*
X036015Y024354D03*
X034895Y024844D03*
X039515Y026814D03*
X039795Y027514D03*
X045465Y026714D03*
X029555Y026844D03*
X029515Y027834D03*
X023925Y029354D03*
X025825Y032064D03*
X014665Y024434D03*
X012315Y024434D03*
D23*
X021565Y020914D03*
X022345Y020914D03*
X024875Y021194D03*
X025355Y020644D03*
X027375Y022104D03*
X026745Y022924D03*
X030525Y021324D03*
X024375Y025664D03*
X025135Y026104D03*
X023465Y025664D03*
X023035Y026104D03*
X021965Y019134D03*
X017055Y015594D03*
X015515Y011484D03*
X030725Y015394D03*
X034015Y012544D03*
X042535Y018034D03*
X046755Y027014D03*
X046475Y027344D03*
X044265Y027864D03*
X040415Y027864D03*
X037205Y027554D03*
D24*
X038595Y027044D03*
X033895Y025144D03*
X034495Y023644D03*
X029895Y020844D03*
X029245Y020244D03*
X028785Y020484D03*
X028095Y020484D03*
X027445Y020494D03*
X027095Y020544D03*
X026945Y020154D03*
X027445Y019794D03*
X028175Y019794D03*
X028955Y019794D03*
X028195Y021544D03*
X028595Y022244D03*
X029195Y022344D03*
X026295Y023044D03*
X025795Y022944D03*
X025595Y023844D03*
X025695Y024294D03*
X029095Y026794D03*
X029095Y028044D03*
X027095Y029344D03*
X027895Y029944D03*
X032595Y029344D03*
X024595Y020644D03*
X022345Y020294D03*
X022795Y018644D03*
X025495Y018844D03*
X017395Y015344D03*
X018895Y010644D03*
X004795Y018544D03*
X013595Y029344D03*
X044945Y019794D03*
D25*
X008535Y023504D02*
X006575Y021544D01*
X004695Y021544D01*
D26*
X004695Y021544D03*
X008535Y023504D03*
X031095Y028744D03*
X031395Y026744D03*
X032795Y026644D03*
D27*
X034895Y024844D02*
X027485Y024844D01*
X029205Y024614D02*
X036905Y024604D01*
X031195Y023544D02*
X028695Y020904D01*
D28*
X029895Y026444D03*
X030895Y028044D03*
X015795Y028244D03*
D29*
X031195Y023544D03*
M02*
