G75*
G70*
%OFA0B0*%
%FSLAX24Y24*%
%IPPOS*%
%LPD*%
%AMOC8*
5,1,8,0,0,1.08239X$1,22.5*
%
%ADD10OC8,0.0600*%
%ADD11C,0.2000*%
%ADD12C,0.0520*%
%ADD13OC8,0.0560*%
%ADD14R,0.0945X0.0945*%
%ADD15C,0.0594*%
%ADD16R,0.0591X0.0079*%
%ADD17R,0.0079X0.0591*%
%ADD18R,0.0276X0.0354*%
%ADD19R,0.0472X0.0984*%
%ADD20R,0.0354X0.0276*%
%ADD21R,0.0315X0.0315*%
%ADD22R,0.0433X0.0748*%
%ADD23R,0.0984X0.0394*%
%ADD24R,0.0984X0.0197*%
%ADD25R,0.0984X0.0787*%
%ADD26C,0.0600*%
%ADD27R,0.0480X0.0880*%
%ADD28R,0.1417X0.0866*%
%ADD29C,0.0750*%
%ADD30OC8,0.0750*%
%ADD31OC8,0.0630*%
%ADD32C,0.0100*%
%ADD33C,0.0080*%
%ADD34C,0.0050*%
%ADD35C,0.0280*%
%ADD36C,0.0310*%
%ADD37C,0.0260*%
%ADD38C,0.0160*%
%ADD39R,0.0396X0.0396*%
%ADD40C,0.0120*%
%ADD41C,0.0357*%
%ADD42C,0.0400*%
D10*
X012999Y007544D03*
X014079Y007544D03*
X015159Y007544D03*
X016239Y007544D03*
X017319Y007544D03*
X016779Y006544D03*
X015699Y006544D03*
X014619Y006544D03*
X013539Y006544D03*
X029499Y007544D03*
X030579Y007544D03*
X031659Y007544D03*
X032739Y007544D03*
X033819Y007544D03*
X033279Y006544D03*
X032199Y006544D03*
X031119Y006544D03*
X030039Y006544D03*
D11*
X010229Y007044D03*
X020089Y007044D03*
X026729Y007044D03*
X036589Y007044D03*
D12*
X036959Y009984D02*
X036959Y010504D01*
X037959Y010504D02*
X037959Y009984D01*
X038959Y009984D02*
X038959Y010504D01*
X039959Y010504D02*
X039959Y009984D01*
X040959Y009984D02*
X040959Y010504D01*
X041959Y010504D02*
X041959Y009984D01*
X041959Y012984D02*
X041959Y013504D01*
X040959Y013504D02*
X040959Y012984D01*
X039959Y012984D02*
X039959Y013504D01*
X038959Y013504D02*
X038959Y012984D01*
X037959Y012984D02*
X037959Y013504D01*
X036959Y013504D02*
X036959Y012984D01*
X035959Y012984D02*
X035959Y013504D01*
X038459Y016044D02*
X038459Y016564D01*
X039459Y016564D02*
X039459Y016044D01*
X040459Y016044D02*
X040459Y016564D01*
X041459Y016564D02*
X041459Y016044D01*
X041459Y019044D02*
X041459Y019564D01*
X040459Y019564D02*
X040459Y019044D01*
X039459Y019044D02*
X039459Y019564D01*
X038459Y019564D02*
X038459Y019044D01*
X035959Y010504D02*
X035959Y009984D01*
X022159Y010284D02*
X022159Y010804D01*
X021159Y010804D02*
X021159Y010284D01*
X020159Y010284D02*
X020159Y010804D01*
X019159Y010804D02*
X019159Y010284D01*
X018159Y010284D02*
X018159Y010804D01*
X017159Y010804D02*
X017159Y010284D01*
X016159Y010284D02*
X016159Y010804D01*
X015159Y010804D02*
X015159Y010284D01*
X015159Y013284D02*
X015159Y013804D01*
X016159Y013804D02*
X016159Y013284D01*
X017159Y013284D02*
X017159Y013804D01*
X018159Y013804D02*
X018159Y013284D01*
X019159Y013284D02*
X019159Y013804D01*
X020159Y013804D02*
X020159Y013284D01*
X021159Y013284D02*
X021159Y013804D01*
X022159Y013804D02*
X022159Y013284D01*
D13*
X024159Y012544D03*
X024159Y011544D03*
X024159Y014044D03*
X024159Y015044D03*
X021659Y015044D03*
X020659Y015044D03*
X019159Y016544D03*
X018159Y016544D03*
X017159Y015544D03*
X016159Y015544D03*
X034259Y012344D03*
X034259Y011344D03*
D14*
X043979Y028824D03*
X046179Y029314D03*
D15*
X046262Y021884D02*
X046856Y021884D01*
X046856Y020884D02*
X046262Y020884D01*
X046592Y017914D02*
X047186Y017914D01*
X047186Y016914D02*
X046592Y016914D01*
X046462Y013944D02*
X047056Y013944D01*
X047056Y012944D02*
X046462Y012944D01*
X046562Y010044D02*
X047156Y010044D01*
X047156Y009044D02*
X046562Y009044D01*
X046562Y008044D02*
X047156Y008044D01*
X047156Y007044D02*
X046562Y007044D01*
X010549Y030127D02*
X010549Y030721D01*
X009549Y030721D02*
X009549Y030127D01*
X008549Y030127D02*
X008549Y030721D01*
X002756Y022354D02*
X002162Y022354D01*
X002162Y021354D02*
X002756Y021354D01*
X002756Y020354D02*
X002162Y020354D01*
X002222Y018034D02*
X002816Y018034D01*
X002816Y017034D02*
X002222Y017034D01*
X002222Y016034D02*
X002816Y016034D01*
X002796Y012974D02*
X002202Y012974D01*
X002202Y011974D02*
X002796Y011974D01*
X002796Y010974D02*
X002202Y010974D01*
D16*
X020001Y021774D03*
X020001Y021931D03*
X020001Y022089D03*
X020001Y022246D03*
X020001Y022404D03*
X020001Y022561D03*
X020001Y022719D03*
X020001Y022876D03*
X020001Y023034D03*
X020001Y023191D03*
X020001Y023349D03*
X020001Y023506D03*
X020001Y023664D03*
X020001Y023821D03*
X020001Y023979D03*
X020001Y024136D03*
X020001Y024294D03*
X020001Y024451D03*
X020001Y024609D03*
X020001Y024766D03*
X020001Y024924D03*
X020001Y025081D03*
X020001Y025239D03*
X020001Y025396D03*
X020001Y025554D03*
X025277Y025554D03*
X025277Y025396D03*
X025277Y025239D03*
X025277Y025081D03*
X025277Y024924D03*
X025277Y024766D03*
X025277Y024609D03*
X025277Y024451D03*
X025277Y024294D03*
X025277Y024136D03*
X025277Y023979D03*
X025277Y023821D03*
X025277Y023664D03*
X025277Y023506D03*
X025277Y023349D03*
X025277Y023191D03*
X025277Y023034D03*
X025277Y022876D03*
X025277Y022719D03*
X025277Y022561D03*
X025277Y022404D03*
X025277Y022246D03*
X025277Y022089D03*
X025277Y021931D03*
X025277Y021774D03*
D17*
X024529Y021026D03*
X024371Y021026D03*
X024214Y021026D03*
X024056Y021026D03*
X023899Y021026D03*
X023741Y021026D03*
X023584Y021026D03*
X023426Y021026D03*
X023269Y021026D03*
X023111Y021026D03*
X022954Y021026D03*
X022796Y021026D03*
X022639Y021026D03*
X022481Y021026D03*
X022324Y021026D03*
X022166Y021026D03*
X022009Y021026D03*
X021851Y021026D03*
X021694Y021026D03*
X021536Y021026D03*
X021379Y021026D03*
X021221Y021026D03*
X021064Y021026D03*
X020906Y021026D03*
X020749Y021026D03*
X020749Y026302D03*
X020906Y026302D03*
X021064Y026302D03*
X021221Y026302D03*
X021379Y026302D03*
X021536Y026302D03*
X021694Y026302D03*
X021851Y026302D03*
X022009Y026302D03*
X022166Y026302D03*
X022324Y026302D03*
X022481Y026302D03*
X022639Y026302D03*
X022796Y026302D03*
X022954Y026302D03*
X023111Y026302D03*
X023269Y026302D03*
X023426Y026302D03*
X023584Y026302D03*
X023741Y026302D03*
X023899Y026302D03*
X024056Y026302D03*
X024214Y026302D03*
X024371Y026302D03*
X024529Y026302D03*
D18*
X023625Y026964D03*
X023113Y026964D03*
X026513Y024834D03*
X027025Y024834D03*
X028303Y024864D03*
X028815Y024864D03*
X028465Y027234D03*
X027953Y027234D03*
X027065Y022004D03*
X026553Y022004D03*
X026525Y021144D03*
X026013Y021144D03*
X031193Y019954D03*
X031705Y019954D03*
X031725Y019004D03*
X031213Y019004D03*
X018715Y023654D03*
X018203Y023654D03*
X018163Y024894D03*
X018675Y024894D03*
X005515Y020234D03*
X005003Y020234D03*
D19*
X024839Y027654D03*
X026138Y027654D03*
D20*
X022909Y031458D03*
X022909Y031970D03*
X021969Y031980D03*
X021969Y031468D03*
X021119Y031528D03*
X021119Y032040D03*
X020359Y032030D03*
X020359Y031518D03*
X036939Y030700D03*
X036939Y030188D03*
X038019Y030188D03*
X038019Y030700D03*
X038989Y030700D03*
X038989Y030188D03*
X039969Y030188D03*
X039969Y030700D03*
X040989Y030700D03*
X040989Y030188D03*
X041989Y030188D03*
X041989Y030700D03*
X039069Y024370D03*
X039069Y023858D03*
X040309Y007290D03*
X041169Y007280D03*
X041169Y006768D03*
X040309Y006778D03*
X042029Y006728D03*
X042029Y007240D03*
D21*
X039069Y022519D03*
X039069Y023109D03*
X022909Y029999D03*
X022909Y030589D03*
X022019Y030609D03*
X022019Y030019D03*
X021109Y030049D03*
X020339Y030049D03*
X020339Y030639D03*
X021109Y030639D03*
D22*
X026356Y024132D03*
X027261Y024132D03*
X027261Y022675D03*
X026356Y022675D03*
D23*
X027669Y025524D03*
X027669Y026524D03*
D24*
X002793Y026694D03*
X002793Y027009D03*
X002793Y027324D03*
X002793Y027639D03*
X002793Y027954D03*
D25*
X001993Y029095D03*
X000828Y029095D03*
X000828Y025552D03*
X001993Y025591D03*
D26*
X017529Y018844D02*
X017529Y018244D01*
X018529Y018244D02*
X018529Y018844D01*
X019529Y018844D02*
X019529Y018244D01*
X020529Y018244D02*
X020529Y018844D01*
X021529Y018844D02*
X021529Y018244D01*
X022529Y018244D02*
X022529Y018844D01*
X036959Y031484D02*
X036959Y032084D01*
X037959Y032084D02*
X037959Y031484D01*
X038959Y031484D02*
X038959Y032084D01*
X039959Y032084D02*
X039959Y031484D01*
X040959Y031484D02*
X040959Y032084D01*
X041959Y032084D02*
X041959Y031484D01*
X041359Y004944D02*
X041359Y004344D01*
X040359Y004344D02*
X040359Y004944D01*
X043259Y004944D02*
X043259Y004344D01*
X044259Y004344D02*
X044259Y004944D01*
X045959Y004944D02*
X045959Y004344D01*
X046959Y004344D02*
X046959Y004944D01*
D27*
X038249Y026234D03*
X037339Y026234D03*
X036429Y026234D03*
D28*
X037339Y028674D03*
D29*
X039819Y026204D03*
X017129Y030294D03*
D30*
X015129Y030294D03*
X041819Y026204D03*
D31*
X041859Y027734D03*
X039859Y027734D03*
D32*
X036429Y026234D02*
X035959Y025764D01*
X035959Y013244D01*
X035479Y012334D02*
X035479Y015484D01*
X034839Y014174D02*
X034839Y011484D01*
X034259Y011344D02*
X034159Y011544D01*
X032659Y013044D01*
X032659Y018044D01*
X031659Y019044D01*
X031725Y019004D01*
X031659Y019044D02*
X031659Y020044D01*
X031705Y019954D01*
X031659Y020044D02*
X031659Y020544D01*
X027659Y020544D01*
X027659Y023654D01*
X028569Y024564D01*
X028815Y024864D01*
X028899Y024948D01*
X028899Y026714D01*
X028465Y027148D01*
X028465Y027234D01*
X027953Y027234D02*
X027953Y026808D01*
X027669Y026524D01*
X027319Y026104D01*
X026909Y025654D02*
X027039Y025524D01*
X027669Y025524D01*
X027849Y025518D01*
X028303Y024864D01*
X027669Y024484D02*
X027659Y023654D01*
X027229Y023214D02*
X027039Y023404D01*
X025929Y023404D01*
X025669Y023664D01*
X025606Y023506D02*
X025779Y023334D01*
X025779Y022514D01*
X025659Y022394D01*
X026039Y022274D01*
X026039Y021874D01*
X026495Y021268D01*
X026525Y021144D01*
X026525Y020438D01*
X025871Y019784D01*
X023979Y019784D01*
X023899Y019864D01*
X023899Y020204D01*
X023899Y021026D01*
X024369Y020594D02*
X024189Y020414D01*
X023899Y020204D02*
X023519Y019924D01*
X023139Y019924D01*
X022479Y020584D01*
X022479Y021023D01*
X022481Y021026D01*
X022329Y020704D02*
X022259Y020484D01*
X022259Y019844D02*
X022259Y019794D01*
X022179Y019794D01*
X021399Y019794D02*
X021079Y019774D01*
X021179Y019154D01*
X021529Y019004D01*
X021529Y018544D01*
X020529Y018544D02*
X020529Y017594D01*
X020339Y017404D01*
X016739Y017404D01*
X016159Y016824D01*
X016169Y016824D01*
X016169Y027174D01*
X018029Y027174D01*
X018029Y029244D01*
X018019Y031544D01*
X013709Y031544D01*
X008659Y031544D01*
X007659Y030544D01*
X007659Y029044D01*
X003159Y029044D01*
X003149Y027964D02*
X003929Y027964D01*
X003189Y027654D02*
X004889Y027654D01*
X004889Y026714D01*
X003879Y027344D02*
X003269Y027334D01*
X003189Y027654D02*
X002729Y027649D01*
X002714Y027004D02*
X002959Y027006D01*
X003169Y027009D01*
X003599Y027014D01*
X002729Y026994D02*
X002714Y027004D01*
X005989Y027954D02*
X006089Y027864D01*
X009939Y027864D02*
X010599Y028524D01*
X010599Y030374D01*
X010549Y030424D01*
X012009Y030424D01*
X012909Y029524D01*
X014169Y028264D01*
X014169Y026774D01*
X015459Y024844D01*
X014339Y024354D02*
X012499Y022514D01*
X012499Y019614D01*
X005859Y012974D01*
X002499Y012974D01*
X001659Y011544D02*
X001659Y015544D01*
X002159Y016044D01*
X002519Y016034D01*
X002659Y016044D01*
X003659Y017044D01*
X003659Y024044D01*
X009659Y030044D01*
X010559Y027514D02*
X010839Y026814D01*
X013149Y027554D02*
X009569Y023974D01*
X009569Y019784D01*
X007819Y018034D01*
X014159Y012544D02*
X015159Y013544D01*
X015629Y013024D02*
X015619Y018594D01*
X017529Y018544D02*
X017529Y020704D01*
X017649Y021724D01*
X017879Y021724D01*
X018239Y022184D01*
X019489Y022194D01*
X019659Y022094D01*
X019519Y021934D02*
X019569Y021894D01*
X019549Y021894D01*
X019509Y021854D01*
X020059Y021716D02*
X020059Y021554D01*
X019829Y021324D01*
X020309Y021314D02*
X020999Y021974D01*
X021389Y022534D02*
X021389Y021036D01*
X020906Y021026D02*
X020906Y020491D01*
X020069Y019584D01*
X019749Y019584D01*
X019519Y019424D01*
X019519Y018554D01*
X019529Y018544D01*
X018529Y018544D02*
X018529Y019274D01*
X019069Y019814D01*
X019869Y019814D01*
X020749Y020694D01*
X020749Y021026D01*
X020309Y021214D02*
X020309Y021314D01*
X022029Y021974D02*
X022119Y021884D01*
X022529Y021884D01*
X022619Y021794D01*
X023469Y021794D01*
X023469Y021964D01*
X023459Y022244D02*
X023639Y022194D01*
X023949Y021784D01*
X025276Y021774D01*
X025277Y021774D01*
X025769Y021774D01*
X026009Y021534D01*
X026009Y021148D01*
X026013Y021144D01*
X025509Y021154D02*
X025499Y021144D01*
X024849Y021174D02*
X024849Y020724D01*
X024919Y020654D01*
X024999Y020644D01*
X024629Y020474D02*
X024539Y020734D01*
X024439Y021934D02*
X024369Y021984D01*
X024109Y022024D01*
X024339Y022304D02*
X024519Y022224D01*
X024249Y022714D02*
X023609Y022924D01*
X023629Y022474D02*
X023959Y022554D01*
X023459Y022244D02*
X021149Y024614D01*
X020969Y024324D02*
X021059Y024234D01*
X021059Y023364D01*
X022319Y022104D01*
X022979Y022104D01*
X021539Y022614D02*
X020804Y023349D01*
X020731Y023191D02*
X021389Y022534D01*
X020731Y023191D02*
X020001Y023191D01*
X018631Y023191D01*
X018609Y023214D01*
X018369Y023214D01*
X018199Y023384D01*
X018199Y023650D01*
X018203Y023654D01*
X018163Y023694D01*
X018163Y024894D01*
X018159Y024898D01*
X018159Y025254D01*
X018279Y025374D01*
X018729Y025154D02*
X018675Y024894D01*
X019069Y024894D01*
X019109Y024934D01*
X018729Y025154D02*
X023229Y029654D01*
X045159Y029544D01*
X045159Y018544D01*
X046659Y017044D01*
X046889Y016914D01*
X047659Y017544D02*
X047159Y018044D01*
X046889Y017914D01*
X046659Y018044D01*
X045659Y019044D01*
X045659Y021544D01*
X046159Y022044D01*
X046559Y021884D01*
X046159Y022044D02*
X046159Y029044D01*
X046179Y029314D01*
X044159Y028544D02*
X043979Y028824D01*
X044159Y028544D02*
X044159Y016544D01*
X046759Y013944D01*
X047659Y013544D02*
X047659Y017544D01*
X045659Y014044D02*
X045659Y010044D01*
X046659Y009044D01*
X046859Y009044D01*
X046859Y010044D02*
X047159Y010044D01*
X047159Y013044D01*
X046759Y012944D01*
X047159Y013044D02*
X047659Y013544D01*
X045659Y014044D02*
X038659Y014044D01*
X038159Y013544D01*
X037959Y013244D01*
X038959Y013244D02*
X039009Y013194D01*
X039009Y011984D01*
X040959Y013244D02*
X041159Y013044D01*
X041159Y010544D01*
X040959Y010244D01*
X038159Y010044D02*
X037959Y010244D01*
X038159Y010044D02*
X037159Y010044D01*
X036959Y010244D01*
X034159Y011544D02*
X033659Y011044D01*
X033659Y007544D01*
X033819Y007544D01*
X041959Y013244D02*
X045659Y009544D01*
X045659Y009044D01*
X046659Y008044D01*
X046859Y008044D01*
X034839Y014174D02*
X033299Y015594D01*
X029109Y017974D02*
X028149Y017014D01*
X028389Y019134D02*
X025859Y016604D01*
X020839Y016604D01*
X019629Y015394D01*
X019619Y014594D02*
X019619Y012704D01*
X018859Y011944D01*
X018859Y011334D01*
X018159Y010634D01*
X018159Y010544D01*
X017199Y010584D02*
X017199Y011254D01*
X018639Y012694D01*
X018639Y014344D01*
X018159Y013544D02*
X018159Y016544D01*
X019159Y016544D02*
X019159Y013544D01*
X020159Y013544D02*
X020659Y014044D01*
X020659Y015044D01*
X021659Y015044D02*
X021659Y014044D01*
X022159Y013544D01*
X023659Y014544D02*
X024159Y015044D01*
X023659Y014544D02*
X023659Y012044D01*
X024159Y011544D01*
X024659Y011044D02*
X024659Y012044D01*
X024159Y012544D01*
X024659Y011044D02*
X023159Y009544D01*
X020159Y009544D01*
X021159Y010544D01*
X020159Y009544D02*
X018159Y007544D01*
X017319Y007544D01*
X017159Y007544D01*
X016659Y008044D01*
X016659Y015044D01*
X016159Y015544D01*
X016159Y016824D01*
X017159Y015544D02*
X017159Y013544D01*
X016159Y013544D02*
X015659Y012644D01*
X015659Y008044D01*
X015159Y007544D01*
X014159Y007544D02*
X014079Y007544D01*
X014159Y007544D02*
X014159Y012544D01*
X015169Y012564D02*
X015629Y013024D01*
X015169Y012564D02*
X015159Y010544D01*
X016149Y010554D02*
X016159Y010544D01*
X016149Y010554D02*
X016149Y012354D01*
X016339Y012544D01*
X017199Y010584D02*
X017159Y010544D01*
X023659Y017014D02*
X022989Y017684D01*
X024349Y018214D02*
X024349Y018984D01*
X026525Y020438D02*
X027049Y019914D01*
X031153Y019914D01*
X031193Y019954D01*
X031193Y019504D01*
X031213Y019484D01*
X031193Y019504D02*
X031193Y019024D01*
X031213Y019004D01*
X033509Y019484D02*
X034139Y020114D01*
X034139Y022884D01*
X035689Y024434D01*
X038039Y024434D02*
X038103Y024370D01*
X039069Y024370D01*
X039069Y023858D02*
X039069Y023109D01*
X028789Y020914D02*
X028009Y020914D01*
X027659Y020544D02*
X026939Y021554D01*
X026669Y021554D01*
X026909Y021144D01*
X026939Y021554D02*
X026659Y022044D01*
X026553Y022004D01*
X027065Y022004D02*
X027159Y022044D01*
X027159Y022544D01*
X027261Y022675D01*
X027229Y022678D01*
X027229Y023214D01*
X026356Y024132D02*
X026326Y024647D01*
X026513Y024834D01*
X026209Y025204D02*
X025819Y024814D01*
X025819Y024084D01*
X025714Y023979D01*
X026015Y023821D02*
X026356Y024132D01*
X027025Y024834D02*
X027319Y024834D01*
X027669Y024484D01*
X026839Y025364D02*
X026679Y025204D01*
X026209Y025204D01*
X025979Y025664D02*
X025711Y025396D01*
X025219Y026104D02*
X024789Y025874D01*
X024789Y025294D01*
X024844Y025239D01*
X022954Y025469D02*
X022879Y025394D01*
X020003Y025394D01*
X019349Y025394D01*
X019329Y025374D01*
X020001Y025396D02*
X020003Y025394D01*
X020749Y024754D02*
X021149Y025154D01*
X021149Y025134D01*
X020811Y024451D02*
X020939Y024324D01*
X020969Y024324D01*
X020001Y023664D02*
X019279Y023664D01*
X019159Y023544D01*
X018659Y023544D01*
X018715Y023654D01*
X017359Y022944D02*
X017359Y025844D01*
X017459Y025944D01*
X017459Y026544D01*
X017559Y026644D01*
X018959Y026744D02*
X018959Y028444D01*
X019259Y028744D01*
X020259Y028414D02*
X020839Y027834D01*
X020259Y028414D02*
X020339Y030049D01*
X020339Y030639D02*
X020359Y030969D01*
X020359Y031518D01*
X020359Y032030D02*
X021109Y032030D01*
X021119Y032040D01*
X021909Y032040D01*
X022553Y032040D01*
X024529Y032064D01*
X024549Y029334D02*
X023349Y028234D01*
X022789Y027674D01*
X022789Y026824D01*
X022959Y026654D01*
X022959Y026307D01*
X022954Y026302D01*
X022954Y025469D01*
X023111Y026302D02*
X023111Y026962D01*
X023113Y026964D01*
X023159Y027044D01*
X024659Y028544D01*
X026159Y028544D01*
X026159Y028044D01*
X026138Y027654D01*
X024839Y027654D02*
X024659Y027544D01*
X024839Y027654D02*
X024659Y028044D01*
X023659Y027044D01*
X023625Y026964D01*
X020909Y026734D02*
X020909Y026304D01*
X020906Y026302D01*
X020909Y026734D02*
X020839Y026804D01*
X020819Y026804D01*
X020799Y026844D01*
X024549Y029334D02*
X026429Y029354D01*
X026889Y025664D02*
X026899Y025654D01*
X026909Y025654D01*
X025789Y022094D02*
X025709Y022089D01*
X002499Y010974D02*
X002159Y011044D01*
X001659Y011544D01*
D33*
X019519Y021934D02*
X019993Y021924D01*
X020001Y021931D01*
X020001Y021774D02*
X020059Y021716D01*
X020001Y022089D02*
X019966Y022094D01*
X019979Y022094D01*
X019966Y022094D02*
X019659Y022094D01*
X021539Y022614D02*
X021539Y021158D01*
X021536Y021026D01*
X021536Y020696D01*
X021569Y020484D01*
X021379Y021014D02*
X021379Y021026D01*
X021389Y021036D01*
X022324Y021026D02*
X022329Y021021D01*
X022329Y020704D01*
X023741Y020686D02*
X023741Y021026D01*
X023749Y021034D01*
X023749Y021424D01*
X024369Y021024D02*
X024371Y021026D01*
X024369Y021024D02*
X024369Y020594D01*
X024539Y020734D02*
X024529Y021026D01*
X024439Y021934D02*
X025274Y021934D01*
X025277Y021931D01*
X025277Y022089D02*
X025709Y022089D01*
X025659Y022394D02*
X025287Y022394D01*
X025277Y022404D01*
X025269Y022554D02*
X025277Y022561D01*
X025269Y022554D02*
X023959Y022554D01*
X024249Y022714D02*
X025271Y022714D01*
X025277Y022719D01*
X025277Y022246D02*
X025254Y022224D01*
X024519Y022224D01*
X025277Y023506D02*
X025606Y023506D01*
X025669Y023664D02*
X025277Y023664D01*
X025277Y023821D02*
X026015Y023821D01*
X025714Y023979D02*
X025277Y023979D01*
X025277Y025239D02*
X024844Y025239D01*
X025277Y025396D02*
X025711Y025396D01*
X025909Y026294D02*
X026839Y025364D01*
X027319Y024834D01*
X025909Y026294D02*
X024659Y027544D01*
X020749Y024754D02*
X020013Y024754D01*
X020001Y024766D01*
X019996Y024614D02*
X020001Y024609D01*
X019996Y024614D02*
X019429Y024614D01*
X019169Y024354D01*
X020001Y024451D02*
X020811Y024451D01*
X020001Y024924D02*
X019991Y024934D01*
X019109Y024934D01*
X020001Y023349D02*
X020804Y023349D01*
X005989Y027954D02*
X005729Y027964D01*
X003929Y027964D01*
X003149Y027964D02*
X003149Y027964D01*
X002793Y027954D01*
X002729Y027649D02*
X002729Y027649D01*
X002793Y027639D01*
X002793Y027324D02*
X003269Y027334D01*
X002793Y026694D02*
X002179Y026694D01*
X001889Y026984D01*
X001589Y026984D01*
X000809Y027764D01*
X000809Y029077D01*
X000828Y029095D01*
X001993Y029095D01*
X003107Y029095D01*
X003159Y029044D01*
X002793Y026694D02*
X001993Y025894D01*
X001993Y025591D01*
X001954Y025552D01*
X000828Y025552D01*
D34*
X002793Y027009D02*
X002959Y027044D01*
X002959Y027006D01*
X003359Y024244D02*
X003359Y017044D01*
X002559Y016244D01*
X002519Y016034D01*
X005409Y019794D02*
X005409Y020294D01*
X005515Y020234D01*
X005003Y020234D02*
X004959Y020244D01*
X011759Y027044D01*
X015959Y027544D02*
X017759Y029344D01*
X019659Y029344D02*
X019659Y028244D01*
X019459Y028044D01*
X018409Y027294D02*
X018409Y032044D01*
X018909Y032544D01*
X038909Y032544D01*
X038909Y031794D01*
X038959Y031784D01*
X038959Y030644D01*
X038989Y030700D01*
X039159Y030294D02*
X038989Y030188D01*
X038959Y030244D01*
X040959Y030244D01*
X040989Y030188D01*
X040959Y030244D02*
X042159Y030244D01*
X041989Y030188D01*
X042159Y030644D02*
X041989Y030700D01*
X042159Y030644D02*
X042159Y031444D01*
X041959Y031784D01*
X040959Y031784D02*
X040959Y030644D01*
X040989Y030700D01*
X041059Y030644D01*
X041059Y030444D01*
X044459Y030444D01*
X045359Y029544D01*
X045359Y018744D01*
X045559Y018544D01*
X041459Y016304D02*
X041359Y016244D01*
X040559Y016244D01*
X040459Y016304D01*
X040559Y016244D02*
X039359Y016244D01*
X039459Y016304D01*
X039359Y016244D02*
X038559Y016244D01*
X038459Y016304D01*
X037359Y017844D02*
X038559Y019044D01*
X038459Y019304D01*
X037359Y017844D02*
X037359Y013044D01*
X038559Y011844D01*
X038559Y007444D01*
X041359Y004644D01*
X040959Y004894D02*
X040959Y004194D01*
X041209Y003944D01*
X041759Y003944D01*
X041759Y005544D01*
X043159Y005544D01*
X043159Y004794D01*
X043259Y004644D01*
X043659Y004044D02*
X043409Y003794D01*
X040409Y003794D01*
X040409Y004544D01*
X040359Y004644D01*
X036009Y004644D01*
X033309Y007344D01*
X033309Y007544D01*
X030859Y009994D01*
X030859Y015444D01*
X020509Y015444D01*
X020259Y015194D01*
X020259Y015144D01*
X019509Y015144D01*
X019359Y015294D01*
X019359Y015494D01*
X020909Y017044D01*
X020909Y020144D01*
X021109Y020244D01*
X021259Y020444D02*
X021279Y020614D01*
X021329Y020614D01*
X021359Y020644D01*
X021379Y021014D01*
X021659Y021044D02*
X021694Y021026D01*
X021659Y021044D02*
X021659Y022144D01*
X021759Y022244D01*
X021259Y022244D02*
X021259Y021844D01*
X020859Y021444D01*
X020659Y021444D01*
X020559Y021344D01*
X020559Y020944D01*
X020459Y020844D01*
X020059Y021044D02*
X017959Y018944D01*
X017959Y018044D01*
X017759Y017844D01*
X016459Y017844D01*
X016459Y025144D01*
X015959Y023744D02*
X015959Y027544D01*
X017909Y026794D02*
X018409Y027294D01*
X017909Y026794D02*
X017909Y022544D01*
X019909Y022544D01*
X020001Y022561D01*
X020001Y022404D02*
X018399Y022404D01*
X018359Y022444D01*
X017859Y022444D01*
X017359Y022944D01*
X015959Y023744D02*
X015859Y023644D01*
X018159Y025444D02*
X018279Y025374D01*
X018159Y025444D02*
X018559Y025844D01*
X018559Y031844D01*
X022559Y031844D01*
X022559Y030244D01*
X036959Y030244D01*
X036939Y030188D01*
X036959Y030244D02*
X038159Y030244D01*
X038019Y030188D01*
X038159Y030244D02*
X038959Y030244D01*
X039159Y030294D02*
X039909Y030294D01*
X039969Y030188D01*
X039969Y030700D02*
X039909Y030794D01*
X039909Y031544D01*
X039959Y031784D01*
X038159Y031444D02*
X038159Y030644D01*
X038019Y030700D01*
X038159Y031444D02*
X037959Y031784D01*
X036959Y031784D02*
X036959Y030644D01*
X036939Y030700D01*
X036759Y029344D02*
X032959Y025544D01*
X032959Y015344D01*
X027559Y018644D02*
X026959Y018044D01*
X026959Y017944D01*
X024259Y017944D01*
X024059Y018144D01*
X024059Y019244D01*
X022359Y019244D01*
X021659Y019644D01*
X021659Y020144D01*
X021859Y020444D01*
X021859Y020944D01*
X021851Y021026D01*
X022009Y021026D02*
X022009Y020294D01*
X021859Y020144D01*
X021859Y019744D01*
X022059Y019544D01*
X023659Y019544D01*
X023759Y019444D01*
X023759Y019344D01*
X024359Y019344D01*
X024859Y018844D01*
X024109Y019444D02*
X030959Y019444D01*
X030959Y010044D01*
X033409Y007594D01*
X033409Y007394D01*
X035459Y005344D01*
X040509Y005344D01*
X040959Y004894D01*
X040659Y005544D02*
X041759Y005544D01*
X040659Y005544D02*
X039659Y006544D01*
X039659Y007794D01*
X040659Y007794D01*
X041159Y007294D01*
X041169Y007280D01*
X041159Y006794D02*
X040409Y006794D01*
X040309Y006778D01*
X040159Y006644D01*
X041759Y006644D01*
X041759Y010244D01*
X041959Y010244D01*
X042159Y010044D01*
X042159Y007294D01*
X042029Y007240D01*
X042029Y006728D02*
X042159Y006644D01*
X045759Y006644D01*
X045759Y004644D01*
X045959Y004644D01*
X043659Y004044D02*
X043659Y005794D01*
X040659Y005794D01*
X039909Y006544D01*
X039909Y007044D01*
X040159Y007294D01*
X040309Y007290D01*
X041159Y006794D02*
X041169Y006768D01*
X031459Y010644D02*
X031459Y020294D01*
X028009Y020294D01*
X025759Y020644D02*
X025759Y021094D01*
X025709Y021144D01*
X025709Y021644D01*
X023659Y021644D01*
X023426Y021411D01*
X023426Y021026D01*
X023269Y021026D02*
X023259Y020994D01*
X023259Y020544D01*
X023109Y020694D02*
X022909Y020494D01*
X023109Y020694D02*
X023109Y020994D01*
X023111Y021026D01*
X022481Y021026D02*
X022481Y020096D01*
X022259Y019844D01*
X022909Y019794D02*
X023759Y019794D01*
X024109Y019444D01*
X023409Y020154D02*
X023741Y020686D01*
X023749Y021424D02*
X023779Y021504D01*
X024869Y021504D01*
X025179Y021144D01*
X025509Y021154D01*
X025499Y021144D02*
X025589Y021074D01*
X025479Y021194D01*
X024559Y022944D02*
X024559Y023044D01*
X024059Y023044D01*
X024759Y023844D02*
X024859Y023944D01*
X024859Y024144D01*
X025259Y024144D01*
X025277Y024136D01*
X025277Y024294D02*
X025159Y024294D01*
X024659Y024294D01*
X025277Y025554D02*
X025409Y025544D01*
X025909Y026044D01*
X025909Y026294D01*
X023259Y029344D02*
X021659Y027744D01*
X021659Y026344D01*
X021694Y026302D01*
X021259Y026794D02*
X021059Y026594D01*
X021059Y026344D01*
X021064Y026302D01*
X020749Y026302D02*
X020601Y026302D01*
X020459Y026444D01*
X021259Y028044D02*
X021259Y028344D01*
X022909Y029994D01*
X022909Y029999D01*
X022459Y029944D02*
X022059Y029944D01*
X022019Y030019D01*
X021909Y030544D02*
X022019Y030609D01*
X021909Y030544D02*
X021909Y031544D01*
X021969Y031468D01*
X021969Y031980D02*
X021909Y032044D01*
X021909Y032040D01*
X022559Y031844D02*
X022959Y031844D01*
X022909Y031970D01*
X022909Y031458D02*
X022959Y031444D01*
X022959Y030644D01*
X022909Y030589D01*
X021109Y030049D02*
X020813Y030344D01*
X019959Y030344D01*
X019859Y030244D01*
X019859Y029544D01*
X019659Y029344D01*
X020001Y022246D02*
X020059Y022244D01*
X020459Y022244D01*
X020459Y021744D01*
X020059Y021344D01*
X020059Y021044D01*
X021259Y020444D02*
X021359Y020344D01*
X021359Y020144D01*
X021259Y020044D01*
X021079Y019774D01*
X022166Y021026D02*
X022159Y021044D01*
X022159Y021544D01*
X021259Y022244D02*
X021159Y022344D01*
X009549Y030424D02*
X009359Y030244D01*
X003359Y024244D01*
X039759Y026244D02*
X039819Y026204D01*
X039759Y026244D02*
X039759Y027444D01*
X039859Y027734D01*
X041759Y027444D02*
X041859Y027734D01*
X041759Y027444D02*
X041759Y026244D01*
X041819Y026204D01*
D35*
X038039Y024434D03*
X035689Y024434D03*
X033509Y019484D03*
X031213Y019484D03*
X029109Y017974D03*
X028149Y017014D03*
X024349Y018214D03*
X024349Y018984D03*
X024189Y020414D03*
X024629Y020474D03*
X024849Y021174D03*
X024109Y022024D03*
X024339Y022304D03*
X023629Y022474D03*
X023469Y021964D03*
X022029Y021974D03*
X020999Y021974D03*
X020309Y021214D03*
X019509Y021854D03*
X018239Y022184D03*
X019169Y024354D03*
X019329Y025374D03*
X018279Y025374D03*
X020799Y026844D03*
X020839Y027834D03*
X021149Y025134D03*
X021149Y024614D03*
X025789Y022094D03*
X026909Y021144D03*
X022989Y017684D03*
X023659Y017014D03*
X019619Y014594D03*
X018639Y014344D03*
X015619Y018594D03*
X014339Y024354D03*
X015459Y024844D03*
X010839Y026814D03*
X010559Y027514D03*
X004889Y026714D03*
X024529Y032064D03*
X026429Y029354D03*
X035479Y015484D03*
X035479Y012334D03*
X039009Y011984D03*
D36*
X034839Y011484D03*
X033299Y015594D03*
X028389Y019134D03*
X028009Y020914D03*
X028789Y020914D03*
X025479Y021194D03*
X024999Y020644D03*
X022979Y022104D03*
X023609Y022924D03*
X019829Y021324D03*
X025979Y025664D03*
X025219Y026104D03*
X026889Y025664D03*
X027319Y026104D03*
X013149Y027554D03*
X009939Y027864D03*
X006089Y027864D03*
X003879Y027344D03*
X003599Y027014D03*
X007819Y018034D03*
X016339Y012544D03*
X019629Y015394D03*
D37*
X024859Y018844D03*
X023409Y020154D03*
X022909Y020494D03*
X023259Y020544D03*
X022259Y020484D03*
X021569Y020484D03*
X021109Y020244D03*
X020459Y020844D03*
X021399Y019794D03*
X022179Y019794D03*
X022909Y019794D03*
X022159Y021544D03*
X021759Y022244D03*
X021159Y022344D03*
X024059Y023044D03*
X024559Y022944D03*
X024759Y023844D03*
X024659Y024294D03*
X021259Y026794D03*
X021259Y028044D03*
X023259Y029344D03*
X022459Y029944D03*
X017759Y029344D03*
X011759Y027044D03*
X016459Y025144D03*
X015859Y023644D03*
X025759Y020644D03*
X028009Y020294D03*
X027559Y018644D03*
X032959Y015344D03*
X031459Y010644D03*
X045559Y018544D03*
X036759Y029344D03*
X005409Y019794D03*
D38*
X012939Y029494D02*
X012909Y029524D01*
X012939Y029494D02*
X016969Y029494D01*
X017129Y029654D01*
X017129Y030294D01*
X015129Y030294D02*
X014109Y030294D01*
X013749Y030654D01*
X013749Y031504D01*
X013709Y031544D01*
X037339Y028674D02*
X037339Y026234D01*
X037339Y023564D01*
X038389Y022514D01*
X039064Y022514D01*
X039069Y022519D01*
X039073Y022514D01*
X039809Y022514D01*
X039929Y022634D01*
X040949Y022634D01*
X041819Y023504D01*
X041819Y026204D01*
X039819Y026204D02*
X039819Y025120D01*
X039069Y024370D01*
X039819Y026204D02*
X039789Y026234D01*
X038249Y026234D01*
D39*
X041819Y023504D03*
X045659Y021544D03*
X019259Y028744D03*
X018959Y026744D03*
X017559Y026644D03*
D40*
X021109Y030639D02*
X021119Y031049D01*
X021119Y031528D01*
D41*
X019459Y028044D03*
X020459Y026444D03*
X034559Y028244D03*
D42*
X019159Y023544D03*
M02*
