G75*
G70*
%OFA0B0*%
%FSLAX24Y24*%
%IPPOS*%
%LPD*%
%AMOC8*
5,1,8,0,0,1.08239X$1,22.5*
%
%ADD10C,0.1580*%
%ADD11OC8,0.0680*%
%ADD12C,0.2080*%
%ADD13C,0.0600*%
%ADD14OC8,0.0640*%
%ADD15R,0.1025X0.1025*%
%ADD16C,0.0674*%
%ADD17R,0.0671X0.0159*%
%ADD18R,0.0159X0.0671*%
%ADD19R,0.0356X0.0434*%
%ADD20R,0.0552X0.1064*%
%ADD21R,0.0434X0.0356*%
%ADD22R,0.0395X0.0395*%
%ADD23R,0.0513X0.0828*%
%ADD24R,0.1064X0.0474*%
%ADD25R,0.1064X0.0277*%
%ADD26R,0.1064X0.0867*%
%ADD27C,0.0434*%
%ADD28C,0.0680*%
%ADD29R,0.0560X0.0960*%
%ADD30R,0.1497X0.0946*%
%ADD31C,0.0830*%
%ADD32OC8,0.0830*%
%ADD33OC8,0.0710*%
%ADD34C,0.0360*%
%ADD35C,0.0390*%
%ADD36C,0.0340*%
%ADD37R,0.0476X0.0476*%
%ADD38C,0.0437*%
%ADD39C,0.0480*%
D10*
X001659Y004544D03*
X001659Y031644D03*
X048659Y031644D03*
X048759Y004444D03*
D11*
X033819Y007544D03*
X032739Y007544D03*
X031659Y007544D03*
X030579Y007544D03*
X029499Y007544D03*
X030039Y006544D03*
X031119Y006544D03*
X032199Y006544D03*
X033279Y006544D03*
X017319Y007544D03*
X016239Y007544D03*
X015159Y007544D03*
X014079Y007544D03*
X012999Y007544D03*
X013539Y006544D03*
X014619Y006544D03*
X015699Y006544D03*
X016779Y006544D03*
D12*
X020089Y007044D03*
X026729Y007044D03*
X036589Y007044D03*
X010229Y007044D03*
D13*
X015159Y010284D02*
X015159Y010804D01*
X016159Y010804D02*
X016159Y010284D01*
X017159Y010284D02*
X017159Y010804D01*
X018159Y010804D02*
X018159Y010284D01*
X019159Y010284D02*
X019159Y010804D01*
X020159Y010804D02*
X020159Y010284D01*
X021159Y010284D02*
X021159Y010804D01*
X022159Y010804D02*
X022159Y010284D01*
X022159Y013284D02*
X022159Y013804D01*
X021159Y013804D02*
X021159Y013284D01*
X020159Y013284D02*
X020159Y013804D01*
X019159Y013804D02*
X019159Y013284D01*
X018159Y013284D02*
X018159Y013804D01*
X017159Y013804D02*
X017159Y013284D01*
X016159Y013284D02*
X016159Y013804D01*
X015159Y013804D02*
X015159Y013284D01*
X035959Y013504D02*
X035959Y012984D01*
X036959Y012984D02*
X036959Y013504D01*
X037959Y013504D02*
X037959Y012984D01*
X038959Y012984D02*
X038959Y013504D01*
X039959Y013504D02*
X039959Y012984D01*
X040959Y012984D02*
X040959Y013504D01*
X041959Y013504D02*
X041959Y012984D01*
X041959Y010504D02*
X041959Y009984D01*
X040959Y009984D02*
X040959Y010504D01*
X039959Y010504D02*
X039959Y009984D01*
X038959Y009984D02*
X038959Y010504D01*
X037959Y010504D02*
X037959Y009984D01*
X036959Y009984D02*
X036959Y010504D01*
X035959Y010504D02*
X035959Y009984D01*
X038459Y016044D02*
X038459Y016564D01*
X039459Y016564D02*
X039459Y016044D01*
X040459Y016044D02*
X040459Y016564D01*
X041459Y016564D02*
X041459Y016044D01*
X041459Y019044D02*
X041459Y019564D01*
X040459Y019564D02*
X040459Y019044D01*
X039459Y019044D02*
X039459Y019564D01*
X038459Y019564D02*
X038459Y019044D01*
D14*
X034259Y012344D03*
X034259Y011344D03*
X024159Y011544D03*
X024159Y012544D03*
X024159Y014044D03*
X024159Y015044D03*
X021659Y015044D03*
X020659Y015044D03*
X019159Y016544D03*
X018159Y016544D03*
X017159Y015544D03*
X016159Y015544D03*
D15*
X043979Y028824D03*
X046179Y029314D03*
D16*
X046262Y021884D02*
X046856Y021884D01*
X046856Y020884D02*
X046262Y020884D01*
X046592Y017914D02*
X047186Y017914D01*
X047186Y016914D02*
X046592Y016914D01*
X046462Y013944D02*
X047056Y013944D01*
X047056Y012944D02*
X046462Y012944D01*
X046562Y010044D02*
X047156Y010044D01*
X047156Y009044D02*
X046562Y009044D01*
X046562Y008044D02*
X047156Y008044D01*
X047156Y007044D02*
X046562Y007044D01*
X010549Y030127D02*
X010549Y030721D01*
X009549Y030721D02*
X009549Y030127D01*
X008549Y030127D02*
X008549Y030721D01*
X002756Y022354D02*
X002162Y022354D01*
X002162Y021354D02*
X002756Y021354D01*
X002756Y020354D02*
X002162Y020354D01*
X002222Y018034D02*
X002816Y018034D01*
X002816Y017034D02*
X002222Y017034D01*
X002222Y016034D02*
X002816Y016034D01*
X002796Y012974D02*
X002202Y012974D01*
X002202Y011974D02*
X002796Y011974D01*
X002796Y010974D02*
X002202Y010974D01*
D17*
X020001Y021774D03*
X020001Y021931D03*
X020001Y022089D03*
X020001Y022246D03*
X020001Y022404D03*
X020001Y022561D03*
X020001Y022719D03*
X020001Y022876D03*
X020001Y023034D03*
X020001Y023191D03*
X020001Y023349D03*
X020001Y023506D03*
X020001Y023664D03*
X020001Y023821D03*
X020001Y023979D03*
X020001Y024136D03*
X020001Y024294D03*
X020001Y024451D03*
X020001Y024609D03*
X020001Y024766D03*
X020001Y024924D03*
X020001Y025081D03*
X020001Y025239D03*
X020001Y025396D03*
X020001Y025554D03*
X025277Y025554D03*
X025277Y025396D03*
X025277Y025239D03*
X025277Y025081D03*
X025277Y024924D03*
X025277Y024766D03*
X025277Y024609D03*
X025277Y024451D03*
X025277Y024294D03*
X025277Y024136D03*
X025277Y023979D03*
X025277Y023821D03*
X025277Y023664D03*
X025277Y023506D03*
X025277Y023349D03*
X025277Y023191D03*
X025277Y023034D03*
X025277Y022876D03*
X025277Y022719D03*
X025277Y022561D03*
X025277Y022404D03*
X025277Y022246D03*
X025277Y022089D03*
X025277Y021931D03*
X025277Y021774D03*
D18*
X024529Y021026D03*
X024371Y021026D03*
X024214Y021026D03*
X024056Y021026D03*
X023899Y021026D03*
X023741Y021026D03*
X023584Y021026D03*
X023426Y021026D03*
X023269Y021026D03*
X023111Y021026D03*
X022954Y021026D03*
X022796Y021026D03*
X022639Y021026D03*
X022481Y021026D03*
X022324Y021026D03*
X022166Y021026D03*
X022009Y021026D03*
X021851Y021026D03*
X021694Y021026D03*
X021536Y021026D03*
X021379Y021026D03*
X021221Y021026D03*
X021064Y021026D03*
X020906Y021026D03*
X020749Y021026D03*
X020749Y026302D03*
X020906Y026302D03*
X021064Y026302D03*
X021221Y026302D03*
X021379Y026302D03*
X021536Y026302D03*
X021694Y026302D03*
X021851Y026302D03*
X022009Y026302D03*
X022166Y026302D03*
X022324Y026302D03*
X022481Y026302D03*
X022639Y026302D03*
X022796Y026302D03*
X022954Y026302D03*
X023111Y026302D03*
X023269Y026302D03*
X023426Y026302D03*
X023584Y026302D03*
X023741Y026302D03*
X023899Y026302D03*
X024056Y026302D03*
X024214Y026302D03*
X024371Y026302D03*
X024529Y026302D03*
D19*
X023625Y026964D03*
X023113Y026964D03*
X026513Y024834D03*
X027025Y024834D03*
X028303Y024864D03*
X028815Y024864D03*
X028465Y027234D03*
X027953Y027234D03*
X027065Y022004D03*
X026553Y022004D03*
X026525Y021144D03*
X026013Y021144D03*
X031193Y019954D03*
X031705Y019954D03*
X031725Y019004D03*
X031213Y019004D03*
X018715Y023654D03*
X018203Y023654D03*
X018163Y024894D03*
X018675Y024894D03*
X005515Y020234D03*
X005003Y020234D03*
D20*
X024839Y027654D03*
X026138Y027654D03*
D21*
X022909Y031458D03*
X022909Y031970D03*
X021969Y031980D03*
X021969Y031468D03*
X021119Y031528D03*
X021119Y032040D03*
X020359Y032030D03*
X020359Y031518D03*
X036939Y030700D03*
X036939Y030188D03*
X038019Y030188D03*
X038019Y030700D03*
X038989Y030700D03*
X038989Y030188D03*
X039969Y030188D03*
X039969Y030700D03*
X040989Y030700D03*
X040989Y030188D03*
X041989Y030188D03*
X041989Y030700D03*
X039069Y024370D03*
X039069Y023858D03*
X040309Y007290D03*
X041169Y007280D03*
X041169Y006768D03*
X040309Y006778D03*
X042029Y006728D03*
X042029Y007240D03*
D22*
X039069Y022519D03*
X039069Y023109D03*
X022909Y029999D03*
X022909Y030589D03*
X022019Y030609D03*
X022019Y030019D03*
X021109Y030049D03*
X020339Y030049D03*
X020339Y030639D03*
X021109Y030639D03*
D23*
X026356Y024132D03*
X027261Y024132D03*
X027261Y022675D03*
X026356Y022675D03*
D24*
X027669Y025524D03*
X027669Y026524D03*
D25*
X002793Y026694D03*
X002793Y027009D03*
X002793Y027324D03*
X002793Y027639D03*
X002793Y027954D03*
D26*
X001993Y029095D03*
X000828Y029095D03*
X000828Y025552D03*
X001993Y025591D03*
D27*
X001809Y026458D03*
X001809Y028190D03*
D28*
X017529Y018844D02*
X017529Y018244D01*
X018529Y018244D02*
X018529Y018844D01*
X019529Y018844D02*
X019529Y018244D01*
X020529Y018244D02*
X020529Y018844D01*
X021529Y018844D02*
X021529Y018244D01*
X022529Y018244D02*
X022529Y018844D01*
X036959Y031484D02*
X036959Y032084D01*
X037959Y032084D02*
X037959Y031484D01*
X038959Y031484D02*
X038959Y032084D01*
X039959Y032084D02*
X039959Y031484D01*
X040959Y031484D02*
X040959Y032084D01*
X041959Y032084D02*
X041959Y031484D01*
X041359Y004944D02*
X041359Y004344D01*
X040359Y004344D02*
X040359Y004944D01*
X043259Y004944D02*
X043259Y004344D01*
X044259Y004344D02*
X044259Y004944D01*
X045959Y004944D02*
X045959Y004344D01*
X046959Y004344D02*
X046959Y004944D01*
D29*
X038249Y026234D03*
X037339Y026234D03*
X036429Y026234D03*
D30*
X037339Y028674D03*
D31*
X039819Y026204D03*
X017129Y030294D03*
D32*
X015129Y030294D03*
X041819Y026204D03*
D33*
X041859Y027734D03*
X039859Y027734D03*
D34*
X038039Y024434D03*
X035689Y024434D03*
X033509Y019484D03*
X031213Y019484D03*
X029109Y017974D03*
X028149Y017014D03*
X024349Y018214D03*
X024349Y018984D03*
X024189Y020414D03*
X024629Y020474D03*
X024849Y021174D03*
X024109Y022024D03*
X024339Y022304D03*
X023629Y022474D03*
X023469Y021964D03*
X022029Y021974D03*
X020999Y021974D03*
X020309Y021214D03*
X019509Y021854D03*
X018239Y022184D03*
X019169Y024354D03*
X019329Y025374D03*
X018279Y025374D03*
X020799Y026844D03*
X020839Y027834D03*
X021149Y025134D03*
X021149Y024614D03*
X025789Y022094D03*
X026909Y021144D03*
X022989Y017684D03*
X023659Y017014D03*
X019619Y014594D03*
X018639Y014344D03*
X015619Y018594D03*
X014339Y024354D03*
X015459Y024844D03*
X010839Y026814D03*
X010559Y027514D03*
X004889Y026714D03*
X024529Y032064D03*
X026429Y029354D03*
X035479Y015484D03*
X035479Y012334D03*
X039009Y011984D03*
D35*
X034839Y011484D03*
X033299Y015594D03*
X028389Y019134D03*
X028009Y020914D03*
X028789Y020914D03*
X025479Y021194D03*
X024999Y020644D03*
X022979Y022104D03*
X023609Y022924D03*
X019829Y021324D03*
X025979Y025664D03*
X025219Y026104D03*
X026889Y025664D03*
X027319Y026104D03*
X013149Y027554D03*
X009939Y027864D03*
X006089Y027864D03*
X003879Y027344D03*
X003599Y027014D03*
X007819Y018034D03*
X016339Y012544D03*
X019629Y015394D03*
D36*
X024859Y018844D03*
X023409Y020154D03*
X022909Y020494D03*
X023259Y020544D03*
X022259Y020484D03*
X021569Y020484D03*
X021109Y020244D03*
X020459Y020844D03*
X021399Y019794D03*
X022179Y019794D03*
X022909Y019794D03*
X022159Y021544D03*
X021759Y022244D03*
X021159Y022344D03*
X024059Y023044D03*
X024559Y022944D03*
X024759Y023844D03*
X024659Y024294D03*
X021259Y026794D03*
X021259Y028044D03*
X023259Y029344D03*
X022459Y029944D03*
X017759Y029344D03*
X011759Y027044D03*
X016459Y025144D03*
X015859Y023644D03*
X025759Y020644D03*
X028009Y020294D03*
X027559Y018644D03*
X032959Y015344D03*
X031459Y010644D03*
X045559Y018544D03*
X036759Y029344D03*
X005409Y019794D03*
D37*
X017559Y026644D03*
X018959Y026744D03*
X019259Y028744D03*
X041819Y023504D03*
X045659Y021544D03*
D38*
X034559Y028244D03*
X020459Y026444D03*
X019459Y028044D03*
D39*
X019159Y023544D03*
M02*
