%
M48
M72
T01C0.0100
T02C0.0120
T03C0.0150
T04C0.0197
T05C0.0236
T06C0.0240
T07C0.0320
T08C0.0354
T09C0.0394
T10C0.0400
T11C0.0630
T12C0.1300
T13C0.1500
%
T01
X24859Y18844
X23409Y20154
X22909Y20494
X23259Y20544
X22259Y20484
X21569Y20484
X21109Y20244
X20459Y20844
X21399Y19794
X22179Y19794
X22909Y19794
X22159Y21544
X21759Y22244
X21159Y22344
X24059Y23044
X24559Y22944
X24759Y23844
X24659Y24294
X21259Y26794
X21259Y28044
X23259Y29344
X22459Y29944
X17759Y29344
X11759Y27044
X16459Y25144
X15859Y23644
X25759Y20644
X28009Y20294
X27559Y18644
X32959Y15344
X31459Y10644
X45559Y18544
X36759Y29344
X5409Y19794
T02
X14339Y24354
X15459Y24844
X18279Y25374
X19329Y25374
X19169Y24354
X21149Y24614
X21149Y25134
X20799Y26844
X20839Y27834
X26429Y29354
X24529Y32064
X35689Y24434
X38039Y24434
X33509Y19484
X31213Y19484
X29109Y17974
X28149Y17014
X24349Y18214
X24349Y18984
X24189Y20414
X24629Y20474
X24849Y21174
X24109Y22024
X24339Y22304
X23629Y22474
X23469Y21964
X22029Y21974
X20999Y21974
X20309Y21214
X19509Y21854
X18239Y22184
X15619Y18594
X19619Y14594
X18639Y14344
X23659Y17014
X22989Y17684
X26909Y21144
X25789Y22094
X35479Y15484
X35479Y12334
X39009Y11984
X10839Y26814
X10559Y27514
X4889Y26714
T03
X3879Y27344
X3599Y27014
X6089Y27864
X9939Y27864
X13149Y27554
X19829Y21324
X22979Y22104
X23609Y22924
X25479Y21194
X24999Y20644
X28009Y20914
X28789Y20914
X28389Y19134
X33299Y15594
X34839Y11484
X19629Y15394
X16339Y12544
X7819Y18034
X25219Y26104
X25979Y25664
X26889Y25664
X27319Y26104
T04
X20459Y26444
X19459Y28044
X34559Y28244
T05
X41819Y23504
X45659Y21544
X19259Y28744
X18959Y26744
X17559Y26644
T06
X19159Y23544
T07
X17129Y30294
X15129Y30294
X18159Y16544
X19159Y16544
X20659Y15044
X21659Y15044
X24159Y15044
X24159Y14044
X22159Y13544
X21159Y13544
X20159Y13544
X19159Y13544
X18159Y13544
X17159Y13544
X16159Y13544
X15159Y13544
X16159Y15544
X17159Y15544
X24159Y12544
X24159Y11544
X22159Y10544
X21159Y10544
X20159Y10544
X19159Y10544
X18159Y10544
X17159Y10544
X16159Y10544
X15159Y10544
X34259Y11344
X34259Y12344
X35959Y13244
X36959Y13244
X37959Y13244
X38959Y13244
X39959Y13244
X40959Y13244
X41959Y13244
X41959Y10244
X40959Y10244
X39959Y10244
X38959Y10244
X37959Y10244
X36959Y10244
X35959Y10244
X38459Y16304
X39459Y16304
X40459Y16304
X41459Y16304
X41459Y19304
X40459Y19304
X39459Y19304
X38459Y19304
X39819Y26204
X39859Y27734
X41859Y27734
X41819Y26204
T08
X1809Y26458
X1809Y28190
T09
X8549Y30424
X9549Y30424
X10549Y30424
X2459Y22354
X2459Y21354
X2459Y20354
X2519Y18034
X2519Y17034
X2519Y16034
X2499Y12974
X2499Y11974
X2499Y10974
X46759Y12944
X46759Y13944
X46889Y16914
X46889Y17914
X46559Y20884
X46559Y21884
X46859Y10044
X46859Y9044
X46859Y8044
X46859Y7044
T10
X46959Y4644
X45959Y4644
X44259Y4644
X43259Y4644
X41359Y4644
X40359Y4644
X33819Y7544
X32739Y7544
X31659Y7544
X30579Y7544
X29499Y7544
X30039Y6544
X31119Y6544
X32199Y6544
X33279Y6544
X17319Y7544
X16239Y7544
X15159Y7544
X14079Y7544
X12999Y7544
X13539Y6544
X14619Y6544
X15699Y6544
X16779Y6544
X17529Y18544
X18529Y18544
X19529Y18544
X20529Y18544
X21529Y18544
X22529Y18544
X36959Y31784
X37959Y31784
X38959Y31784
X39959Y31784
X40959Y31784
X41959Y31784
T11
X43979Y28824
X46179Y29314
T12
X36589Y7044
X26729Y7044
X20089Y7044
X10229Y7044
T13
X1659Y4544
X1659Y31644
X48659Y31644
X48759Y4444
M30
