G75*
G70*
%OFA0B0*%
%FSLAX24Y24*%
%IPPOS*%
%LPD*%
%AMOC8*
5,1,8,0,0,1.08239X$1,22.5*
%
%ADD10C,0.0520*%
%ADD11OC8,0.0520*%
%ADD12C,0.0990*%
%ADD13C,0.0600*%
%ADD14C,0.0440*%
%ADD15C,0.0660*%
%ADD16C,0.0440*%
%ADD17OC8,0.0574*%
%ADD18C,0.1306*%
%ADD19OC8,0.0630*%
%ADD20C,0.0630*%
%ADD21C,0.1000*%
%ADD22C,0.0100*%
%ADD23C,0.0400*%
%ADD24C,0.1895*%
D10*
X010342Y011661D02*
X010862Y011661D01*
X010862Y012661D02*
X010342Y012661D01*
X010342Y013661D02*
X010862Y013661D01*
X010862Y014661D02*
X010342Y014661D01*
X013342Y014661D02*
X013862Y014661D01*
X013862Y013661D02*
X013342Y013661D01*
X013342Y012661D02*
X013862Y012661D01*
X013862Y011661D02*
X013342Y011661D01*
X017102Y008181D02*
X017102Y007661D01*
X018102Y007661D02*
X018102Y008181D01*
X019102Y008181D02*
X019102Y007661D01*
X020102Y007661D02*
X020102Y008181D01*
X021102Y008181D02*
X021102Y007661D01*
X022102Y007661D02*
X022102Y008181D01*
X023102Y008181D02*
X023102Y007661D01*
X024102Y007661D02*
X024102Y008181D01*
X024102Y004661D02*
X024102Y004141D01*
X023102Y004141D02*
X023102Y004661D01*
X022102Y004661D02*
X022102Y004141D01*
X021102Y004141D02*
X021102Y004661D01*
X020102Y004661D02*
X020102Y004141D01*
X019102Y004141D02*
X019102Y004661D01*
X018102Y004661D02*
X018102Y004141D01*
X017102Y004141D02*
X017102Y004661D01*
X016362Y017161D02*
X015842Y017161D01*
X015842Y018161D02*
X016362Y018161D01*
X016362Y019161D02*
X015842Y019161D01*
X015842Y020161D02*
X016362Y020161D01*
X013862Y022161D02*
X013342Y022161D01*
X013342Y023161D02*
X013862Y023161D01*
X013862Y024161D02*
X013342Y024161D01*
X013342Y025161D02*
X013862Y025161D01*
X010862Y025161D02*
X010342Y025161D01*
X010342Y024161D02*
X010862Y024161D01*
X010862Y023161D02*
X010342Y023161D01*
X010342Y022161D02*
X010862Y022161D01*
X010862Y020161D02*
X010342Y020161D01*
X010342Y019161D02*
X010862Y019161D01*
X010862Y018161D02*
X010342Y018161D01*
X010342Y017161D02*
X010862Y017161D01*
X012842Y017161D02*
X013362Y017161D01*
X013362Y018161D02*
X012842Y018161D01*
X012842Y019161D02*
X013362Y019161D01*
X013362Y020161D02*
X012842Y020161D01*
X007862Y020161D02*
X007342Y020161D01*
X007342Y019161D02*
X007862Y019161D01*
X007862Y018161D02*
X007342Y018161D01*
X007342Y017161D02*
X007862Y017161D01*
X021602Y017901D02*
X021602Y018421D01*
X022602Y018421D02*
X022602Y017901D01*
X023602Y017901D02*
X023602Y018421D01*
X024602Y018421D02*
X024602Y017901D01*
X025602Y017901D02*
X025602Y018421D01*
X026602Y018421D02*
X026602Y017901D01*
X027602Y017901D02*
X027602Y018421D01*
X028602Y018421D02*
X028602Y017901D01*
X029602Y017901D02*
X029602Y018421D01*
X030602Y018421D02*
X030602Y017901D01*
X031602Y017901D02*
X031602Y018421D01*
X032602Y018421D02*
X032602Y017901D01*
X033602Y017901D02*
X033602Y018421D01*
X034602Y018421D02*
X034602Y017901D01*
X035602Y017901D02*
X035602Y018421D01*
X036602Y018421D02*
X036602Y017901D01*
X037602Y017901D02*
X037602Y018421D01*
X038602Y018421D02*
X038602Y017901D01*
X039602Y017901D02*
X039602Y018421D01*
X040602Y018421D02*
X040602Y017901D01*
X040602Y023901D02*
X040602Y024421D01*
X039602Y024421D02*
X039602Y023901D01*
X038602Y023901D02*
X038602Y024421D01*
X037602Y024421D02*
X037602Y023901D01*
X036602Y023901D02*
X036602Y024421D01*
X035602Y024421D02*
X035602Y023901D01*
X034602Y023901D02*
X034602Y024421D01*
X033602Y024421D02*
X033602Y023901D01*
X032602Y023901D02*
X032602Y024421D01*
X031602Y024421D02*
X031602Y023901D01*
X030602Y023901D02*
X030602Y024421D01*
X029602Y024421D02*
X029602Y023901D01*
X028602Y023901D02*
X028602Y024421D01*
X027602Y024421D02*
X027602Y023901D01*
X026602Y023901D02*
X026602Y024421D01*
X025602Y024421D02*
X025602Y023901D01*
X024602Y023901D02*
X024602Y024421D01*
X023602Y024421D02*
X023602Y023901D01*
X022602Y023901D02*
X022602Y024421D01*
X021602Y024421D02*
X021602Y023901D01*
D11*
X023602Y025661D03*
X026602Y025661D03*
X031602Y025161D03*
X032602Y025161D03*
X033602Y025661D03*
X035102Y025661D03*
X035102Y028661D03*
X033602Y028661D03*
X039102Y029161D03*
X040602Y029161D03*
X040602Y026161D03*
X039102Y026161D03*
X040102Y016911D03*
X037602Y016661D03*
X036602Y016661D03*
X031602Y016661D03*
X030602Y016661D03*
X029102Y016661D03*
X029102Y014661D03*
X030602Y011661D03*
X030602Y010661D03*
X032602Y010661D03*
X032602Y011661D03*
X034102Y012661D03*
X034102Y009661D03*
X034602Y008661D03*
X033102Y008661D03*
X036102Y008661D03*
X037602Y008661D03*
X039102Y008661D03*
X040602Y008661D03*
X040602Y005661D03*
X039102Y005661D03*
X037602Y005661D03*
X036102Y005661D03*
X034602Y005661D03*
X033102Y005661D03*
X032602Y004161D03*
X033602Y004161D03*
X035102Y004161D03*
X036102Y004161D03*
X037602Y004161D03*
X038602Y004161D03*
X040102Y004161D03*
X041102Y004161D03*
X031102Y004161D03*
X030102Y004161D03*
X028602Y004161D03*
X027602Y004161D03*
X024102Y009661D03*
X022602Y009661D03*
X021102Y009661D03*
X019602Y009661D03*
X018102Y009661D03*
X016602Y009661D03*
X016602Y012661D03*
X018102Y012661D03*
X019602Y012661D03*
X021102Y012661D03*
X022602Y012661D03*
X024102Y012661D03*
X022102Y014661D03*
X019102Y014661D03*
X019102Y016661D03*
X022102Y016661D03*
X018102Y021661D03*
X016602Y021661D03*
X015102Y021661D03*
X015102Y024661D03*
X016602Y024661D03*
X018102Y024661D03*
X009102Y024661D03*
X009102Y021661D03*
X009102Y009161D03*
X007602Y007661D03*
X006602Y007661D03*
X006102Y009161D03*
X043102Y016911D03*
D12*
X004097Y017171D02*
X003107Y017171D01*
X003107Y018731D02*
X004097Y018731D01*
X004097Y021321D02*
X003107Y021321D01*
X003107Y022881D02*
X004097Y022881D01*
X004097Y024441D02*
X003107Y024441D01*
X003107Y026001D02*
X004097Y026001D01*
X004097Y015611D02*
X003107Y015611D01*
X003107Y012441D02*
X004097Y012441D01*
X004097Y010881D02*
X003107Y010881D01*
D13*
X003102Y028361D02*
X003102Y028961D01*
X002102Y028961D02*
X002102Y028361D01*
X004102Y028361D02*
X004102Y028961D01*
X007102Y030361D02*
X007102Y030961D01*
X008102Y030961D02*
X008102Y030361D01*
X011102Y030361D02*
X011102Y030961D01*
X012102Y030961D02*
X012102Y030361D01*
X013102Y030361D02*
X013102Y030961D01*
X016102Y030961D02*
X016102Y030361D01*
X017102Y030361D02*
X017102Y030961D01*
X020602Y030961D02*
X020602Y030361D01*
X021602Y030361D02*
X021602Y030961D01*
X022602Y030961D02*
X022602Y030361D01*
X026102Y030361D02*
X026102Y030961D01*
X027102Y030961D02*
X027102Y030361D01*
X028102Y030361D02*
X028102Y030961D01*
X031602Y030961D02*
X031602Y030361D01*
X032602Y030361D02*
X032602Y030961D01*
X033602Y030961D02*
X033602Y030361D01*
X037102Y030361D02*
X037102Y030961D01*
X038102Y030961D02*
X038102Y030361D01*
X039102Y030361D02*
X039102Y030961D01*
X042102Y028461D02*
X042102Y027861D01*
X043102Y027861D02*
X043102Y028461D01*
X044102Y028461D02*
X044102Y027861D01*
X044102Y026461D02*
X044102Y025861D01*
X043102Y025861D02*
X043102Y026461D01*
X042102Y026461D02*
X042102Y025861D01*
X042802Y023661D02*
X043402Y023661D01*
X043402Y022661D02*
X042802Y022661D01*
X042802Y021661D02*
X043402Y021661D01*
X043402Y020661D02*
X042802Y020661D01*
X042802Y019661D02*
X043402Y019661D01*
X043402Y018661D02*
X042802Y018661D01*
X042582Y015551D02*
X043182Y015551D01*
X043182Y013771D02*
X042582Y013771D01*
X040622Y013771D02*
X040022Y013771D01*
X038102Y012461D02*
X038102Y011861D01*
X037102Y011861D02*
X037102Y012461D01*
X036102Y012461D02*
X036102Y011861D01*
X036102Y010461D02*
X036102Y009861D01*
X037102Y009861D02*
X037102Y010461D01*
X038102Y010461D02*
X038102Y009861D01*
X040022Y010021D02*
X040622Y010021D01*
X042582Y010021D02*
X043182Y010021D01*
X043182Y011801D02*
X042582Y011801D01*
X040622Y011801D02*
X040022Y011801D01*
X040022Y015551D02*
X040622Y015551D01*
X031402Y007661D02*
X030802Y007661D01*
X030802Y006661D02*
X031402Y006661D01*
X028902Y006661D02*
X028302Y006661D01*
X028302Y007661D02*
X028902Y007661D01*
D14*
X026602Y015441D02*
X026602Y015881D01*
X024602Y015881D02*
X024602Y015441D01*
D15*
X024504Y027263D03*
X023504Y027263D03*
X022504Y027263D03*
X021504Y027263D03*
X020504Y027263D03*
X019504Y027263D03*
X018504Y027263D03*
X017504Y027263D03*
X016504Y027263D03*
X015504Y027263D03*
X014504Y027263D03*
X013504Y027263D03*
X012504Y027263D03*
X011504Y027263D03*
X010504Y027263D03*
X009504Y027263D03*
D16*
X028602Y027661D03*
X029602Y027661D03*
X030602Y027661D03*
X007602Y013161D03*
X007602Y012161D03*
X007602Y011161D03*
D17*
X007594Y006015D03*
X007594Y005228D03*
X006610Y005228D03*
X006610Y006015D03*
D18*
X004732Y004161D03*
X009472Y004161D03*
D19*
X011102Y006161D03*
X014102Y006161D03*
X014102Y009161D03*
X011102Y009161D03*
D20*
X012102Y009161D03*
X015102Y009161D03*
X015102Y006161D03*
X012102Y006161D03*
D21*
X003602Y010881D02*
X002382Y010881D01*
X001602Y011661D01*
X001602Y022161D01*
X001602Y023661D01*
X001602Y025411D01*
X002102Y025911D01*
X003512Y025911D01*
X003602Y026001D01*
X003602Y026161D01*
X003602Y021321D02*
X003602Y018731D01*
X003602Y017171D02*
X003612Y017161D01*
X005102Y017161D01*
X005602Y016661D01*
X005602Y013161D01*
X004882Y012441D01*
X003602Y012441D01*
X003602Y015611D02*
X003602Y015661D01*
D22*
X005602Y016661D02*
X008102Y016661D01*
X010102Y018661D01*
X011102Y018661D01*
X011602Y019161D01*
X013102Y019161D01*
X013102Y020161D02*
X012602Y020661D01*
X008102Y020661D01*
X007602Y020161D01*
X007602Y019161D02*
X004602Y022161D01*
X001602Y022161D01*
X003602Y022661D02*
X003602Y022881D01*
X003602Y022661D02*
X013102Y022661D01*
X013602Y023161D01*
X015602Y023661D02*
X017102Y022161D01*
X018602Y022161D01*
X018602Y014661D01*
X019102Y014661D01*
X022102Y014661D01*
X029102Y014661D01*
X029602Y014161D02*
X030102Y014661D01*
X030102Y019161D01*
X027602Y019161D01*
X026602Y018161D01*
X027602Y018161D02*
X025102Y015661D01*
X024602Y015661D01*
X023602Y016661D01*
X022102Y016661D01*
X022602Y017161D02*
X019602Y017161D01*
X019102Y016661D01*
X017102Y018161D02*
X017102Y019161D01*
X016102Y019161D01*
X015602Y018661D02*
X011602Y018661D01*
X011102Y018161D01*
X010602Y018161D01*
X010602Y019161D02*
X008602Y019161D01*
X007602Y018161D01*
X006602Y016161D02*
X016102Y016161D01*
X019602Y012661D01*
X018602Y012161D02*
X018102Y012661D01*
X018602Y012161D02*
X023602Y012161D01*
X024102Y012661D01*
X023602Y013661D02*
X031602Y013661D01*
X035102Y017161D01*
X035602Y017161D02*
X038102Y017161D01*
X039102Y016161D01*
X039102Y014661D01*
X040602Y014661D01*
X041102Y014161D01*
X041102Y012661D01*
X038602Y012661D01*
X038102Y012161D01*
X037102Y012161D02*
X036102Y011161D01*
X031102Y011161D01*
X030602Y010661D01*
X029602Y011661D01*
X015602Y011661D01*
X013602Y013661D01*
X015602Y013661D01*
X015602Y014161D01*
X014602Y015161D01*
X010102Y015161D01*
X009602Y015661D01*
X008602Y014161D02*
X012602Y014161D01*
X013102Y014661D01*
X013602Y014661D01*
X013102Y014161D02*
X015102Y014161D01*
X013102Y014161D02*
X012602Y013661D01*
X010602Y013661D01*
X009602Y013661D02*
X009102Y013661D01*
X009602Y013661D02*
X010602Y012661D01*
X010602Y011661D02*
X008102Y011661D01*
X007602Y011161D01*
X007602Y013161D02*
X008602Y014161D01*
X013102Y018161D02*
X013602Y017661D01*
X016602Y017661D01*
X017102Y018161D01*
X016102Y018161D02*
X015602Y018661D01*
X018102Y019661D02*
X011102Y019661D01*
X010602Y019161D01*
X015602Y023661D02*
X001602Y023661D01*
X003602Y024161D02*
X003602Y024441D01*
X003602Y024161D02*
X009602Y024161D01*
X010602Y025161D01*
X011102Y024661D02*
X014102Y024661D01*
X014602Y025161D01*
X018602Y025161D01*
X023602Y020161D01*
X024602Y020161D02*
X022602Y018161D01*
X023602Y018161D02*
X022602Y017161D01*
X022602Y014161D02*
X029602Y014161D01*
X027602Y016661D02*
X026602Y015661D01*
X027602Y016661D02*
X028602Y016661D01*
X028602Y018161D01*
X028602Y016661D02*
X029102Y016661D01*
X030602Y018161D02*
X031602Y019161D01*
X036602Y019161D01*
X037602Y018161D01*
X039102Y019661D01*
X043102Y019661D01*
X044102Y020161D02*
X024602Y020161D01*
X026102Y022661D02*
X032102Y022661D01*
X033602Y024161D01*
X032602Y024161D02*
X031602Y023161D01*
X029102Y023161D01*
X029102Y024661D01*
X028102Y025661D01*
X026602Y025661D01*
X027602Y025161D02*
X022602Y025161D01*
X022602Y026161D02*
X029602Y026161D01*
X029602Y024161D01*
X028602Y024161D02*
X027602Y025161D01*
X029102Y027161D02*
X030602Y027161D01*
X032602Y025161D01*
X034102Y025161D01*
X034102Y028661D01*
X035102Y028661D01*
X035102Y028161D02*
X035602Y028161D01*
X035602Y029661D01*
X021602Y029661D01*
X020602Y030661D01*
X021602Y031661D02*
X012102Y031661D01*
X013102Y030661D01*
X012102Y031661D02*
X008102Y031661D01*
X007102Y030661D01*
X010102Y029661D02*
X004102Y029661D01*
X003102Y028661D01*
X003602Y026161D02*
X008602Y026161D01*
X009602Y027161D01*
X009504Y027263D01*
X009602Y027161D02*
X010102Y026661D01*
X014102Y026661D01*
X013602Y027161D01*
X013504Y027263D01*
X014102Y026661D02*
X022602Y026661D01*
X023102Y027161D01*
X023602Y027161D01*
X023504Y027263D01*
X023102Y026661D02*
X030602Y026661D01*
X030602Y024161D01*
X033602Y025661D02*
X030602Y028661D01*
X028102Y028661D01*
X029102Y028161D02*
X012602Y028161D01*
X011602Y027161D01*
X011504Y027263D01*
X013102Y028661D02*
X026102Y028661D01*
X028602Y027661D02*
X029102Y027161D01*
X029602Y027661D02*
X029102Y028161D01*
X028102Y030661D02*
X027102Y031661D01*
X023602Y031661D01*
X022602Y030661D01*
X021602Y031661D01*
X012602Y029161D02*
X033102Y029161D01*
X033602Y028661D01*
X034102Y028661D01*
X035102Y028161D02*
X035102Y025661D01*
X035602Y024161D02*
X036602Y023161D01*
X040602Y023161D01*
X043102Y025661D01*
X043102Y026161D01*
X042102Y027161D02*
X043102Y028161D01*
X042102Y028161D02*
X041102Y028161D01*
X039102Y026161D01*
X038102Y025661D02*
X041102Y025661D01*
X041602Y026161D01*
X041602Y027161D01*
X042102Y027161D01*
X044602Y028661D02*
X043602Y029661D01*
X041102Y029661D01*
X040102Y031661D01*
X034602Y031661D01*
X033602Y030661D01*
X037102Y030661D02*
X038602Y029161D01*
X039102Y029161D01*
X038102Y025661D02*
X036602Y024161D01*
X042602Y018161D02*
X043102Y018661D01*
X042602Y018161D02*
X040602Y018161D01*
X040602Y017161D01*
X040102Y017161D01*
X040102Y016911D01*
X038102Y014661D02*
X037102Y013661D01*
X035102Y013661D01*
X034102Y012661D01*
X032602Y011661D02*
X031602Y011661D01*
X036602Y016661D01*
X039602Y013661D01*
X040102Y013661D01*
X040322Y013771D01*
X040322Y011801D02*
X040602Y011661D01*
X042602Y011661D01*
X042882Y011801D01*
X043602Y011161D02*
X044102Y011661D01*
X044102Y020161D01*
X035602Y017161D02*
X034602Y018161D01*
X031602Y011661D02*
X030602Y011661D01*
X032602Y010661D02*
X033102Y010661D01*
X034102Y009661D01*
X034602Y009161D01*
X036102Y009161D01*
X037102Y010161D01*
X039102Y010161D02*
X039102Y011161D01*
X043602Y011161D01*
X042882Y010021D02*
X042602Y010161D01*
X040602Y010161D01*
X040322Y010021D01*
X039102Y010161D02*
X040602Y008661D01*
X041602Y008661D02*
X040102Y007161D01*
X030102Y007161D01*
X029602Y006661D01*
X028602Y006661D01*
X029602Y007161D02*
X030102Y007661D01*
X031102Y007661D01*
X031102Y006661D02*
X044602Y006661D01*
X044602Y028661D01*
X023602Y013661D02*
X022602Y012661D01*
X022602Y014161D02*
X021102Y012661D01*
X022602Y011161D02*
X024602Y011161D01*
X027602Y008161D01*
X038602Y008161D01*
X039102Y008661D01*
X034602Y005661D02*
X034102Y005161D01*
X032102Y005161D01*
X031102Y004161D01*
X030102Y004161D02*
X029602Y004661D01*
X028102Y004661D01*
X027602Y004161D01*
X027102Y003661D01*
X032102Y003661D01*
X032602Y004161D01*
X033102Y004661D01*
X035602Y004661D01*
X038102Y004661D01*
X037602Y004161D01*
X038102Y004661D02*
X039602Y004661D01*
X040102Y004161D01*
X035602Y004661D02*
X035102Y004161D01*
X029602Y007161D02*
X022602Y007161D01*
X022102Y007661D01*
X021602Y007161D01*
X019602Y007161D01*
X019102Y007661D01*
X018102Y006661D01*
X016602Y006661D01*
X014602Y008661D01*
X015102Y009161D01*
X014602Y008661D02*
X008602Y008661D01*
X007602Y007661D01*
X006602Y007661D02*
X003602Y010661D01*
X003602Y010881D01*
X007602Y006161D02*
X008602Y007161D01*
X015602Y007161D01*
X016602Y006661D02*
X012602Y006661D01*
X012102Y006161D01*
X009472Y004161D02*
X007602Y004161D01*
X006602Y005161D01*
X006610Y005228D01*
X007594Y005228D02*
X007602Y005161D01*
X020102Y005161D01*
X021602Y006661D01*
X021102Y007661D02*
X021102Y008661D01*
X026602Y008661D01*
X027602Y007661D01*
X028602Y007661D01*
X031602Y008661D02*
X033102Y008661D01*
X027102Y003661D02*
X022102Y003661D01*
X023102Y004661D01*
X022102Y003661D02*
X019102Y003661D01*
X019102Y004661D01*
X021102Y008661D02*
X021102Y009161D01*
X017102Y009161D01*
X016602Y009661D01*
X007602Y006161D02*
X007594Y006015D01*
X018102Y019661D02*
X018102Y021661D01*
X015602Y023661D02*
X016602Y024661D01*
X011102Y024661D02*
X010602Y024161D01*
X012602Y029161D02*
X011102Y030661D01*
X010102Y029661D01*
D23*
X013102Y028661D03*
X022602Y026161D03*
X023102Y026661D03*
X022602Y025161D03*
X026102Y022661D03*
X023602Y020161D03*
X015102Y014161D03*
X009602Y015661D03*
X009102Y013661D03*
X006602Y016161D03*
X015602Y007161D03*
X021602Y006661D03*
X022602Y011161D03*
X031602Y008661D03*
X038102Y014661D03*
X035102Y017161D03*
X041602Y008661D03*
X028102Y028661D03*
X026102Y028661D03*
D24*
X001852Y004161D03*
X001852Y031161D03*
X043352Y031161D03*
X043352Y004161D03*
M02*
