%
M48
M72
T01C0.0240
T02C0.0320
T03C0.0374
T04C0.0394
T05C0.0400
T06C0.0660
T07C0.0906
T08C0.0984
T09C0.1495
%
T01
X3601Y8661
X7101Y14661
X10101Y17161
X18601Y15661
X20601Y15661
X22601Y11161
X23601Y6661
X29601Y7161
X37601Y11161
X37601Y12161
X37601Y13161
X36101Y13661
X35601Y15661
X38601Y16161
X30101Y14161
X21601Y20161
X19101Y22661
X22601Y25161
X22601Y26161
X22101Y26661
X19101Y28661
X17101Y28661
X16601Y27661
X15601Y27661
X14601Y27661
X32101Y28661
X13601Y8661
T02
X12101Y8661
X11101Y9661
X10601Y8661
X9101Y8661
X7601Y8661
X6101Y8661
X4601Y8661
X4601Y5661
X6101Y5661
X7601Y5661
X9101Y5661
X10601Y5661
X12101Y5661
X12601Y4161
X11601Y4161
X10101Y4161
X9101Y4161
X7601Y4161
X6601Y4161
X5101Y4161
X4101Y4161
X12601Y10661
X12601Y11661
X11101Y12661
X14601Y11661
X14601Y10661
X16101Y14661
X16101Y16661
X14601Y16661
X13601Y16661
X13601Y18161
X14601Y18161
X15601Y18161
X16601Y18161
X17601Y18161
X18601Y18161
X19601Y18161
X20601Y18161
X21601Y18161
X22601Y18161
X23601Y18161
X23101Y16661
X26101Y16661
X26101Y14661
X25601Y12661
X27101Y12661
X28601Y12661
X31601Y12661
X31601Y13661
X31601Y14661
X34601Y14661
X34601Y13661
X34601Y12661
X34601Y11661
X34101Y9161
X33101Y9161
X31101Y9161
X30101Y9161
X28601Y9661
X27101Y9661
X25601Y9661
X24101Y9661
X22601Y9661
X21101Y9661
X21101Y7661
X22101Y7661
X23101Y7661
X24101Y7661
X25101Y7661
X26101Y7661
X27101Y7661
X28101Y7661
X30101Y6161
X31101Y6161
X33101Y6161
X34101Y6161
X37601Y7661
X38601Y7661
X39101Y9161
X36101Y9161
X31601Y11661
X24101Y12661
X22601Y12661
X21101Y12661
X23101Y14661
X29101Y17161
X29101Y18161
X29101Y19161
X29101Y20161
X28601Y21661
X30101Y21661
X31601Y22161
X31601Y23161
X31601Y24161
X31601Y25161
X30101Y24661
X28601Y24661
X27101Y24661
X23601Y24161
X22601Y24161
X21601Y24161
X20601Y24161
X19601Y24161
X18601Y24161
X17601Y24161
X16601Y24161
X15601Y24161
X14601Y24161
X13601Y24161
X13601Y25161
X12601Y25161
X11601Y25661
X10101Y25661
X10601Y24161
X11601Y24161
X12601Y24161
X9601Y24161
X8601Y24161
X7601Y24161
X6601Y24161
X5601Y24161
X4601Y24161
X4601Y26161
X6101Y26161
X6101Y29161
X4601Y29161
X10101Y28661
X11601Y28661
X18601Y25661
X21601Y25661
X27101Y21661
X32101Y20161
X32101Y19161
X32101Y18161
X32101Y17161
X34601Y17161
X34601Y18161
X34601Y19161
X34601Y20161
X36101Y21661
X34601Y22161
X34601Y23161
X34601Y24161
X34601Y25161
X36101Y24661
X37601Y20161
X37601Y19161
X37601Y18161
X37601Y17161
X28101Y4661
X27101Y4661
X26101Y4661
X25101Y4661
X24101Y4661
X23101Y4661
X22101Y4661
X21101Y4661
X17601Y4161
X16601Y4161
X15101Y4161
X14101Y4161
X8601Y16661
X7601Y16661
X7601Y18161
X6601Y18161
X5601Y18161
X4601Y18161
X5101Y16911
X2101Y16911
X8601Y18161
X9601Y18161
X10601Y18161
X11601Y18161
X12601Y18161
T03
X37609Y6015
X37609Y5228
X38593Y5228
X38593Y6015
T04
X35699Y27263
X34699Y27263
X33699Y27263
X32699Y27263
X31699Y27263
X30699Y27263
X29699Y27263
X28699Y27263
X27699Y27263
X26699Y27263
X25699Y27263
X24699Y27263
X23699Y27263
X22699Y27263
X21699Y27263
X20699Y27263
T05
X19101Y30661
X18101Y30661
X17101Y30661
X13601Y30661
X12601Y30661
X11601Y30661
X8101Y30661
X7101Y30661
X6101Y30661
X3101Y28161
X2101Y28161
X1101Y28161
X1101Y26161
X2101Y26161
X3101Y26161
X2101Y23661
X2101Y22661
X2101Y21661
X2101Y20661
X2101Y19661
X2101Y18661
X2321Y15551
X2321Y13771
X4881Y13771
X4881Y15551
X7101Y12161
X8101Y12161
X9101Y12161
X9101Y10161
X8101Y10161
X7101Y10161
X4881Y10021
X2321Y10021
X2321Y11801
X4881Y11801
X14101Y7661
X14101Y6661
X16601Y6661
X16601Y7661
X41101Y28661
X42101Y28661
X43101Y28661
X38101Y30661
X37101Y30661
X34101Y30661
X33101Y30661
X32101Y30661
X29101Y30661
X28101Y30661
X24601Y30661
X23601Y30661
X22601Y30661
T06
X41601Y26001
X41601Y24441
X41601Y22881
X41601Y21321
X41601Y18731
X41601Y17171
X41601Y15611
X41601Y12441
X41601Y10881
T07
X40471Y4161
X35731Y4161
T08
X37865Y15058
X37865Y27263
X8337Y27263
X8337Y15058
T09
X1851Y4161
X1851Y31161
X43351Y31161
X43351Y4161
M30
