G75*
G70*
%OFA0B0*%
%FSLAX24Y24*%
%IPPOS*%
%LPD*%
%AMOC8*
5,1,8,0,0,1.08239X$1,22.5*
%
%ADD10C,0.0520*%
%ADD11OC8,0.0520*%
%ADD12C,0.0990*%
%ADD13C,0.0600*%
%ADD14C,0.0440*%
%ADD15C,0.0660*%
%ADD16C,0.0440*%
%ADD17OC8,0.0574*%
%ADD18C,0.1306*%
%ADD19OC8,0.0630*%
%ADD20C,0.0630*%
%ADD21C,0.0100*%
%ADD22C,0.0400*%
%ADD23C,0.1895*%
D10*
X021101Y004141D02*
X021101Y004661D01*
X022101Y004661D02*
X022101Y004141D01*
X023101Y004141D02*
X023101Y004661D01*
X024101Y004661D02*
X024101Y004141D01*
X025101Y004141D02*
X025101Y004661D01*
X026101Y004661D02*
X026101Y004141D01*
X027101Y004141D02*
X027101Y004661D01*
X028101Y004661D02*
X028101Y004141D01*
X028101Y007661D02*
X028101Y008181D01*
X027101Y008181D02*
X027101Y007661D01*
X026101Y007661D02*
X026101Y008181D01*
X025101Y008181D02*
X025101Y007661D01*
X024101Y007661D02*
X024101Y008181D01*
X023101Y008181D02*
X023101Y007661D01*
X022101Y007661D02*
X022101Y008181D01*
X021101Y008181D02*
X021101Y007661D01*
X031341Y011661D02*
X031861Y011661D01*
X031861Y012661D02*
X031341Y012661D01*
X031341Y013661D02*
X031861Y013661D01*
X031861Y014661D02*
X031341Y014661D01*
X034341Y014661D02*
X034861Y014661D01*
X034861Y013661D02*
X034341Y013661D01*
X034341Y012661D02*
X034861Y012661D01*
X034861Y011661D02*
X034341Y011661D01*
X034341Y017161D02*
X034861Y017161D01*
X034861Y018161D02*
X034341Y018161D01*
X034341Y019161D02*
X034861Y019161D01*
X034861Y020161D02*
X034341Y020161D01*
X032361Y020161D02*
X031841Y020161D01*
X031841Y019161D02*
X032361Y019161D01*
X032361Y018161D02*
X031841Y018161D01*
X031841Y017161D02*
X032361Y017161D01*
X029361Y017161D02*
X028841Y017161D01*
X028841Y018161D02*
X029361Y018161D01*
X029361Y019161D02*
X028841Y019161D01*
X028841Y020161D02*
X029361Y020161D01*
X031341Y022161D02*
X031861Y022161D01*
X031861Y023161D02*
X031341Y023161D01*
X031341Y024161D02*
X031861Y024161D01*
X031861Y025161D02*
X031341Y025161D01*
X034341Y025161D02*
X034861Y025161D01*
X034861Y024161D02*
X034341Y024161D01*
X034341Y023161D02*
X034861Y023161D01*
X034861Y022161D02*
X034341Y022161D01*
X037341Y020161D02*
X037861Y020161D01*
X037861Y019161D02*
X037341Y019161D01*
X037341Y018161D02*
X037861Y018161D01*
X037861Y017161D02*
X037341Y017161D01*
X023601Y017901D02*
X023601Y018421D01*
X022601Y018421D02*
X022601Y017901D01*
X021601Y017901D02*
X021601Y018421D01*
X020601Y018421D02*
X020601Y017901D01*
X019601Y017901D02*
X019601Y018421D01*
X018601Y018421D02*
X018601Y017901D01*
X017601Y017901D02*
X017601Y018421D01*
X016601Y018421D02*
X016601Y017901D01*
X015601Y017901D02*
X015601Y018421D01*
X014601Y018421D02*
X014601Y017901D01*
X013601Y017901D02*
X013601Y018421D01*
X012601Y018421D02*
X012601Y017901D01*
X011601Y017901D02*
X011601Y018421D01*
X010601Y018421D02*
X010601Y017901D01*
X009601Y017901D02*
X009601Y018421D01*
X008601Y018421D02*
X008601Y017901D01*
X007601Y017901D02*
X007601Y018421D01*
X006601Y018421D02*
X006601Y017901D01*
X005601Y017901D02*
X005601Y018421D01*
X004601Y018421D02*
X004601Y017901D01*
X004601Y023901D02*
X004601Y024421D01*
X005601Y024421D02*
X005601Y023901D01*
X006601Y023901D02*
X006601Y024421D01*
X007601Y024421D02*
X007601Y023901D01*
X008601Y023901D02*
X008601Y024421D01*
X009601Y024421D02*
X009601Y023901D01*
X010601Y023901D02*
X010601Y024421D01*
X011601Y024421D02*
X011601Y023901D01*
X012601Y023901D02*
X012601Y024421D01*
X013601Y024421D02*
X013601Y023901D01*
X014601Y023901D02*
X014601Y024421D01*
X015601Y024421D02*
X015601Y023901D01*
X016601Y023901D02*
X016601Y024421D01*
X017601Y024421D02*
X017601Y023901D01*
X018601Y023901D02*
X018601Y024421D01*
X019601Y024421D02*
X019601Y023901D01*
X020601Y023901D02*
X020601Y024421D01*
X021601Y024421D02*
X021601Y023901D01*
X022601Y023901D02*
X022601Y024421D01*
X023601Y024421D02*
X023601Y023901D01*
D11*
X021601Y025661D03*
X018601Y025661D03*
X013601Y025161D03*
X012601Y025161D03*
X011601Y025661D03*
X010101Y025661D03*
X010101Y028661D03*
X011601Y028661D03*
X006101Y029161D03*
X004601Y029161D03*
X004601Y026161D03*
X006101Y026161D03*
X005101Y016911D03*
X007601Y016661D03*
X008601Y016661D03*
X013601Y016661D03*
X014601Y016661D03*
X016101Y016661D03*
X016101Y014661D03*
X014601Y011661D03*
X014601Y010661D03*
X012601Y010661D03*
X012601Y011661D03*
X011101Y012661D03*
X011101Y009661D03*
X010601Y008661D03*
X012101Y008661D03*
X009101Y008661D03*
X007601Y008661D03*
X006101Y008661D03*
X004601Y008661D03*
X004601Y005661D03*
X006101Y005661D03*
X007601Y005661D03*
X009101Y005661D03*
X010601Y005661D03*
X012101Y005661D03*
X012601Y004161D03*
X011601Y004161D03*
X010101Y004161D03*
X009101Y004161D03*
X007601Y004161D03*
X006601Y004161D03*
X005101Y004161D03*
X004101Y004161D03*
X014101Y004161D03*
X015101Y004161D03*
X016601Y004161D03*
X017601Y004161D03*
X021101Y009661D03*
X022601Y009661D03*
X024101Y009661D03*
X025601Y009661D03*
X027101Y009661D03*
X028601Y009661D03*
X028601Y012661D03*
X027101Y012661D03*
X025601Y012661D03*
X024101Y012661D03*
X022601Y012661D03*
X021101Y012661D03*
X023101Y014661D03*
X026101Y014661D03*
X026101Y016661D03*
X023101Y016661D03*
X027101Y021661D03*
X028601Y021661D03*
X030101Y021661D03*
X030101Y024661D03*
X028601Y024661D03*
X027101Y024661D03*
X036101Y024661D03*
X036101Y021661D03*
X036101Y009161D03*
X037601Y007661D03*
X038601Y007661D03*
X039101Y009161D03*
X002101Y016911D03*
D12*
X041106Y017171D02*
X042096Y017171D01*
X042096Y018731D02*
X041106Y018731D01*
X041106Y021321D02*
X042096Y021321D01*
X042096Y022881D02*
X041106Y022881D01*
X041106Y024441D02*
X042096Y024441D01*
X042096Y026001D02*
X041106Y026001D01*
X041106Y015611D02*
X042096Y015611D01*
X042096Y012441D02*
X041106Y012441D01*
X041106Y010881D02*
X042096Y010881D01*
D13*
X042101Y028361D02*
X042101Y028961D01*
X043101Y028961D02*
X043101Y028361D01*
X041101Y028361D02*
X041101Y028961D01*
X038101Y030361D02*
X038101Y030961D01*
X037101Y030961D02*
X037101Y030361D01*
X034101Y030361D02*
X034101Y030961D01*
X033101Y030961D02*
X033101Y030361D01*
X032101Y030361D02*
X032101Y030961D01*
X029101Y030961D02*
X029101Y030361D01*
X028101Y030361D02*
X028101Y030961D01*
X024601Y030961D02*
X024601Y030361D01*
X023601Y030361D02*
X023601Y030961D01*
X022601Y030961D02*
X022601Y030361D01*
X019101Y030361D02*
X019101Y030961D01*
X018101Y030961D02*
X018101Y030361D01*
X017101Y030361D02*
X017101Y030961D01*
X013601Y030961D02*
X013601Y030361D01*
X012601Y030361D02*
X012601Y030961D01*
X011601Y030961D02*
X011601Y030361D01*
X008101Y030361D02*
X008101Y030961D01*
X007101Y030961D02*
X007101Y030361D01*
X006101Y030361D02*
X006101Y030961D01*
X003101Y028461D02*
X003101Y027861D01*
X002101Y027861D02*
X002101Y028461D01*
X001101Y028461D02*
X001101Y027861D01*
X001101Y026461D02*
X001101Y025861D01*
X002101Y025861D02*
X002101Y026461D01*
X003101Y026461D02*
X003101Y025861D01*
X002401Y023661D02*
X001801Y023661D01*
X001801Y022661D02*
X002401Y022661D01*
X002401Y021661D02*
X001801Y021661D01*
X001801Y020661D02*
X002401Y020661D01*
X002401Y019661D02*
X001801Y019661D01*
X001801Y018661D02*
X002401Y018661D01*
X002621Y015551D02*
X002021Y015551D01*
X002021Y013771D02*
X002621Y013771D01*
X004581Y013771D02*
X005181Y013771D01*
X007101Y012461D02*
X007101Y011861D01*
X008101Y011861D02*
X008101Y012461D01*
X009101Y012461D02*
X009101Y011861D01*
X009101Y010461D02*
X009101Y009861D01*
X008101Y009861D02*
X008101Y010461D01*
X007101Y010461D02*
X007101Y009861D01*
X005181Y010021D02*
X004581Y010021D01*
X002621Y010021D02*
X002021Y010021D01*
X002021Y011801D02*
X002621Y011801D01*
X004581Y011801D02*
X005181Y011801D01*
X005181Y015551D02*
X004581Y015551D01*
X013801Y007661D02*
X014401Y007661D01*
X014401Y006661D02*
X013801Y006661D01*
X016301Y006661D02*
X016901Y006661D01*
X016901Y007661D02*
X016301Y007661D01*
D14*
X018601Y015441D02*
X018601Y015881D01*
X020601Y015881D02*
X020601Y015441D01*
D15*
X020699Y027263D03*
X021699Y027263D03*
X022699Y027263D03*
X023699Y027263D03*
X024699Y027263D03*
X025699Y027263D03*
X026699Y027263D03*
X027699Y027263D03*
X028699Y027263D03*
X029699Y027263D03*
X030699Y027263D03*
X031699Y027263D03*
X032699Y027263D03*
X033699Y027263D03*
X034699Y027263D03*
X035699Y027263D03*
D16*
X016601Y027661D03*
X015601Y027661D03*
X014601Y027661D03*
X037601Y013161D03*
X037601Y012161D03*
X037601Y011161D03*
D17*
X037609Y006015D03*
X037609Y005228D03*
X038593Y005228D03*
X038593Y006015D03*
D18*
X040471Y004161D03*
X035731Y004161D03*
D19*
X034101Y006161D03*
X031101Y006161D03*
X031101Y009161D03*
X034101Y009161D03*
D20*
X033101Y009161D03*
X030101Y009161D03*
X030101Y006161D03*
X033101Y006161D03*
D21*
X034101Y006161D02*
X034101Y006661D01*
X031101Y006661D01*
X031101Y006161D01*
X031101Y006661D02*
X031101Y009161D01*
X033101Y009161D01*
X033601Y008661D02*
X033601Y014661D01*
X031101Y017161D01*
X031101Y020661D01*
X032601Y022161D01*
X032601Y023161D01*
X031601Y024161D01*
X030101Y024661D02*
X028101Y022661D01*
X028101Y020161D01*
X029101Y019161D01*
X029101Y018161D02*
X028101Y017161D01*
X028101Y015161D01*
X030601Y012661D01*
X030601Y022161D01*
X031601Y023161D01*
X033101Y024161D02*
X033101Y020161D01*
X032101Y019161D01*
X030101Y021661D02*
X028601Y021661D01*
X030101Y021661D02*
X030101Y014161D01*
X030601Y012661D02*
X031101Y012161D01*
X031601Y012661D01*
X031101Y012161D02*
X030601Y011661D01*
X030601Y006661D01*
X030101Y006161D01*
X029601Y007161D02*
X029601Y012661D01*
X027601Y014661D01*
X027601Y018161D01*
X021601Y024161D01*
X020601Y024161D02*
X022101Y022661D01*
X022101Y011161D01*
X023601Y009661D01*
X023601Y006661D01*
X022601Y006161D02*
X022601Y009661D01*
X024101Y009661D02*
X024601Y009161D01*
X024601Y005161D01*
X025101Y004661D01*
X024601Y004161D02*
X024601Y003661D01*
X025601Y003661D01*
X025601Y009661D01*
X025101Y010161D02*
X026601Y010161D01*
X026601Y003161D01*
X036101Y003161D01*
X036601Y003661D01*
X036601Y008161D01*
X039101Y010661D01*
X039101Y031661D01*
X029101Y031661D01*
X028101Y030661D01*
X029101Y030661D02*
X031601Y030661D01*
X031601Y027161D01*
X031699Y027263D01*
X032601Y027161D02*
X032699Y027263D01*
X032601Y027161D02*
X032601Y026161D01*
X027601Y026161D01*
X026601Y025161D01*
X026601Y024161D01*
X023601Y024161D01*
X022601Y024161D02*
X025101Y026661D01*
X030601Y026661D01*
X030601Y027161D01*
X030699Y027263D01*
X032101Y028661D02*
X033101Y029661D01*
X033101Y030661D01*
X034101Y030661D02*
X034601Y030161D01*
X034601Y027161D01*
X034699Y027263D01*
X033601Y026161D02*
X036601Y026161D01*
X036601Y022161D01*
X036101Y021661D01*
X036101Y013661D01*
X036601Y012661D02*
X034601Y014661D01*
X033601Y015661D01*
X033601Y024161D01*
X034601Y025161D01*
X035101Y025661D02*
X033601Y025661D01*
X033601Y024661D01*
X033101Y024161D01*
X033101Y025661D02*
X033601Y026161D01*
X033101Y025661D02*
X028101Y025661D01*
X027101Y024661D01*
X025601Y027161D02*
X025699Y027263D01*
X025601Y027161D02*
X025601Y031661D01*
X022601Y031661D01*
X018101Y027161D01*
X018101Y024661D01*
X017601Y024161D01*
X017101Y023661D02*
X017101Y026661D01*
X019101Y028661D01*
X020101Y027661D02*
X022101Y029661D01*
X023601Y029661D01*
X023601Y030661D01*
X020101Y027661D02*
X020101Y023661D01*
X019101Y022661D01*
X019101Y021661D02*
X017101Y023661D01*
X014601Y023161D02*
X014601Y019161D01*
X015601Y018161D01*
X015601Y017661D01*
X014601Y016661D01*
X014601Y016161D01*
X016101Y014661D01*
X016101Y013161D01*
X014601Y011661D01*
X017601Y008661D01*
X017601Y004161D01*
X016601Y004161D02*
X016601Y005661D01*
X012101Y005661D01*
X011601Y004661D02*
X011601Y004161D01*
X011601Y004661D02*
X010101Y004661D01*
X009101Y005661D01*
X007601Y005661D02*
X009101Y004161D01*
X006601Y004161D02*
X006101Y004661D01*
X006101Y005661D01*
X004601Y005661D02*
X004601Y004661D01*
X004101Y004161D01*
X009101Y008661D02*
X010101Y007661D01*
X013101Y007661D01*
X013101Y017661D01*
X012601Y018161D01*
X011601Y018161D02*
X011601Y008161D01*
X010101Y008161D01*
X010101Y009161D01*
X008601Y009161D01*
X008601Y008661D01*
X007601Y008661D01*
X008101Y009161D02*
X009101Y010161D01*
X009101Y011161D02*
X007101Y011161D01*
X007101Y010161D01*
X006101Y011161D02*
X005101Y010161D01*
X004881Y010021D01*
X004101Y009661D02*
X004601Y009161D01*
X008101Y009161D01*
X009101Y011161D02*
X009601Y011661D01*
X009601Y018161D01*
X008601Y018161D02*
X008601Y016661D01*
X007601Y016661D02*
X007601Y018161D01*
X006601Y018161D02*
X006601Y014661D01*
X007601Y013661D01*
X009101Y013661D01*
X009101Y012161D01*
X006101Y011161D02*
X006101Y022661D01*
X007601Y024161D01*
X008101Y023661D02*
X008101Y026161D01*
X007101Y027161D01*
X007101Y030661D01*
X008101Y030661D02*
X010101Y028661D01*
X011101Y029161D02*
X012101Y030161D01*
X012101Y031161D01*
X012601Y031661D01*
X018101Y031661D01*
X018101Y030661D01*
X019101Y030661D02*
X017101Y028661D01*
X015101Y029161D02*
X013601Y030661D01*
X012601Y030661D02*
X012601Y030161D01*
X012101Y029661D01*
X012101Y023661D01*
X010101Y021661D01*
X010101Y017161D01*
X010601Y017161D02*
X011101Y017661D01*
X011101Y018661D01*
X011601Y019161D01*
X013601Y019161D01*
X013601Y018161D01*
X014601Y018161D02*
X014601Y017661D01*
X014101Y017161D01*
X014101Y022661D01*
X012601Y024161D01*
X012601Y025161D01*
X013601Y025161D02*
X013601Y024161D01*
X014601Y023161D01*
X015101Y021661D02*
X015101Y029161D01*
X014601Y027661D02*
X013601Y026661D01*
X013601Y025161D01*
X011101Y024661D02*
X011101Y029161D01*
X006101Y029161D02*
X004601Y029161D01*
X004101Y029661D02*
X002101Y029661D01*
X001101Y028161D01*
X001101Y026161D01*
X001101Y021661D01*
X002101Y020661D01*
X001101Y019661D01*
X001101Y012661D01*
X002101Y011661D01*
X002321Y011801D01*
X004881Y011801D02*
X005101Y011661D01*
X005101Y013661D01*
X004881Y013771D01*
X004881Y015551D02*
X005101Y015661D01*
X005101Y016911D01*
X004101Y016661D02*
X004101Y009661D01*
X003601Y008661D02*
X003601Y021161D01*
X006601Y024161D01*
X005601Y024161D02*
X004601Y025161D01*
X003101Y025161D01*
X003101Y023661D01*
X002101Y022661D01*
X002101Y021661D02*
X004601Y024161D01*
X007101Y022661D02*
X008101Y023661D01*
X007101Y022661D02*
X007101Y014661D01*
X004101Y016661D02*
X005601Y018161D01*
X003101Y018161D02*
X003101Y018661D01*
X002101Y019661D01*
X003101Y018161D02*
X002101Y017161D01*
X002101Y016911D01*
X010601Y017161D02*
X010601Y008661D01*
X013601Y008661D02*
X013601Y016661D01*
X014101Y017161D01*
X018601Y018161D02*
X015101Y021661D01*
X019101Y021661D02*
X019101Y007161D01*
X021601Y007161D01*
X022101Y007661D01*
X021101Y007661D02*
X021101Y009661D01*
X020601Y010161D01*
X020601Y013161D01*
X021101Y013661D01*
X021101Y019661D01*
X021601Y020161D01*
X023601Y018161D02*
X023601Y012161D01*
X022601Y011161D01*
X025101Y010161D02*
X025101Y007661D01*
X022601Y006161D02*
X021101Y004661D01*
X022101Y004661D02*
X023101Y004661D01*
X024101Y004661D02*
X024601Y004161D01*
X027101Y009661D02*
X027101Y010161D01*
X026601Y010161D01*
X027101Y012661D02*
X027101Y013661D01*
X026101Y014661D01*
X027101Y012661D02*
X028601Y012661D01*
X033601Y008661D02*
X034601Y008661D01*
X035101Y009161D01*
X036101Y009161D01*
X034601Y009161D02*
X034101Y009161D01*
X034601Y009161D02*
X037101Y011661D01*
X037101Y012161D01*
X036601Y012661D01*
X036601Y019161D01*
X037601Y020161D01*
X035601Y022161D02*
X035601Y015661D01*
X038601Y016161D02*
X038601Y025161D01*
X036601Y027161D01*
X036601Y030161D01*
X037101Y030661D01*
X039601Y027161D02*
X041101Y028661D01*
X039601Y027161D02*
X039601Y010661D01*
X038101Y009161D01*
X038101Y006661D01*
X038601Y006161D01*
X038593Y006015D01*
X038593Y005228D02*
X038601Y005161D01*
X040101Y005161D01*
X040101Y006161D01*
X038601Y007661D01*
X039101Y009161D02*
X040101Y010161D01*
X040101Y013661D01*
X041601Y015161D01*
X041601Y015611D01*
X037601Y012161D02*
X037101Y011661D01*
X034101Y006161D02*
X035601Y004661D01*
X035601Y004161D01*
X035731Y004161D01*
X040101Y004161D02*
X040471Y004161D01*
X040101Y004161D02*
X040101Y005161D01*
X041601Y021161D02*
X041601Y021321D01*
X041601Y021161D02*
X043101Y022661D01*
X043101Y028661D01*
X036101Y024661D02*
X036101Y022661D01*
X035601Y022161D01*
X034601Y023161D02*
X035601Y024161D01*
X035601Y025161D01*
X035101Y025661D01*
X032101Y030661D02*
X031601Y030661D01*
X024699Y027263D02*
X024601Y027161D01*
X022601Y025161D01*
X022601Y026161D02*
X023601Y027161D01*
X023699Y027263D01*
X022699Y027263D02*
X022601Y027161D01*
X022101Y026661D01*
X021601Y025661D02*
X020601Y026661D01*
X020601Y027161D01*
X020699Y027263D01*
X011101Y024661D02*
X010601Y024161D01*
X004601Y026161D02*
X003101Y026161D01*
X004101Y029661D02*
X006101Y030661D01*
X013601Y008661D02*
X014101Y008161D01*
X014101Y007661D01*
X014101Y006661D02*
X015601Y006661D01*
X016601Y007661D01*
D22*
X013601Y008661D03*
X007101Y014661D03*
X010101Y017161D03*
X019101Y022661D03*
X021601Y020161D03*
X022601Y025161D03*
X022601Y026161D03*
X022101Y026661D03*
X019101Y028661D03*
X017101Y028661D03*
X032101Y028661D03*
X038601Y016161D03*
X035601Y015661D03*
X036101Y013661D03*
X030101Y014161D03*
X022601Y011161D03*
X023601Y006661D03*
X029601Y007161D03*
X003601Y008661D03*
D23*
X001851Y004161D03*
X001851Y031161D03*
X043351Y031161D03*
X043351Y004161D03*
M02*
