G75*
G70*
%OFA0B0*%
%FSLAX24Y24*%
%IPPOS*%
%LPD*%
%AMOC8*
5,1,8,0,0,1.08239X$1,22.5*
%
%ADD10C,0.1660*%
%ADD11C,0.0990*%
%ADD12C,0.0600*%
%ADD13C,0.0440*%
%ADD14C,0.0886*%
%ADD15C,0.1000*%
%ADD16OC8,0.1000*%
%ADD17OC8,0.0520*%
%ADD18C,0.0660*%
%ADD19OC8,0.0620*%
%ADD20C,0.0620*%
%ADD21C,0.0825*%
%ADD22C,0.0520*%
%ADD23C,0.0709*%
%ADD24C,0.0500*%
%ADD25C,0.0591*%
%ADD26C,0.0400*%
%ADD27C,0.0160*%
%ADD28C,0.0531*%
%ADD29C,0.0320*%
%ADD30C,0.0100*%
%ADD31C,0.0650*%
%ADD32C,0.0400*%
%ADD33C,0.0240*%
%ADD34C,0.0436*%
%ADD35C,0.1000*%
%ADD36C,0.1800*%
%ADD37C,0.0700*%
%ADD38C,0.1895*%
%ADD39C,0.0475*%
%ADD40C,0.2540*%
%ADD41C,0.1600*%
%ADD42C,0.1500*%
D10*
X010148Y005601D03*
X014498Y005601D03*
X017598Y005601D03*
X020698Y005601D03*
X022948Y005601D03*
X022948Y010301D03*
X020698Y010301D03*
X017598Y010301D03*
X017598Y014401D03*
X020698Y014401D03*
X022948Y014401D03*
X027648Y014401D03*
X034998Y014401D03*
X038098Y014401D03*
X041198Y014401D03*
X043448Y014401D03*
X048148Y014401D03*
X043448Y010301D03*
X041198Y010301D03*
X038098Y010301D03*
X038098Y005601D03*
X041198Y005601D03*
X043448Y005601D03*
X034998Y005601D03*
X030648Y005601D03*
X014498Y014401D03*
D11*
X004643Y031321D02*
X003653Y031321D01*
X003653Y032881D02*
X004643Y032881D01*
X008368Y045606D02*
X008368Y046596D01*
X009928Y046596D02*
X009928Y045606D01*
X014368Y045606D02*
X014368Y046596D01*
X015928Y046596D02*
X015928Y045606D01*
X020598Y045606D02*
X020598Y046596D01*
X022158Y046596D02*
X022158Y045606D01*
X023718Y045606D02*
X023718Y046596D01*
X028368Y046596D02*
X028368Y045606D01*
X029928Y045606D02*
X029928Y046596D01*
X034368Y046596D02*
X034368Y045606D01*
X035928Y045606D02*
X035928Y046596D01*
X040598Y046596D02*
X040598Y045606D01*
X042158Y045606D02*
X042158Y046596D01*
X043718Y046596D02*
X043718Y045606D01*
X048098Y045606D02*
X048098Y046596D01*
X049658Y046596D02*
X049658Y045606D01*
X051218Y045606D02*
X051218Y046596D01*
X055598Y046596D02*
X055598Y045606D01*
X057158Y045606D02*
X057158Y046596D01*
X058718Y046596D02*
X058718Y045606D01*
X063598Y045606D02*
X063598Y046596D01*
X065158Y046596D02*
X065158Y045606D01*
X066718Y045606D02*
X066718Y046596D01*
X067153Y041881D02*
X068143Y041881D01*
X068143Y040321D02*
X067153Y040321D01*
X067153Y035881D02*
X068143Y035881D01*
X068143Y034321D02*
X067153Y034321D01*
X067153Y019381D02*
X068143Y019381D01*
X068143Y017821D02*
X067153Y017821D01*
X066678Y005096D02*
X066678Y004106D01*
X065118Y004106D02*
X065118Y005096D01*
X061678Y005096D02*
X061678Y004106D01*
X060118Y004106D02*
X060118Y005096D01*
X056928Y005096D02*
X056928Y004106D01*
X055368Y004106D02*
X055368Y005096D01*
X051928Y005096D02*
X051928Y004106D01*
X050368Y004106D02*
X050368Y005096D01*
D12*
X067848Y022601D02*
X068448Y022601D01*
X068448Y023601D02*
X067848Y023601D01*
X067848Y024601D02*
X068448Y024601D01*
X068448Y027101D02*
X067848Y027101D01*
X067848Y028101D02*
X068448Y028101D01*
X068448Y029101D02*
X067848Y029101D01*
X033898Y034551D02*
X033898Y035151D01*
X032898Y035151D02*
X032898Y034551D01*
X023648Y034551D02*
X023648Y035151D01*
X022648Y035151D02*
X022648Y034551D01*
X012898Y034651D02*
X012898Y034051D01*
X011898Y034051D02*
X011898Y034651D01*
X004448Y035601D02*
X003848Y035601D01*
X003848Y036601D02*
X004448Y036601D01*
X004448Y045101D02*
X003848Y045101D01*
X003848Y046101D02*
X004448Y046101D01*
X003948Y026101D02*
X003348Y026101D01*
X003348Y025101D02*
X003948Y025101D01*
X003948Y024101D02*
X003348Y024101D01*
X003348Y023101D02*
X003948Y023101D01*
D13*
X003648Y007601D03*
X004648Y007601D03*
X002648Y007601D03*
X002648Y004601D03*
X003648Y004601D03*
X004648Y004601D03*
D14*
X011648Y023658D02*
X011648Y024544D01*
X013148Y024458D02*
X013148Y025344D01*
X014648Y024544D02*
X014648Y023658D01*
X010148Y024458D02*
X010148Y025344D01*
X010648Y029658D02*
X010648Y030544D01*
X009648Y030558D02*
X009648Y031444D01*
X011648Y031444D02*
X011648Y030558D01*
X012648Y030294D02*
X012648Y029408D01*
X013648Y030558D02*
X013648Y031444D01*
X014648Y030294D02*
X014648Y029408D01*
X020148Y030558D02*
X020148Y031444D01*
X021148Y030544D02*
X021148Y029658D01*
X022148Y030558D02*
X022148Y031444D01*
X023148Y030294D02*
X023148Y029408D01*
X024148Y030558D02*
X024148Y031444D01*
X025148Y030294D02*
X025148Y029408D01*
X023648Y025344D02*
X023648Y024458D01*
X025148Y024544D02*
X025148Y023658D01*
X022148Y023658D02*
X022148Y024544D01*
X020648Y024458D02*
X020648Y025344D01*
X031148Y025344D02*
X031148Y024458D01*
X032648Y024544D02*
X032648Y023658D01*
X034148Y024458D02*
X034148Y025344D01*
X035648Y024544D02*
X035648Y023658D01*
X041648Y024458D02*
X041648Y025344D01*
X043148Y024544D02*
X043148Y023658D01*
X044648Y024458D02*
X044648Y025344D01*
X046148Y024544D02*
X046148Y023658D01*
X052148Y024458D02*
X052148Y025344D01*
X053648Y024544D02*
X053648Y023658D01*
X055148Y024458D02*
X055148Y025344D01*
X056648Y024544D02*
X056648Y023658D01*
X056648Y029408D02*
X056648Y030294D01*
X055648Y030558D02*
X055648Y031444D01*
X054648Y030294D02*
X054648Y029408D01*
X053648Y030558D02*
X053648Y031444D01*
X052648Y030294D02*
X052648Y029408D01*
X051648Y030558D02*
X051648Y031444D01*
X046148Y030294D02*
X046148Y029408D01*
X045148Y030558D02*
X045148Y031444D01*
X044148Y030294D02*
X044148Y029408D01*
X043148Y030558D02*
X043148Y031444D01*
X042148Y030544D02*
X042148Y029658D01*
X041148Y030558D02*
X041148Y031444D01*
X035648Y030294D02*
X035648Y029408D01*
X034648Y030558D02*
X034648Y031444D01*
X033648Y030294D02*
X033648Y029408D01*
X032648Y030558D02*
X032648Y031444D01*
X031648Y030544D02*
X031648Y029658D01*
X030648Y030558D02*
X030648Y031444D01*
D15*
X005148Y018101D03*
X005148Y012101D03*
D16*
X003148Y012101D03*
X003148Y018101D03*
D17*
X007898Y019601D03*
X007898Y016601D03*
X041148Y038601D03*
X041148Y041601D03*
X045148Y036101D03*
X045148Y034601D03*
X048148Y034601D03*
X048148Y036101D03*
D18*
X003978Y039601D02*
X003318Y039601D01*
X003318Y040601D02*
X003978Y040601D01*
X003978Y041601D02*
X003318Y041601D01*
D19*
X007148Y036601D03*
X010148Y036601D03*
D20*
X010148Y035601D03*
X007148Y035601D03*
D21*
X007060Y043601D02*
X006235Y043601D01*
X012235Y043601D02*
X013060Y043601D01*
X014735Y021101D02*
X015560Y021101D01*
X019235Y021101D02*
X020060Y021101D01*
X025235Y021101D02*
X026060Y021101D01*
X030235Y021101D02*
X031060Y021101D01*
X036235Y021101D02*
X037060Y021101D01*
X040735Y021101D02*
X041560Y021101D01*
X046735Y021101D02*
X047560Y021101D01*
X051235Y021101D02*
X052060Y021101D01*
X057235Y021101D02*
X058060Y021101D01*
X009560Y021101D02*
X008735Y021101D01*
D22*
X042648Y038081D02*
X042648Y038601D01*
X043648Y038601D02*
X043648Y038081D01*
X044648Y038081D02*
X044648Y038601D01*
X045648Y038601D02*
X045648Y038081D01*
X046648Y038081D02*
X046648Y038601D01*
X047648Y038601D02*
X047648Y038081D01*
X048648Y038081D02*
X048648Y038601D01*
X049648Y038601D02*
X049648Y038081D01*
X049648Y041601D02*
X049648Y042121D01*
X048648Y042121D02*
X048648Y041601D01*
X047648Y041601D02*
X047648Y042121D01*
X046648Y042121D02*
X046648Y041601D01*
X045648Y041601D02*
X045648Y042121D01*
X044648Y042121D02*
X044648Y041601D01*
X043648Y041601D02*
X043648Y042121D01*
X042648Y042121D02*
X042648Y041601D01*
D23*
X021648Y016601D03*
X019798Y016601D03*
X014148Y011601D03*
X047648Y011101D03*
D24*
X067148Y011101D01*
X068148Y012101D01*
X062928Y012101D02*
X040148Y012101D01*
X038098Y011051D01*
X038098Y010301D01*
X041198Y005601D02*
X041198Y004551D01*
X042648Y003101D01*
X051428Y003101D01*
X051928Y004601D01*
X055148Y004381D02*
X055368Y004601D01*
X055148Y004381D02*
X055148Y004101D01*
X056148Y003101D01*
X059148Y003101D01*
X060118Y004071D01*
X060118Y004601D01*
X061678Y004601D02*
X061678Y006071D01*
X059648Y008101D01*
X025448Y008101D01*
X022198Y007101D02*
X020698Y005601D01*
X022198Y007101D02*
X056148Y007101D01*
X056928Y006321D01*
X056928Y004601D01*
X062928Y012101D02*
X067648Y017821D01*
X045148Y031001D02*
X045148Y032101D01*
X044648Y032601D01*
X033648Y032601D01*
X032648Y031601D01*
X032648Y031001D01*
X033898Y034851D02*
X033898Y036351D01*
X032148Y038101D01*
X015148Y038101D01*
X011148Y042101D01*
X007648Y042101D01*
X006648Y043101D01*
X006648Y043601D01*
X008368Y045821D01*
X008368Y046101D01*
X009928Y046101D02*
X012148Y043881D01*
X012648Y043601D01*
X009928Y046101D02*
X011928Y048101D01*
X034648Y048101D01*
X035928Y046821D01*
X035928Y044821D01*
X042148Y046101D02*
X042158Y046101D01*
X049648Y047101D02*
X049658Y047091D01*
X065648Y039601D02*
X066868Y037881D01*
X067648Y035881D01*
X065648Y039601D02*
X032648Y039601D01*
X013648Y031001D02*
X013648Y027351D01*
X009648Y027351D01*
X009148Y028601D01*
X006868Y028601D02*
X004148Y031321D01*
X011898Y032851D02*
X013148Y031601D01*
X013148Y031501D01*
X013648Y031001D01*
X011898Y032851D02*
X011898Y034351D01*
X019798Y016601D02*
X021648Y016601D01*
X014148Y011601D02*
X005648Y011601D01*
X005148Y012101D01*
X020698Y010301D02*
X020948Y010301D01*
D25*
X025448Y008101D03*
X010648Y008601D03*
X044648Y013101D03*
X059648Y016101D03*
X068148Y012101D03*
X020148Y041601D03*
D26*
X016148Y040351D02*
X014368Y042381D01*
X014368Y046101D01*
X013648Y049101D02*
X042648Y049101D01*
X058398Y040351D02*
X016148Y040351D01*
X012898Y038601D02*
X011148Y034851D01*
X011148Y032851D01*
X004148Y032881D01*
X006868Y028601D02*
X009148Y028601D01*
X005148Y018101D02*
X010148Y013101D01*
X036148Y013101D01*
X037448Y014401D01*
X038098Y014401D01*
X041148Y010101D02*
X040148Y009101D01*
X039148Y009101D01*
X022148Y009101D01*
X020948Y010301D01*
X014498Y014401D02*
X010098Y014401D01*
X007898Y016601D01*
X044648Y013101D02*
X055648Y013101D01*
X059648Y016101D01*
D27*
X057648Y021101D02*
X056648Y022101D01*
X056648Y023101D01*
X055648Y022101D01*
X004648Y022101D01*
X003648Y023101D01*
X004648Y023101D02*
X004648Y023601D01*
X004148Y024101D01*
X004648Y024101D02*
X004648Y024601D01*
X004148Y025101D01*
X004148Y026101D02*
X009648Y026101D01*
X018648Y026101D01*
X018948Y026101D01*
X020648Y024901D01*
X019648Y026101D02*
X019175Y026101D01*
X019081Y026007D01*
X019648Y026101D02*
X051648Y026101D01*
X052148Y025601D01*
X052148Y024901D01*
X054648Y027101D02*
X068148Y027101D01*
X068148Y029101D02*
X067148Y030101D01*
X058148Y030101D01*
X055148Y033101D01*
X020148Y033101D01*
X013648Y026601D01*
X003148Y026601D01*
X001648Y025101D01*
X001648Y004601D01*
X002648Y004601D01*
X004648Y004601D02*
X008148Y001101D01*
X032148Y001101D01*
X037648Y006601D01*
X049648Y006601D01*
X050148Y006101D01*
X069148Y008601D02*
X012148Y008601D01*
X011148Y009601D01*
X005648Y009601D01*
X003648Y007601D01*
X014498Y014401D02*
X019198Y019101D01*
X028648Y019101D01*
X030648Y021101D01*
X032148Y022601D02*
X040148Y022601D01*
X041648Y024101D01*
X041648Y024901D01*
X043348Y026601D02*
X048148Y026601D01*
X043148Y028601D02*
X041648Y027101D01*
X029648Y027101D01*
X031148Y027601D02*
X033648Y027601D01*
X031148Y024901D02*
X031148Y023601D01*
X032148Y022601D01*
X033648Y021601D02*
X034148Y021101D01*
X036648Y021101D01*
X043148Y028601D02*
X043148Y031001D01*
X045148Y034601D02*
X036648Y034601D01*
X038148Y035601D02*
X036648Y037101D01*
X038148Y035601D02*
X047648Y035601D01*
X048148Y035101D01*
X048148Y034601D01*
X047648Y035601D02*
X048148Y036101D01*
X053648Y031001D02*
X053648Y028101D01*
X054648Y027101D01*
X055648Y026601D02*
X056648Y026601D01*
X060648Y022601D01*
X068148Y022601D01*
X069148Y023601D02*
X069148Y008601D01*
X056648Y023101D02*
X056648Y024101D01*
X068148Y024601D02*
X069148Y023601D01*
X034148Y044101D02*
X021098Y044101D01*
X023658Y044601D02*
X032148Y044601D01*
X028368Y046101D02*
X023718Y046101D01*
X022218Y047601D01*
X017148Y047601D01*
X015928Y046381D01*
X015928Y046101D01*
X023648Y046101D02*
X023718Y046101D01*
X009648Y026101D02*
X010148Y024901D01*
X011148Y023101D02*
X005648Y023101D01*
X004648Y024101D01*
X004648Y023101D02*
X005148Y022601D01*
X013898Y022601D01*
X014398Y022851D02*
X014148Y023101D01*
X012148Y023101D01*
X011898Y022851D01*
X011398Y022851D01*
X011148Y023101D01*
X014398Y022851D02*
X014898Y022851D01*
X015148Y023101D01*
X021148Y023101D01*
X021648Y022601D01*
X022648Y022601D01*
X023148Y023101D01*
X024648Y023101D01*
D28*
X029648Y027101D03*
X031148Y027601D03*
X033648Y027601D03*
X033648Y021601D03*
X043348Y026601D03*
X048148Y026601D03*
X036648Y037101D03*
X034148Y044101D03*
X032148Y044601D03*
X035928Y044821D03*
X023658Y044601D03*
X021098Y044101D03*
X013648Y049101D03*
X012898Y038601D03*
D29*
X007148Y035601D02*
X006148Y035601D01*
X005148Y036601D01*
X005148Y044601D01*
X004648Y045101D01*
X004148Y045101D01*
X003648Y044601D01*
X003648Y041601D01*
X002648Y040601D02*
X002148Y041101D01*
X002148Y037101D01*
X002648Y036601D01*
X002148Y041101D02*
X002148Y045101D01*
X003148Y046101D01*
X004148Y046101D01*
D30*
X003648Y040601D02*
X002648Y040601D01*
X002648Y036601D02*
X004148Y036601D01*
X018648Y026101D02*
X019648Y026101D01*
X040148Y010101D02*
X041198Y010301D01*
X040148Y010101D02*
X039148Y009101D01*
D31*
X036648Y034601D03*
X032648Y039601D03*
X058398Y040351D03*
D32*
X050148Y006101D03*
D33*
X024648Y023101D02*
X025148Y024101D01*
X004148Y024101D02*
X003648Y024101D01*
X003648Y025101D02*
X004148Y025101D01*
X004148Y026101D02*
X003648Y026101D01*
D34*
X013898Y022601D03*
D35*
X040598Y043601D02*
X040598Y046101D01*
X042158Y046101D02*
X042158Y047111D01*
X042648Y049101D01*
X048098Y046101D02*
X048098Y044551D01*
X049658Y046101D02*
X049658Y047091D01*
X049648Y047101D02*
X050148Y048601D01*
X056648Y048601D02*
X057158Y048091D01*
X056648Y048601D02*
X057148Y046111D01*
X057158Y046101D01*
X064148Y048601D02*
X065148Y046611D01*
X065158Y046101D01*
X065118Y004601D02*
X065118Y003071D01*
D36*
X064648Y002101D01*
X063898Y001601D01*
X061648Y001601D01*
X063898Y001601D02*
X067648Y001601D01*
X070648Y004601D01*
X070648Y029601D01*
X070648Y030101D01*
X069148Y031601D01*
X058648Y031601D01*
X054148Y037601D01*
X056648Y048601D02*
X064148Y048601D01*
X056648Y048601D02*
X050148Y048601D01*
X042648Y049101D01*
X040598Y001651D02*
X041648Y001601D01*
X063898Y001601D01*
D37*
X070648Y029601D02*
X070648Y041101D01*
X069868Y041881D01*
X067648Y041881D01*
X067648Y040321D02*
X066428Y040321D01*
X065148Y041601D01*
X065148Y046091D01*
X065158Y046101D01*
D38*
X002148Y001601D03*
X002148Y049601D03*
X071148Y049601D03*
X071148Y001601D03*
D39*
X055648Y026601D03*
D40*
X054148Y037601D03*
D41*
X040598Y043551D02*
X039648Y042601D01*
X021148Y042601D01*
X020148Y041601D01*
X040598Y043551D02*
X040598Y043601D01*
X010648Y008601D02*
X012148Y007101D01*
X012148Y003601D01*
X013648Y002101D01*
X020648Y002101D01*
X023148Y004601D01*
X023148Y005401D01*
X022948Y005601D01*
X038098Y005601D02*
X040598Y001651D01*
D42*
X040598Y043601D02*
X047148Y043601D01*
X048098Y044551D01*
M02*
