%
M48
M72
T01C0.0240
T02C0.0276
T03C0.0315
T04C0.0320
T05C0.0354
T06C0.0394
T07C0.0400
T08C0.0433
T09C0.0440
T10C0.0472
T11C0.0550
T12C0.0591
T13C0.0660
T14C0.1260
T15C0.1300
T16C0.1495
%
T01
X22601Y6101
X68101Y7601
X69101Y7601
X70101Y7601
X70101Y4601
X69101Y4601
X68101Y4601
T02
X58851Y22601
T03
X17101Y26601
T04
X24601Y34601
X24601Y36101
X27601Y36101
X27601Y34601
X28101Y38601
X27101Y38601
X26101Y38601
X25101Y38601
X24101Y38601
X23101Y38601
X23101Y41601
X24101Y41601
X25101Y41601
X26101Y41601
X27101Y41601
X28101Y41601
X29101Y41601
X30101Y41601
X31601Y41601
X31601Y38601
X30101Y38601
X29101Y38601
X62601Y36601
X62601Y35601
X65601Y35601
X65601Y36601
X64851Y19601
X64851Y16601
T05
X43101Y27101
X41601Y27601
X39101Y27601
X39101Y21601
X29401Y26601
X24601Y26601
X36101Y37101
X38601Y44101
X40601Y44601
X36821Y44821
X49091Y44601
X51651Y44101
X59101Y49101
X59851Y38601
T06
X52601Y41601
X13101Y16101
X4601Y12101
X28101Y13101
X47301Y8101
X62101Y8601
T07
X67601Y12101
X69601Y12101
X69601Y18101
X67601Y18101
X69101Y23101
X69101Y24101
X69101Y25101
X69101Y26101
X60851Y34351
X59851Y34351
X68601Y35601
X68601Y36601
X68601Y45101
X68601Y46101
X50101Y34851
X49101Y34851
X39851Y34851
X38851Y34851
X4601Y29101
X4601Y28101
X4601Y27101
X4601Y24601
X4601Y23601
X4601Y22601
T08
X14351Y40351
X36101Y34601
X40101Y39601
T09
X69101Y39601
X69101Y40601
X69101Y41601
T10
X52951Y16601
X51101Y16601
X58601Y11601
X25101Y11101
T11
X25601Y21101
X21101Y21101
X15101Y21101
X31601Y21101
X36101Y21101
X42101Y21101
X47101Y21101
X53101Y21101
X57601Y21101
X63601Y21101
X66101Y43601
X60101Y43601
T12
X61101Y31001
X62101Y30101
X63101Y31001
X60101Y29851
X59101Y31001
X58101Y29851
X52601Y31001
X51601Y30101
X50601Y31001
X49601Y29851
X48601Y31001
X47601Y29851
X42101Y31001
X41101Y30101
X40101Y31001
X39101Y29851
X38101Y31001
X37101Y29851
X31601Y31001
X30601Y30101
X29601Y31001
X28601Y29851
X27601Y31001
X26601Y29851
X21101Y31001
X20101Y29851
X19101Y31001
X18101Y29851
X17101Y31001
X16101Y29851
X17601Y24901
X19101Y24101
X20601Y24901
X16101Y24101
X26601Y24101
X28101Y24901
X29601Y24101
X31101Y24901
X37101Y24101
X38601Y24901
X40101Y24101
X41601Y24901
X47601Y24101
X49101Y24901
X50601Y24101
X52101Y24901
X58101Y24101
X59601Y24901
X61101Y24101
X62601Y24901
T13
X68601Y31321
X68601Y32881
X64381Y46101
X62821Y46101
X58381Y46101
X56821Y46101
X52151Y46101
X50591Y46101
X49031Y46101
X44381Y46101
X42821Y46101
X38381Y46101
X36821Y46101
X32151Y46101
X30591Y46101
X29031Y46101
X24651Y46101
X23091Y46101
X21531Y46101
X17151Y46101
X15591Y46101
X14031Y46101
X9151Y46101
X7591Y46101
X6031Y46101
X5101Y41881
X5101Y40321
X5101Y35881
X5101Y34321
X5101Y19381
X5101Y17821
X6071Y4601
X7631Y4601
X11071Y4601
X12631Y4601
X15821Y4601
X17381Y4601
X20821Y4601
X22381Y4601
T14
X29301Y5601
X31551Y5601
X34651Y5601
X37751Y5601
X42101Y5601
X34651Y10301
X31551Y10301
X29301Y10301
X29301Y14401
X31551Y14401
X34651Y14401
X37751Y14401
X45101Y14401
X49801Y14401
X52051Y14401
X55151Y14401
X58251Y14401
X55151Y10301
X52051Y10301
X49801Y10301
X49801Y5601
X52051Y5601
X55151Y5601
X58251Y5601
X62601Y5601
X24601Y14401
X18601Y37601
T15
X63201Y40601
T16
X1601Y1601
X1601Y49601
X70601Y49601
X70601Y1601
M30
