G75*
G70*
%OFA0B0*%
%FSLAX24Y24*%
%IPPOS*%
%LPD*%
%AMOC8*
5,1,8,0,0,1.08239X$1,22.5*
%
%ADD10C,0.1740*%
%ADD11C,0.1070*%
%ADD12C,0.0680*%
%ADD13C,0.0520*%
%ADD14C,0.0966*%
%ADD15C,0.1080*%
%ADD16OC8,0.1080*%
%ADD17OC8,0.0600*%
%ADD18C,0.0740*%
%ADD19C,0.1380*%
%ADD20OC8,0.0700*%
%ADD21C,0.0700*%
%ADD22C,0.0905*%
%ADD23C,0.0600*%
%ADD24C,0.0789*%
%ADD25C,0.0671*%
%ADD26C,0.0611*%
%ADD27C,0.0730*%
%ADD28C,0.0480*%
%ADD29C,0.0516*%
%ADD30C,0.1975*%
%ADD31C,0.0555*%
%ADD32C,0.2620*%
D10*
X024601Y014401D03*
X029301Y014401D03*
X031551Y014401D03*
X034651Y014401D03*
X037751Y014401D03*
X034651Y010301D03*
X031551Y010301D03*
X029301Y010301D03*
X029301Y005601D03*
X031551Y005601D03*
X034651Y005601D03*
X037751Y005601D03*
X042101Y005601D03*
X049801Y005601D03*
X052051Y005601D03*
X055151Y005601D03*
X058251Y005601D03*
X062601Y005601D03*
X055151Y010301D03*
X052051Y010301D03*
X049801Y010301D03*
X049801Y014401D03*
X052051Y014401D03*
X055151Y014401D03*
X058251Y014401D03*
X045101Y014401D03*
D11*
X022381Y005096D02*
X022381Y004106D01*
X020821Y004106D02*
X020821Y005096D01*
X017381Y005096D02*
X017381Y004106D01*
X015821Y004106D02*
X015821Y005096D01*
X012631Y005096D02*
X012631Y004106D01*
X011071Y004106D02*
X011071Y005096D01*
X007631Y005096D02*
X007631Y004106D01*
X006071Y004106D02*
X006071Y005096D01*
X005596Y017821D02*
X004606Y017821D01*
X004606Y019381D02*
X005596Y019381D01*
X005596Y034321D02*
X004606Y034321D01*
X004606Y035881D02*
X005596Y035881D01*
X005596Y040321D02*
X004606Y040321D01*
X004606Y041881D02*
X005596Y041881D01*
X006031Y045606D02*
X006031Y046596D01*
X007591Y046596D02*
X007591Y045606D01*
X009151Y045606D02*
X009151Y046596D01*
X014031Y046596D02*
X014031Y045606D01*
X015591Y045606D02*
X015591Y046596D01*
X017151Y046596D02*
X017151Y045606D01*
X021531Y045606D02*
X021531Y046596D01*
X023091Y046596D02*
X023091Y045606D01*
X024651Y045606D02*
X024651Y046596D01*
X029031Y046596D02*
X029031Y045606D01*
X030591Y045606D02*
X030591Y046596D01*
X032151Y046596D02*
X032151Y045606D01*
X036821Y045606D02*
X036821Y046596D01*
X038381Y046596D02*
X038381Y045606D01*
X042821Y045606D02*
X042821Y046596D01*
X044381Y046596D02*
X044381Y045606D01*
X049031Y045606D02*
X049031Y046596D01*
X050591Y046596D02*
X050591Y045606D01*
X052151Y045606D02*
X052151Y046596D01*
X056821Y046596D02*
X056821Y045606D01*
X058381Y045606D02*
X058381Y046596D01*
X062821Y046596D02*
X062821Y045606D01*
X064381Y045606D02*
X064381Y046596D01*
X068106Y032881D02*
X069096Y032881D01*
X069096Y031321D02*
X068106Y031321D01*
D12*
X068301Y035601D02*
X068901Y035601D01*
X068901Y036601D02*
X068301Y036601D01*
X060851Y034651D02*
X060851Y034051D01*
X059851Y034051D02*
X059851Y034651D01*
X050101Y034551D02*
X050101Y035151D01*
X049101Y035151D02*
X049101Y034551D01*
X039851Y034551D02*
X039851Y035151D01*
X038851Y035151D02*
X038851Y034551D01*
X068301Y045101D02*
X068901Y045101D01*
X068901Y046101D02*
X068301Y046101D01*
X068801Y026101D02*
X069401Y026101D01*
X069401Y025101D02*
X068801Y025101D01*
X068801Y024101D02*
X069401Y024101D01*
X069401Y023101D02*
X068801Y023101D01*
X004901Y022601D02*
X004301Y022601D01*
X004301Y023601D02*
X004901Y023601D01*
X004901Y024601D02*
X004301Y024601D01*
X004301Y027101D02*
X004901Y027101D01*
X004901Y028101D02*
X004301Y028101D01*
X004301Y029101D02*
X004901Y029101D01*
D13*
X068101Y007601D03*
X069101Y007601D03*
X070101Y007601D03*
X070101Y004601D03*
X069101Y004601D03*
X068101Y004601D03*
D14*
X061101Y023658D02*
X061101Y024544D01*
X059601Y024458D02*
X059601Y025344D01*
X058101Y024544D02*
X058101Y023658D01*
X062601Y024458D02*
X062601Y025344D01*
X062101Y029658D02*
X062101Y030544D01*
X063101Y030558D02*
X063101Y031444D01*
X061101Y031444D02*
X061101Y030558D01*
X060101Y030294D02*
X060101Y029408D01*
X059101Y030558D02*
X059101Y031444D01*
X058101Y030294D02*
X058101Y029408D01*
X052601Y030558D02*
X052601Y031444D01*
X051601Y030544D02*
X051601Y029658D01*
X050601Y030558D02*
X050601Y031444D01*
X049601Y030294D02*
X049601Y029408D01*
X048601Y030558D02*
X048601Y031444D01*
X047601Y030294D02*
X047601Y029408D01*
X049101Y025344D02*
X049101Y024458D01*
X050601Y024544D02*
X050601Y023658D01*
X052101Y024458D02*
X052101Y025344D01*
X047601Y024544D02*
X047601Y023658D01*
X041601Y024458D02*
X041601Y025344D01*
X040101Y024544D02*
X040101Y023658D01*
X038601Y024458D02*
X038601Y025344D01*
X037101Y024544D02*
X037101Y023658D01*
X031101Y024458D02*
X031101Y025344D01*
X029601Y024544D02*
X029601Y023658D01*
X028101Y024458D02*
X028101Y025344D01*
X026601Y024544D02*
X026601Y023658D01*
X020601Y024458D02*
X020601Y025344D01*
X019101Y024544D02*
X019101Y023658D01*
X017601Y024458D02*
X017601Y025344D01*
X016101Y024544D02*
X016101Y023658D01*
X016101Y029408D02*
X016101Y030294D01*
X017101Y030558D02*
X017101Y031444D01*
X018101Y030294D02*
X018101Y029408D01*
X019101Y030558D02*
X019101Y031444D01*
X020101Y030294D02*
X020101Y029408D01*
X021101Y030558D02*
X021101Y031444D01*
X026601Y030294D02*
X026601Y029408D01*
X027601Y030558D02*
X027601Y031444D01*
X028601Y030294D02*
X028601Y029408D01*
X029601Y030558D02*
X029601Y031444D01*
X030601Y030544D02*
X030601Y029658D01*
X031601Y030558D02*
X031601Y031444D01*
X037101Y030294D02*
X037101Y029408D01*
X038101Y030558D02*
X038101Y031444D01*
X039101Y030294D02*
X039101Y029408D01*
X040101Y030558D02*
X040101Y031444D01*
X041101Y030544D02*
X041101Y029658D01*
X042101Y030558D02*
X042101Y031444D01*
D15*
X067601Y018101D03*
X067601Y012101D03*
D16*
X069601Y012101D03*
X069601Y018101D03*
D17*
X064851Y019601D03*
X064851Y016601D03*
X031601Y038601D03*
X031601Y041601D03*
X027601Y036101D03*
X027601Y034601D03*
X024601Y034601D03*
X024601Y036101D03*
D18*
X068771Y039601D02*
X069431Y039601D01*
X069431Y040601D02*
X068771Y040601D01*
X068771Y041601D02*
X069431Y041601D01*
D19*
X063201Y040601D03*
D20*
X062601Y036601D03*
X065601Y036601D03*
D21*
X065601Y035601D03*
X062601Y035601D03*
D22*
X060513Y043601D02*
X059688Y043601D01*
X065688Y043601D02*
X066513Y043601D01*
X064013Y021101D02*
X063188Y021101D01*
X058013Y021101D02*
X057188Y021101D01*
X053513Y021101D02*
X052688Y021101D01*
X047513Y021101D02*
X046688Y021101D01*
X042513Y021101D02*
X041688Y021101D01*
X036513Y021101D02*
X035688Y021101D01*
X032013Y021101D02*
X031188Y021101D01*
X026013Y021101D02*
X025188Y021101D01*
X021513Y021101D02*
X020688Y021101D01*
X015513Y021101D02*
X014688Y021101D01*
D23*
X023101Y038081D02*
X023101Y038601D01*
X024101Y038601D02*
X024101Y038081D01*
X025101Y038081D02*
X025101Y038601D01*
X026101Y038601D02*
X026101Y038081D01*
X027101Y038081D02*
X027101Y038601D01*
X028101Y038601D02*
X028101Y038081D01*
X029101Y038081D02*
X029101Y038601D01*
X030101Y038601D02*
X030101Y038081D01*
X030101Y041601D02*
X030101Y042121D01*
X029101Y042121D02*
X029101Y041601D01*
X028101Y041601D02*
X028101Y042121D01*
X027101Y042121D02*
X027101Y041601D01*
X026101Y041601D02*
X026101Y042121D01*
X025101Y042121D02*
X025101Y041601D01*
X024101Y041601D02*
X024101Y042121D01*
X023101Y042121D02*
X023101Y041601D01*
D24*
X051101Y016601D03*
X052951Y016601D03*
X058601Y011601D03*
X025101Y011101D03*
D25*
X028101Y013101D03*
X013101Y016101D03*
X004601Y012101D03*
X047301Y008101D03*
X062101Y008601D03*
X052601Y041601D03*
D26*
X051651Y044101D03*
X049091Y044601D03*
X040601Y044601D03*
X038601Y044101D03*
X036821Y044821D03*
X036101Y037101D03*
X039101Y027601D03*
X041601Y027601D03*
X043101Y027101D03*
X039101Y021601D03*
X029401Y026601D03*
X024601Y026601D03*
X059101Y049101D03*
X059851Y038601D03*
D27*
X040101Y039601D03*
X036101Y034601D03*
X014351Y040351D03*
D28*
X022601Y006101D03*
D29*
X058851Y022601D03*
D30*
X001601Y001601D03*
X001601Y049601D03*
X070601Y049601D03*
X070601Y001601D03*
D31*
X017101Y026601D03*
D32*
X018601Y037601D03*
M02*
