%
M48
M72
T01C0.0120
T02C0.0150
T03C0.0236
T04C0.0240
T05C0.0320
T06C0.0354
T07C0.0394
T08C0.0400
T09C0.0630
T10C0.1300
T11C0.1500
%
T01
X18639Y14344
X19619Y14594
X23659Y17014
X22989Y17684
X24349Y18214
X24349Y19184
X24189Y20414
X24629Y20574
X24849Y21174
X24109Y22024
X24339Y22304
X23629Y22474
X23469Y21964
X22029Y21974
X20999Y21974
X20309Y21214
X19509Y21854
X19439Y22284
X19169Y24354
X19329Y25374
X18279Y25374
X20799Y26844
X21239Y27154
X20839Y27834
X21239Y28094
X23529Y29354
X23529Y31064
X21149Y25134
X21149Y24614
X25739Y22094
X26609Y21594
X31213Y19484
X29109Y17974
X28149Y17014
X33509Y19484
X35479Y15484
X35479Y12334
X39009Y11984
X38039Y24434
X35689Y24434
X15619Y18594
X14339Y24354
X15459Y24844
X10839Y26814
X10559Y27514
X4889Y26714
T02
X3879Y27344
X3599Y27014
X6089Y27864
X9939Y27864
X13149Y27554
X19829Y21324
X22199Y20314
X23409Y20354
X24999Y20644
X25579Y21494
X23609Y22924
X22979Y22104
X28009Y20914
X28789Y20914
X28389Y19134
X33299Y15594
X34839Y11484
X19629Y15394
X16339Y12544
X7819Y18034
X25219Y26104
X25979Y25664
X26889Y25664
X27319Y26104
T03
X41819Y23504
X45659Y21544
T04
X19159Y23544
T05
X17129Y30294
X15129Y30294
X18159Y16544
X19159Y16544
X20659Y15044
X21659Y15044
X24159Y15044
X24159Y14044
X22159Y13544
X21159Y13544
X20159Y13544
X19159Y13544
X18159Y13544
X17159Y13544
X16159Y13544
X15159Y13544
X16159Y15544
X17159Y15544
X24159Y12544
X24159Y11544
X22159Y10544
X21159Y10544
X20159Y10544
X19159Y10544
X18159Y10544
X17159Y10544
X16159Y10544
X15159Y10544
X34259Y11344
X34259Y12344
X35959Y13244
X36959Y13244
X37959Y13244
X38959Y13244
X39959Y13244
X40959Y13244
X41959Y13244
X41959Y10244
X40959Y10244
X39959Y10244
X38959Y10244
X37959Y10244
X36959Y10244
X35959Y10244
X39819Y26204
X41819Y26204
T06
X1809Y26458
X1809Y28190
T07
X8549Y30424
X9549Y30424
X10549Y30424
X2459Y22354
X2459Y21354
X2459Y20354
X2519Y18034
X2519Y17034
X2519Y16034
X2499Y12974
X2499Y11974
X2499Y10974
X46759Y12944
X46759Y13944
X46889Y16914
X46889Y17914
X46559Y20884
X46559Y21884
X46859Y10044
X46859Y9044
X46859Y8044
X46859Y7044
T08
X33819Y7544
X32739Y7544
X31659Y7544
X30579Y7544
X29499Y7544
X30039Y6544
X31119Y6544
X32199Y6544
X33279Y6544
X17319Y7544
X16239Y7544
X15159Y7544
X14079Y7544
X12999Y7544
X13539Y6544
X14619Y6544
X15699Y6544
X16779Y6544
X17529Y18544
X18529Y18544
X19529Y18544
X20529Y18544
X21529Y18544
X22529Y18544
T09
X43979Y28824
X46179Y29314
T10
X36589Y7044
X26729Y7044
X20089Y7044
X10229Y7044
T11
X1659Y4544
X1659Y31644
X48659Y31644
X48759Y4444
M30
