G75*
G70*
%OFA0B0*%
%FSLAX24Y24*%
%IPPOS*%
%LPD*%
%AMOC8*
5,1,8,0,0,1.08239X$1,22.5*
%
%ADD10OC8,0.0600*%
%ADD11C,0.2000*%
%ADD12C,0.0520*%
%ADD13OC8,0.0560*%
%ADD14R,0.0945X0.0945*%
%ADD15C,0.0594*%
%ADD16C,0.0600*%
%ADD17C,0.0750*%
%ADD18OC8,0.0750*%
%ADD19C,0.0100*%
%ADD20C,0.0280*%
%ADD21C,0.0310*%
%ADD22C,0.0160*%
%ADD23R,0.0396X0.0396*%
%ADD24C,0.0080*%
%ADD25C,0.0400*%
D10*
X016535Y007544D03*
X017615Y007544D03*
X018695Y007544D03*
X019775Y007544D03*
X020855Y007544D03*
X020315Y006544D03*
X019235Y006544D03*
X018155Y006544D03*
X017075Y006544D03*
X033035Y007544D03*
X034115Y007544D03*
X035195Y007544D03*
X036275Y007544D03*
X037355Y007544D03*
X036815Y006544D03*
X035735Y006544D03*
X034655Y006544D03*
X033575Y006544D03*
D11*
X030265Y007044D03*
X023625Y007044D03*
X013765Y007044D03*
X040125Y007044D03*
D12*
X035195Y010284D02*
X035195Y010804D01*
X034195Y010804D02*
X034195Y010284D01*
X033195Y010284D02*
X033195Y010804D01*
X032195Y010804D02*
X032195Y010284D01*
X031195Y010284D02*
X031195Y010804D01*
X030195Y010804D02*
X030195Y010284D01*
X029195Y010284D02*
X029195Y010804D01*
X028195Y010804D02*
X028195Y010284D01*
X028195Y013284D02*
X028195Y013804D01*
X029195Y013804D02*
X029195Y013284D01*
X030195Y013284D02*
X030195Y013804D01*
X031195Y013804D02*
X031195Y013284D01*
X032195Y013284D02*
X032195Y013804D01*
X033195Y013804D02*
X033195Y013284D01*
X034195Y013284D02*
X034195Y013804D01*
X035195Y013804D02*
X035195Y013284D01*
X014395Y013504D02*
X014395Y012984D01*
X013395Y012984D02*
X013395Y013504D01*
X012395Y013504D02*
X012395Y012984D01*
X011395Y012984D02*
X011395Y013504D01*
X010395Y013504D02*
X010395Y012984D01*
X009395Y012984D02*
X009395Y013504D01*
X008395Y013504D02*
X008395Y012984D01*
X008395Y010504D02*
X008395Y009984D01*
X009395Y009984D02*
X009395Y010504D01*
X010395Y010504D02*
X010395Y009984D01*
X011395Y009984D02*
X011395Y010504D01*
X012395Y010504D02*
X012395Y009984D01*
X013395Y009984D02*
X013395Y010504D01*
X014395Y010504D02*
X014395Y009984D01*
D13*
X016095Y011344D03*
X016095Y012344D03*
X026195Y012544D03*
X026195Y011544D03*
X026195Y014044D03*
X026195Y015044D03*
X028695Y015044D03*
X029695Y015044D03*
X031195Y016544D03*
X032195Y016544D03*
X033195Y015544D03*
X034195Y015544D03*
D14*
X006375Y028824D03*
X004175Y029314D03*
D15*
X003791Y007044D02*
X003198Y007044D01*
X003198Y008044D02*
X003791Y008044D01*
X003791Y009044D02*
X003198Y009044D01*
X003198Y010044D02*
X003791Y010044D01*
X003891Y012944D02*
X003298Y012944D01*
X003298Y013944D02*
X003891Y013944D01*
X003761Y016914D02*
X003168Y016914D01*
X003168Y017914D02*
X003761Y017914D01*
X003498Y020884D02*
X004091Y020884D01*
X004091Y021884D02*
X003498Y021884D01*
X039805Y030127D02*
X039805Y030721D01*
X040805Y030721D02*
X040805Y030127D01*
X041805Y030127D02*
X041805Y030721D01*
X047598Y022354D02*
X048191Y022354D01*
X048191Y021354D02*
X047598Y021354D01*
X047598Y020354D02*
X048191Y020354D01*
X048131Y018034D02*
X047538Y018034D01*
X047538Y017034D02*
X048131Y017034D01*
X048131Y016034D02*
X047538Y016034D01*
X047558Y012974D02*
X048151Y012974D01*
X048151Y011974D02*
X047558Y011974D01*
X047558Y010974D02*
X048151Y010974D01*
D16*
X032825Y018244D02*
X032825Y018844D01*
X031825Y018844D02*
X031825Y018244D01*
X030825Y018244D02*
X030825Y018844D01*
X029825Y018844D02*
X029825Y018244D01*
X028825Y018244D02*
X028825Y018844D01*
X027825Y018844D02*
X027825Y018244D01*
D17*
X010535Y026204D03*
X033225Y030294D03*
D18*
X035225Y030294D03*
X008535Y026204D03*
D19*
X006695Y029044D02*
X006375Y028824D01*
X006695Y029044D02*
X040695Y029044D01*
X041695Y030044D01*
X041805Y030424D01*
X040415Y027864D02*
X044265Y027864D01*
X045215Y027004D02*
X045785Y027014D01*
X046755Y027014D01*
X046475Y027344D02*
X046435Y027354D01*
X039965Y027354D01*
X039965Y027344D01*
X039795Y027514D01*
X040135Y027169D02*
X039380Y027169D01*
X036905Y024604D01*
X036915Y024094D02*
X029095Y024094D01*
X027795Y022804D01*
X026745Y022924D01*
X026725Y022474D02*
X027765Y022474D01*
X029175Y023884D01*
X036995Y023884D01*
X039830Y026719D01*
X045235Y026714D01*
X045465Y026714D01*
X045445Y026724D01*
X045215Y027004D02*
X040205Y027004D01*
X040205Y027014D01*
X040135Y027014D01*
X040135Y027169D01*
X039515Y026814D02*
X036915Y024094D01*
X036015Y024354D02*
X031185Y024354D01*
X031025Y025374D02*
X032075Y025374D01*
X031565Y027554D02*
X029865Y025854D01*
X029865Y025824D01*
X029205Y025134D01*
X027485Y024844D02*
X026035Y023364D01*
X026015Y022304D01*
X026245Y022024D02*
X026885Y021964D01*
X026755Y021484D02*
X027375Y022104D01*
X026755Y021484D02*
X025785Y021484D01*
X025505Y021174D01*
X025355Y020644D02*
X019795Y015594D01*
X017055Y015594D01*
X014875Y015484D02*
X017365Y017974D01*
X021245Y017974D01*
X022205Y017014D02*
X026695Y017014D01*
X027365Y017684D02*
X028065Y017684D01*
X028105Y017724D01*
X035715Y017724D01*
X036405Y017034D01*
X047835Y017034D01*
X047835Y018034D02*
X042535Y018034D01*
X047895Y020354D02*
X036975Y020354D01*
X036005Y021324D01*
X030525Y021324D01*
X030045Y021214D02*
X030705Y020554D01*
X032775Y020554D01*
X034735Y018594D01*
X037125Y021354D02*
X036555Y021924D01*
X031145Y021924D01*
X031075Y021854D01*
X030845Y021854D01*
X030915Y022284D02*
X031245Y022354D01*
X047895Y022354D01*
X047895Y021354D02*
X037125Y021354D01*
X029355Y021974D02*
X028325Y021974D01*
X028695Y020904D02*
X026485Y020904D01*
X026455Y020874D01*
X026455Y020064D01*
X027805Y018714D01*
X027805Y018444D01*
X027825Y018464D01*
X027825Y018544D01*
X026005Y018214D02*
X025985Y018214D01*
X028575Y015624D01*
X029705Y015624D01*
X030735Y014594D01*
X030685Y014924D02*
X031135Y014924D01*
X031715Y014344D01*
X032725Y014364D02*
X032725Y012784D01*
X032965Y012544D01*
X034015Y012544D01*
X032725Y014364D02*
X031695Y015394D01*
X030725Y015394D01*
X030685Y014924D02*
X029565Y016044D01*
X028645Y016044D01*
X025725Y018964D01*
X025725Y020574D01*
X025985Y020194D02*
X026165Y020374D01*
X026165Y020414D01*
X025985Y020194D02*
X026005Y019184D01*
X026945Y020354D02*
X028155Y020314D01*
X026485Y020904D02*
X022345Y020904D01*
X022345Y020914D01*
X021565Y020914D02*
X021565Y020904D01*
X004195Y020904D01*
X003795Y020884D01*
X012315Y024434D02*
X014665Y024434D01*
X021965Y021614D02*
X021965Y019134D01*
X019141Y019484D02*
X016845Y019484D01*
X021965Y021614D02*
X022440Y022089D01*
X024615Y022094D01*
X024775Y021494D02*
X023745Y021594D01*
X023465Y025664D02*
X024375Y025664D01*
X025135Y026104D02*
X023035Y026104D01*
X026825Y029354D02*
X026825Y031064D01*
X029115Y028094D02*
X029115Y027154D01*
X029555Y026844D02*
X029515Y027834D01*
X031565Y027554D02*
X037205Y027554D01*
X028195Y014544D02*
X026695Y014544D01*
X026195Y014044D01*
X028195Y014544D02*
X029195Y013544D01*
X026195Y012544D02*
X024195Y014544D01*
X005195Y014544D01*
X003595Y012944D01*
X007695Y013044D02*
X007695Y014044D01*
X023695Y014044D01*
X025695Y012044D01*
X047695Y012044D01*
X047855Y011974D01*
X047195Y011544D02*
X027195Y011544D01*
X026195Y011544D01*
X017195Y011544D01*
X016195Y012544D01*
X016095Y012344D01*
X016195Y012544D02*
X015695Y013044D01*
X014595Y013044D01*
X014395Y013244D01*
X013395Y013244D02*
X012695Y012544D01*
X010695Y012544D01*
X010195Y013044D01*
X010395Y013244D01*
X011345Y011984D02*
X011655Y011674D01*
X014215Y011674D01*
X014875Y012334D01*
X015515Y011484D02*
X014395Y010244D01*
X011395Y010244D02*
X008195Y007044D01*
X003495Y007044D01*
X003495Y010044D02*
X008195Y010044D01*
X008395Y010244D01*
X010195Y010544D02*
X010395Y010244D01*
X010195Y010544D02*
X007695Y013044D01*
X016535Y007544D02*
X016695Y007544D01*
X018695Y009544D01*
X028195Y009544D01*
X029195Y010544D01*
X030195Y010544D02*
X028695Y009044D01*
X020195Y009044D01*
X018695Y007544D01*
X019695Y007544D02*
X019775Y007544D01*
X019695Y007544D02*
X020695Y008544D01*
X029195Y008544D01*
X031195Y010544D01*
X028195Y010544D02*
X027195Y011544D01*
X047195Y011544D02*
X047695Y011044D01*
X047855Y010974D01*
D20*
X034735Y018594D03*
X030845Y021854D03*
X030915Y022284D03*
X030045Y021214D03*
X029355Y021974D03*
X028325Y021974D03*
X026885Y021964D03*
X026725Y022474D03*
X026245Y022024D03*
X026015Y022304D03*
X024615Y022094D03*
X023745Y021594D03*
X025505Y021174D03*
X025725Y020574D03*
X026165Y020414D03*
X026005Y019184D03*
X026005Y018214D03*
X026695Y017014D03*
X027365Y017684D03*
X030735Y014594D03*
X031715Y014344D03*
X022205Y017014D03*
X021245Y017974D03*
X019141Y019484D03*
X016845Y019484D03*
X014875Y015484D03*
X014875Y012334D03*
X011345Y011984D03*
X012315Y024434D03*
X014665Y024434D03*
X026825Y029354D03*
X029115Y028094D03*
X029515Y027834D03*
X029115Y027154D03*
X029555Y026844D03*
X031025Y025374D03*
X032075Y025374D03*
X031185Y024354D03*
X029205Y024614D03*
X029205Y025134D03*
X034895Y024844D03*
X036015Y024354D03*
X039515Y026814D03*
X039795Y027514D03*
X045465Y026714D03*
X026825Y031064D03*
D21*
X025135Y026104D03*
X024375Y025664D03*
X023465Y025664D03*
X023035Y026104D03*
X026745Y022924D03*
X027375Y022104D03*
X025355Y020644D03*
X024775Y021494D03*
X026945Y020354D03*
X028155Y020314D03*
X030525Y021324D03*
X022345Y020914D03*
X021565Y020914D03*
X021965Y019134D03*
X017055Y015594D03*
X015515Y011484D03*
X030725Y015394D03*
X034015Y012544D03*
X042535Y018034D03*
X046755Y027014D03*
X046475Y027344D03*
X044265Y027864D03*
X040415Y027864D03*
X037205Y027554D03*
D22*
X008535Y023504D02*
X006575Y021544D01*
X004695Y021544D01*
D23*
X004695Y021544D03*
X008535Y023504D03*
D24*
X027485Y024844D02*
X034895Y024844D01*
X036905Y024604D02*
X029205Y024614D01*
X031195Y023544D02*
X028695Y020904D01*
D25*
X031195Y023544D03*
M02*
