%
M48
M72
T01C0.0320
T02C0.0400
T03C0.0440
T04C0.0660
T05C0.1300
%
T01
X7140Y921
X8140Y921
X9140Y921
X10140Y921
X11140Y921
X12140Y921
X13140Y921
X13140Y3921
X12140Y3921
X13140Y5171
X11140Y3921
X10140Y3921
X9140Y3921
X8140Y3921
X7140Y3921
X8390Y9421
X9390Y9421
X10390Y9421
X11390Y9421
X12890Y9671
X13140Y8171
X11390Y12421
X10390Y12421
X9390Y12421
X8390Y12421
X7390Y14171
X8890Y16671
X9890Y16671
X11390Y16671
X12390Y16671
X12140Y14171
X13140Y14171
X12890Y12671
X10390Y14171
T02
X10390Y18671
X11390Y18671
X9390Y18671
T03
X7390Y17671
X7390Y16671
X7390Y15671
T04
X8320Y6171
X9880Y6171
X11440Y6171
T05
X1490Y16671
M30
