G75*
G70*
%OFA0B0*%
%FSLAX24Y24*%
%IPPOS*%
%LPD*%
%AMOC8*
5,1,8,0,0,1.08239X$1,22.5*
%
%ADD10C,0.0600*%
%ADD11C,0.1070*%
%ADD12C,0.0680*%
%ADD13OC8,0.0600*%
%ADD14OC8,0.0710*%
%ADD15C,0.0710*%
%ADD16C,0.0740*%
%ADD17C,0.1380*%
D10*
X007140Y000661D02*
X007140Y001181D01*
X008140Y001181D02*
X008140Y000661D01*
X009140Y000661D02*
X009140Y001181D01*
X010140Y001181D02*
X010140Y000661D01*
X011140Y000661D02*
X011140Y001181D01*
X012140Y001181D02*
X012140Y000661D01*
X013140Y000661D02*
X013140Y001181D01*
X013140Y003661D02*
X013140Y004181D01*
X012140Y004181D02*
X012140Y003661D01*
X011140Y003661D02*
X011140Y004181D01*
X010140Y004181D02*
X010140Y003661D01*
X009140Y003661D02*
X009140Y004181D01*
X008140Y004181D02*
X008140Y003661D01*
X007140Y003661D02*
X007140Y004181D01*
X008390Y009161D02*
X008390Y009681D01*
X009390Y009681D02*
X009390Y009161D01*
X010390Y009161D02*
X010390Y009681D01*
X011390Y009681D02*
X011390Y009161D01*
X011390Y012161D02*
X011390Y012681D01*
X010390Y012681D02*
X010390Y012161D01*
X009390Y012161D02*
X009390Y012681D01*
X008390Y012681D02*
X008390Y012161D01*
X007650Y014171D02*
X007130Y014171D01*
X010130Y014171D02*
X010650Y014171D01*
D11*
X009880Y006666D02*
X009880Y005676D01*
X011440Y005676D02*
X011440Y006666D01*
X008320Y006666D02*
X008320Y005676D01*
D12*
X009390Y018371D02*
X009390Y018971D01*
X010390Y018971D02*
X010390Y018371D01*
X011390Y018371D02*
X011390Y018971D01*
D13*
X012890Y012671D03*
X012890Y009671D03*
X013140Y008171D03*
X013140Y005171D03*
D14*
X013140Y014171D03*
X012390Y016671D03*
X009890Y016671D03*
D15*
X008890Y016671D03*
X011390Y016671D03*
X012140Y014171D03*
D16*
X007720Y015671D02*
X007060Y015671D01*
X007060Y016671D02*
X007720Y016671D01*
X007720Y017671D02*
X007060Y017671D01*
D17*
X001490Y016671D03*
M02*
