G75*
G70*
%OFA0B0*%
%FSLAX24Y24*%
%IPPOS*%
%LPD*%
%AMOC8*
5,1,8,0,0,1.08239X$1,22.5*
%
%ADD10C,0.0000*%
%ADD11C,0.0060*%
%ADD12C,0.0050*%
%ADD13C,0.0040*%
%ADD14C,0.0020*%
%ADD15C,0.0160*%
%ADD16C,0.0080*%
%ADD17C,0.0120*%
%ADD18R,0.0400X0.0400*%
%ADD19R,0.0200X0.0200*%
%ADD20C,0.0100*%
%ADD21C,0.0070*%
%ADD22R,0.0250X0.1000*%
%ADD23R,0.0150X0.0200*%
D10*
X000101Y000101D02*
X000101Y050971D01*
X072093Y050971D01*
X072093Y000101D01*
X000101Y000101D01*
D11*
X006667Y006538D02*
X006774Y006431D01*
X006881Y006431D01*
X006987Y006538D01*
X006987Y007071D01*
X006881Y007071D02*
X007094Y007071D01*
X007312Y006858D02*
X007525Y007071D01*
X007525Y006431D01*
X007312Y006431D02*
X007739Y006431D01*
X007956Y006431D02*
X008383Y006858D01*
X008383Y006965D01*
X008276Y007071D01*
X008063Y007071D01*
X007956Y006965D01*
X007956Y006431D02*
X008383Y006431D01*
X011667Y006538D02*
X011774Y006431D01*
X011881Y006431D01*
X011987Y006538D01*
X011987Y007071D01*
X011881Y007071D02*
X012094Y007071D01*
X012312Y006858D02*
X012525Y007071D01*
X012525Y006431D01*
X012312Y006431D02*
X012739Y006431D01*
X012956Y006751D02*
X013383Y006751D01*
X013276Y006431D02*
X013276Y007071D01*
X012956Y006751D01*
X016417Y006538D02*
X016524Y006431D01*
X016631Y006431D01*
X016737Y006538D01*
X016737Y007071D01*
X016631Y007071D02*
X016844Y007071D01*
X017062Y006858D02*
X017275Y007071D01*
X017275Y006431D01*
X017062Y006431D02*
X017489Y006431D01*
X017706Y006538D02*
X017813Y006431D01*
X018026Y006431D01*
X018133Y006538D01*
X018133Y006644D01*
X018026Y006751D01*
X017920Y006751D01*
X018026Y006751D02*
X018133Y006858D01*
X018133Y006965D01*
X018026Y007071D01*
X017813Y007071D01*
X017706Y006965D01*
X020351Y004101D02*
X020851Y004101D01*
X020601Y003851D02*
X020601Y004351D01*
X022151Y004101D02*
X022251Y004101D01*
X022251Y004601D01*
X022501Y004601D01*
X022501Y003601D01*
X022251Y003601D01*
X022251Y004101D01*
X019851Y004101D02*
X019854Y004236D01*
X019864Y004371D01*
X019881Y004505D01*
X019904Y004637D01*
X019933Y004769D01*
X019969Y004899D01*
X020012Y005027D01*
X020060Y005153D01*
X020115Y005277D01*
X020176Y005397D01*
X020242Y005515D01*
X020314Y005629D01*
X020392Y005739D01*
X020475Y005846D01*
X020563Y005948D01*
X020656Y006046D01*
X020754Y006139D01*
X020856Y006227D01*
X020963Y006310D01*
X021073Y006388D01*
X021187Y006460D01*
X021305Y006526D01*
X021425Y006587D01*
X021549Y006642D01*
X021675Y006690D01*
X021803Y006733D01*
X021933Y006769D01*
X022065Y006798D01*
X022197Y006821D01*
X022331Y006838D01*
X022466Y006848D01*
X022601Y006851D01*
X022736Y006848D01*
X022871Y006838D01*
X023005Y006821D01*
X023137Y006798D01*
X023269Y006769D01*
X023399Y006733D01*
X023527Y006690D01*
X023653Y006642D01*
X023777Y006587D01*
X023897Y006526D01*
X024015Y006460D01*
X024129Y006388D01*
X024239Y006310D01*
X024346Y006227D01*
X024448Y006139D01*
X024546Y006046D01*
X024639Y005948D01*
X024727Y005846D01*
X024810Y005739D01*
X024888Y005629D01*
X024960Y005515D01*
X025026Y005397D01*
X025087Y005277D01*
X025142Y005153D01*
X025190Y005027D01*
X025233Y004899D01*
X025269Y004769D01*
X025298Y004637D01*
X025321Y004505D01*
X025338Y004371D01*
X025348Y004236D01*
X025351Y004101D01*
X025348Y003966D01*
X025338Y003831D01*
X025321Y003697D01*
X025298Y003565D01*
X025269Y003433D01*
X025233Y003303D01*
X025190Y003175D01*
X025142Y003049D01*
X025087Y002925D01*
X025026Y002805D01*
X024960Y002687D01*
X024888Y002573D01*
X024810Y002463D01*
X024727Y002356D01*
X024639Y002254D01*
X024546Y002156D01*
X024448Y002063D01*
X024346Y001975D01*
X024239Y001892D01*
X024129Y001814D01*
X024015Y001742D01*
X023897Y001676D01*
X023777Y001615D01*
X023653Y001560D01*
X023527Y001512D01*
X023399Y001469D01*
X023269Y001433D01*
X023137Y001404D01*
X023005Y001381D01*
X022871Y001364D01*
X022736Y001354D01*
X022601Y001351D01*
X022466Y001354D01*
X022331Y001364D01*
X022197Y001381D01*
X022065Y001404D01*
X021933Y001433D01*
X021803Y001469D01*
X021675Y001512D01*
X021549Y001560D01*
X021425Y001615D01*
X021305Y001676D01*
X021187Y001742D01*
X021073Y001814D01*
X020963Y001892D01*
X020856Y001975D01*
X020754Y002063D01*
X020656Y002156D01*
X020563Y002254D01*
X020475Y002356D01*
X020392Y002463D01*
X020314Y002573D01*
X020242Y002687D01*
X020176Y002805D01*
X020115Y002925D01*
X020060Y003049D01*
X020012Y003175D01*
X019969Y003303D01*
X019933Y003433D01*
X019904Y003565D01*
X019881Y003697D01*
X019864Y003831D01*
X019854Y003966D01*
X019851Y004101D01*
X022851Y004101D02*
X023051Y004101D01*
X007571Y017018D02*
X007571Y017124D01*
X007464Y017231D01*
X006930Y017231D01*
X006930Y017124D02*
X006930Y017338D01*
X007144Y017555D02*
X006930Y017769D01*
X007571Y017769D01*
X007571Y017982D02*
X007571Y017555D01*
X007571Y017018D02*
X007464Y016911D01*
X007464Y018200D02*
X007037Y018200D01*
X006930Y018307D01*
X006930Y018520D01*
X007037Y018627D01*
X007464Y018200D01*
X007571Y018307D01*
X007571Y018520D01*
X007464Y018627D01*
X007037Y018627D01*
X001821Y018133D02*
X001607Y018347D01*
X001180Y018347D01*
X001180Y017920D02*
X001607Y017920D01*
X001821Y018133D01*
X001821Y017702D02*
X001821Y017275D01*
X001394Y017702D01*
X001287Y017702D01*
X001180Y017596D01*
X001180Y017382D01*
X001287Y017275D01*
X001180Y016844D02*
X001821Y016844D01*
X001821Y016631D02*
X001821Y017058D01*
X001394Y016631D02*
X001180Y016844D01*
X001287Y019131D02*
X001714Y019131D01*
X001821Y019238D01*
X001821Y019451D01*
X001714Y019558D01*
X001501Y019558D01*
X001501Y019344D01*
X001287Y019131D02*
X001180Y019238D01*
X001180Y019451D01*
X001287Y019558D01*
X001180Y019775D02*
X001821Y020202D01*
X001180Y020202D01*
X001180Y020420D02*
X001180Y020740D01*
X001287Y020847D01*
X001714Y020847D01*
X001821Y020740D01*
X001821Y020420D01*
X001180Y020420D01*
X001180Y019775D02*
X001821Y019775D01*
X002787Y025131D02*
X003214Y025131D01*
X003321Y025238D01*
X003321Y025451D01*
X003214Y025558D01*
X003214Y025775D02*
X003321Y025882D01*
X003321Y026096D01*
X003214Y026202D01*
X002787Y026202D01*
X002680Y026096D01*
X002680Y025882D01*
X002787Y025775D01*
X003214Y025775D01*
X002787Y025558D02*
X002680Y025451D01*
X002680Y025238D01*
X002787Y025131D01*
X002787Y026420D02*
X002894Y026420D01*
X003001Y026527D01*
X003001Y026740D01*
X003107Y026847D01*
X003214Y026847D01*
X003321Y026740D01*
X003321Y026527D01*
X003214Y026420D01*
X002787Y026420D02*
X002680Y026527D01*
X002680Y026740D01*
X002787Y026847D01*
X002680Y027064D02*
X003321Y027064D01*
X003321Y027491D01*
X003321Y027709D02*
X002680Y027709D01*
X002680Y027491D02*
X002680Y027064D01*
X003001Y027064D02*
X003001Y027278D01*
X003321Y027709D02*
X003321Y028136D01*
X003214Y028998D02*
X003321Y029105D01*
X003321Y029318D01*
X003214Y029425D01*
X003107Y029425D01*
X003001Y029318D01*
X003001Y029105D01*
X002894Y028998D01*
X002787Y028998D01*
X002680Y029105D01*
X002680Y029318D01*
X002787Y029425D01*
X002680Y029642D02*
X003214Y029642D01*
X003321Y029749D01*
X003321Y029963D01*
X003214Y030069D01*
X002680Y030069D01*
X002680Y030287D02*
X002680Y030607D01*
X002787Y030714D01*
X003001Y030714D01*
X003107Y030607D01*
X003107Y030287D01*
X003321Y030287D02*
X002680Y030287D01*
X002680Y030932D02*
X002680Y031252D01*
X002787Y031359D01*
X003001Y031359D01*
X003107Y031252D01*
X003107Y030932D01*
X003321Y030932D02*
X002680Y030932D01*
X002680Y031576D02*
X003321Y031576D01*
X003321Y032003D01*
X003321Y032434D02*
X003001Y032434D01*
X002787Y032648D01*
X002680Y032648D01*
X003001Y032434D02*
X002787Y032221D01*
X002680Y032221D01*
X001821Y034631D02*
X001180Y034631D01*
X001821Y035058D01*
X001180Y035058D01*
X001180Y035275D02*
X001821Y035275D01*
X001821Y035702D01*
X001714Y035920D02*
X001821Y036027D01*
X001821Y036240D01*
X001714Y036347D01*
X001607Y036347D01*
X001501Y036240D01*
X001501Y036027D01*
X001394Y035920D01*
X001287Y035920D01*
X001180Y036027D01*
X001180Y036240D01*
X001287Y036347D01*
X001180Y036564D02*
X001821Y036564D01*
X001821Y036991D01*
X001821Y037209D02*
X001394Y037209D01*
X001180Y037422D01*
X001394Y037636D01*
X001821Y037636D01*
X001821Y037853D02*
X001180Y037853D01*
X001180Y038174D01*
X001287Y038280D01*
X001394Y038280D01*
X001501Y038174D01*
X001501Y037853D01*
X001501Y037636D02*
X001501Y037209D01*
X001821Y037853D02*
X001821Y038174D01*
X001714Y038280D01*
X001607Y038280D01*
X001501Y038174D01*
X001501Y039142D02*
X001501Y039569D01*
X001394Y039569D02*
X001821Y039569D01*
X001714Y039787D02*
X001821Y039894D01*
X001821Y040107D01*
X001714Y040214D01*
X001714Y039787D02*
X001287Y039787D01*
X001180Y039894D01*
X001180Y040107D01*
X001287Y040214D01*
X001394Y039569D02*
X001180Y039356D01*
X001394Y039142D01*
X001821Y039142D01*
X001180Y035702D02*
X001180Y035275D01*
X001501Y035275D02*
X001501Y035489D01*
X006930Y035624D02*
X006930Y035838D01*
X006930Y035731D02*
X007464Y035731D01*
X007571Y035624D01*
X007571Y035518D01*
X007464Y035411D01*
X007571Y036055D02*
X007571Y036482D01*
X007571Y036269D02*
X006930Y036269D01*
X007144Y036055D01*
X007251Y036700D02*
X007251Y037020D01*
X007357Y037127D01*
X007464Y037127D01*
X007571Y037020D01*
X007571Y036807D01*
X007464Y036700D01*
X007251Y036700D01*
X007037Y036913D01*
X006930Y037127D01*
X006735Y043351D02*
X006735Y043458D01*
X007162Y043885D01*
X007162Y043991D01*
X006735Y043991D01*
X006518Y043991D02*
X006304Y043991D01*
X006411Y043991D02*
X006411Y043458D01*
X006304Y043351D01*
X006198Y043351D01*
X006091Y043458D01*
X006096Y049131D02*
X006202Y049238D01*
X006096Y049131D02*
X005882Y049131D01*
X005775Y049238D01*
X005775Y049665D01*
X005882Y049771D01*
X006096Y049771D01*
X006202Y049665D01*
X005558Y049558D02*
X005558Y049131D01*
X005558Y049451D02*
X005131Y049451D01*
X005131Y049558D02*
X005131Y049131D01*
X005131Y049558D02*
X005344Y049771D01*
X005558Y049558D01*
X007064Y049771D02*
X007278Y049771D01*
X007171Y049771D02*
X007171Y049131D01*
X007064Y049131D02*
X007278Y049131D01*
X007494Y049131D02*
X007494Y049771D01*
X007921Y049131D01*
X007921Y049771D01*
X008139Y049771D02*
X008139Y049131D01*
X008139Y049344D02*
X008459Y049344D01*
X008566Y049451D01*
X008566Y049665D01*
X008459Y049771D01*
X008139Y049771D01*
X008783Y049771D02*
X008783Y049238D01*
X008890Y049131D01*
X009103Y049131D01*
X009210Y049238D01*
X009210Y049771D01*
X009428Y049771D02*
X009855Y049771D01*
X009641Y049771D02*
X009641Y049131D01*
X010631Y049131D02*
X010631Y049558D01*
X010844Y049771D01*
X011058Y049558D01*
X011058Y049131D01*
X011275Y049238D02*
X011382Y049131D01*
X011596Y049131D01*
X011702Y049238D01*
X011702Y049665D02*
X011596Y049771D01*
X011382Y049771D01*
X011275Y049665D01*
X011275Y049238D01*
X011058Y049451D02*
X010631Y049451D01*
X012564Y049451D02*
X012778Y049558D01*
X012885Y049558D01*
X012991Y049451D01*
X012991Y049238D01*
X012885Y049131D01*
X012671Y049131D01*
X012564Y049238D01*
X012564Y049451D02*
X012564Y049771D01*
X012991Y049771D01*
X013636Y049771D02*
X013209Y049131D01*
X013853Y049131D02*
X014280Y049131D01*
X014067Y049131D02*
X014067Y049771D01*
X013853Y049558D01*
X014498Y049665D02*
X014605Y049771D01*
X014818Y049771D01*
X014925Y049665D01*
X014925Y049558D01*
X014498Y049131D01*
X014925Y049131D01*
X015142Y049344D02*
X015356Y049131D01*
X015569Y049344D01*
X015569Y049771D01*
X015142Y049771D02*
X015142Y049344D01*
X016432Y049238D02*
X016538Y049131D01*
X016752Y049131D01*
X016859Y049238D01*
X016859Y049344D01*
X016752Y049451D01*
X016538Y049451D01*
X016432Y049558D01*
X016432Y049665D01*
X016538Y049771D01*
X016752Y049771D01*
X016859Y049665D01*
X017076Y049771D02*
X017076Y049238D01*
X017183Y049131D01*
X017396Y049131D01*
X017503Y049238D01*
X017503Y049771D01*
X017721Y049771D02*
X018041Y049771D01*
X018148Y049665D01*
X018148Y049451D01*
X018041Y049344D01*
X017721Y049344D01*
X017721Y049131D02*
X017721Y049771D01*
X018365Y049771D02*
X018365Y049131D01*
X018365Y049344D02*
X018685Y049344D01*
X018792Y049451D01*
X018792Y049665D01*
X018685Y049771D01*
X018365Y049771D01*
X019010Y049771D02*
X019010Y049131D01*
X019437Y049131D01*
X019868Y049131D02*
X019868Y049451D01*
X020081Y049665D01*
X020081Y049771D01*
X019868Y049451D02*
X019654Y049665D01*
X019654Y049771D01*
X021131Y049558D02*
X021131Y049131D01*
X021131Y049451D02*
X021558Y049451D01*
X021558Y049558D02*
X021558Y049131D01*
X021775Y049238D02*
X021775Y049665D01*
X021882Y049771D01*
X022096Y049771D01*
X022202Y049665D01*
X022202Y049238D02*
X022096Y049131D01*
X021882Y049131D01*
X021775Y049238D01*
X021558Y049558D02*
X021344Y049771D01*
X021131Y049558D01*
X023064Y049665D02*
X023064Y049238D01*
X023171Y049131D01*
X023385Y049131D01*
X023491Y049238D01*
X023709Y049238D02*
X023816Y049131D01*
X024029Y049131D01*
X024136Y049238D01*
X024136Y049665D01*
X024029Y049771D01*
X023816Y049771D01*
X023709Y049665D01*
X023709Y049238D01*
X023491Y049665D02*
X023385Y049771D01*
X023171Y049771D01*
X023064Y049665D01*
X024353Y049665D02*
X024353Y049558D01*
X024460Y049451D01*
X024674Y049451D01*
X024780Y049344D01*
X024780Y049238D01*
X024674Y049131D01*
X024460Y049131D01*
X024353Y049238D01*
X024353Y049665D02*
X024460Y049771D01*
X024674Y049771D01*
X024780Y049665D01*
X024998Y049771D02*
X024998Y049131D01*
X025425Y049131D01*
X025642Y049131D02*
X026069Y049131D01*
X025642Y049131D02*
X025642Y049771D01*
X025425Y049771D02*
X024998Y049771D01*
X024998Y049451D02*
X025211Y049451D01*
X028631Y049451D02*
X029058Y049451D01*
X029058Y049558D02*
X029058Y049131D01*
X029275Y049238D02*
X029382Y049131D01*
X029596Y049131D01*
X029702Y049238D01*
X029702Y049665D02*
X029596Y049771D01*
X029382Y049771D01*
X029275Y049665D01*
X029275Y049238D01*
X029058Y049558D02*
X028844Y049771D01*
X028631Y049558D01*
X028631Y049131D01*
X030564Y049131D02*
X030564Y049771D01*
X030885Y049771D01*
X030991Y049665D01*
X030991Y049451D01*
X030885Y049344D01*
X030564Y049344D01*
X031209Y049238D02*
X031209Y049771D01*
X031636Y049771D02*
X031636Y049238D01*
X031529Y049131D01*
X031316Y049131D01*
X031209Y049238D01*
X031853Y049131D02*
X031853Y049771D01*
X032067Y049558D01*
X032280Y049771D01*
X032280Y049131D01*
X032498Y049131D02*
X032498Y049771D01*
X032818Y049771D01*
X032925Y049665D01*
X032925Y049451D01*
X032818Y049344D01*
X032498Y049344D01*
X030056Y043991D02*
X029842Y043991D01*
X029735Y043885D01*
X029518Y043991D02*
X029304Y043991D01*
X029411Y043991D02*
X029411Y043458D01*
X029304Y043351D01*
X029198Y043351D01*
X029091Y043458D01*
X029735Y043351D02*
X030162Y043778D01*
X030162Y043885D01*
X030056Y043991D01*
X030162Y043351D02*
X029735Y043351D01*
X035911Y043738D02*
X036018Y043631D01*
X036124Y043631D01*
X036231Y043738D01*
X036231Y044271D01*
X036124Y044271D02*
X036338Y044271D01*
X036555Y043951D02*
X036876Y043951D01*
X036982Y043844D01*
X036982Y043738D01*
X036876Y043631D01*
X036662Y043631D01*
X036555Y043738D01*
X036555Y043951D01*
X036769Y044165D01*
X036982Y044271D01*
X041911Y043738D02*
X042018Y043631D01*
X042124Y043631D01*
X042231Y043738D01*
X042231Y044271D01*
X042124Y044271D02*
X042338Y044271D01*
X042555Y044058D02*
X042769Y044271D01*
X042769Y043631D01*
X042982Y043631D02*
X042555Y043631D01*
X049091Y043458D02*
X049198Y043351D01*
X049304Y043351D01*
X049411Y043458D01*
X049411Y043991D01*
X049304Y043991D02*
X049518Y043991D01*
X049735Y043671D02*
X050162Y043671D01*
X050056Y043351D02*
X050056Y043991D01*
X049735Y043671D01*
X055911Y043738D02*
X056018Y043631D01*
X056124Y043631D01*
X056231Y043738D01*
X056231Y044271D01*
X056124Y044271D02*
X056338Y044271D01*
X056555Y044271D02*
X056555Y043951D01*
X056769Y044058D01*
X056876Y044058D01*
X056982Y043951D01*
X056982Y043738D01*
X056876Y043631D01*
X056662Y043631D01*
X056555Y043738D01*
X056555Y044271D02*
X056982Y044271D01*
X056775Y048881D02*
X057202Y048881D01*
X057420Y048988D02*
X057527Y048881D01*
X057740Y048881D01*
X057847Y048988D01*
X057847Y049094D01*
X057740Y049201D01*
X057527Y049201D01*
X057420Y049308D01*
X057420Y049415D01*
X057527Y049521D01*
X057740Y049521D01*
X057847Y049415D01*
X058064Y049521D02*
X058064Y048881D01*
X058491Y048881D01*
X058278Y049201D02*
X058064Y049201D01*
X058064Y049521D02*
X058491Y049521D01*
X058709Y049521D02*
X059136Y049521D01*
X058922Y049521D02*
X058922Y048881D01*
X057202Y049521D02*
X056775Y049521D01*
X056775Y048881D01*
X056558Y048881D02*
X056344Y049094D01*
X056451Y049094D02*
X056131Y049094D01*
X056131Y048881D02*
X056131Y049521D01*
X056451Y049521D01*
X056558Y049415D01*
X056558Y049201D01*
X056451Y049094D01*
X056775Y049201D02*
X056989Y049201D01*
X054097Y048988D02*
X053990Y048881D01*
X053777Y048881D01*
X053670Y048988D01*
X053670Y049415D01*
X053777Y049521D01*
X053990Y049521D01*
X054097Y049415D01*
X053452Y049521D02*
X053025Y049521D01*
X053025Y049201D01*
X053239Y049308D01*
X053346Y049308D01*
X053452Y049201D01*
X053452Y048988D01*
X053346Y048881D01*
X053132Y048881D01*
X053025Y048988D01*
X052808Y049201D02*
X052381Y049201D01*
X052701Y049521D01*
X052701Y048881D01*
X051847Y048988D02*
X051740Y048881D01*
X051527Y048881D01*
X051420Y048988D01*
X051420Y049415D01*
X051527Y049521D01*
X051740Y049521D01*
X051847Y049415D01*
X051202Y049521D02*
X050775Y049521D01*
X050775Y049201D01*
X050989Y049308D01*
X051096Y049308D01*
X051202Y049201D01*
X051202Y048988D01*
X051096Y048881D01*
X050882Y048881D01*
X050775Y048988D01*
X050558Y049415D02*
X050131Y048988D01*
X050131Y048881D01*
X050131Y049521D02*
X050558Y049521D01*
X050558Y049415D01*
X049347Y049415D02*
X049347Y048988D01*
X049240Y048881D01*
X048920Y048881D01*
X048920Y049521D01*
X049240Y049521D01*
X049347Y049415D01*
X048702Y049521D02*
X048702Y048881D01*
X048275Y049521D01*
X048275Y048881D01*
X048058Y048988D02*
X048058Y049201D01*
X047844Y049201D01*
X047631Y048988D02*
X047738Y048881D01*
X047951Y048881D01*
X048058Y048988D01*
X048058Y049415D02*
X047951Y049521D01*
X047738Y049521D01*
X047631Y049415D01*
X047631Y048988D01*
X062131Y048881D02*
X062131Y049521D01*
X062131Y049201D02*
X062558Y049201D01*
X062775Y049201D02*
X062989Y049201D01*
X062775Y048881D02*
X063202Y048881D01*
X063420Y048881D02*
X063420Y049308D01*
X063633Y049521D01*
X063847Y049308D01*
X063847Y048881D01*
X063847Y049201D02*
X063420Y049201D01*
X063202Y049521D02*
X062775Y049521D01*
X062775Y048881D01*
X062558Y048881D02*
X062558Y049521D01*
X064064Y049521D02*
X064491Y049521D01*
X064278Y049521D02*
X064278Y048881D01*
X064709Y048881D02*
X065136Y048881D01*
X065353Y048881D02*
X065353Y049521D01*
X065674Y049521D01*
X065780Y049415D01*
X065780Y049201D01*
X065674Y049094D01*
X065353Y049094D01*
X065567Y049094D02*
X065780Y048881D01*
X066642Y048881D02*
X066642Y049308D01*
X066856Y049521D01*
X067069Y049308D01*
X067069Y048881D01*
X067287Y048988D02*
X067287Y049415D01*
X067394Y049521D01*
X067607Y049521D01*
X067714Y049415D01*
X067714Y048988D02*
X067607Y048881D01*
X067394Y048881D01*
X067287Y048988D01*
X067069Y049201D02*
X066642Y049201D01*
X065136Y049521D02*
X064709Y049521D01*
X064709Y048881D01*
X064709Y049201D02*
X064922Y049201D01*
X064056Y043991D02*
X064162Y043885D01*
X064162Y043778D01*
X064056Y043671D01*
X064162Y043564D01*
X064162Y043458D01*
X064056Y043351D01*
X063842Y043351D01*
X063735Y043458D01*
X063949Y043671D02*
X064056Y043671D01*
X064056Y043991D02*
X063842Y043991D01*
X063735Y043885D01*
X063518Y043991D02*
X063304Y043991D01*
X063411Y043991D02*
X063411Y043458D01*
X063304Y043351D01*
X063198Y043351D01*
X063091Y043458D01*
X055351Y036101D02*
X053351Y036101D01*
X053351Y035851D01*
X055351Y035851D01*
X055351Y036101D01*
X055351Y035851D02*
X055351Y034851D01*
X053351Y034851D01*
X053351Y035851D01*
X045101Y035851D02*
X045101Y034851D01*
X043101Y034851D01*
X043101Y035851D01*
X043101Y036101D01*
X045101Y036101D01*
X045101Y035851D01*
X043101Y035851D01*
X035101Y035851D02*
X035101Y034851D01*
X033101Y034851D01*
X033101Y035851D01*
X033101Y036101D01*
X035101Y036101D01*
X035101Y035851D01*
X033101Y035851D01*
X022662Y043458D02*
X022556Y043351D01*
X022342Y043351D01*
X022235Y043458D01*
X022235Y043564D01*
X022342Y043671D01*
X022556Y043671D01*
X022662Y043564D01*
X022662Y043458D01*
X022556Y043671D02*
X022662Y043778D01*
X022662Y043885D01*
X022556Y043991D01*
X022342Y043991D01*
X022235Y043885D01*
X022235Y043778D01*
X022342Y043671D01*
X022018Y043991D02*
X021804Y043991D01*
X021911Y043991D02*
X021911Y043458D01*
X021804Y043351D01*
X021698Y043351D01*
X021591Y043458D01*
X015807Y043351D02*
X015380Y043351D01*
X015593Y043351D02*
X015593Y043991D01*
X015380Y043778D01*
X015162Y043351D02*
X014735Y043351D01*
X014949Y043351D02*
X014949Y043991D01*
X014735Y043778D01*
X014518Y043991D02*
X014304Y043991D01*
X014411Y043991D02*
X014411Y043458D01*
X014304Y043351D01*
X014198Y043351D01*
X014091Y043458D01*
X020351Y036351D02*
X022351Y036351D01*
X022351Y036101D01*
X022351Y035101D01*
X020351Y035101D01*
X020351Y036101D01*
X020351Y036351D01*
X020351Y036101D02*
X022351Y036101D01*
X005101Y029601D02*
X005101Y026601D01*
X004101Y026601D01*
X003851Y026601D01*
X003851Y029601D01*
X004101Y029601D01*
X005101Y029601D01*
X004101Y029601D02*
X004101Y026601D01*
X019131Y023058D02*
X019131Y022631D01*
X019131Y022951D02*
X019558Y022951D01*
X019558Y023058D02*
X019558Y022631D01*
X019775Y022738D02*
X019882Y022631D01*
X020096Y022631D01*
X020202Y022738D01*
X020202Y023165D02*
X020096Y023271D01*
X019882Y023271D01*
X019775Y023165D01*
X019775Y022738D01*
X019558Y023058D02*
X019344Y023271D01*
X019131Y023058D01*
X021064Y023271D02*
X021064Y022631D01*
X021064Y022844D02*
X021385Y022844D01*
X021491Y022951D01*
X021491Y023165D01*
X021385Y023271D01*
X021064Y023271D01*
X021278Y022844D02*
X021491Y022631D01*
X021709Y022631D02*
X021709Y023271D01*
X022136Y023271D01*
X022353Y023271D02*
X022353Y022631D01*
X022780Y022631D01*
X022998Y022631D02*
X022998Y023058D01*
X023211Y023271D01*
X023425Y023058D01*
X023425Y022631D01*
X023425Y022951D02*
X022998Y022951D01*
X023642Y023165D02*
X023856Y022951D01*
X023856Y022631D01*
X023856Y022951D02*
X024069Y023165D01*
X024069Y023271D01*
X023642Y023271D02*
X023642Y023165D01*
X022136Y022631D02*
X021709Y022631D01*
X021709Y022951D02*
X021922Y022951D01*
X029131Y018771D02*
X029131Y018131D01*
X029558Y018131D01*
X029775Y018131D02*
X029775Y018558D01*
X029989Y018771D01*
X030202Y018558D01*
X030202Y018131D01*
X030202Y018451D02*
X029775Y018451D01*
X030420Y018771D02*
X030847Y018771D01*
X030633Y018771D02*
X030633Y018131D01*
X031064Y018238D02*
X031064Y018665D01*
X031171Y018771D01*
X031385Y018771D01*
X031491Y018665D01*
X031709Y018771D02*
X031709Y018131D01*
X031491Y018238D02*
X031385Y018131D01*
X031171Y018131D01*
X031064Y018238D01*
X031709Y018451D02*
X032136Y018451D01*
X032136Y018771D02*
X032136Y018131D01*
X032353Y018131D02*
X032567Y018131D01*
X032460Y018131D02*
X032460Y018771D01*
X032353Y018771D02*
X032567Y018771D01*
X032783Y018771D02*
X033210Y018131D01*
X033210Y018771D01*
X033428Y018665D02*
X033428Y018238D01*
X033534Y018131D01*
X033748Y018131D01*
X033855Y018238D01*
X033855Y018451D01*
X033641Y018451D01*
X033428Y018665D02*
X033534Y018771D01*
X033748Y018771D01*
X033855Y018665D01*
X032783Y018771D02*
X032783Y018131D01*
X034717Y018131D02*
X034717Y018771D01*
X035037Y018771D01*
X035144Y018665D01*
X035144Y018451D01*
X035037Y018344D01*
X034717Y018344D01*
X034930Y018344D02*
X035144Y018131D01*
X035361Y018131D02*
X035788Y018131D01*
X036006Y018131D02*
X036433Y018131D01*
X036650Y018131D02*
X036650Y018558D01*
X036864Y018771D01*
X037077Y018558D01*
X037077Y018131D01*
X037077Y018451D02*
X036650Y018451D01*
X037295Y018665D02*
X037508Y018451D01*
X037508Y018131D01*
X037508Y018451D02*
X037722Y018665D01*
X037722Y018771D01*
X037295Y018771D02*
X037295Y018665D01*
X036006Y018771D02*
X036006Y018131D01*
X035575Y018451D02*
X035361Y018451D01*
X035361Y018771D02*
X035361Y018131D01*
X035361Y018771D02*
X035788Y018771D01*
X035855Y022631D02*
X035855Y023271D01*
X035641Y023058D01*
X035428Y023271D01*
X035428Y022631D01*
X035210Y022631D02*
X034783Y022631D01*
X034783Y023271D01*
X035210Y023271D01*
X034997Y022951D02*
X034783Y022951D01*
X034566Y023271D02*
X034139Y023271D01*
X034352Y023271D02*
X034352Y022631D01*
X033277Y022631D02*
X033277Y023271D01*
X033277Y022951D02*
X032850Y022951D01*
X032632Y022951D02*
X032419Y022951D01*
X032632Y022951D02*
X032632Y022738D01*
X032525Y022631D01*
X032312Y022631D01*
X032205Y022738D01*
X032205Y023165D01*
X032312Y023271D01*
X032525Y023271D01*
X032632Y023165D01*
X032850Y023271D02*
X032850Y022631D01*
X031989Y022631D02*
X031775Y022631D01*
X031882Y022631D02*
X031882Y023271D01*
X031775Y023271D02*
X031989Y023271D01*
X031558Y023271D02*
X031558Y022631D01*
X031558Y022951D02*
X031131Y022951D01*
X031131Y022631D02*
X031131Y023271D01*
X036072Y023271D02*
X036072Y022631D01*
X036072Y022844D02*
X036392Y022844D01*
X036499Y022951D01*
X036499Y023165D01*
X036392Y023271D01*
X036072Y023271D01*
X042131Y023271D02*
X042558Y022631D01*
X042558Y023271D01*
X042775Y023271D02*
X042775Y022631D01*
X043202Y022631D01*
X043420Y022738D02*
X043527Y022631D01*
X043740Y022631D01*
X043847Y022738D01*
X043847Y022844D01*
X043740Y022951D01*
X043527Y022951D01*
X043420Y023058D01*
X043420Y023165D01*
X043527Y023271D01*
X043740Y023271D01*
X043847Y023165D01*
X044064Y023271D02*
X044064Y022631D01*
X044491Y022631D01*
X044709Y022631D02*
X044709Y023058D01*
X044922Y023271D01*
X045136Y023058D01*
X045136Y022631D01*
X045353Y022631D02*
X045674Y022631D01*
X045780Y022738D01*
X045780Y022844D01*
X045674Y022951D01*
X045353Y022951D01*
X045136Y022951D02*
X044709Y022951D01*
X045353Y022631D02*
X045353Y023271D01*
X045674Y023271D01*
X045780Y023165D01*
X045780Y023058D01*
X045674Y022951D01*
X043202Y023271D02*
X042775Y023271D01*
X042775Y022951D02*
X042989Y022951D01*
X042131Y022631D02*
X042131Y023271D01*
X052631Y023058D02*
X052631Y022631D01*
X052631Y022951D02*
X053058Y022951D01*
X053058Y023058D02*
X053058Y022631D01*
X053058Y023058D02*
X052844Y023271D01*
X052631Y023058D01*
X053275Y023271D02*
X053702Y023271D01*
X053489Y023271D02*
X053489Y022631D01*
X053920Y022631D02*
X053920Y023271D01*
X053920Y022951D02*
X054347Y022951D01*
X054564Y022951D02*
X054778Y022951D01*
X054564Y022631D02*
X054991Y022631D01*
X055209Y022631D02*
X055209Y023271D01*
X055636Y022631D01*
X055636Y023271D01*
X055853Y023058D02*
X056067Y023271D01*
X056280Y023058D01*
X056280Y022631D01*
X056280Y022951D02*
X055853Y022951D01*
X055853Y023058D02*
X055853Y022631D01*
X054991Y023271D02*
X054564Y023271D01*
X054564Y022631D01*
X054347Y022631D02*
X054347Y023271D01*
X054275Y018771D02*
X054596Y018771D01*
X054702Y018665D01*
X054702Y018451D01*
X054596Y018344D01*
X054275Y018344D01*
X054275Y018131D02*
X054275Y018771D01*
X054058Y018665D02*
X054058Y018558D01*
X053951Y018451D01*
X054058Y018344D01*
X054058Y018238D01*
X053951Y018131D01*
X053738Y018131D01*
X053631Y018238D01*
X053844Y018451D02*
X053951Y018451D01*
X054058Y018665D02*
X053951Y018771D01*
X053738Y018771D01*
X053631Y018665D01*
X054920Y018771D02*
X054920Y018131D01*
X055240Y018131D01*
X055347Y018238D01*
X055347Y018665D01*
X055240Y018771D01*
X054920Y018771D01*
X055564Y018771D02*
X055991Y018771D01*
X055778Y018771D02*
X055778Y018131D01*
X067451Y017051D02*
X067601Y017051D01*
X067651Y017001D01*
X069551Y017001D01*
X069601Y017051D01*
X069751Y017051D01*
X069768Y017049D01*
X069785Y017045D01*
X069801Y017038D01*
X069815Y017028D01*
X069828Y017015D01*
X069838Y017001D01*
X069845Y016985D01*
X069849Y016968D01*
X069851Y016951D01*
X069851Y016251D02*
X069849Y016234D01*
X069845Y016217D01*
X069838Y016201D01*
X069828Y016187D01*
X069815Y016174D01*
X069801Y016164D01*
X069785Y016157D01*
X069768Y016153D01*
X069751Y016151D01*
X069601Y016151D01*
X069551Y016201D01*
X067651Y016201D01*
X067601Y016151D01*
X067451Y016151D01*
X067434Y016153D01*
X067417Y016157D01*
X067401Y016164D01*
X067387Y016174D01*
X067374Y016187D01*
X067364Y016201D01*
X067357Y016217D01*
X067353Y016234D01*
X067351Y016251D01*
X067351Y016951D02*
X067353Y016968D01*
X067357Y016985D01*
X067364Y017001D01*
X067374Y017015D01*
X067387Y017028D01*
X067401Y017038D01*
X067417Y017045D01*
X067434Y017049D01*
X067451Y017051D01*
X067701Y017951D02*
X067851Y017951D01*
X067901Y018001D01*
X069301Y018001D01*
X069351Y017951D01*
X069501Y017951D01*
X069518Y017953D01*
X069535Y017957D01*
X069551Y017964D01*
X069565Y017974D01*
X069578Y017987D01*
X069588Y018001D01*
X069595Y018017D01*
X069599Y018034D01*
X069601Y018051D01*
X069601Y018651D01*
X069599Y018668D01*
X069595Y018685D01*
X069588Y018701D01*
X069578Y018715D01*
X069565Y018728D01*
X069551Y018738D01*
X069535Y018745D01*
X069518Y018749D01*
X069501Y018751D01*
X069351Y018751D01*
X069301Y018701D01*
X067901Y018701D01*
X067851Y018751D01*
X067701Y018751D01*
X067684Y018749D01*
X067667Y018745D01*
X067651Y018738D01*
X067637Y018728D01*
X067624Y018715D01*
X067614Y018701D01*
X067607Y018685D01*
X067603Y018668D01*
X067601Y018651D01*
X067601Y018051D01*
X067603Y018034D01*
X067607Y018017D01*
X067614Y018001D01*
X067624Y017987D01*
X067637Y017974D01*
X067651Y017964D01*
X067667Y017957D01*
X067684Y017953D01*
X067701Y017951D01*
X067751Y022131D02*
X067751Y022451D01*
X067857Y022558D01*
X067964Y022558D01*
X068071Y022451D01*
X068071Y022131D01*
X067430Y022131D01*
X067430Y022451D01*
X067537Y022558D01*
X067644Y022558D01*
X067751Y022451D01*
X068071Y022775D02*
X068071Y022989D01*
X068071Y022882D02*
X067430Y022882D01*
X067430Y022775D02*
X067430Y022989D01*
X067430Y023205D02*
X067430Y023632D01*
X067430Y023419D02*
X068071Y023419D01*
X068601Y022601D02*
X068601Y026601D01*
X069601Y026601D01*
X069851Y026601D01*
X069851Y022601D01*
X069601Y022601D01*
X068601Y022601D01*
X069601Y022601D02*
X069601Y026601D01*
X068071Y026533D02*
X067964Y026640D01*
X067430Y026640D01*
X067430Y026857D02*
X067430Y027284D01*
X067430Y027071D02*
X068071Y027071D01*
X068071Y026533D02*
X068071Y026320D01*
X067964Y026213D01*
X067430Y026213D01*
X067537Y025995D02*
X067751Y025995D01*
X067857Y025889D01*
X067857Y025568D01*
X068071Y025568D02*
X067430Y025568D01*
X067430Y025889D01*
X067537Y025995D01*
X067430Y025351D02*
X068071Y025351D01*
X067430Y024924D01*
X068071Y024924D01*
X068071Y024708D02*
X068071Y024494D01*
X068071Y024601D02*
X067430Y024601D01*
X067430Y024494D02*
X067430Y024708D01*
X066821Y028881D02*
X066394Y028881D01*
X066180Y029094D01*
X066394Y029308D01*
X066821Y029308D01*
X066501Y029308D02*
X066501Y028881D01*
X066180Y029525D02*
X066180Y029952D01*
X066180Y029739D02*
X066821Y029739D01*
X066821Y030170D02*
X066180Y030170D01*
X066501Y030170D02*
X066501Y030597D01*
X066501Y030814D02*
X066501Y031028D01*
X066821Y030814D02*
X066821Y031241D01*
X066821Y031459D02*
X066180Y031459D01*
X066821Y031886D01*
X066180Y031886D01*
X066130Y032131D02*
X066130Y032344D01*
X066180Y032317D02*
X066394Y032530D01*
X066821Y032530D01*
X066771Y032562D02*
X066771Y032989D01*
X066771Y032775D02*
X066130Y032775D01*
X066344Y032562D01*
X066501Y032530D02*
X066501Y032103D01*
X066394Y032103D02*
X066821Y032103D01*
X066771Y032131D02*
X066664Y032237D01*
X066130Y032237D01*
X066180Y032317D02*
X066394Y032103D01*
X066664Y031917D02*
X066771Y032024D01*
X066771Y032131D01*
X066180Y031241D02*
X066180Y030814D01*
X066821Y030814D01*
X066821Y030597D02*
X066180Y030597D01*
X066130Y033206D02*
X066130Y033633D01*
X066237Y033633D01*
X066664Y033206D01*
X066771Y033206D01*
X066821Y033392D02*
X066394Y033392D01*
X066180Y033606D01*
X066394Y033819D01*
X066821Y033819D01*
X066714Y034037D02*
X066821Y034144D01*
X066821Y034357D01*
X066714Y034464D01*
X066714Y034037D02*
X066287Y034037D01*
X066180Y034144D01*
X066180Y034357D01*
X066287Y034464D01*
X066501Y033819D02*
X066501Y033392D01*
X069171Y014101D02*
X069173Y014142D01*
X069179Y014183D01*
X069189Y014223D01*
X069202Y014262D01*
X069219Y014300D01*
X069240Y014336D01*
X069264Y014369D01*
X069291Y014400D01*
X069321Y014429D01*
X069353Y014455D01*
X069388Y014477D01*
X069425Y014496D01*
X069463Y014511D01*
X069503Y014523D01*
X069543Y014531D01*
X069584Y014535D01*
X069626Y014535D01*
X069667Y014531D01*
X069707Y014523D01*
X069747Y014511D01*
X069785Y014496D01*
X069822Y014477D01*
X069857Y014455D01*
X069889Y014429D01*
X069919Y014400D01*
X069946Y014369D01*
X069970Y014336D01*
X069991Y014300D01*
X070008Y014262D01*
X070021Y014223D01*
X070031Y014183D01*
X070037Y014142D01*
X070039Y014101D01*
X070037Y014060D01*
X070031Y014019D01*
X070021Y013979D01*
X070008Y013940D01*
X069991Y013902D01*
X069970Y013866D01*
X069946Y013833D01*
X069919Y013802D01*
X069889Y013773D01*
X069857Y013747D01*
X069822Y013725D01*
X069785Y013706D01*
X069747Y013691D01*
X069707Y013679D01*
X069667Y013671D01*
X069626Y013667D01*
X069584Y013667D01*
X069543Y013671D01*
X069503Y013679D01*
X069463Y013691D01*
X069425Y013706D01*
X069388Y013725D01*
X069353Y013747D01*
X069321Y013773D01*
X069291Y013802D01*
X069264Y013833D01*
X069240Y013866D01*
X069219Y013902D01*
X069202Y013940D01*
X069189Y013979D01*
X069179Y014019D01*
X069173Y014060D01*
X069171Y014101D01*
X069171Y010101D02*
X069173Y010142D01*
X069179Y010183D01*
X069189Y010223D01*
X069202Y010262D01*
X069219Y010300D01*
X069240Y010336D01*
X069264Y010369D01*
X069291Y010400D01*
X069321Y010429D01*
X069353Y010455D01*
X069388Y010477D01*
X069425Y010496D01*
X069463Y010511D01*
X069503Y010523D01*
X069543Y010531D01*
X069584Y010535D01*
X069626Y010535D01*
X069667Y010531D01*
X069707Y010523D01*
X069747Y010511D01*
X069785Y010496D01*
X069822Y010477D01*
X069857Y010455D01*
X069889Y010429D01*
X069919Y010400D01*
X069946Y010369D01*
X069970Y010336D01*
X069991Y010300D01*
X070008Y010262D01*
X070021Y010223D01*
X070031Y010183D01*
X070037Y010142D01*
X070039Y010101D01*
X070037Y010060D01*
X070031Y010019D01*
X070021Y009979D01*
X070008Y009940D01*
X069991Y009902D01*
X069970Y009866D01*
X069946Y009833D01*
X069919Y009802D01*
X069889Y009773D01*
X069857Y009747D01*
X069822Y009725D01*
X069785Y009706D01*
X069747Y009691D01*
X069707Y009679D01*
X069667Y009671D01*
X069626Y009667D01*
X069584Y009667D01*
X069543Y009671D01*
X069503Y009679D01*
X069463Y009691D01*
X069425Y009706D01*
X069388Y009725D01*
X069353Y009747D01*
X069321Y009773D01*
X069291Y009802D01*
X069264Y009833D01*
X069240Y009866D01*
X069219Y009902D01*
X069202Y009940D01*
X069189Y009979D01*
X069179Y010019D01*
X069173Y010060D01*
X069171Y010101D01*
D12*
X068601Y007601D02*
X065101Y007601D01*
X065101Y017601D01*
X051101Y017601D01*
X047601Y017601D01*
X047601Y012601D01*
X051101Y012601D01*
X051101Y017601D01*
X051101Y012601D02*
X051101Y002601D01*
X065101Y002601D01*
X068601Y002601D01*
X068601Y007601D01*
X065101Y007601D02*
X065101Y002601D01*
X067726Y016406D02*
X068026Y016406D01*
X067876Y016406D02*
X067876Y016856D01*
X067726Y016706D01*
X067626Y017176D02*
X067626Y017626D01*
X067851Y017626D01*
X067926Y017551D01*
X067926Y017401D01*
X067851Y017326D01*
X067626Y017326D01*
X067776Y017326D02*
X067926Y017176D01*
X068086Y017176D02*
X068386Y017176D01*
X068236Y017176D02*
X068236Y017626D01*
X068086Y017476D01*
X068491Y016856D02*
X068416Y016781D01*
X068491Y016856D02*
X068641Y016856D01*
X068717Y016781D01*
X068717Y016706D01*
X068416Y016406D01*
X068717Y016406D01*
X068877Y016406D02*
X068877Y016856D01*
X068952Y016631D02*
X069177Y016406D01*
X068877Y016556D02*
X069177Y016856D01*
X069134Y017476D02*
X069021Y017589D01*
X069078Y017589D02*
X068908Y017589D01*
X068908Y017476D02*
X068908Y017816D01*
X069078Y017816D01*
X069134Y017759D01*
X069134Y017646D01*
X069078Y017589D01*
X069267Y017646D02*
X069494Y017646D01*
X069437Y017816D02*
X069267Y017646D01*
X069437Y017476D02*
X069437Y017816D01*
X068261Y016481D02*
X068261Y016406D01*
X068186Y016406D01*
X068186Y016481D01*
X068261Y016481D01*
X058101Y023601D02*
X058101Y033601D01*
X050601Y033601D01*
X050601Y023601D01*
X058101Y023601D01*
X047601Y023601D02*
X047601Y033601D01*
X040101Y033601D01*
X040101Y023601D01*
X047601Y023601D01*
X040601Y017601D02*
X026601Y017601D01*
X023101Y017601D01*
X023101Y012601D01*
X026601Y012601D01*
X026601Y017601D01*
X026601Y012601D02*
X026601Y002601D01*
X040601Y002601D01*
X044101Y002601D01*
X044101Y007601D01*
X040601Y007601D01*
X040601Y017601D01*
X037601Y023601D02*
X037601Y033601D01*
X030101Y033601D01*
X030101Y023601D01*
X037601Y023601D01*
X025101Y023601D02*
X017101Y023601D01*
X017101Y033601D01*
X025101Y033601D01*
X025101Y023601D01*
X040601Y007601D02*
X040601Y002601D01*
X018307Y001584D02*
X018307Y001218D01*
X018216Y001126D01*
X017940Y001126D01*
X017940Y001676D01*
X018216Y001676D01*
X018307Y001584D01*
X017755Y001676D02*
X017388Y001676D01*
X017388Y001126D01*
X017755Y001126D01*
X017571Y001401D02*
X017388Y001401D01*
X017203Y001126D02*
X016836Y001126D01*
X016836Y001676D01*
X016098Y001676D02*
X016098Y001126D01*
X015914Y001309D01*
X015731Y001126D01*
X015731Y001676D01*
X015545Y001584D02*
X015453Y001676D01*
X015270Y001676D01*
X015178Y001584D01*
X015178Y001218D01*
X015270Y001126D01*
X015453Y001126D01*
X015545Y001218D01*
X015545Y001584D01*
X014993Y001126D02*
X014626Y001126D01*
X014626Y001676D01*
X013676Y001584D02*
X013676Y001218D01*
X013584Y001126D01*
X013309Y001126D01*
X013309Y001676D01*
X013584Y001676D01*
X013676Y001584D01*
X013123Y001676D02*
X012756Y001676D01*
X012756Y001126D01*
X013123Y001126D01*
X012940Y001401D02*
X012756Y001401D01*
X012571Y001126D02*
X012204Y001126D01*
X012204Y001676D01*
X011466Y001676D02*
X011466Y001126D01*
X011466Y001401D02*
X011099Y001401D01*
X010914Y001401D02*
X010730Y001401D01*
X010914Y001401D02*
X010914Y001218D01*
X010822Y001126D01*
X010638Y001126D01*
X010547Y001218D01*
X010547Y001584D01*
X010638Y001676D01*
X010822Y001676D01*
X010914Y001584D01*
X011099Y001676D02*
X011099Y001126D01*
X010362Y001126D02*
X010178Y001126D01*
X010270Y001126D02*
X010270Y001676D01*
X010178Y001676D02*
X010362Y001676D01*
X009993Y001676D02*
X009993Y001126D01*
X009993Y001401D02*
X009626Y001401D01*
X009626Y001126D02*
X009626Y001676D01*
X008728Y001676D02*
X008728Y001126D01*
X008728Y001401D02*
X008361Y001401D01*
X008176Y001218D02*
X008084Y001126D01*
X007900Y001126D01*
X007809Y001218D01*
X007809Y001584D01*
X007900Y001676D01*
X008084Y001676D01*
X008176Y001584D01*
X008361Y001676D02*
X008361Y001126D01*
X007623Y001676D02*
X007256Y001676D01*
X007440Y001676D02*
X007440Y001126D01*
X007071Y001126D02*
X006888Y001126D01*
X006980Y001126D02*
X006980Y001676D01*
X007071Y001676D02*
X006888Y001676D01*
X006703Y001676D02*
X006703Y001126D01*
X006519Y001309D01*
X006336Y001126D01*
X006336Y001676D01*
X006150Y001584D02*
X006058Y001676D01*
X005875Y001676D01*
X005783Y001584D01*
X005783Y001493D01*
X005875Y001401D01*
X006058Y001401D01*
X006150Y001309D01*
X006150Y001218D01*
X006058Y001126D01*
X005875Y001126D01*
X005783Y001218D01*
X005045Y001218D02*
X004953Y001126D01*
X004770Y001126D01*
X004678Y001218D01*
X004678Y001584D01*
X004770Y001676D01*
X004953Y001676D01*
X005045Y001584D01*
X004493Y001493D02*
X004493Y001126D01*
X004493Y001401D02*
X004126Y001401D01*
X004126Y001493D02*
X004309Y001676D01*
X004493Y001493D01*
X004126Y001493D02*
X004126Y001126D01*
D13*
X010660Y006621D02*
X010967Y006621D01*
X010660Y006621D02*
X010660Y007081D01*
X012621Y007371D02*
X012621Y007831D01*
X012928Y007371D01*
X012928Y007831D01*
X015160Y007081D02*
X015160Y006621D01*
X015467Y006621D01*
X017371Y007371D02*
X017371Y007831D01*
X017678Y007371D01*
X017678Y007831D01*
X029121Y024621D02*
X029428Y024621D01*
X029274Y024621D02*
X029274Y025081D01*
X029121Y024928D01*
X029197Y030621D02*
X029121Y030697D01*
X029197Y030621D02*
X029351Y030621D01*
X029428Y030697D01*
X029428Y030851D01*
X029351Y030928D01*
X029274Y030928D01*
X029121Y030851D01*
X029121Y031081D01*
X029428Y031081D01*
X032371Y033871D02*
X032371Y033947D01*
X032678Y034254D01*
X032678Y034331D01*
X032371Y034331D01*
X033091Y034167D02*
X033167Y034091D01*
X033244Y034091D01*
X033321Y034167D01*
X033321Y034551D01*
X033244Y034551D02*
X033398Y034551D01*
X033551Y034474D02*
X033628Y034551D01*
X033781Y034551D01*
X033858Y034474D01*
X033858Y034398D01*
X033551Y034091D01*
X033858Y034091D01*
X034011Y034167D02*
X034318Y034474D01*
X034318Y034167D01*
X034242Y034091D01*
X034088Y034091D01*
X034011Y034167D01*
X034011Y034474D01*
X034088Y034551D01*
X034242Y034551D01*
X034318Y034474D01*
X034621Y034101D02*
X034851Y034101D01*
X034928Y034024D01*
X034928Y033947D01*
X034851Y033871D01*
X034697Y033871D01*
X034621Y033947D01*
X034621Y034101D01*
X034774Y034254D01*
X034928Y034331D01*
X039121Y031081D02*
X039121Y030851D01*
X039274Y030928D01*
X039351Y030928D01*
X039428Y030851D01*
X039428Y030697D01*
X039351Y030621D01*
X039197Y030621D01*
X039121Y030697D01*
X039121Y031081D02*
X039428Y031081D01*
X042371Y033871D02*
X042371Y033947D01*
X042678Y034254D01*
X042678Y034331D01*
X042371Y034331D01*
X043091Y034167D02*
X043167Y034091D01*
X043244Y034091D01*
X043321Y034167D01*
X043321Y034551D01*
X043244Y034551D02*
X043398Y034551D01*
X043551Y034398D02*
X043705Y034551D01*
X043705Y034091D01*
X043858Y034091D02*
X043551Y034091D01*
X044011Y034167D02*
X044011Y034244D01*
X044088Y034321D01*
X044242Y034321D01*
X044318Y034244D01*
X044318Y034167D01*
X044242Y034091D01*
X044088Y034091D01*
X044011Y034167D01*
X044088Y034321D02*
X044011Y034398D01*
X044011Y034474D01*
X044088Y034551D01*
X044242Y034551D01*
X044318Y034474D01*
X044318Y034398D01*
X044242Y034321D01*
X044621Y034101D02*
X044851Y034101D01*
X044928Y034024D01*
X044928Y033947D01*
X044851Y033871D01*
X044697Y033871D01*
X044621Y033947D01*
X044621Y034101D01*
X044774Y034254D01*
X044928Y034331D01*
X049621Y031081D02*
X049621Y030851D01*
X049774Y030928D01*
X049851Y030928D01*
X049928Y030851D01*
X049928Y030697D01*
X049851Y030621D01*
X049697Y030621D01*
X049621Y030697D01*
X049621Y031081D02*
X049928Y031081D01*
X052871Y033871D02*
X052871Y033947D01*
X053178Y034254D01*
X053178Y034331D01*
X052871Y034331D01*
X053341Y034167D02*
X053417Y034091D01*
X053494Y034091D01*
X053571Y034167D01*
X053571Y034551D01*
X053494Y034551D02*
X053648Y034551D01*
X053801Y034398D02*
X053955Y034551D01*
X053955Y034091D01*
X054108Y034091D02*
X053801Y034091D01*
X054261Y034167D02*
X054338Y034091D01*
X054492Y034091D01*
X054568Y034167D01*
X054568Y034474D01*
X054492Y034551D01*
X054338Y034551D01*
X054261Y034474D01*
X054261Y034398D01*
X054338Y034321D01*
X054568Y034321D01*
X055121Y034101D02*
X055351Y034101D01*
X055428Y034024D01*
X055428Y033947D01*
X055351Y033871D01*
X055197Y033871D01*
X055121Y033947D01*
X055121Y034101D01*
X055274Y034254D01*
X055428Y034331D01*
X065370Y030871D02*
X065831Y030871D01*
X065831Y031178D01*
X067840Y025747D02*
X067840Y025440D01*
X068071Y025440D01*
X067994Y025594D01*
X067994Y025671D01*
X068071Y025747D01*
X068224Y025747D01*
X068301Y025671D01*
X068301Y025517D01*
X068224Y025440D01*
X068301Y025287D02*
X068301Y024980D01*
X068301Y025133D02*
X067840Y025133D01*
X067994Y024980D01*
X067840Y024827D02*
X067840Y024673D01*
X067840Y024750D02*
X068224Y024750D01*
X068301Y024673D01*
X068301Y024596D01*
X068224Y024520D01*
X058928Y025351D02*
X058621Y025351D01*
X058851Y025581D01*
X058851Y025121D01*
X049928Y024621D02*
X049621Y024621D01*
X049774Y024621D02*
X049774Y025081D01*
X049621Y024928D01*
X048428Y025351D02*
X048121Y025351D01*
X048351Y025581D01*
X048351Y025121D01*
X039428Y024621D02*
X039121Y024621D01*
X039274Y024621D02*
X039274Y025081D01*
X039121Y024928D01*
X038351Y025121D02*
X038351Y025581D01*
X038121Y025351D01*
X038428Y025351D01*
X021568Y034341D02*
X021261Y034341D01*
X021108Y034341D02*
X020801Y034341D01*
X021108Y034648D01*
X021108Y034724D01*
X021031Y034801D01*
X020878Y034801D01*
X020801Y034724D01*
X020648Y034801D02*
X020494Y034801D01*
X020571Y034801D02*
X020571Y034417D01*
X020494Y034341D01*
X020417Y034341D01*
X020341Y034417D01*
X021261Y034648D02*
X021415Y034801D01*
X021415Y034341D01*
X021022Y043621D02*
X020791Y043621D01*
X020791Y044081D01*
X021022Y044081D01*
X021098Y044004D01*
X021098Y043697D01*
X021022Y043621D01*
X020638Y043621D02*
X020638Y044081D01*
X020331Y044081D02*
X020638Y043621D01*
X020331Y043621D02*
X020331Y044081D01*
X020178Y044004D02*
X020101Y044081D01*
X019947Y044081D01*
X019871Y044004D01*
X019871Y043697D01*
X019947Y043621D01*
X020101Y043621D01*
X020178Y043697D01*
X020178Y043851D01*
X020024Y043851D01*
X017678Y043621D02*
X017371Y043621D01*
X017371Y044081D01*
X016428Y044081D02*
X016428Y043621D01*
X016121Y044081D01*
X016121Y043621D01*
X013598Y043697D02*
X013598Y044004D01*
X013522Y044081D01*
X013291Y044081D01*
X013291Y043621D01*
X013522Y043621D01*
X013598Y043697D01*
X013138Y043621D02*
X013138Y044081D01*
X012831Y044081D02*
X012831Y043621D01*
X012678Y043697D02*
X012678Y043851D01*
X012524Y043851D01*
X012371Y044004D02*
X012371Y043697D01*
X012447Y043621D01*
X012601Y043621D01*
X012678Y043697D01*
X012678Y044004D02*
X012601Y044081D01*
X012447Y044081D01*
X012371Y044004D01*
X012831Y044081D02*
X013138Y043621D01*
X009678Y043621D02*
X009371Y043621D01*
X009371Y044081D01*
X007928Y044081D02*
X007928Y043621D01*
X007621Y044081D01*
X007621Y043621D01*
X005598Y043697D02*
X005598Y044004D01*
X005522Y044081D01*
X005291Y044081D01*
X005291Y043621D01*
X005522Y043621D01*
X005598Y043697D01*
X005138Y043621D02*
X005138Y044081D01*
X004831Y044081D02*
X004831Y043621D01*
X004678Y043697D02*
X004678Y043851D01*
X004524Y043851D01*
X004371Y044004D02*
X004371Y043697D01*
X004447Y043621D01*
X004601Y043621D01*
X004678Y043697D01*
X004678Y044004D02*
X004601Y044081D01*
X004447Y044081D01*
X004371Y044004D01*
X004831Y044081D02*
X005138Y043621D01*
X007831Y038428D02*
X007831Y038121D01*
X007370Y038121D01*
X005784Y027858D02*
X005477Y027858D01*
X005400Y027781D01*
X005400Y027628D01*
X005477Y027551D01*
X005554Y027551D01*
X005631Y027628D01*
X005631Y027858D01*
X005784Y027858D02*
X005861Y027781D01*
X005861Y027628D01*
X005784Y027551D01*
X005784Y027321D02*
X005400Y027321D01*
X005400Y027244D02*
X005400Y027398D01*
X005784Y027321D02*
X005861Y027244D01*
X005861Y027167D01*
X005784Y027091D01*
X023121Y043621D02*
X023121Y044081D01*
X023428Y043621D01*
X023428Y044081D01*
X024621Y044081D02*
X024621Y043621D01*
X024928Y043621D01*
X027871Y043697D02*
X027947Y043621D01*
X028101Y043621D01*
X028178Y043697D01*
X028178Y043851D01*
X028024Y043851D01*
X027871Y044004D02*
X027871Y043697D01*
X027871Y044004D02*
X027947Y044081D01*
X028101Y044081D01*
X028178Y044004D01*
X028331Y044081D02*
X028638Y043621D01*
X028638Y044081D01*
X028791Y044081D02*
X029022Y044081D01*
X029098Y044004D01*
X029098Y043697D01*
X029022Y043621D01*
X028791Y043621D01*
X028791Y044081D01*
X028331Y044081D02*
X028331Y043621D01*
X030871Y043621D02*
X030871Y044081D01*
X031178Y043621D01*
X031178Y044081D01*
X032121Y044081D02*
X032121Y043621D01*
X032428Y043621D01*
X036447Y048871D02*
X036371Y048947D01*
X036447Y048871D02*
X036601Y048871D01*
X036678Y048947D01*
X036678Y049024D01*
X036601Y049101D01*
X036447Y049101D01*
X036371Y049178D01*
X036371Y049254D01*
X036447Y049331D01*
X036601Y049331D01*
X036678Y049254D01*
X036831Y049331D02*
X036831Y048871D01*
X036985Y049024D01*
X037138Y048871D01*
X037138Y049331D01*
X037291Y049331D02*
X037445Y049331D01*
X037368Y049331D02*
X037368Y048871D01*
X037291Y048871D02*
X037445Y048871D01*
X037752Y048871D02*
X037752Y049331D01*
X037905Y049331D02*
X037598Y049331D01*
X037695Y049621D02*
X037541Y049774D01*
X037541Y050081D01*
X037388Y050081D02*
X037081Y050081D01*
X037081Y049621D01*
X037388Y049621D01*
X037235Y049851D02*
X037081Y049851D01*
X036928Y049621D02*
X036621Y049621D01*
X036621Y050081D01*
X037695Y049621D02*
X037848Y049774D01*
X037848Y050081D01*
X038002Y050081D02*
X038002Y049621D01*
X038309Y049621D01*
X038462Y049621D02*
X038769Y049621D01*
X038826Y049331D02*
X038826Y048871D01*
X038826Y049101D02*
X038519Y049101D01*
X038366Y049254D02*
X038289Y049331D01*
X038135Y049331D01*
X038059Y049254D01*
X038059Y048947D01*
X038135Y048871D01*
X038289Y048871D01*
X038366Y048947D01*
X038519Y048871D02*
X038519Y049331D01*
X038462Y049621D02*
X038462Y050081D01*
X038309Y050081D02*
X038002Y050081D01*
X038002Y049851D02*
X038155Y049851D01*
X042121Y050081D02*
X042274Y049928D01*
X042428Y050081D01*
X042428Y049621D01*
X042581Y049621D02*
X042888Y049621D01*
X042735Y049851D02*
X042581Y049851D01*
X042581Y050081D02*
X042581Y049621D01*
X042601Y049331D02*
X042447Y049331D01*
X042371Y049254D01*
X042371Y049178D01*
X042447Y049101D01*
X042601Y049101D01*
X042678Y049024D01*
X042678Y048947D01*
X042601Y048871D01*
X042447Y048871D01*
X042371Y048947D01*
X042678Y049254D02*
X042601Y049331D01*
X042831Y049331D02*
X042831Y048871D01*
X042985Y049024D01*
X043138Y048871D01*
X043138Y049331D01*
X043291Y049331D02*
X043445Y049331D01*
X043368Y049331D02*
X043368Y048871D01*
X043291Y048871D02*
X043445Y048871D01*
X043752Y048871D02*
X043752Y049331D01*
X043905Y049331D02*
X043598Y049331D01*
X043502Y049621D02*
X043502Y049928D01*
X043655Y050081D01*
X043809Y049928D01*
X043809Y049621D01*
X043962Y049621D02*
X044269Y049621D01*
X044423Y049621D02*
X044729Y049621D01*
X044883Y049621D02*
X045036Y049621D01*
X044960Y049621D02*
X044960Y050081D01*
X045036Y050081D02*
X044883Y050081D01*
X045190Y050004D02*
X045266Y050081D01*
X045420Y050081D01*
X045497Y050004D01*
X045497Y049697D02*
X045420Y049621D01*
X045266Y049621D01*
X045190Y049697D01*
X045190Y050004D01*
X044826Y049331D02*
X044826Y048871D01*
X044826Y049101D02*
X044519Y049101D01*
X044366Y049254D02*
X044289Y049331D01*
X044135Y049331D01*
X044059Y049254D01*
X044059Y048947D01*
X044135Y048871D01*
X044289Y048871D01*
X044366Y048947D01*
X044519Y048871D02*
X044519Y049331D01*
X044423Y049621D02*
X044423Y050081D01*
X043962Y050081D02*
X043962Y049621D01*
X043809Y049851D02*
X043502Y049851D01*
X043348Y050081D02*
X043041Y050081D01*
X042888Y050081D02*
X042581Y050081D01*
X042121Y050081D02*
X042121Y049621D01*
X043195Y049621D02*
X043195Y050081D01*
X061621Y044004D02*
X061621Y043697D01*
X061697Y043621D01*
X061851Y043621D01*
X061928Y043697D01*
X061928Y043851D01*
X061774Y043851D01*
X061621Y044004D02*
X061697Y044081D01*
X061851Y044081D01*
X061928Y044004D01*
X062081Y044081D02*
X062388Y043621D01*
X062388Y044081D01*
X062541Y044081D02*
X062772Y044081D01*
X062848Y044004D01*
X062848Y043697D01*
X062772Y043621D01*
X062541Y043621D01*
X062541Y044081D01*
X062081Y044081D02*
X062081Y043621D01*
X064621Y043621D02*
X064621Y044081D01*
X064928Y043621D01*
X064928Y044081D01*
X066121Y044081D02*
X066121Y043621D01*
X066428Y043621D01*
X069472Y015636D02*
X069472Y015406D01*
X069625Y015483D01*
X069702Y015483D01*
X069779Y015406D01*
X069779Y015253D01*
X069702Y015176D01*
X069548Y015176D01*
X069472Y015253D01*
X069472Y015636D02*
X069779Y015636D01*
X069932Y015636D02*
X069932Y015176D01*
X069932Y015329D02*
X070239Y015636D01*
X070009Y015406D02*
X070239Y015176D01*
X070162Y013038D02*
X070009Y013038D01*
X069932Y012961D01*
X069779Y012961D02*
X069779Y012808D01*
X069702Y012731D01*
X069472Y012731D01*
X069625Y012731D02*
X069779Y012577D01*
X069932Y012654D02*
X070009Y012577D01*
X070162Y012577D01*
X070239Y012654D01*
X070239Y012731D01*
X070162Y012808D01*
X070085Y012808D01*
X070162Y012808D02*
X070239Y012884D01*
X070239Y012961D01*
X070162Y013038D01*
X069779Y012961D02*
X069702Y013038D01*
X069472Y013038D01*
X069472Y012577D01*
X068690Y012621D02*
X068690Y013081D01*
X068843Y013081D02*
X068536Y013081D01*
X068383Y013081D02*
X068229Y013081D01*
X068306Y013081D02*
X068306Y012621D01*
X068229Y012621D02*
X068383Y012621D01*
X068076Y012697D02*
X067999Y012621D01*
X067769Y012621D01*
X067769Y013081D01*
X067999Y013081D01*
X068076Y013004D01*
X068076Y012928D01*
X067999Y012851D01*
X067769Y012851D01*
X067999Y012851D02*
X068076Y012774D01*
X068076Y012697D01*
X067155Y012621D02*
X067155Y013081D01*
X067155Y012851D02*
X066848Y012851D01*
X066695Y012851D02*
X066541Y012851D01*
X066695Y012851D02*
X066695Y012697D01*
X066618Y012621D01*
X066465Y012621D01*
X066388Y012697D01*
X066388Y013004D01*
X066465Y013081D01*
X066618Y013081D01*
X066695Y013004D01*
X066848Y013081D02*
X066848Y012621D01*
X066235Y012621D02*
X066081Y012621D01*
X066158Y012621D02*
X066158Y013081D01*
X066081Y013081D02*
X066235Y013081D01*
X065928Y013081D02*
X065928Y012621D01*
X065928Y012851D02*
X065621Y012851D01*
X065621Y012621D02*
X065621Y013081D01*
X069472Y011636D02*
X069472Y011406D01*
X069625Y011483D01*
X069702Y011483D01*
X069779Y011406D01*
X069779Y011253D01*
X069702Y011176D01*
X069548Y011176D01*
X069472Y011253D01*
X069472Y011636D02*
X069779Y011636D01*
X069932Y011636D02*
X069932Y011176D01*
X069932Y011329D02*
X070239Y011636D01*
X070009Y011406D02*
X070239Y011176D01*
X070162Y009038D02*
X070009Y009038D01*
X069932Y008961D01*
X069779Y008961D02*
X069779Y008808D01*
X069702Y008731D01*
X069472Y008731D01*
X069625Y008731D02*
X069779Y008577D01*
X069932Y008577D02*
X070239Y008884D01*
X070239Y008961D01*
X070162Y009038D01*
X069779Y008961D02*
X069702Y009038D01*
X069472Y009038D01*
X069472Y008577D01*
X069932Y008577D02*
X070239Y008577D01*
X068536Y009081D02*
X068229Y009081D01*
X068076Y009081D02*
X067923Y009081D01*
X067999Y009081D02*
X067999Y008621D01*
X067923Y008621D02*
X068076Y008621D01*
X068383Y008621D02*
X068383Y009081D01*
X067769Y009004D02*
X067769Y008928D01*
X067692Y008851D01*
X067462Y008851D01*
X067462Y009081D02*
X067692Y009081D01*
X067769Y009004D01*
X067692Y008851D02*
X067769Y008774D01*
X067769Y008697D01*
X067692Y008621D01*
X067462Y008621D01*
X067462Y009081D01*
X066848Y009081D02*
X066848Y008621D01*
X066695Y008774D01*
X066541Y008621D01*
X066541Y009081D01*
X066388Y009004D02*
X066311Y009081D01*
X066158Y009081D01*
X066081Y009004D01*
X066081Y008697D01*
X066158Y008621D01*
X066311Y008621D01*
X066388Y008697D01*
X066388Y009004D01*
X065928Y008621D02*
X065621Y008621D01*
X065621Y009081D01*
D14*
X070111Y023111D02*
X070111Y023331D01*
X070111Y023221D02*
X070258Y023221D01*
X070332Y023258D02*
X070368Y023258D01*
X070368Y023111D01*
X070332Y023111D02*
X070405Y023111D01*
X070479Y023147D02*
X070516Y023111D01*
X070626Y023111D01*
X070626Y023074D02*
X070626Y023258D01*
X070516Y023258D01*
X070479Y023221D01*
X070479Y023147D01*
X070552Y023037D02*
X070589Y023037D01*
X070626Y023074D01*
X070700Y023111D02*
X070700Y023331D01*
X070737Y023258D02*
X070810Y023258D01*
X070847Y023221D01*
X070847Y023111D01*
X070700Y023221D02*
X070737Y023258D01*
X070368Y023331D02*
X070368Y023368D01*
X070258Y023331D02*
X070258Y023111D01*
X071142Y023331D02*
X071289Y023331D01*
X071215Y023331D02*
X071215Y023111D01*
X071363Y023147D02*
X071363Y023221D01*
X071400Y023258D01*
X071473Y023258D01*
X071510Y023221D01*
X071510Y023184D01*
X071363Y023184D01*
X071363Y023147D02*
X071400Y023111D01*
X071473Y023111D01*
X071584Y023111D02*
X071584Y023258D01*
X071621Y023258D01*
X071657Y023221D01*
X071694Y023258D01*
X071731Y023221D01*
X071731Y023111D01*
X071657Y023111D02*
X071657Y023221D01*
X071805Y023258D02*
X071915Y023258D01*
X071952Y023221D01*
X071952Y023147D01*
X071915Y023111D01*
X071805Y023111D01*
X071805Y023037D02*
X071805Y023258D01*
X071289Y024111D02*
X071179Y024111D01*
X071142Y024147D01*
X071179Y024184D01*
X071289Y024184D01*
X071289Y024221D02*
X071289Y024111D01*
X071289Y024221D02*
X071252Y024258D01*
X071179Y024258D01*
X071068Y024221D02*
X071068Y024111D01*
X071068Y024221D02*
X071031Y024258D01*
X070921Y024258D01*
X070921Y024111D01*
X070847Y024184D02*
X070700Y024184D01*
X070700Y024147D02*
X070700Y024221D01*
X070737Y024258D01*
X070810Y024258D01*
X070847Y024221D01*
X070847Y024184D01*
X070810Y024111D02*
X070737Y024111D01*
X070700Y024147D01*
X070626Y024111D02*
X070626Y024221D01*
X070589Y024258D01*
X070516Y024258D01*
X070479Y024221D01*
X070405Y024258D02*
X070332Y024258D01*
X070368Y024294D02*
X070368Y024147D01*
X070405Y024111D01*
X070479Y024111D02*
X070479Y024331D01*
X070258Y024258D02*
X070258Y024111D01*
X070258Y024221D02*
X070111Y024221D01*
X070111Y024258D02*
X070184Y024331D01*
X070258Y024258D01*
X070111Y024258D02*
X070111Y024111D01*
X070111Y024861D02*
X070111Y025081D01*
X070258Y024861D01*
X070258Y025081D01*
X070332Y024971D02*
X070368Y025008D01*
X070442Y025008D01*
X070479Y024971D01*
X070479Y024934D01*
X070332Y024934D01*
X070332Y024897D02*
X070332Y024971D01*
X070332Y024897D02*
X070368Y024861D01*
X070442Y024861D01*
X070553Y024861D02*
X070663Y024861D01*
X070700Y024897D01*
X070663Y024934D01*
X070589Y024934D01*
X070553Y024971D01*
X070589Y025008D01*
X070700Y025008D01*
X070774Y025081D02*
X070774Y024861D01*
X070921Y024861D01*
X070995Y024897D02*
X071031Y024934D01*
X071141Y024934D01*
X071141Y024971D02*
X071141Y024861D01*
X071031Y024861D01*
X070995Y024897D01*
X071031Y025008D02*
X071105Y025008D01*
X071141Y024971D01*
X071216Y025008D02*
X071326Y025008D01*
X071362Y024971D01*
X071362Y024897D01*
X071326Y024861D01*
X071216Y024861D01*
X071216Y025081D01*
X070663Y025861D02*
X070700Y025897D01*
X070700Y026044D01*
X070663Y026081D01*
X070553Y026081D01*
X070553Y025861D01*
X070663Y025861D01*
X070479Y025861D02*
X070479Y026081D01*
X070332Y026081D02*
X070479Y025861D01*
X070332Y025861D02*
X070332Y026081D01*
X070258Y026044D02*
X070221Y026081D01*
X070147Y026081D01*
X070111Y026044D01*
X070111Y025897D01*
X070147Y025861D01*
X070221Y025861D01*
X070258Y025897D01*
X070258Y025971D01*
X070184Y025971D01*
D15*
X070101Y030301D02*
X067101Y030301D01*
X067101Y033801D01*
X070101Y033801D01*
X071101Y033801D01*
X071101Y030301D01*
X070101Y030301D01*
X067091Y044601D02*
X062091Y044601D01*
X062091Y047601D01*
X062091Y048601D01*
X067091Y048601D01*
X067091Y047601D01*
X067091Y044601D01*
X059401Y044601D02*
X055901Y044601D01*
X055901Y047601D01*
X055901Y048601D01*
X059401Y048601D01*
X059401Y047601D01*
X059401Y044601D01*
X053091Y044601D02*
X048091Y044601D01*
X048091Y047601D01*
X048091Y048601D01*
X053091Y048601D01*
X053091Y047601D01*
X053091Y044601D01*
X045401Y044601D02*
X041901Y044601D01*
X041901Y047601D01*
X041901Y048601D01*
X045401Y048601D01*
X045401Y047601D01*
X045401Y044601D01*
X039401Y044601D02*
X035901Y044601D01*
X035901Y047601D01*
X035901Y048601D01*
X039401Y048601D01*
X039401Y047601D01*
X039401Y044601D01*
X033091Y044601D02*
X028091Y044601D01*
X028091Y047601D01*
X028091Y048601D01*
X033091Y048601D01*
X033091Y047601D01*
X033091Y044601D01*
X025591Y044601D02*
X020591Y044601D01*
X020591Y047601D01*
X020591Y048601D01*
X025591Y048601D01*
X025591Y047601D01*
X025591Y044601D01*
X018091Y044601D02*
X013091Y044601D01*
X013091Y047601D01*
X013091Y048601D01*
X018091Y048601D01*
X018091Y047601D01*
X018091Y044601D01*
X010091Y044601D02*
X005091Y044601D01*
X005091Y047601D01*
X005091Y048601D01*
X010091Y048601D01*
X010091Y047601D01*
X010091Y044601D01*
X006601Y038901D02*
X003601Y038901D01*
X002601Y038901D01*
X002601Y035401D01*
X003601Y035401D01*
X006601Y035401D01*
X006601Y038901D01*
X006601Y020401D02*
X003601Y020401D01*
X002601Y020401D01*
X002601Y016901D01*
X003601Y016901D01*
X006601Y016901D01*
X006601Y020401D01*
X008488Y014522D02*
X009102Y014522D01*
X009408Y014215D01*
X009408Y012988D01*
X009102Y012681D01*
X008488Y012681D01*
X008181Y012988D01*
X008181Y014215D01*
X008488Y014522D01*
X008795Y013295D02*
X009408Y012681D01*
X010022Y012681D02*
X010022Y014522D01*
X011250Y014522D01*
X011864Y014522D02*
X012478Y014522D01*
X012171Y014522D02*
X012171Y012681D01*
X011864Y012681D02*
X012478Y012681D01*
X010636Y013602D02*
X010022Y013602D01*
X010051Y006101D02*
X013551Y006101D01*
X013551Y003101D01*
X013551Y002101D01*
X010051Y002101D01*
X010051Y003101D01*
X010051Y006101D01*
X008551Y006101D02*
X008551Y003101D01*
X008551Y002101D01*
X005051Y002101D01*
X005051Y003101D01*
X005051Y006101D01*
X008551Y006101D01*
X014801Y006101D02*
X014801Y003101D01*
X014801Y002101D01*
X018301Y002101D01*
X018301Y003101D01*
X018301Y006101D01*
X014801Y006101D01*
D16*
X014814Y009641D02*
X015427Y009641D01*
X015121Y009641D02*
X015121Y010562D01*
X014814Y010255D01*
X015264Y011141D02*
X015724Y011141D01*
X015878Y011294D01*
X015878Y011448D01*
X015724Y011601D01*
X015264Y011601D01*
X015264Y011141D02*
X015264Y012062D01*
X015724Y012062D01*
X015878Y011908D01*
X015878Y011755D01*
X015724Y011601D01*
X016185Y011601D02*
X016338Y011755D01*
X016645Y011755D01*
X016799Y011601D01*
X016799Y011294D01*
X016645Y011141D01*
X016338Y011141D01*
X016185Y011294D01*
X016185Y011601D01*
X017105Y011294D02*
X017259Y011141D01*
X017719Y011141D01*
X017719Y011601D01*
X017566Y011755D01*
X017259Y011755D01*
X017259Y011448D02*
X017719Y011448D01*
X018026Y011448D02*
X018333Y011755D01*
X018487Y011755D01*
X018793Y011601D02*
X018947Y011755D01*
X019407Y011755D01*
X019407Y012062D02*
X019407Y011141D01*
X018947Y011141D01*
X018793Y011294D01*
X018793Y011601D01*
X018026Y011755D02*
X018026Y011141D01*
X017259Y011448D02*
X017105Y011294D01*
X014036Y011141D02*
X013576Y011141D01*
X013422Y011294D01*
X013422Y011755D01*
X013116Y011601D02*
X013116Y011141D01*
X012655Y011141D01*
X012502Y011294D01*
X012655Y011448D01*
X013116Y011448D01*
X013116Y011601D02*
X012962Y011755D01*
X012655Y011755D01*
X012041Y012062D02*
X012041Y011141D01*
X011888Y011141D02*
X012195Y011141D01*
X011581Y011448D02*
X010967Y011448D01*
X010967Y011601D02*
X011121Y011755D01*
X011427Y011755D01*
X011581Y011601D01*
X011581Y011448D01*
X011427Y011141D02*
X011121Y011141D01*
X010967Y011294D01*
X010967Y011601D01*
X010660Y011601D02*
X010660Y011908D01*
X010507Y012062D01*
X010046Y012062D01*
X010046Y011141D01*
X010046Y011448D02*
X010507Y011448D01*
X010660Y011601D01*
X010353Y011448D02*
X010660Y011141D01*
X010056Y010715D02*
X010056Y010562D01*
X010056Y010255D02*
X010056Y009641D01*
X009903Y009641D02*
X010210Y009641D01*
X010517Y009641D02*
X010977Y009641D01*
X011131Y009794D01*
X010977Y009948D01*
X010670Y009948D01*
X010517Y010101D01*
X010670Y010255D01*
X011131Y010255D01*
X011438Y010255D02*
X011591Y010255D01*
X011591Y009641D01*
X011438Y009641D02*
X011744Y009641D01*
X012051Y009794D02*
X012205Y009641D01*
X012512Y009641D01*
X012665Y009794D01*
X012665Y010101D01*
X012512Y010255D01*
X012205Y010255D01*
X012051Y010101D01*
X012051Y009794D01*
X011591Y010562D02*
X011591Y010715D01*
X012972Y010255D02*
X013433Y010255D01*
X013586Y010101D01*
X013586Y009641D01*
X012972Y009641D02*
X012972Y010255D01*
X013729Y010834D02*
X013883Y010834D01*
X014036Y010987D01*
X014036Y011755D01*
X012041Y012062D02*
X011888Y012062D01*
X010056Y010255D02*
X009903Y010255D01*
X009596Y010255D02*
X009289Y009641D01*
X008982Y010255D01*
X008675Y010101D02*
X008675Y009948D01*
X008062Y009948D01*
X008062Y010101D02*
X008215Y010255D01*
X008522Y010255D01*
X008675Y010101D01*
X008522Y009641D02*
X008215Y009641D01*
X008062Y009794D01*
X008062Y010101D01*
X007755Y010101D02*
X007755Y010408D01*
X007601Y010562D01*
X007141Y010562D01*
X007141Y009641D01*
X007141Y009948D02*
X007601Y009948D01*
X007755Y010101D01*
X007448Y009948D02*
X007755Y009641D01*
X007744Y011141D02*
X007591Y011294D01*
X007744Y011448D01*
X008205Y011448D01*
X008205Y011601D02*
X008205Y011141D01*
X007744Y011141D01*
X007284Y011141D02*
X007284Y011601D01*
X007131Y011755D01*
X006977Y011601D01*
X006977Y011141D01*
X006670Y011141D02*
X006670Y011755D01*
X006824Y011755D01*
X006977Y011601D01*
X006363Y011755D02*
X006210Y011755D01*
X005903Y011448D01*
X005903Y011141D02*
X005903Y011755D01*
X005596Y011601D02*
X005596Y011448D01*
X004982Y011448D01*
X004982Y011601D02*
X005136Y011755D01*
X005443Y011755D01*
X005596Y011601D01*
X005443Y011141D02*
X005136Y011141D01*
X004982Y011294D01*
X004982Y011601D01*
X004675Y011601D02*
X004675Y011141D01*
X004675Y011601D02*
X004522Y011755D01*
X004215Y011755D01*
X004062Y011601D01*
X004062Y011141D02*
X004062Y012062D01*
X003755Y012062D02*
X003141Y012062D01*
X003448Y012062D02*
X003448Y011141D01*
X007744Y011755D02*
X008051Y011755D01*
X008205Y011601D01*
X008512Y011141D02*
X008819Y011141D01*
X008665Y011141D02*
X008665Y012062D01*
X008512Y012062D01*
X055141Y001908D02*
X055141Y001755D01*
X055294Y001601D01*
X055601Y001601D01*
X055755Y001448D01*
X055755Y001294D01*
X055601Y001141D01*
X055294Y001141D01*
X055141Y001294D01*
X055141Y001908D02*
X055294Y002062D01*
X055601Y002062D01*
X055755Y001908D01*
X056062Y001601D02*
X056215Y001755D01*
X056522Y001755D01*
X056675Y001601D01*
X056675Y001448D01*
X056062Y001448D01*
X056062Y001601D02*
X056062Y001294D01*
X056215Y001141D01*
X056522Y001141D01*
X056982Y001141D02*
X057443Y001141D01*
X057596Y001294D01*
X057596Y001601D01*
X057443Y001755D01*
X056982Y001755D01*
X056982Y000834D01*
X058056Y001294D02*
X058056Y001908D01*
X057903Y001755D02*
X058210Y001755D01*
X058517Y001601D02*
X058517Y001294D01*
X058670Y001141D01*
X058977Y001141D01*
X059131Y001448D02*
X058517Y001448D01*
X058517Y001601D02*
X058670Y001755D01*
X058977Y001755D01*
X059131Y001601D01*
X059131Y001448D01*
X059438Y001755D02*
X059591Y001755D01*
X059744Y001601D01*
X059898Y001755D01*
X060051Y001601D01*
X060051Y001141D01*
X059744Y001141D02*
X059744Y001601D01*
X059438Y001755D02*
X059438Y001141D01*
X060358Y001141D02*
X060819Y001141D01*
X060972Y001294D01*
X060972Y001601D01*
X060819Y001755D01*
X060358Y001755D01*
X060358Y002062D02*
X060358Y001141D01*
X061279Y001294D02*
X061279Y001601D01*
X061433Y001755D01*
X061739Y001755D01*
X061893Y001601D01*
X061893Y001448D01*
X061279Y001448D01*
X061279Y001294D02*
X061433Y001141D01*
X061739Y001141D01*
X062200Y001141D02*
X062200Y001755D01*
X062507Y001755D02*
X062660Y001755D01*
X062507Y001755D02*
X062200Y001448D01*
X063888Y001141D02*
X064502Y001755D01*
X064502Y001908D01*
X064348Y002062D01*
X064041Y002062D01*
X063888Y001908D01*
X063888Y001141D02*
X064502Y001141D01*
X064809Y001294D02*
X065422Y001908D01*
X065422Y001294D01*
X065269Y001141D01*
X064962Y001141D01*
X064809Y001294D01*
X064809Y001908D01*
X064962Y002062D01*
X065269Y002062D01*
X065422Y001908D01*
X065729Y001755D02*
X066036Y002062D01*
X066036Y001141D01*
X065729Y001141D02*
X066343Y001141D01*
X066650Y001141D02*
X067264Y001141D01*
X066957Y001141D02*
X066957Y002062D01*
X066650Y001755D01*
X058210Y001141D02*
X058056Y001294D01*
D17*
X018301Y003101D02*
X014801Y003101D01*
X013551Y003101D02*
X010051Y003101D01*
X008551Y003101D02*
X005051Y003101D01*
X003601Y016901D02*
X003601Y020401D01*
X003601Y035401D02*
X003601Y038901D01*
X005091Y047601D02*
X010091Y047601D01*
X013091Y047601D02*
X018091Y047601D01*
X020591Y047601D02*
X025591Y047601D01*
X028091Y047601D02*
X033091Y047601D01*
X035901Y047601D02*
X039401Y047601D01*
X041901Y047601D02*
X045401Y047601D01*
X048091Y047601D02*
X053091Y047601D01*
X055901Y047601D02*
X059401Y047601D01*
X062091Y047601D02*
X067091Y047601D01*
X070101Y033801D02*
X070101Y030301D01*
D18*
X068601Y031321D03*
X068601Y032881D03*
X066151Y046101D03*
X064591Y046101D03*
X063031Y046101D03*
X058381Y046101D03*
X056821Y046101D03*
X052151Y046101D03*
X050591Y046101D03*
X049031Y046101D03*
X044381Y046101D03*
X042821Y046101D03*
X038381Y046101D03*
X036821Y046101D03*
X032151Y046101D03*
X030591Y046101D03*
X029031Y046101D03*
X024651Y046101D03*
X023091Y046101D03*
X021531Y046101D03*
X017151Y046101D03*
X015591Y046101D03*
X014031Y046101D03*
X009151Y046101D03*
X007591Y046101D03*
X006031Y046101D03*
X005101Y037881D03*
X005101Y036321D03*
X005101Y019381D03*
X005101Y017821D03*
X006071Y004601D03*
X007631Y004601D03*
X011071Y004601D03*
X012631Y004601D03*
X015821Y004601D03*
X017381Y004601D03*
D19*
X004601Y027101D03*
X004601Y028101D03*
X004601Y029101D03*
X020851Y035601D03*
X021851Y035601D03*
X033601Y035351D03*
X034601Y035351D03*
X043601Y035351D03*
X044601Y035351D03*
X053851Y035351D03*
X054851Y035351D03*
X069101Y026101D03*
X069101Y025101D03*
X069101Y024101D03*
X069101Y023101D03*
D20*
X070313Y014987D02*
X066888Y014987D01*
X066888Y013215D01*
X070313Y013215D01*
X070313Y014987D01*
X070313Y010987D02*
X066888Y010987D01*
X066888Y009215D01*
X070313Y009215D01*
X070313Y010987D01*
D21*
X026211Y005756D02*
X025790Y005756D01*
X026000Y005756D02*
X026000Y006386D01*
X025790Y006176D01*
X025566Y006281D02*
X025461Y006386D01*
X025251Y006386D01*
X025146Y006281D01*
X025146Y005861D01*
X025251Y005756D01*
X025461Y005756D01*
X025566Y005861D01*
D22*
X022826Y004101D03*
D23*
X067526Y018351D03*
X069676Y018351D03*
M02*
