G75*
G70*
%OFA0B0*%
%FSLAX24Y24*%
%IPPOS*%
%LPD*%
%AMOC8*
5,1,8,0,0,1.08239X$1,22.5*
%
%ADD10C,0.1740*%
%ADD11C,0.0966*%
%ADD12C,0.1070*%
%ADD13C,0.0680*%
%ADD14OC8,0.0600*%
%ADD15C,0.0520*%
%ADD16C,0.1080*%
%ADD17OC8,0.1080*%
%ADD18C,0.0730*%
%ADD19C,0.0671*%
%ADD20C,0.2620*%
%ADD21C,0.0516*%
%ADD22C,0.0848*%
D10*
X001603Y001601D03*
X005603Y005601D03*
X009953Y005601D03*
X013053Y005601D03*
X016153Y005601D03*
X018403Y005601D03*
X018403Y010301D03*
X016153Y010301D03*
X013053Y010301D03*
X013053Y014401D03*
X016153Y014401D03*
X018403Y014401D03*
X023103Y014401D03*
X034453Y014401D03*
X037553Y014401D03*
X040653Y014401D03*
X042903Y014401D03*
X047603Y014401D03*
X042903Y010301D03*
X040653Y010301D03*
X037553Y010301D03*
X037553Y005601D03*
X040653Y005601D03*
X042903Y005601D03*
X034453Y005601D03*
X030103Y005601D03*
X009953Y014401D03*
X048103Y025601D03*
X049353Y028351D03*
X049353Y030351D03*
X049353Y032351D03*
X052853Y032351D03*
X052853Y030351D03*
X052853Y028351D03*
X054103Y025601D03*
X070603Y049601D03*
X070603Y001601D03*
X001603Y049601D03*
D11*
X015103Y031944D02*
X015103Y031058D01*
X016103Y031044D02*
X016103Y030158D01*
X017103Y031058D02*
X017103Y031944D01*
X018103Y030794D02*
X018103Y029908D01*
X019103Y031058D02*
X019103Y031944D01*
X020103Y030794D02*
X020103Y029908D01*
X018603Y025844D02*
X018603Y024958D01*
X017103Y025044D02*
X017103Y024158D01*
X015603Y024958D02*
X015603Y025844D01*
X020103Y025044D02*
X020103Y024158D01*
X026103Y024958D02*
X026103Y025844D01*
X027603Y025044D02*
X027603Y024158D01*
X029103Y024958D02*
X029103Y025844D01*
X030603Y025044D02*
X030603Y024158D01*
X036103Y024958D02*
X036103Y025844D01*
X037603Y025044D02*
X037603Y024158D01*
X039103Y024958D02*
X039103Y025844D01*
X040603Y025044D02*
X040603Y024158D01*
X040603Y029908D02*
X040603Y030794D01*
X039603Y031058D02*
X039603Y031944D01*
X038603Y030794D02*
X038603Y029908D01*
X037603Y031058D02*
X037603Y031944D01*
X036603Y031044D02*
X036603Y030158D01*
X035603Y031058D02*
X035603Y031944D01*
X030603Y030794D02*
X030603Y029908D01*
X029603Y031058D02*
X029603Y031944D01*
X028603Y030794D02*
X028603Y029908D01*
X027603Y031058D02*
X027603Y031944D01*
X026603Y031044D02*
X026603Y030158D01*
X025603Y031058D02*
X025603Y031944D01*
D12*
X027823Y045606D02*
X027823Y046596D01*
X029383Y046596D02*
X029383Y045606D01*
X033823Y045606D02*
X033823Y046596D01*
X035383Y046596D02*
X035383Y045606D01*
X040053Y045606D02*
X040053Y046596D01*
X041613Y046596D02*
X041613Y045606D01*
X043173Y045606D02*
X043173Y046596D01*
X047553Y046596D02*
X047553Y045606D01*
X049113Y045606D02*
X049113Y046596D01*
X050673Y046596D02*
X050673Y045606D01*
X055053Y045606D02*
X055053Y046596D01*
X056613Y046596D02*
X056613Y045606D01*
X058173Y045606D02*
X058173Y046596D01*
X063053Y046596D02*
X063053Y045606D01*
X064613Y045606D02*
X064613Y046596D01*
X066173Y046596D02*
X066173Y045606D01*
X066608Y037881D02*
X067598Y037881D01*
X067598Y036321D02*
X066608Y036321D01*
X066608Y019381D02*
X067598Y019381D01*
X067598Y017821D02*
X066608Y017821D01*
X066133Y005096D02*
X066133Y004106D01*
X064573Y004106D02*
X064573Y005096D01*
X061133Y005096D02*
X061133Y004106D01*
X059573Y004106D02*
X059573Y005096D01*
X056383Y005096D02*
X056383Y004106D01*
X054823Y004106D02*
X054823Y005096D01*
X004098Y031321D02*
X003108Y031321D01*
X003108Y032881D02*
X004098Y032881D01*
X006053Y045606D02*
X006053Y046596D01*
X007613Y046596D02*
X007613Y045606D01*
X009173Y045606D02*
X009173Y046596D01*
X013823Y046596D02*
X013823Y045606D01*
X015383Y045606D02*
X015383Y046596D01*
X020053Y046596D02*
X020053Y045606D01*
X021613Y045606D02*
X021613Y046596D01*
X023173Y046596D02*
X023173Y045606D01*
D13*
X027603Y035651D02*
X027603Y035051D01*
X028603Y035051D02*
X028603Y035651D01*
X037603Y035651D02*
X037603Y035051D01*
X038603Y035051D02*
X038603Y035651D01*
X050353Y035901D02*
X050353Y035301D01*
X051353Y035301D02*
X051353Y035901D01*
X067303Y029101D02*
X067903Y029101D01*
X067903Y028101D02*
X067303Y028101D01*
X067303Y027101D02*
X067903Y027101D01*
X018353Y035051D02*
X018353Y035651D01*
X017353Y035651D02*
X017353Y035051D01*
X003403Y026101D02*
X002803Y026101D01*
X002803Y025101D02*
X003403Y025101D01*
X003403Y024101D02*
X002803Y024101D01*
X002803Y023101D02*
X003403Y023101D01*
D14*
X002103Y018351D03*
X002103Y016601D03*
X005103Y016601D03*
X005103Y018351D03*
D15*
X004603Y014101D03*
X003603Y014101D03*
X002603Y014101D03*
X002603Y010101D03*
X003603Y010101D03*
X004603Y010101D03*
D16*
X050603Y004101D03*
D17*
X048603Y004101D03*
D18*
X051603Y008601D03*
X052603Y012101D03*
X045603Y016101D03*
X045603Y022601D03*
X058103Y018351D03*
X059103Y018101D03*
X045603Y038851D03*
X055853Y040351D03*
X057103Y041101D03*
X059103Y040601D03*
X032103Y039601D03*
X029103Y037101D03*
X023603Y033101D03*
X025103Y027601D03*
X013603Y020601D03*
X008603Y021101D03*
X023603Y016101D03*
X015103Y009101D03*
X013603Y006851D03*
X017853Y008351D03*
X008603Y032601D03*
X019603Y039101D03*
X027103Y041601D03*
D19*
X025103Y038851D03*
X023603Y036601D03*
X021853Y036601D03*
X033133Y037071D03*
X042853Y037351D03*
X060103Y022601D03*
X057103Y015101D03*
X047603Y010101D03*
X043103Y013101D03*
X044603Y014601D03*
X039103Y008601D03*
X032603Y010101D03*
X031603Y010101D03*
X028603Y010101D03*
X025103Y007601D03*
X032603Y015101D03*
X031603Y015601D03*
X028603Y016601D03*
D20*
X026603Y017601D03*
X006103Y020101D03*
X045603Y043601D03*
X053603Y037601D03*
D21*
X019103Y022601D03*
D22*
X060103Y034601D03*
X061103Y042101D03*
M02*
