%
M48
M72
T01C0.0240
T02C0.0276
T03C0.0320
T04C0.0394
T05C0.0400
T06C0.0433
T07C0.0512
T08C0.0591
T09C0.0660
T10C0.1260
%
T01
X67601Y10101
X68601Y10101
X69601Y10101
X69601Y14101
X68601Y14101
X67601Y14101
T02
X53101Y22601
T03
X67101Y18351
X67101Y16601
X70101Y16601
X70101Y18351
T04
X47101Y7601
X43601Y10101
X40601Y10101
X39601Y10101
X33101Y8601
X29101Y13101
X27601Y14601
X24601Y10101
X15101Y15101
X12101Y22601
X29351Y37351
X39071Y37071
X47101Y38851
X48601Y36601
X50351Y36601
X43601Y16601
X40601Y15601
X39601Y15101
T05
X23601Y4101
X21601Y4101
X4601Y27101
X4601Y28101
X4601Y29101
X20851Y35601
X21851Y35601
X33601Y35351
X34601Y35351
X43601Y35351
X44601Y35351
X53851Y35351
X54851Y35351
X69101Y26101
X69101Y25101
X69101Y24101
X69101Y23101
T06
X63601Y21101
X58601Y20601
X48601Y16101
X57101Y9101
X58601Y6851
X54351Y8351
X47101Y27601
X48601Y33101
X43101Y37101
X40101Y39601
X45101Y41601
X52601Y39101
X63601Y32601
X26601Y38851
X16351Y40351
X15101Y41101
X13101Y40601
X26601Y22601
X26601Y16101
X19601Y12101
X20601Y8601
X14101Y18351
X13101Y18101
T07
X12101Y34601
X11101Y42101
T08
X31601Y30351
X32601Y31501
X33601Y30351
X34601Y31501
X35601Y30601
X36601Y31501
X41601Y30351
X42601Y31501
X43601Y30351
X44601Y31501
X45601Y30601
X46601Y31501
X52101Y30351
X53101Y31501
X54101Y30351
X55101Y31501
X56101Y30601
X57101Y31501
X56601Y25401
X55101Y24601
X53601Y25401
X52101Y24601
X46101Y25401
X44601Y24601
X43101Y25401
X41601Y24601
X36101Y25401
X34601Y24601
X33101Y25401
X31601Y24601
T09
X5101Y19381
X5101Y17821
X6071Y4601
X7631Y4601
X11071Y4601
X12631Y4601
X15821Y4601
X17381Y4601
X5101Y36321
X5101Y37881
X6031Y46101
X7591Y46101
X9151Y46101
X14031Y46101
X15591Y46101
X17151Y46101
X21531Y46101
X23091Y46101
X24651Y46101
X29031Y46101
X30591Y46101
X32151Y46101
X36821Y46101
X38381Y46101
X42821Y46101
X44381Y46101
X49031Y46101
X50591Y46101
X52151Y46101
X56821Y46101
X58381Y46101
X63031Y46101
X64591Y46101
X66151Y46101
X68601Y32881
X68601Y31321
T10
X1601Y1601
X24601Y14401
X29301Y14401
X31551Y14401
X34651Y14401
X37751Y14401
X34651Y10301
X31551Y10301
X29301Y10301
X29301Y5601
X31551Y5601
X34651Y5601
X37751Y5601
X42101Y5601
X53801Y5601
X56051Y5601
X59151Y5601
X62251Y5601
X66601Y5601
X70601Y1601
X59151Y10301
X56051Y10301
X53801Y10301
X53801Y14401
X56051Y14401
X59151Y14401
X62251Y14401
X66101Y20101
X49101Y14401
X45601Y17601
X24101Y25601
X22851Y28351
X22851Y30351
X22851Y32351
X19351Y32351
X19351Y30351
X19351Y28351
X18101Y25601
X18601Y37601
X26601Y43601
X1601Y49601
X70601Y49601
M30
