G75*
G70*
%OFA0B0*%
%FSLAX24Y24*%
%IPPOS*%
%LPD*%
%AMOC8*
5,1,8,0,0,1.08239X$1,22.5*
%
%ADD10C,0.1740*%
%ADD11C,0.0966*%
%ADD12C,0.1070*%
%ADD13C,0.0680*%
%ADD14OC8,0.0600*%
%ADD15C,0.0520*%
%ADD16C,0.1080*%
%ADD17OC8,0.1080*%
%ADD18C,0.0730*%
%ADD19C,0.0671*%
%ADD20C,0.2620*%
%ADD21C,0.0516*%
%ADD22C,0.0848*%
D10*
X001601Y001601D03*
X024601Y014401D03*
X029301Y014401D03*
X031551Y014401D03*
X034651Y014401D03*
X037751Y014401D03*
X034651Y010301D03*
X031551Y010301D03*
X029301Y010301D03*
X029301Y005601D03*
X031551Y005601D03*
X034651Y005601D03*
X037751Y005601D03*
X042101Y005601D03*
X053801Y005601D03*
X056051Y005601D03*
X059151Y005601D03*
X062251Y005601D03*
X066601Y005601D03*
X070601Y001601D03*
X059151Y010301D03*
X056051Y010301D03*
X053801Y010301D03*
X053801Y014401D03*
X056051Y014401D03*
X059151Y014401D03*
X062251Y014401D03*
X049101Y014401D03*
X024101Y025601D03*
X022851Y028351D03*
X022851Y030351D03*
X022851Y032351D03*
X019351Y032351D03*
X019351Y030351D03*
X019351Y028351D03*
X018101Y025601D03*
X001601Y049601D03*
X070601Y049601D03*
D11*
X057101Y031944D02*
X057101Y031058D01*
X056101Y031044D02*
X056101Y030158D01*
X055101Y031058D02*
X055101Y031944D01*
X054101Y030794D02*
X054101Y029908D01*
X053101Y031058D02*
X053101Y031944D01*
X052101Y030794D02*
X052101Y029908D01*
X053601Y025844D02*
X053601Y024958D01*
X055101Y025044D02*
X055101Y024158D01*
X056601Y024958D02*
X056601Y025844D01*
X052101Y025044D02*
X052101Y024158D01*
X046101Y024958D02*
X046101Y025844D01*
X044601Y025044D02*
X044601Y024158D01*
X043101Y024958D02*
X043101Y025844D01*
X041601Y025044D02*
X041601Y024158D01*
X036101Y024958D02*
X036101Y025844D01*
X034601Y025044D02*
X034601Y024158D01*
X033101Y024958D02*
X033101Y025844D01*
X031601Y025044D02*
X031601Y024158D01*
X031601Y029908D02*
X031601Y030794D01*
X032601Y031058D02*
X032601Y031944D01*
X033601Y030794D02*
X033601Y029908D01*
X034601Y031058D02*
X034601Y031944D01*
X035601Y031044D02*
X035601Y030158D01*
X036601Y031058D02*
X036601Y031944D01*
X041601Y030794D02*
X041601Y029908D01*
X042601Y031058D02*
X042601Y031944D01*
X043601Y030794D02*
X043601Y029908D01*
X044601Y031058D02*
X044601Y031944D01*
X045601Y031044D02*
X045601Y030158D01*
X046601Y031058D02*
X046601Y031944D01*
D12*
X044381Y045606D02*
X044381Y046596D01*
X042821Y046596D02*
X042821Y045606D01*
X038381Y045606D02*
X038381Y046596D01*
X036821Y046596D02*
X036821Y045606D01*
X032151Y045606D02*
X032151Y046596D01*
X030591Y046596D02*
X030591Y045606D01*
X029031Y045606D02*
X029031Y046596D01*
X024651Y046596D02*
X024651Y045606D01*
X023091Y045606D02*
X023091Y046596D01*
X021531Y046596D02*
X021531Y045606D01*
X017151Y045606D02*
X017151Y046596D01*
X015591Y046596D02*
X015591Y045606D01*
X014031Y045606D02*
X014031Y046596D01*
X009151Y046596D02*
X009151Y045606D01*
X007591Y045606D02*
X007591Y046596D01*
X006031Y046596D02*
X006031Y045606D01*
X005596Y037881D02*
X004606Y037881D01*
X004606Y036321D02*
X005596Y036321D01*
X005596Y019381D02*
X004606Y019381D01*
X004606Y017821D02*
X005596Y017821D01*
X006071Y005096D02*
X006071Y004106D01*
X007631Y004106D02*
X007631Y005096D01*
X011071Y005096D02*
X011071Y004106D01*
X012631Y004106D02*
X012631Y005096D01*
X015821Y005096D02*
X015821Y004106D01*
X017381Y004106D02*
X017381Y005096D01*
X068106Y031321D02*
X069096Y031321D01*
X069096Y032881D02*
X068106Y032881D01*
X066151Y045606D02*
X066151Y046596D01*
X064591Y046596D02*
X064591Y045606D01*
X063031Y045606D02*
X063031Y046596D01*
X058381Y046596D02*
X058381Y045606D01*
X056821Y045606D02*
X056821Y046596D01*
X052151Y046596D02*
X052151Y045606D01*
X050591Y045606D02*
X050591Y046596D01*
X049031Y046596D02*
X049031Y045606D01*
D13*
X044601Y035651D02*
X044601Y035051D01*
X043601Y035051D02*
X043601Y035651D01*
X034601Y035651D02*
X034601Y035051D01*
X033601Y035051D02*
X033601Y035651D01*
X021851Y035901D02*
X021851Y035301D01*
X020851Y035301D02*
X020851Y035901D01*
X004901Y029101D02*
X004301Y029101D01*
X004301Y028101D02*
X004901Y028101D01*
X004901Y027101D02*
X004301Y027101D01*
X053851Y035051D02*
X053851Y035651D01*
X054851Y035651D02*
X054851Y035051D01*
X068801Y026101D02*
X069401Y026101D01*
X069401Y025101D02*
X068801Y025101D01*
X068801Y024101D02*
X069401Y024101D01*
X069401Y023101D02*
X068801Y023101D01*
D14*
X070101Y018351D03*
X070101Y016601D03*
X067101Y016601D03*
X067101Y018351D03*
D15*
X067601Y014101D03*
X068601Y014101D03*
X069601Y014101D03*
X069601Y010101D03*
X068601Y010101D03*
X067601Y010101D03*
D16*
X021601Y004101D03*
D17*
X023601Y004101D03*
D18*
X020601Y008601D03*
X019601Y012101D03*
X026601Y016101D03*
X026601Y022601D03*
X014101Y018351D03*
X013101Y018101D03*
X026601Y038851D03*
X016351Y040351D03*
X015101Y041101D03*
X013101Y040601D03*
X040101Y039601D03*
X043101Y037101D03*
X048601Y033101D03*
X047101Y027601D03*
X058601Y020601D03*
X063601Y021101D03*
X048601Y016101D03*
X057101Y009101D03*
X058601Y006851D03*
X054351Y008351D03*
X063601Y032601D03*
X052601Y039101D03*
X045101Y041601D03*
D19*
X047101Y038851D03*
X048601Y036601D03*
X050351Y036601D03*
X039071Y037071D03*
X029351Y037351D03*
X012101Y022601D03*
X015101Y015101D03*
X024601Y010101D03*
X029101Y013101D03*
X027601Y014601D03*
X033101Y008601D03*
X039601Y010101D03*
X040601Y010101D03*
X043601Y010101D03*
X047101Y007601D03*
X039601Y015101D03*
X040601Y015601D03*
X043601Y016601D03*
D20*
X045601Y017601D03*
X066101Y020101D03*
X026601Y043601D03*
X018601Y037601D03*
D21*
X053101Y022601D03*
D22*
X012101Y034601D03*
X011101Y042101D03*
M02*
