G75*
G70*
%OFA0B0*%
%FSLAX24Y24*%
%IPPOS*%
%LPD*%
%AMOC8*
5,1,8,0,0,1.08239X$1,22.5*
%
%ADD10C,0.1660*%
%ADD11C,0.0886*%
%ADD12C,0.0990*%
%ADD13C,0.0600*%
%ADD14OC8,0.0520*%
%ADD15C,0.0440*%
%ADD16C,0.1000*%
%ADD17OC8,0.1000*%
%ADD18C,0.0660*%
%ADD19OC8,0.0620*%
%ADD20C,0.0620*%
%ADD21C,0.0400*%
%ADD22C,0.0650*%
%ADD23C,0.0500*%
%ADD24C,0.0591*%
%ADD25C,0.0320*%
%ADD26C,0.0700*%
%ADD27C,0.1181*%
%ADD28C,0.1800*%
%ADD29C,0.1000*%
%ADD30C,0.2540*%
%ADD31C,0.0160*%
%ADD32C,0.0240*%
%ADD33C,0.0436*%
%ADD34C,0.0768*%
%ADD35C,0.1895*%
%ADD36C,0.0709*%
D10*
X030103Y005601D03*
X034453Y005601D03*
X037553Y005601D03*
X040653Y005601D03*
X042903Y005601D03*
X042903Y010301D03*
X040653Y010301D03*
X037553Y010301D03*
X037553Y014401D03*
X040653Y014401D03*
X042903Y014401D03*
X047603Y014401D03*
X034453Y014401D03*
X048103Y025601D03*
X049353Y028351D03*
X049353Y030351D03*
X049353Y032351D03*
X052853Y032351D03*
X052853Y030351D03*
X052853Y028351D03*
X054103Y025601D03*
D11*
X040603Y025044D02*
X040603Y024158D01*
X039103Y024958D02*
X039103Y025844D01*
X037603Y025044D02*
X037603Y024158D01*
X036103Y024958D02*
X036103Y025844D01*
X030603Y025044D02*
X030603Y024158D01*
X029103Y024958D02*
X029103Y025844D01*
X027603Y025044D02*
X027603Y024158D01*
X026103Y024958D02*
X026103Y025844D01*
X028603Y029908D02*
X028603Y030794D01*
X027603Y031058D02*
X027603Y031944D01*
X026603Y031044D02*
X026603Y030158D01*
X025603Y031058D02*
X025603Y031944D01*
X029603Y031944D02*
X029603Y031058D01*
X030603Y030794D02*
X030603Y029908D01*
X035603Y031058D02*
X035603Y031944D01*
X036603Y031044D02*
X036603Y030158D01*
X037603Y031058D02*
X037603Y031944D01*
X038603Y030794D02*
X038603Y029908D01*
X039603Y031058D02*
X039603Y031944D01*
X040603Y030794D02*
X040603Y029908D01*
X024603Y016444D02*
X024603Y015558D01*
X025603Y015294D02*
X025603Y014408D01*
X023603Y014408D02*
X023603Y015294D01*
X022603Y015558D02*
X022603Y016444D01*
X021603Y015544D02*
X021603Y014658D01*
X020603Y015558D02*
X020603Y016444D01*
X015603Y015294D02*
X015603Y014408D01*
X014603Y015558D02*
X014603Y016444D01*
X013603Y015294D02*
X013603Y014408D01*
X012603Y015558D02*
X012603Y016444D01*
X011603Y015544D02*
X011603Y014658D01*
X010603Y015558D02*
X010603Y016444D01*
X011103Y010344D02*
X011103Y009458D01*
X012603Y009544D02*
X012603Y008658D01*
X014103Y009458D02*
X014103Y010344D01*
X015603Y009544D02*
X015603Y008658D01*
X021103Y009458D02*
X021103Y010344D01*
X022603Y009544D02*
X022603Y008658D01*
X024103Y009458D02*
X024103Y010344D01*
X025603Y009544D02*
X025603Y008658D01*
X020103Y024158D02*
X020103Y025044D01*
X018603Y024958D02*
X018603Y025844D01*
X017103Y025044D02*
X017103Y024158D01*
X015603Y024958D02*
X015603Y025844D01*
X018103Y029908D02*
X018103Y030794D01*
X019103Y031058D02*
X019103Y031944D01*
X020103Y030794D02*
X020103Y029908D01*
X017103Y031058D02*
X017103Y031944D01*
X016103Y031044D02*
X016103Y030158D01*
X015103Y031058D02*
X015103Y031944D01*
D12*
X004098Y031321D02*
X003108Y031321D01*
X003108Y032881D02*
X004098Y032881D01*
X007823Y045606D02*
X007823Y046596D01*
X009383Y046596D02*
X009383Y045606D01*
X013823Y045606D02*
X013823Y046596D01*
X015383Y046596D02*
X015383Y045606D01*
X020053Y045606D02*
X020053Y046596D01*
X021613Y046596D02*
X021613Y045606D01*
X023173Y045606D02*
X023173Y046596D01*
X027823Y046596D02*
X027823Y045606D01*
X029383Y045606D02*
X029383Y046596D01*
X033823Y046596D02*
X033823Y045606D01*
X035383Y045606D02*
X035383Y046596D01*
X040053Y046596D02*
X040053Y045606D01*
X041613Y045606D02*
X041613Y046596D01*
X043173Y046596D02*
X043173Y045606D01*
X047553Y045606D02*
X047553Y046596D01*
X049113Y046596D02*
X049113Y045606D01*
X050673Y045606D02*
X050673Y046596D01*
X055053Y046596D02*
X055053Y045606D01*
X056613Y045606D02*
X056613Y046596D01*
X058173Y046596D02*
X058173Y045606D01*
X063053Y045606D02*
X063053Y046596D01*
X064613Y046596D02*
X064613Y045606D01*
X066173Y045606D02*
X066173Y046596D01*
X066608Y041881D02*
X067598Y041881D01*
X067598Y040321D02*
X066608Y040321D01*
X066608Y035881D02*
X067598Y035881D01*
X067598Y034321D02*
X066608Y034321D01*
X066608Y019381D02*
X067598Y019381D01*
X067598Y017821D02*
X066608Y017821D01*
X066133Y005096D02*
X066133Y004106D01*
X064573Y004106D02*
X064573Y005096D01*
X061133Y005096D02*
X061133Y004106D01*
X059573Y004106D02*
X059573Y005096D01*
X056383Y005096D02*
X056383Y004106D01*
X054823Y004106D02*
X054823Y005096D01*
D13*
X023853Y020051D02*
X023853Y020651D01*
X022853Y020651D02*
X022853Y020051D01*
X007903Y013101D02*
X007303Y013101D01*
X007303Y012101D02*
X007903Y012101D01*
X003403Y019601D02*
X002803Y019601D01*
X002803Y020601D02*
X003403Y020601D01*
X003403Y021601D02*
X002803Y021601D01*
X002803Y023101D02*
X003403Y023101D01*
X003403Y024101D02*
X002803Y024101D01*
X002803Y025101D02*
X003403Y025101D01*
X003403Y026101D02*
X002803Y026101D01*
X002803Y027601D02*
X003403Y027601D01*
X003403Y028601D02*
X002803Y028601D01*
X003303Y035601D02*
X003903Y035601D01*
X003903Y036601D02*
X003303Y036601D01*
X003303Y045101D02*
X003903Y045101D01*
X003903Y046101D02*
X003303Y046101D01*
X017353Y035651D02*
X017353Y035051D01*
X018353Y035051D02*
X018353Y035651D01*
X027603Y035651D02*
X027603Y035051D01*
X028603Y035051D02*
X028603Y035651D01*
X037603Y035651D02*
X037603Y035051D01*
X038603Y035051D02*
X038603Y035651D01*
X067303Y029101D02*
X067903Y029101D01*
X067903Y028101D02*
X067303Y028101D01*
X067303Y027101D02*
X067903Y027101D01*
D14*
X005103Y018351D03*
X005103Y016601D03*
X002103Y016601D03*
X002103Y018351D03*
D15*
X002603Y014101D03*
X003603Y014101D03*
X004603Y014101D03*
X004603Y010101D03*
X003603Y010101D03*
X002603Y010101D03*
D16*
X050603Y004101D03*
D17*
X048603Y004101D03*
D18*
X003433Y039601D02*
X002773Y039601D01*
X002773Y040601D02*
X003433Y040601D01*
X003433Y041601D02*
X002773Y041601D01*
D19*
X006603Y036601D03*
X009603Y036601D03*
D20*
X009603Y035601D03*
X006603Y035601D03*
D21*
X003603Y032881D02*
X010603Y032851D01*
X012103Y036351D01*
X012353Y038601D01*
X012103Y049101D01*
X043103Y048601D01*
X030853Y041851D02*
X029383Y043321D01*
X029383Y046101D01*
X027823Y046101D02*
X027823Y042881D01*
X029603Y041101D01*
X057103Y041101D01*
X057853Y041851D02*
X030853Y041851D01*
X027103Y041601D02*
X026103Y042601D01*
X025603Y042601D01*
X016603Y042601D01*
X015603Y043601D01*
X015603Y046101D01*
X015383Y046101D01*
X013823Y046101D02*
X013823Y042381D01*
X015603Y040351D01*
X055853Y040351D01*
X057853Y041851D02*
X059103Y040601D01*
X050103Y038101D02*
X050103Y035101D01*
X050103Y038101D02*
X020603Y038101D01*
X019603Y039101D01*
X023603Y036601D02*
X027603Y036601D01*
X028603Y035601D01*
X028603Y035351D01*
X027603Y035351D02*
X027603Y033601D01*
X029603Y032101D01*
X029603Y031501D01*
X031103Y037101D02*
X035603Y034101D01*
X040103Y034101D01*
X043103Y032601D01*
X043103Y030101D01*
X054103Y025601D02*
X057103Y022601D01*
X060103Y022601D01*
X061603Y021101D02*
X034603Y021101D01*
X030103Y016601D01*
X031603Y015601D02*
X036103Y020101D01*
X063103Y020101D01*
X063603Y020601D01*
X063603Y024101D01*
X065103Y027101D01*
X066103Y028101D01*
X067603Y028101D01*
X067603Y029101D02*
X065603Y029101D01*
X064103Y027601D01*
X062603Y024101D01*
X062603Y022101D01*
X061603Y021101D01*
X064103Y019101D02*
X037103Y019101D01*
X036603Y019101D01*
X032603Y015101D01*
X034453Y014401D02*
X037653Y017601D01*
X057103Y017601D01*
X058103Y018351D01*
X059103Y018101D02*
X057853Y016851D01*
X040003Y016851D01*
X037553Y014401D01*
X041353Y013101D02*
X043103Y014601D01*
X044603Y014601D01*
X043103Y013101D02*
X055103Y013101D01*
X057103Y015101D01*
X064103Y019101D02*
X066103Y021101D01*
X066103Y025601D01*
X067603Y027101D01*
X048603Y009101D02*
X047603Y010101D01*
X048603Y009101D02*
X048603Y004101D01*
X051603Y008601D02*
X056353Y006601D01*
X056353Y006131D01*
X056353Y006101D01*
X056353Y005131D01*
X056383Y004601D01*
X041353Y013101D02*
X029353Y013101D01*
X026603Y021601D01*
X018603Y021601D01*
X010103Y021601D01*
X006353Y018351D01*
X005103Y018351D01*
X005103Y016601D02*
X005603Y016101D01*
X005603Y009601D01*
X008103Y007101D01*
X008103Y003101D01*
X009103Y002101D01*
X015103Y002101D01*
X031103Y002101D01*
X032603Y003601D01*
X032603Y010101D01*
X031603Y010101D02*
X031603Y004601D01*
X030103Y003101D01*
X015603Y003101D01*
X014353Y003851D01*
X012603Y003851D01*
X015053Y002151D02*
X015103Y002101D01*
X005603Y001101D02*
X033103Y001101D01*
X035603Y003601D01*
X035603Y005601D01*
X038603Y008601D01*
X039103Y008601D01*
X030103Y010101D02*
X027603Y005101D01*
X005603Y001101D02*
X001103Y005601D01*
X001103Y017601D01*
X001853Y018351D01*
X002103Y018351D01*
X006323Y028601D02*
X012603Y028601D01*
X013603Y028601D01*
X012603Y028601D02*
X012603Y033101D01*
X015353Y035351D01*
X017353Y035351D01*
X025603Y042601D02*
X023353Y045031D01*
X023173Y046101D01*
X029103Y037101D02*
X031103Y037101D01*
D22*
X029103Y037101D03*
X032103Y039601D03*
X027103Y041601D03*
X019603Y039101D03*
X023603Y033101D03*
X037103Y019101D03*
X045603Y016101D03*
X045603Y022601D03*
X058103Y018351D03*
X059103Y018101D03*
X051603Y008601D03*
X050103Y035101D03*
X045603Y038851D03*
X055853Y040351D03*
X057103Y041101D03*
X059103Y040601D03*
X012603Y003851D03*
D23*
X022603Y013101D02*
X022603Y016001D01*
X018603Y028351D02*
X019103Y030101D01*
X019103Y031501D01*
X017103Y031501D02*
X017103Y033101D01*
X018603Y034101D01*
X022603Y034101D01*
X023603Y033101D01*
X026603Y033101D01*
X027603Y032601D01*
X027603Y031501D01*
X033133Y037071D02*
X034353Y037351D01*
X042853Y037351D01*
X045603Y038851D02*
X025103Y038851D01*
X032103Y039601D02*
X065103Y039601D01*
X066323Y037881D01*
X067103Y035881D01*
X067103Y034321D02*
X064883Y034601D01*
X060103Y034601D01*
X061103Y042101D02*
X059853Y043601D01*
X048603Y043601D01*
X049113Y047091D02*
X049103Y047101D01*
X041613Y046101D02*
X041603Y046101D01*
X043103Y030101D02*
X043103Y027601D01*
X045603Y022601D01*
X045603Y016101D02*
X044603Y016101D01*
X043103Y014601D01*
X042903Y014401D01*
X045603Y016101D02*
X063383Y016101D01*
X067103Y019381D01*
X059573Y004601D02*
X059573Y004071D01*
X058603Y003101D01*
X055603Y003101D01*
X054603Y004101D01*
X054603Y004381D01*
X054823Y004601D01*
X018603Y028351D02*
X014103Y028351D01*
X013603Y028601D01*
X006323Y028601D02*
X003603Y031321D01*
D24*
X023603Y036601D03*
X025103Y038851D03*
X033133Y037071D03*
X042853Y037351D03*
X060103Y022601D03*
X057103Y015101D03*
X047603Y010101D03*
X043103Y013101D03*
X044603Y014601D03*
X039103Y008601D03*
X032603Y010101D03*
X031603Y010101D03*
X030103Y010101D03*
X032603Y015101D03*
X031603Y015601D03*
X030103Y016601D03*
X027603Y005101D03*
D25*
X021103Y009901D02*
X021103Y012101D01*
X018603Y014601D01*
X018603Y021601D01*
X022853Y020351D02*
X022853Y017851D01*
X022603Y017601D01*
X022603Y016001D01*
X014603Y016001D02*
X014603Y013101D01*
X013603Y012101D01*
X007603Y012101D01*
X007603Y013101D02*
X011603Y013101D01*
X012603Y014101D01*
X012603Y016001D01*
X037603Y029101D02*
X037603Y031101D01*
X037603Y029101D02*
X038603Y028101D01*
X039603Y028101D01*
X042103Y025601D01*
X042103Y024101D01*
X006603Y035601D02*
X005603Y035601D01*
X004603Y036601D01*
X004603Y044601D01*
X004103Y045101D01*
X003603Y045101D01*
X003103Y044601D01*
X003103Y041601D01*
X003103Y040601D02*
X002103Y040601D01*
X001603Y041101D01*
X001603Y037101D01*
X002103Y036601D01*
X003603Y036601D01*
X001603Y041101D02*
X001603Y045101D01*
X002603Y046101D01*
X003603Y046101D01*
D26*
X022603Y013101D02*
X023603Y012101D01*
X032103Y012101D01*
X035603Y008601D01*
X034453Y007201D02*
X034453Y005601D01*
X034453Y007201D02*
X037553Y010301D01*
X037553Y011051D01*
X039603Y012101D01*
X052603Y012101D01*
X062383Y012101D01*
X067103Y017821D01*
X070103Y029601D02*
X070103Y041101D01*
X069323Y041881D01*
X067103Y041881D01*
X067103Y040321D02*
X065883Y040321D01*
X064603Y041601D01*
X064603Y046091D01*
X064613Y046101D01*
D27*
X052603Y012101D03*
D28*
X064573Y003071D02*
X064103Y002101D01*
X063353Y001601D01*
X039103Y001601D01*
X037603Y003101D01*
X037603Y003601D01*
X037553Y004651D01*
X061103Y001601D02*
X067103Y001601D01*
X070103Y004601D01*
X070103Y029601D01*
X070103Y030101D01*
X068603Y031601D01*
X058103Y031601D01*
X053603Y037601D01*
X048103Y043851D02*
X047603Y043851D01*
X046603Y043851D01*
X047603Y043851D02*
X045603Y043601D01*
X041103Y043601D01*
X040553Y043901D01*
X043103Y048601D02*
X049603Y048601D01*
X056103Y048601D01*
X063603Y048601D01*
D29*
X064603Y046611D01*
X064613Y046101D01*
X056613Y046101D02*
X056603Y046111D01*
X056103Y048601D01*
X056613Y048091D01*
X049603Y048601D02*
X049103Y047101D01*
X049113Y047091D02*
X049113Y046101D01*
X047553Y046101D02*
X047603Y043851D01*
X048103Y043851D02*
X048603Y043601D01*
X041613Y046101D02*
X041613Y047111D01*
X043103Y048601D01*
X040053Y046101D02*
X040553Y043901D01*
X064573Y004601D02*
X064573Y003071D01*
D30*
X053603Y037601D03*
X045603Y043601D03*
D31*
X048103Y043851D02*
X049103Y043851D01*
X048603Y043601D01*
X056353Y006101D02*
X056603Y006101D01*
X056603Y004601D01*
D32*
X039603Y022101D02*
X040603Y023601D01*
X040603Y024601D01*
X039603Y022101D02*
X004603Y022101D01*
X003103Y023101D01*
X004103Y023101D02*
X004103Y023601D01*
X003603Y024101D01*
X003103Y024101D01*
X004103Y024101D02*
X004103Y024601D01*
X003603Y025101D01*
X003103Y025101D01*
X003103Y026101D02*
X003603Y026601D01*
X015103Y026601D01*
X024603Y026601D01*
X034903Y026601D01*
X036103Y025401D01*
X030603Y024601D02*
X030603Y023601D01*
X030103Y023101D01*
X005103Y023101D01*
X004103Y024101D01*
X004103Y023101D02*
X004603Y022601D01*
X019103Y022601D01*
X015603Y025401D02*
X015603Y026101D01*
X015103Y026601D01*
X024603Y026601D02*
X024903Y026601D01*
X026103Y025401D01*
D33*
X019103Y022601D03*
D34*
X060103Y034601D03*
X061103Y042101D03*
D35*
X001603Y001601D03*
X033353Y028601D03*
X001603Y049601D03*
X070603Y049601D03*
X070603Y001601D03*
D36*
X042103Y024101D03*
M02*
