G75*
G70*
%OFA0B0*%
%FSLAX24Y24*%
%IPPOS*%
%LPD*%
%AMOC8*
5,1,8,0,0,1.08239X$1,22.5*
%
%ADD10C,0.1580*%
%ADD11OC8,0.0680*%
%ADD12C,0.2080*%
%ADD13C,0.0600*%
%ADD14OC8,0.0640*%
%ADD15R,0.1025X0.1025*%
%ADD16C,0.0674*%
%ADD17C,0.0081*%
%ADD18C,0.0082*%
%ADD19C,0.0083*%
%ADD20C,0.0083*%
%ADD21C,0.0082*%
%ADD22C,0.0081*%
%ADD23C,0.0080*%
%ADD24C,0.0087*%
%ADD25C,0.0434*%
%ADD26C,0.0680*%
%ADD27C,0.0084*%
%ADD28C,0.0085*%
%ADD29C,0.0830*%
%ADD30OC8,0.0830*%
%ADD31C,0.0360*%
%ADD32C,0.0390*%
%ADD33R,0.0476X0.0476*%
%ADD34C,0.0480*%
D10*
X001659Y004544D03*
X001659Y031644D03*
X048659Y031644D03*
X048759Y004444D03*
D11*
X033819Y007544D03*
X032739Y007544D03*
X031659Y007544D03*
X030579Y007544D03*
X029499Y007544D03*
X030039Y006544D03*
X031119Y006544D03*
X032199Y006544D03*
X033279Y006544D03*
X017319Y007544D03*
X016239Y007544D03*
X015159Y007544D03*
X014079Y007544D03*
X012999Y007544D03*
X013539Y006544D03*
X014619Y006544D03*
X015699Y006544D03*
X016779Y006544D03*
D12*
X020089Y007044D03*
X026729Y007044D03*
X036589Y007044D03*
X010229Y007044D03*
D13*
X015159Y010284D02*
X015159Y010804D01*
X016159Y010804D02*
X016159Y010284D01*
X017159Y010284D02*
X017159Y010804D01*
X018159Y010804D02*
X018159Y010284D01*
X019159Y010284D02*
X019159Y010804D01*
X020159Y010804D02*
X020159Y010284D01*
X021159Y010284D02*
X021159Y010804D01*
X022159Y010804D02*
X022159Y010284D01*
X022159Y013284D02*
X022159Y013804D01*
X021159Y013804D02*
X021159Y013284D01*
X020159Y013284D02*
X020159Y013804D01*
X019159Y013804D02*
X019159Y013284D01*
X018159Y013284D02*
X018159Y013804D01*
X017159Y013804D02*
X017159Y013284D01*
X016159Y013284D02*
X016159Y013804D01*
X015159Y013804D02*
X015159Y013284D01*
X035959Y013504D02*
X035959Y012984D01*
X036959Y012984D02*
X036959Y013504D01*
X037959Y013504D02*
X037959Y012984D01*
X038959Y012984D02*
X038959Y013504D01*
X039959Y013504D02*
X039959Y012984D01*
X040959Y012984D02*
X040959Y013504D01*
X041959Y013504D02*
X041959Y012984D01*
X041959Y010504D02*
X041959Y009984D01*
X040959Y009984D02*
X040959Y010504D01*
X039959Y010504D02*
X039959Y009984D01*
X038959Y009984D02*
X038959Y010504D01*
X037959Y010504D02*
X037959Y009984D01*
X036959Y009984D02*
X036959Y010504D01*
X035959Y010504D02*
X035959Y009984D01*
D14*
X034259Y011344D03*
X034259Y012344D03*
X024159Y012544D03*
X024159Y011544D03*
X024159Y014044D03*
X024159Y015044D03*
X021659Y015044D03*
X020659Y015044D03*
X019159Y016544D03*
X018159Y016544D03*
X017159Y015544D03*
X016159Y015544D03*
D15*
X043979Y028824D03*
X046179Y029314D03*
D16*
X046262Y021884D02*
X046856Y021884D01*
X046856Y020884D02*
X046262Y020884D01*
X046592Y017914D02*
X047186Y017914D01*
X047186Y016914D02*
X046592Y016914D01*
X046462Y013944D02*
X047056Y013944D01*
X047056Y012944D02*
X046462Y012944D01*
X046562Y010044D02*
X047156Y010044D01*
X047156Y009044D02*
X046562Y009044D01*
X046562Y008044D02*
X047156Y008044D01*
X047156Y007044D02*
X046562Y007044D01*
X010549Y030127D02*
X010549Y030721D01*
X009549Y030721D02*
X009549Y030127D01*
X008549Y030127D02*
X008549Y030721D01*
X002756Y022354D02*
X002162Y022354D01*
X002162Y021354D02*
X002756Y021354D01*
X002756Y020354D02*
X002162Y020354D01*
X002222Y018034D02*
X002816Y018034D01*
X002816Y017034D02*
X002222Y017034D01*
X002222Y016034D02*
X002816Y016034D01*
X002796Y012974D02*
X002202Y012974D01*
X002202Y011974D02*
X002796Y011974D01*
X002796Y010974D02*
X002202Y010974D01*
D17*
X019706Y021735D02*
X019706Y021813D01*
X020296Y021813D01*
X020296Y021735D01*
X019706Y021735D01*
X019706Y021892D02*
X019706Y021970D01*
X020296Y021970D01*
X020296Y021892D01*
X019706Y021892D01*
X019706Y022050D02*
X019706Y022128D01*
X020296Y022128D01*
X020296Y022050D01*
X019706Y022050D01*
X019706Y022207D02*
X019706Y022285D01*
X020296Y022285D01*
X020296Y022207D01*
X019706Y022207D01*
X019706Y022365D02*
X019706Y022443D01*
X020296Y022443D01*
X020296Y022365D01*
X019706Y022365D01*
X019706Y022522D02*
X019706Y022600D01*
X020296Y022600D01*
X020296Y022522D01*
X019706Y022522D01*
X019706Y022680D02*
X019706Y022758D01*
X020296Y022758D01*
X020296Y022680D01*
X019706Y022680D01*
X019706Y022837D02*
X019706Y022915D01*
X020296Y022915D01*
X020296Y022837D01*
X019706Y022837D01*
X019706Y022995D02*
X019706Y023073D01*
X020296Y023073D01*
X020296Y022995D01*
X019706Y022995D01*
X019706Y023152D02*
X019706Y023230D01*
X020296Y023230D01*
X020296Y023152D01*
X019706Y023152D01*
X019706Y023310D02*
X019706Y023388D01*
X020296Y023388D01*
X020296Y023310D01*
X019706Y023310D01*
X019706Y023467D02*
X019706Y023545D01*
X020296Y023545D01*
X020296Y023467D01*
X019706Y023467D01*
X019706Y023625D02*
X019706Y023703D01*
X020296Y023703D01*
X020296Y023625D01*
X019706Y023625D01*
X019706Y023782D02*
X019706Y023860D01*
X020296Y023860D01*
X020296Y023782D01*
X019706Y023782D01*
X019706Y023940D02*
X019706Y024018D01*
X020296Y024018D01*
X020296Y023940D01*
X019706Y023940D01*
X019706Y024097D02*
X019706Y024175D01*
X020296Y024175D01*
X020296Y024097D01*
X019706Y024097D01*
X019706Y024255D02*
X019706Y024333D01*
X020296Y024333D01*
X020296Y024255D01*
X019706Y024255D01*
X019706Y024412D02*
X019706Y024490D01*
X020296Y024490D01*
X020296Y024412D01*
X019706Y024412D01*
X019706Y024570D02*
X019706Y024648D01*
X020296Y024648D01*
X020296Y024570D01*
X019706Y024570D01*
X019706Y024727D02*
X019706Y024805D01*
X020296Y024805D01*
X020296Y024727D01*
X019706Y024727D01*
X019706Y024885D02*
X019706Y024963D01*
X020296Y024963D01*
X020296Y024885D01*
X019706Y024885D01*
X019706Y025042D02*
X019706Y025120D01*
X020296Y025120D01*
X020296Y025042D01*
X019706Y025042D01*
X019706Y025200D02*
X019706Y025278D01*
X020296Y025278D01*
X020296Y025200D01*
X019706Y025200D01*
X019706Y025357D02*
X019706Y025435D01*
X020296Y025435D01*
X020296Y025357D01*
X019706Y025357D01*
X019706Y025515D02*
X019706Y025593D01*
X020296Y025593D01*
X020296Y025515D01*
X019706Y025515D01*
X020710Y026007D02*
X020710Y026597D01*
X020788Y026597D01*
X020788Y026007D01*
X020710Y026007D01*
X020710Y026087D02*
X020788Y026087D01*
X020788Y026167D02*
X020710Y026167D01*
X020710Y026247D02*
X020788Y026247D01*
X020788Y026327D02*
X020710Y026327D01*
X020710Y026407D02*
X020788Y026407D01*
X020788Y026487D02*
X020710Y026487D01*
X020710Y026567D02*
X020788Y026567D01*
X020867Y026597D02*
X020867Y026007D01*
X020867Y026597D02*
X020945Y026597D01*
X020945Y026007D01*
X020867Y026007D01*
X020867Y026087D02*
X020945Y026087D01*
X020945Y026167D02*
X020867Y026167D01*
X020867Y026247D02*
X020945Y026247D01*
X020945Y026327D02*
X020867Y026327D01*
X020867Y026407D02*
X020945Y026407D01*
X020945Y026487D02*
X020867Y026487D01*
X020867Y026567D02*
X020945Y026567D01*
X021025Y026597D02*
X021025Y026007D01*
X021025Y026597D02*
X021103Y026597D01*
X021103Y026007D01*
X021025Y026007D01*
X021025Y026087D02*
X021103Y026087D01*
X021103Y026167D02*
X021025Y026167D01*
X021025Y026247D02*
X021103Y026247D01*
X021103Y026327D02*
X021025Y026327D01*
X021025Y026407D02*
X021103Y026407D01*
X021103Y026487D02*
X021025Y026487D01*
X021025Y026567D02*
X021103Y026567D01*
X021182Y026597D02*
X021182Y026007D01*
X021182Y026597D02*
X021260Y026597D01*
X021260Y026007D01*
X021182Y026007D01*
X021182Y026087D02*
X021260Y026087D01*
X021260Y026167D02*
X021182Y026167D01*
X021182Y026247D02*
X021260Y026247D01*
X021260Y026327D02*
X021182Y026327D01*
X021182Y026407D02*
X021260Y026407D01*
X021260Y026487D02*
X021182Y026487D01*
X021182Y026567D02*
X021260Y026567D01*
X021340Y026597D02*
X021340Y026007D01*
X021340Y026597D02*
X021418Y026597D01*
X021418Y026007D01*
X021340Y026007D01*
X021340Y026087D02*
X021418Y026087D01*
X021418Y026167D02*
X021340Y026167D01*
X021340Y026247D02*
X021418Y026247D01*
X021418Y026327D02*
X021340Y026327D01*
X021340Y026407D02*
X021418Y026407D01*
X021418Y026487D02*
X021340Y026487D01*
X021340Y026567D02*
X021418Y026567D01*
X021497Y026597D02*
X021497Y026007D01*
X021497Y026597D02*
X021575Y026597D01*
X021575Y026007D01*
X021497Y026007D01*
X021497Y026087D02*
X021575Y026087D01*
X021575Y026167D02*
X021497Y026167D01*
X021497Y026247D02*
X021575Y026247D01*
X021575Y026327D02*
X021497Y026327D01*
X021497Y026407D02*
X021575Y026407D01*
X021575Y026487D02*
X021497Y026487D01*
X021497Y026567D02*
X021575Y026567D01*
X021655Y026597D02*
X021655Y026007D01*
X021655Y026597D02*
X021733Y026597D01*
X021733Y026007D01*
X021655Y026007D01*
X021655Y026087D02*
X021733Y026087D01*
X021733Y026167D02*
X021655Y026167D01*
X021655Y026247D02*
X021733Y026247D01*
X021733Y026327D02*
X021655Y026327D01*
X021655Y026407D02*
X021733Y026407D01*
X021733Y026487D02*
X021655Y026487D01*
X021655Y026567D02*
X021733Y026567D01*
X021812Y026597D02*
X021812Y026007D01*
X021812Y026597D02*
X021890Y026597D01*
X021890Y026007D01*
X021812Y026007D01*
X021812Y026087D02*
X021890Y026087D01*
X021890Y026167D02*
X021812Y026167D01*
X021812Y026247D02*
X021890Y026247D01*
X021890Y026327D02*
X021812Y026327D01*
X021812Y026407D02*
X021890Y026407D01*
X021890Y026487D02*
X021812Y026487D01*
X021812Y026567D02*
X021890Y026567D01*
X021970Y026597D02*
X021970Y026007D01*
X021970Y026597D02*
X022048Y026597D01*
X022048Y026007D01*
X021970Y026007D01*
X021970Y026087D02*
X022048Y026087D01*
X022048Y026167D02*
X021970Y026167D01*
X021970Y026247D02*
X022048Y026247D01*
X022048Y026327D02*
X021970Y026327D01*
X021970Y026407D02*
X022048Y026407D01*
X022048Y026487D02*
X021970Y026487D01*
X021970Y026567D02*
X022048Y026567D01*
X022127Y026597D02*
X022127Y026007D01*
X022127Y026597D02*
X022205Y026597D01*
X022205Y026007D01*
X022127Y026007D01*
X022127Y026087D02*
X022205Y026087D01*
X022205Y026167D02*
X022127Y026167D01*
X022127Y026247D02*
X022205Y026247D01*
X022205Y026327D02*
X022127Y026327D01*
X022127Y026407D02*
X022205Y026407D01*
X022205Y026487D02*
X022127Y026487D01*
X022127Y026567D02*
X022205Y026567D01*
X022285Y026597D02*
X022285Y026007D01*
X022285Y026597D02*
X022363Y026597D01*
X022363Y026007D01*
X022285Y026007D01*
X022285Y026087D02*
X022363Y026087D01*
X022363Y026167D02*
X022285Y026167D01*
X022285Y026247D02*
X022363Y026247D01*
X022363Y026327D02*
X022285Y026327D01*
X022285Y026407D02*
X022363Y026407D01*
X022363Y026487D02*
X022285Y026487D01*
X022285Y026567D02*
X022363Y026567D01*
X022442Y026597D02*
X022442Y026007D01*
X022442Y026597D02*
X022520Y026597D01*
X022520Y026007D01*
X022442Y026007D01*
X022442Y026087D02*
X022520Y026087D01*
X022520Y026167D02*
X022442Y026167D01*
X022442Y026247D02*
X022520Y026247D01*
X022520Y026327D02*
X022442Y026327D01*
X022442Y026407D02*
X022520Y026407D01*
X022520Y026487D02*
X022442Y026487D01*
X022442Y026567D02*
X022520Y026567D01*
X022600Y026597D02*
X022600Y026007D01*
X022600Y026597D02*
X022678Y026597D01*
X022678Y026007D01*
X022600Y026007D01*
X022600Y026087D02*
X022678Y026087D01*
X022678Y026167D02*
X022600Y026167D01*
X022600Y026247D02*
X022678Y026247D01*
X022678Y026327D02*
X022600Y026327D01*
X022600Y026407D02*
X022678Y026407D01*
X022678Y026487D02*
X022600Y026487D01*
X022600Y026567D02*
X022678Y026567D01*
X022757Y026597D02*
X022757Y026007D01*
X022757Y026597D02*
X022835Y026597D01*
X022835Y026007D01*
X022757Y026007D01*
X022757Y026087D02*
X022835Y026087D01*
X022835Y026167D02*
X022757Y026167D01*
X022757Y026247D02*
X022835Y026247D01*
X022835Y026327D02*
X022757Y026327D01*
X022757Y026407D02*
X022835Y026407D01*
X022835Y026487D02*
X022757Y026487D01*
X022757Y026567D02*
X022835Y026567D01*
X022915Y026597D02*
X022915Y026007D01*
X022915Y026597D02*
X022993Y026597D01*
X022993Y026007D01*
X022915Y026007D01*
X022915Y026087D02*
X022993Y026087D01*
X022993Y026167D02*
X022915Y026167D01*
X022915Y026247D02*
X022993Y026247D01*
X022993Y026327D02*
X022915Y026327D01*
X022915Y026407D02*
X022993Y026407D01*
X022993Y026487D02*
X022915Y026487D01*
X022915Y026567D02*
X022993Y026567D01*
X023072Y026597D02*
X023072Y026007D01*
X023072Y026597D02*
X023150Y026597D01*
X023150Y026007D01*
X023072Y026007D01*
X023072Y026087D02*
X023150Y026087D01*
X023150Y026167D02*
X023072Y026167D01*
X023072Y026247D02*
X023150Y026247D01*
X023150Y026327D02*
X023072Y026327D01*
X023072Y026407D02*
X023150Y026407D01*
X023150Y026487D02*
X023072Y026487D01*
X023072Y026567D02*
X023150Y026567D01*
X023230Y026597D02*
X023230Y026007D01*
X023230Y026597D02*
X023308Y026597D01*
X023308Y026007D01*
X023230Y026007D01*
X023230Y026087D02*
X023308Y026087D01*
X023308Y026167D02*
X023230Y026167D01*
X023230Y026247D02*
X023308Y026247D01*
X023308Y026327D02*
X023230Y026327D01*
X023230Y026407D02*
X023308Y026407D01*
X023308Y026487D02*
X023230Y026487D01*
X023230Y026567D02*
X023308Y026567D01*
X023387Y026597D02*
X023387Y026007D01*
X023387Y026597D02*
X023465Y026597D01*
X023465Y026007D01*
X023387Y026007D01*
X023387Y026087D02*
X023465Y026087D01*
X023465Y026167D02*
X023387Y026167D01*
X023387Y026247D02*
X023465Y026247D01*
X023465Y026327D02*
X023387Y026327D01*
X023387Y026407D02*
X023465Y026407D01*
X023465Y026487D02*
X023387Y026487D01*
X023387Y026567D02*
X023465Y026567D01*
X023545Y026597D02*
X023545Y026007D01*
X023545Y026597D02*
X023623Y026597D01*
X023623Y026007D01*
X023545Y026007D01*
X023545Y026087D02*
X023623Y026087D01*
X023623Y026167D02*
X023545Y026167D01*
X023545Y026247D02*
X023623Y026247D01*
X023623Y026327D02*
X023545Y026327D01*
X023545Y026407D02*
X023623Y026407D01*
X023623Y026487D02*
X023545Y026487D01*
X023545Y026567D02*
X023623Y026567D01*
X023702Y026597D02*
X023702Y026007D01*
X023702Y026597D02*
X023780Y026597D01*
X023780Y026007D01*
X023702Y026007D01*
X023702Y026087D02*
X023780Y026087D01*
X023780Y026167D02*
X023702Y026167D01*
X023702Y026247D02*
X023780Y026247D01*
X023780Y026327D02*
X023702Y026327D01*
X023702Y026407D02*
X023780Y026407D01*
X023780Y026487D02*
X023702Y026487D01*
X023702Y026567D02*
X023780Y026567D01*
X023860Y026597D02*
X023860Y026007D01*
X023860Y026597D02*
X023938Y026597D01*
X023938Y026007D01*
X023860Y026007D01*
X023860Y026087D02*
X023938Y026087D01*
X023938Y026167D02*
X023860Y026167D01*
X023860Y026247D02*
X023938Y026247D01*
X023938Y026327D02*
X023860Y026327D01*
X023860Y026407D02*
X023938Y026407D01*
X023938Y026487D02*
X023860Y026487D01*
X023860Y026567D02*
X023938Y026567D01*
X024017Y026597D02*
X024017Y026007D01*
X024017Y026597D02*
X024095Y026597D01*
X024095Y026007D01*
X024017Y026007D01*
X024017Y026087D02*
X024095Y026087D01*
X024095Y026167D02*
X024017Y026167D01*
X024017Y026247D02*
X024095Y026247D01*
X024095Y026327D02*
X024017Y026327D01*
X024017Y026407D02*
X024095Y026407D01*
X024095Y026487D02*
X024017Y026487D01*
X024017Y026567D02*
X024095Y026567D01*
X024175Y026597D02*
X024175Y026007D01*
X024175Y026597D02*
X024253Y026597D01*
X024253Y026007D01*
X024175Y026007D01*
X024175Y026087D02*
X024253Y026087D01*
X024253Y026167D02*
X024175Y026167D01*
X024175Y026247D02*
X024253Y026247D01*
X024253Y026327D02*
X024175Y026327D01*
X024175Y026407D02*
X024253Y026407D01*
X024253Y026487D02*
X024175Y026487D01*
X024175Y026567D02*
X024253Y026567D01*
X024332Y026597D02*
X024332Y026007D01*
X024332Y026597D02*
X024410Y026597D01*
X024410Y026007D01*
X024332Y026007D01*
X024332Y026087D02*
X024410Y026087D01*
X024410Y026167D02*
X024332Y026167D01*
X024332Y026247D02*
X024410Y026247D01*
X024410Y026327D02*
X024332Y026327D01*
X024332Y026407D02*
X024410Y026407D01*
X024410Y026487D02*
X024332Y026487D01*
X024332Y026567D02*
X024410Y026567D01*
X024490Y026597D02*
X024490Y026007D01*
X024490Y026597D02*
X024568Y026597D01*
X024568Y026007D01*
X024490Y026007D01*
X024490Y026087D02*
X024568Y026087D01*
X024568Y026167D02*
X024490Y026167D01*
X024490Y026247D02*
X024568Y026247D01*
X024568Y026327D02*
X024490Y026327D01*
X024490Y026407D02*
X024568Y026407D01*
X024568Y026487D02*
X024490Y026487D01*
X024490Y026567D02*
X024568Y026567D01*
X024982Y025593D02*
X024982Y025515D01*
X024982Y025593D02*
X025572Y025593D01*
X025572Y025515D01*
X024982Y025515D01*
X024982Y025435D02*
X024982Y025357D01*
X024982Y025435D02*
X025572Y025435D01*
X025572Y025357D01*
X024982Y025357D01*
X024982Y025278D02*
X024982Y025200D01*
X024982Y025278D02*
X025572Y025278D01*
X025572Y025200D01*
X024982Y025200D01*
X024982Y025120D02*
X024982Y025042D01*
X024982Y025120D02*
X025572Y025120D01*
X025572Y025042D01*
X024982Y025042D01*
X024982Y024963D02*
X024982Y024885D01*
X024982Y024963D02*
X025572Y024963D01*
X025572Y024885D01*
X024982Y024885D01*
X024982Y024805D02*
X024982Y024727D01*
X024982Y024805D02*
X025572Y024805D01*
X025572Y024727D01*
X024982Y024727D01*
X024982Y024648D02*
X024982Y024570D01*
X024982Y024648D02*
X025572Y024648D01*
X025572Y024570D01*
X024982Y024570D01*
X024982Y024490D02*
X024982Y024412D01*
X024982Y024490D02*
X025572Y024490D01*
X025572Y024412D01*
X024982Y024412D01*
X024982Y024333D02*
X024982Y024255D01*
X024982Y024333D02*
X025572Y024333D01*
X025572Y024255D01*
X024982Y024255D01*
X024982Y024175D02*
X024982Y024097D01*
X024982Y024175D02*
X025572Y024175D01*
X025572Y024097D01*
X024982Y024097D01*
X024982Y024018D02*
X024982Y023940D01*
X024982Y024018D02*
X025572Y024018D01*
X025572Y023940D01*
X024982Y023940D01*
X024982Y023860D02*
X024982Y023782D01*
X024982Y023860D02*
X025572Y023860D01*
X025572Y023782D01*
X024982Y023782D01*
X024982Y023703D02*
X024982Y023625D01*
X024982Y023703D02*
X025572Y023703D01*
X025572Y023625D01*
X024982Y023625D01*
X024982Y023545D02*
X024982Y023467D01*
X024982Y023545D02*
X025572Y023545D01*
X025572Y023467D01*
X024982Y023467D01*
X024982Y023388D02*
X024982Y023310D01*
X024982Y023388D02*
X025572Y023388D01*
X025572Y023310D01*
X024982Y023310D01*
X024982Y023230D02*
X024982Y023152D01*
X024982Y023230D02*
X025572Y023230D01*
X025572Y023152D01*
X024982Y023152D01*
X024982Y023073D02*
X024982Y022995D01*
X024982Y023073D02*
X025572Y023073D01*
X025572Y022995D01*
X024982Y022995D01*
X024982Y022915D02*
X024982Y022837D01*
X024982Y022915D02*
X025572Y022915D01*
X025572Y022837D01*
X024982Y022837D01*
X024982Y022758D02*
X024982Y022680D01*
X024982Y022758D02*
X025572Y022758D01*
X025572Y022680D01*
X024982Y022680D01*
X024982Y022600D02*
X024982Y022522D01*
X024982Y022600D02*
X025572Y022600D01*
X025572Y022522D01*
X024982Y022522D01*
X024982Y022443D02*
X024982Y022365D01*
X024982Y022443D02*
X025572Y022443D01*
X025572Y022365D01*
X024982Y022365D01*
X024982Y022285D02*
X024982Y022207D01*
X024982Y022285D02*
X025572Y022285D01*
X025572Y022207D01*
X024982Y022207D01*
X024982Y022128D02*
X024982Y022050D01*
X024982Y022128D02*
X025572Y022128D01*
X025572Y022050D01*
X024982Y022050D01*
X024982Y021970D02*
X024982Y021892D01*
X024982Y021970D02*
X025572Y021970D01*
X025572Y021892D01*
X024982Y021892D01*
X024982Y021813D02*
X024982Y021735D01*
X024982Y021813D02*
X025572Y021813D01*
X025572Y021735D01*
X024982Y021735D01*
X024490Y021321D02*
X024490Y020731D01*
X024490Y021321D02*
X024568Y021321D01*
X024568Y020731D01*
X024490Y020731D01*
X024490Y020811D02*
X024568Y020811D01*
X024568Y020891D02*
X024490Y020891D01*
X024490Y020971D02*
X024568Y020971D01*
X024568Y021051D02*
X024490Y021051D01*
X024490Y021131D02*
X024568Y021131D01*
X024568Y021211D02*
X024490Y021211D01*
X024490Y021291D02*
X024568Y021291D01*
X024332Y021321D02*
X024332Y020731D01*
X024332Y021321D02*
X024410Y021321D01*
X024410Y020731D01*
X024332Y020731D01*
X024332Y020811D02*
X024410Y020811D01*
X024410Y020891D02*
X024332Y020891D01*
X024332Y020971D02*
X024410Y020971D01*
X024410Y021051D02*
X024332Y021051D01*
X024332Y021131D02*
X024410Y021131D01*
X024410Y021211D02*
X024332Y021211D01*
X024332Y021291D02*
X024410Y021291D01*
X024175Y021321D02*
X024175Y020731D01*
X024175Y021321D02*
X024253Y021321D01*
X024253Y020731D01*
X024175Y020731D01*
X024175Y020811D02*
X024253Y020811D01*
X024253Y020891D02*
X024175Y020891D01*
X024175Y020971D02*
X024253Y020971D01*
X024253Y021051D02*
X024175Y021051D01*
X024175Y021131D02*
X024253Y021131D01*
X024253Y021211D02*
X024175Y021211D01*
X024175Y021291D02*
X024253Y021291D01*
X024017Y021321D02*
X024017Y020731D01*
X024017Y021321D02*
X024095Y021321D01*
X024095Y020731D01*
X024017Y020731D01*
X024017Y020811D02*
X024095Y020811D01*
X024095Y020891D02*
X024017Y020891D01*
X024017Y020971D02*
X024095Y020971D01*
X024095Y021051D02*
X024017Y021051D01*
X024017Y021131D02*
X024095Y021131D01*
X024095Y021211D02*
X024017Y021211D01*
X024017Y021291D02*
X024095Y021291D01*
X023860Y021321D02*
X023860Y020731D01*
X023860Y021321D02*
X023938Y021321D01*
X023938Y020731D01*
X023860Y020731D01*
X023860Y020811D02*
X023938Y020811D01*
X023938Y020891D02*
X023860Y020891D01*
X023860Y020971D02*
X023938Y020971D01*
X023938Y021051D02*
X023860Y021051D01*
X023860Y021131D02*
X023938Y021131D01*
X023938Y021211D02*
X023860Y021211D01*
X023860Y021291D02*
X023938Y021291D01*
X023702Y021321D02*
X023702Y020731D01*
X023702Y021321D02*
X023780Y021321D01*
X023780Y020731D01*
X023702Y020731D01*
X023702Y020811D02*
X023780Y020811D01*
X023780Y020891D02*
X023702Y020891D01*
X023702Y020971D02*
X023780Y020971D01*
X023780Y021051D02*
X023702Y021051D01*
X023702Y021131D02*
X023780Y021131D01*
X023780Y021211D02*
X023702Y021211D01*
X023702Y021291D02*
X023780Y021291D01*
X023545Y021321D02*
X023545Y020731D01*
X023545Y021321D02*
X023623Y021321D01*
X023623Y020731D01*
X023545Y020731D01*
X023545Y020811D02*
X023623Y020811D01*
X023623Y020891D02*
X023545Y020891D01*
X023545Y020971D02*
X023623Y020971D01*
X023623Y021051D02*
X023545Y021051D01*
X023545Y021131D02*
X023623Y021131D01*
X023623Y021211D02*
X023545Y021211D01*
X023545Y021291D02*
X023623Y021291D01*
X023387Y021321D02*
X023387Y020731D01*
X023387Y021321D02*
X023465Y021321D01*
X023465Y020731D01*
X023387Y020731D01*
X023387Y020811D02*
X023465Y020811D01*
X023465Y020891D02*
X023387Y020891D01*
X023387Y020971D02*
X023465Y020971D01*
X023465Y021051D02*
X023387Y021051D01*
X023387Y021131D02*
X023465Y021131D01*
X023465Y021211D02*
X023387Y021211D01*
X023387Y021291D02*
X023465Y021291D01*
X023230Y021321D02*
X023230Y020731D01*
X023230Y021321D02*
X023308Y021321D01*
X023308Y020731D01*
X023230Y020731D01*
X023230Y020811D02*
X023308Y020811D01*
X023308Y020891D02*
X023230Y020891D01*
X023230Y020971D02*
X023308Y020971D01*
X023308Y021051D02*
X023230Y021051D01*
X023230Y021131D02*
X023308Y021131D01*
X023308Y021211D02*
X023230Y021211D01*
X023230Y021291D02*
X023308Y021291D01*
X023072Y021321D02*
X023072Y020731D01*
X023072Y021321D02*
X023150Y021321D01*
X023150Y020731D01*
X023072Y020731D01*
X023072Y020811D02*
X023150Y020811D01*
X023150Y020891D02*
X023072Y020891D01*
X023072Y020971D02*
X023150Y020971D01*
X023150Y021051D02*
X023072Y021051D01*
X023072Y021131D02*
X023150Y021131D01*
X023150Y021211D02*
X023072Y021211D01*
X023072Y021291D02*
X023150Y021291D01*
X022915Y021321D02*
X022915Y020731D01*
X022915Y021321D02*
X022993Y021321D01*
X022993Y020731D01*
X022915Y020731D01*
X022915Y020811D02*
X022993Y020811D01*
X022993Y020891D02*
X022915Y020891D01*
X022915Y020971D02*
X022993Y020971D01*
X022993Y021051D02*
X022915Y021051D01*
X022915Y021131D02*
X022993Y021131D01*
X022993Y021211D02*
X022915Y021211D01*
X022915Y021291D02*
X022993Y021291D01*
X022757Y021321D02*
X022757Y020731D01*
X022757Y021321D02*
X022835Y021321D01*
X022835Y020731D01*
X022757Y020731D01*
X022757Y020811D02*
X022835Y020811D01*
X022835Y020891D02*
X022757Y020891D01*
X022757Y020971D02*
X022835Y020971D01*
X022835Y021051D02*
X022757Y021051D01*
X022757Y021131D02*
X022835Y021131D01*
X022835Y021211D02*
X022757Y021211D01*
X022757Y021291D02*
X022835Y021291D01*
X022600Y021321D02*
X022600Y020731D01*
X022600Y021321D02*
X022678Y021321D01*
X022678Y020731D01*
X022600Y020731D01*
X022600Y020811D02*
X022678Y020811D01*
X022678Y020891D02*
X022600Y020891D01*
X022600Y020971D02*
X022678Y020971D01*
X022678Y021051D02*
X022600Y021051D01*
X022600Y021131D02*
X022678Y021131D01*
X022678Y021211D02*
X022600Y021211D01*
X022600Y021291D02*
X022678Y021291D01*
X022442Y021321D02*
X022442Y020731D01*
X022442Y021321D02*
X022520Y021321D01*
X022520Y020731D01*
X022442Y020731D01*
X022442Y020811D02*
X022520Y020811D01*
X022520Y020891D02*
X022442Y020891D01*
X022442Y020971D02*
X022520Y020971D01*
X022520Y021051D02*
X022442Y021051D01*
X022442Y021131D02*
X022520Y021131D01*
X022520Y021211D02*
X022442Y021211D01*
X022442Y021291D02*
X022520Y021291D01*
X022285Y021321D02*
X022285Y020731D01*
X022285Y021321D02*
X022363Y021321D01*
X022363Y020731D01*
X022285Y020731D01*
X022285Y020811D02*
X022363Y020811D01*
X022363Y020891D02*
X022285Y020891D01*
X022285Y020971D02*
X022363Y020971D01*
X022363Y021051D02*
X022285Y021051D01*
X022285Y021131D02*
X022363Y021131D01*
X022363Y021211D02*
X022285Y021211D01*
X022285Y021291D02*
X022363Y021291D01*
X022127Y021321D02*
X022127Y020731D01*
X022127Y021321D02*
X022205Y021321D01*
X022205Y020731D01*
X022127Y020731D01*
X022127Y020811D02*
X022205Y020811D01*
X022205Y020891D02*
X022127Y020891D01*
X022127Y020971D02*
X022205Y020971D01*
X022205Y021051D02*
X022127Y021051D01*
X022127Y021131D02*
X022205Y021131D01*
X022205Y021211D02*
X022127Y021211D01*
X022127Y021291D02*
X022205Y021291D01*
X021970Y021321D02*
X021970Y020731D01*
X021970Y021321D02*
X022048Y021321D01*
X022048Y020731D01*
X021970Y020731D01*
X021970Y020811D02*
X022048Y020811D01*
X022048Y020891D02*
X021970Y020891D01*
X021970Y020971D02*
X022048Y020971D01*
X022048Y021051D02*
X021970Y021051D01*
X021970Y021131D02*
X022048Y021131D01*
X022048Y021211D02*
X021970Y021211D01*
X021970Y021291D02*
X022048Y021291D01*
X021812Y021321D02*
X021812Y020731D01*
X021812Y021321D02*
X021890Y021321D01*
X021890Y020731D01*
X021812Y020731D01*
X021812Y020811D02*
X021890Y020811D01*
X021890Y020891D02*
X021812Y020891D01*
X021812Y020971D02*
X021890Y020971D01*
X021890Y021051D02*
X021812Y021051D01*
X021812Y021131D02*
X021890Y021131D01*
X021890Y021211D02*
X021812Y021211D01*
X021812Y021291D02*
X021890Y021291D01*
X021655Y021321D02*
X021655Y020731D01*
X021655Y021321D02*
X021733Y021321D01*
X021733Y020731D01*
X021655Y020731D01*
X021655Y020811D02*
X021733Y020811D01*
X021733Y020891D02*
X021655Y020891D01*
X021655Y020971D02*
X021733Y020971D01*
X021733Y021051D02*
X021655Y021051D01*
X021655Y021131D02*
X021733Y021131D01*
X021733Y021211D02*
X021655Y021211D01*
X021655Y021291D02*
X021733Y021291D01*
X021497Y021321D02*
X021497Y020731D01*
X021497Y021321D02*
X021575Y021321D01*
X021575Y020731D01*
X021497Y020731D01*
X021497Y020811D02*
X021575Y020811D01*
X021575Y020891D02*
X021497Y020891D01*
X021497Y020971D02*
X021575Y020971D01*
X021575Y021051D02*
X021497Y021051D01*
X021497Y021131D02*
X021575Y021131D01*
X021575Y021211D02*
X021497Y021211D01*
X021497Y021291D02*
X021575Y021291D01*
X021340Y021321D02*
X021340Y020731D01*
X021340Y021321D02*
X021418Y021321D01*
X021418Y020731D01*
X021340Y020731D01*
X021340Y020811D02*
X021418Y020811D01*
X021418Y020891D02*
X021340Y020891D01*
X021340Y020971D02*
X021418Y020971D01*
X021418Y021051D02*
X021340Y021051D01*
X021340Y021131D02*
X021418Y021131D01*
X021418Y021211D02*
X021340Y021211D01*
X021340Y021291D02*
X021418Y021291D01*
X021182Y021321D02*
X021182Y020731D01*
X021182Y021321D02*
X021260Y021321D01*
X021260Y020731D01*
X021182Y020731D01*
X021182Y020811D02*
X021260Y020811D01*
X021260Y020891D02*
X021182Y020891D01*
X021182Y020971D02*
X021260Y020971D01*
X021260Y021051D02*
X021182Y021051D01*
X021182Y021131D02*
X021260Y021131D01*
X021260Y021211D02*
X021182Y021211D01*
X021182Y021291D02*
X021260Y021291D01*
X021025Y021321D02*
X021025Y020731D01*
X021025Y021321D02*
X021103Y021321D01*
X021103Y020731D01*
X021025Y020731D01*
X021025Y020811D02*
X021103Y020811D01*
X021103Y020891D02*
X021025Y020891D01*
X021025Y020971D02*
X021103Y020971D01*
X021103Y021051D02*
X021025Y021051D01*
X021025Y021131D02*
X021103Y021131D01*
X021103Y021211D02*
X021025Y021211D01*
X021025Y021291D02*
X021103Y021291D01*
X020867Y021321D02*
X020867Y020731D01*
X020867Y021321D02*
X020945Y021321D01*
X020945Y020731D01*
X020867Y020731D01*
X020867Y020811D02*
X020945Y020811D01*
X020945Y020891D02*
X020867Y020891D01*
X020867Y020971D02*
X020945Y020971D01*
X020945Y021051D02*
X020867Y021051D01*
X020867Y021131D02*
X020945Y021131D01*
X020945Y021211D02*
X020867Y021211D01*
X020867Y021291D02*
X020945Y021291D01*
X020710Y021321D02*
X020710Y020731D01*
X020710Y021321D02*
X020788Y021321D01*
X020788Y020731D01*
X020710Y020731D01*
X020710Y020811D02*
X020788Y020811D01*
X020788Y020891D02*
X020710Y020891D01*
X020710Y020971D02*
X020788Y020971D01*
X020788Y021051D02*
X020710Y021051D01*
X020710Y021131D02*
X020788Y021131D01*
X020788Y021211D02*
X020710Y021211D01*
X020710Y021291D02*
X020788Y021291D01*
D18*
X018852Y023478D02*
X018578Y023478D01*
X018578Y023830D01*
X018852Y023830D01*
X018852Y023478D01*
X018852Y023559D02*
X018578Y023559D01*
X018578Y023640D02*
X018852Y023640D01*
X018852Y023721D02*
X018578Y023721D01*
X018578Y023802D02*
X018852Y023802D01*
X018340Y023478D02*
X018066Y023478D01*
X018066Y023830D01*
X018340Y023830D01*
X018340Y023478D01*
X018340Y023559D02*
X018066Y023559D01*
X018066Y023640D02*
X018340Y023640D01*
X018340Y023721D02*
X018066Y023721D01*
X018066Y023802D02*
X018340Y023802D01*
X018300Y024718D02*
X018026Y024718D01*
X018026Y025070D01*
X018300Y025070D01*
X018300Y024718D01*
X018300Y024799D02*
X018026Y024799D01*
X018026Y024880D02*
X018300Y024880D01*
X018300Y024961D02*
X018026Y024961D01*
X018026Y025042D02*
X018300Y025042D01*
X018538Y024718D02*
X018812Y024718D01*
X018538Y024718D02*
X018538Y025070D01*
X018812Y025070D01*
X018812Y024718D01*
X018812Y024799D02*
X018538Y024799D01*
X018538Y024880D02*
X018812Y024880D01*
X018812Y024961D02*
X018538Y024961D01*
X018538Y025042D02*
X018812Y025042D01*
X022976Y026788D02*
X023250Y026788D01*
X022976Y026788D02*
X022976Y027140D01*
X023250Y027140D01*
X023250Y026788D01*
X023250Y026869D02*
X022976Y026869D01*
X022976Y026950D02*
X023250Y026950D01*
X023250Y027031D02*
X022976Y027031D01*
X022976Y027112D02*
X023250Y027112D01*
X023488Y026788D02*
X023762Y026788D01*
X023488Y026788D02*
X023488Y027140D01*
X023762Y027140D01*
X023762Y026788D01*
X023762Y026869D02*
X023488Y026869D01*
X023488Y026950D02*
X023762Y026950D01*
X023762Y027031D02*
X023488Y027031D01*
X023488Y027112D02*
X023762Y027112D01*
X026376Y025010D02*
X026650Y025010D01*
X026650Y024658D01*
X026376Y024658D01*
X026376Y025010D01*
X026376Y024739D02*
X026650Y024739D01*
X026650Y024820D02*
X026376Y024820D01*
X026376Y024901D02*
X026650Y024901D01*
X026650Y024982D02*
X026376Y024982D01*
X026888Y025010D02*
X027162Y025010D01*
X027162Y024658D01*
X026888Y024658D01*
X026888Y025010D01*
X026888Y024739D02*
X027162Y024739D01*
X027162Y024820D02*
X026888Y024820D01*
X026888Y024901D02*
X027162Y024901D01*
X027162Y024982D02*
X026888Y024982D01*
X028166Y024688D02*
X028440Y024688D01*
X028166Y024688D02*
X028166Y025040D01*
X028440Y025040D01*
X028440Y024688D01*
X028440Y024769D02*
X028166Y024769D01*
X028166Y024850D02*
X028440Y024850D01*
X028440Y024931D02*
X028166Y024931D01*
X028166Y025012D02*
X028440Y025012D01*
X028678Y024688D02*
X028952Y024688D01*
X028678Y024688D02*
X028678Y025040D01*
X028952Y025040D01*
X028952Y024688D01*
X028952Y024769D02*
X028678Y024769D01*
X028678Y024850D02*
X028952Y024850D01*
X028952Y024931D02*
X028678Y024931D01*
X028678Y025012D02*
X028952Y025012D01*
X028602Y027058D02*
X028328Y027058D01*
X028328Y027410D01*
X028602Y027410D01*
X028602Y027058D01*
X028602Y027139D02*
X028328Y027139D01*
X028328Y027220D02*
X028602Y027220D01*
X028602Y027301D02*
X028328Y027301D01*
X028328Y027382D02*
X028602Y027382D01*
X028090Y027058D02*
X027816Y027058D01*
X027816Y027410D01*
X028090Y027410D01*
X028090Y027058D01*
X028090Y027139D02*
X027816Y027139D01*
X027816Y027220D02*
X028090Y027220D01*
X028090Y027301D02*
X027816Y027301D01*
X027816Y027382D02*
X028090Y027382D01*
X021295Y031391D02*
X021295Y031665D01*
X021295Y031391D02*
X020943Y031391D01*
X020943Y031665D01*
X021295Y031665D01*
X021295Y031472D02*
X020943Y031472D01*
X020943Y031553D02*
X021295Y031553D01*
X021295Y031634D02*
X020943Y031634D01*
X021295Y031903D02*
X021295Y032177D01*
X021295Y031903D02*
X020943Y031903D01*
X020943Y032177D01*
X021295Y032177D01*
X021295Y031984D02*
X020943Y031984D01*
X020943Y032065D02*
X021295Y032065D01*
X021295Y032146D02*
X020943Y032146D01*
X020535Y032167D02*
X020535Y031893D01*
X020183Y031893D01*
X020183Y032167D01*
X020535Y032167D01*
X020535Y031974D02*
X020183Y031974D01*
X020183Y032055D02*
X020535Y032055D01*
X020535Y032136D02*
X020183Y032136D01*
X020535Y031655D02*
X020535Y031381D01*
X020183Y031381D01*
X020183Y031655D01*
X020535Y031655D01*
X020535Y031462D02*
X020183Y031462D01*
X020183Y031543D02*
X020535Y031543D01*
X020535Y031624D02*
X020183Y031624D01*
X026416Y021828D02*
X026690Y021828D01*
X026416Y021828D02*
X026416Y022180D01*
X026690Y022180D01*
X026690Y021828D01*
X026690Y021909D02*
X026416Y021909D01*
X026416Y021990D02*
X026690Y021990D01*
X026690Y022071D02*
X026416Y022071D01*
X026416Y022152D02*
X026690Y022152D01*
X026928Y021828D02*
X027202Y021828D01*
X026928Y021828D02*
X026928Y022180D01*
X027202Y022180D01*
X027202Y021828D01*
X027202Y021909D02*
X026928Y021909D01*
X026928Y021990D02*
X027202Y021990D01*
X027202Y022071D02*
X026928Y022071D01*
X026928Y022152D02*
X027202Y022152D01*
X026662Y020968D02*
X026388Y020968D01*
X026388Y021320D01*
X026662Y021320D01*
X026662Y020968D01*
X026662Y021049D02*
X026388Y021049D01*
X026388Y021130D02*
X026662Y021130D01*
X026662Y021211D02*
X026388Y021211D01*
X026388Y021292D02*
X026662Y021292D01*
X026150Y020968D02*
X025876Y020968D01*
X025876Y021320D01*
X026150Y021320D01*
X026150Y020968D01*
X026150Y021049D02*
X025876Y021049D01*
X025876Y021130D02*
X026150Y021130D01*
X026150Y021211D02*
X025876Y021211D01*
X025876Y021292D02*
X026150Y021292D01*
X031056Y019778D02*
X031330Y019778D01*
X031056Y019778D02*
X031056Y020130D01*
X031330Y020130D01*
X031330Y019778D01*
X031330Y019859D02*
X031056Y019859D01*
X031056Y019940D02*
X031330Y019940D01*
X031330Y020021D02*
X031056Y020021D01*
X031056Y020102D02*
X031330Y020102D01*
X031568Y019778D02*
X031842Y019778D01*
X031568Y019778D02*
X031568Y020130D01*
X031842Y020130D01*
X031842Y019778D01*
X031842Y019859D02*
X031568Y019859D01*
X031568Y019940D02*
X031842Y019940D01*
X031842Y020021D02*
X031568Y020021D01*
X031568Y020102D02*
X031842Y020102D01*
X031862Y018828D02*
X031588Y018828D01*
X031588Y019180D01*
X031862Y019180D01*
X031862Y018828D01*
X031862Y018909D02*
X031588Y018909D01*
X031588Y018990D02*
X031862Y018990D01*
X031862Y019071D02*
X031588Y019071D01*
X031588Y019152D02*
X031862Y019152D01*
X031350Y018828D02*
X031076Y018828D01*
X031076Y019180D01*
X031350Y019180D01*
X031350Y018828D01*
X031350Y018909D02*
X031076Y018909D01*
X031076Y018990D02*
X031350Y018990D01*
X031350Y019071D02*
X031076Y019071D01*
X031076Y019152D02*
X031350Y019152D01*
X039245Y023721D02*
X039245Y023995D01*
X039245Y023721D02*
X038893Y023721D01*
X038893Y023995D01*
X039245Y023995D01*
X039245Y023802D02*
X038893Y023802D01*
X038893Y023883D02*
X039245Y023883D01*
X039245Y023964D02*
X038893Y023964D01*
X039245Y024233D02*
X039245Y024507D01*
X039245Y024233D02*
X038893Y024233D01*
X038893Y024507D01*
X039245Y024507D01*
X039245Y024314D02*
X038893Y024314D01*
X038893Y024395D02*
X039245Y024395D01*
X039245Y024476D02*
X038893Y024476D01*
D19*
X026373Y027163D02*
X026373Y028145D01*
X026373Y027163D02*
X025903Y027163D01*
X025903Y028145D01*
X026373Y028145D01*
X026373Y027245D02*
X025903Y027245D01*
X025903Y027327D02*
X026373Y027327D01*
X026373Y027409D02*
X025903Y027409D01*
X025903Y027491D02*
X026373Y027491D01*
X026373Y027573D02*
X025903Y027573D01*
X025903Y027655D02*
X026373Y027655D01*
X026373Y027737D02*
X025903Y027737D01*
X025903Y027819D02*
X026373Y027819D01*
X026373Y027901D02*
X025903Y027901D01*
X025903Y027983D02*
X026373Y027983D01*
X026373Y028065D02*
X025903Y028065D01*
X025074Y028145D02*
X025074Y027163D01*
X024604Y027163D01*
X024604Y028145D01*
X025074Y028145D01*
X025074Y027245D02*
X024604Y027245D01*
X024604Y027327D02*
X025074Y027327D01*
X025074Y027409D02*
X024604Y027409D01*
X024604Y027491D02*
X025074Y027491D01*
X025074Y027573D02*
X024604Y027573D01*
X024604Y027655D02*
X025074Y027655D01*
X025074Y027737D02*
X024604Y027737D01*
X024604Y027819D02*
X025074Y027819D01*
X025074Y027901D02*
X024604Y027901D01*
X024604Y027983D02*
X025074Y027983D01*
X025074Y028065D02*
X024604Y028065D01*
D20*
X021265Y030405D02*
X020953Y030405D01*
X021265Y030405D02*
X021265Y030093D01*
X020953Y030093D01*
X020953Y030405D01*
X020953Y030175D02*
X021265Y030175D01*
X021265Y030257D02*
X020953Y030257D01*
X020953Y030339D02*
X021265Y030339D01*
X021265Y030995D02*
X020953Y030995D01*
X021265Y030995D02*
X021265Y030683D01*
X020953Y030683D01*
X020953Y030995D01*
X020953Y030765D02*
X021265Y030765D01*
X021265Y030847D02*
X020953Y030847D01*
X020953Y030929D02*
X021265Y030929D01*
X020495Y030795D02*
X020183Y030795D01*
X020495Y030795D02*
X020495Y030483D01*
X020183Y030483D01*
X020183Y030795D01*
X020183Y030565D02*
X020495Y030565D01*
X020495Y030647D02*
X020183Y030647D01*
X020183Y030729D02*
X020495Y030729D01*
X020495Y030205D02*
X020183Y030205D01*
X020495Y030205D02*
X020495Y029893D01*
X020183Y029893D01*
X020183Y030205D01*
X020183Y029975D02*
X020495Y029975D01*
X020495Y030057D02*
X020183Y030057D01*
X020183Y030139D02*
X020495Y030139D01*
X038913Y023265D02*
X039225Y023265D01*
X039225Y022953D01*
X038913Y022953D01*
X038913Y023265D01*
X038913Y023035D02*
X039225Y023035D01*
X039225Y023117D02*
X038913Y023117D01*
X038913Y023199D02*
X039225Y023199D01*
X039225Y022675D02*
X038913Y022675D01*
X039225Y022675D02*
X039225Y022363D01*
X038913Y022363D01*
X038913Y022675D01*
X038913Y022445D02*
X039225Y022445D01*
X039225Y022527D02*
X038913Y022527D01*
X038913Y022609D02*
X039225Y022609D01*
D21*
X027476Y022302D02*
X027476Y023048D01*
X027476Y022302D02*
X027046Y022302D01*
X027046Y023048D01*
X027476Y023048D01*
X027476Y022383D02*
X027046Y022383D01*
X027046Y022464D02*
X027476Y022464D01*
X027476Y022545D02*
X027046Y022545D01*
X027046Y022626D02*
X027476Y022626D01*
X027476Y022707D02*
X027046Y022707D01*
X027046Y022788D02*
X027476Y022788D01*
X027476Y022869D02*
X027046Y022869D01*
X027046Y022950D02*
X027476Y022950D01*
X027476Y023031D02*
X027046Y023031D01*
X026571Y023048D02*
X026571Y022302D01*
X026141Y022302D01*
X026141Y023048D01*
X026571Y023048D01*
X026571Y022383D02*
X026141Y022383D01*
X026141Y022464D02*
X026571Y022464D01*
X026571Y022545D02*
X026141Y022545D01*
X026141Y022626D02*
X026571Y022626D01*
X026571Y022707D02*
X026141Y022707D01*
X026141Y022788D02*
X026571Y022788D01*
X026571Y022869D02*
X026141Y022869D01*
X026141Y022950D02*
X026571Y022950D01*
X026571Y023031D02*
X026141Y023031D01*
X026571Y023759D02*
X026571Y024505D01*
X026571Y023759D02*
X026141Y023759D01*
X026141Y024505D01*
X026571Y024505D01*
X026571Y023840D02*
X026141Y023840D01*
X026141Y023921D02*
X026571Y023921D01*
X026571Y024002D02*
X026141Y024002D01*
X026141Y024083D02*
X026571Y024083D01*
X026571Y024164D02*
X026141Y024164D01*
X026141Y024245D02*
X026571Y024245D01*
X026571Y024326D02*
X026141Y024326D01*
X026141Y024407D02*
X026571Y024407D01*
X026571Y024488D02*
X026141Y024488D01*
X027476Y024505D02*
X027476Y023759D01*
X027046Y023759D01*
X027046Y024505D01*
X027476Y024505D01*
X027476Y023840D02*
X027046Y023840D01*
X027046Y023921D02*
X027476Y023921D01*
X027476Y024002D02*
X027046Y024002D01*
X027046Y024083D02*
X027476Y024083D01*
X027476Y024164D02*
X027046Y024164D01*
X027046Y024245D02*
X027476Y024245D01*
X027476Y024326D02*
X027046Y024326D01*
X027046Y024407D02*
X027476Y024407D01*
X027476Y024488D02*
X027046Y024488D01*
D22*
X027177Y025327D02*
X027177Y025721D01*
X028161Y025721D01*
X028161Y025327D01*
X027177Y025327D01*
X027177Y025407D02*
X028161Y025407D01*
X028161Y025487D02*
X027177Y025487D01*
X027177Y025567D02*
X028161Y025567D01*
X028161Y025647D02*
X027177Y025647D01*
X027177Y026327D02*
X027177Y026721D01*
X028161Y026721D01*
X028161Y026327D01*
X027177Y026327D01*
X027177Y026407D02*
X028161Y026407D01*
X028161Y026487D02*
X027177Y026487D01*
X027177Y026567D02*
X028161Y026567D01*
X028161Y026647D02*
X027177Y026647D01*
D23*
X003285Y026596D02*
X002301Y026596D01*
X002301Y026792D01*
X003285Y026792D01*
X003285Y026596D01*
X003285Y026675D02*
X002301Y026675D01*
X002301Y026754D02*
X003285Y026754D01*
X003285Y026911D02*
X002301Y026911D01*
X002301Y027107D01*
X003285Y027107D01*
X003285Y026911D01*
X003285Y026990D02*
X002301Y026990D01*
X002301Y027069D02*
X003285Y027069D01*
X003285Y027226D02*
X002301Y027226D01*
X002301Y027422D01*
X003285Y027422D01*
X003285Y027226D01*
X003285Y027305D02*
X002301Y027305D01*
X002301Y027384D02*
X003285Y027384D01*
X003285Y027541D02*
X002301Y027541D01*
X002301Y027737D01*
X003285Y027737D01*
X003285Y027541D01*
X003285Y027620D02*
X002301Y027620D01*
X002301Y027699D02*
X003285Y027699D01*
X003285Y027856D02*
X002301Y027856D01*
X002301Y028052D01*
X003285Y028052D01*
X003285Y027856D01*
X003285Y027935D02*
X002301Y027935D01*
X002301Y028014D02*
X003285Y028014D01*
D24*
X002482Y028705D02*
X001504Y028705D01*
X001504Y029485D01*
X002482Y029485D01*
X002482Y028705D01*
X002482Y028791D02*
X001504Y028791D01*
X001504Y028877D02*
X002482Y028877D01*
X002482Y028963D02*
X001504Y028963D01*
X001504Y029049D02*
X002482Y029049D01*
X002482Y029135D02*
X001504Y029135D01*
X001504Y029221D02*
X002482Y029221D01*
X002482Y029307D02*
X001504Y029307D01*
X001504Y029393D02*
X002482Y029393D01*
X002482Y029479D02*
X001504Y029479D01*
X001317Y028705D02*
X000339Y028705D01*
X000339Y029485D01*
X001317Y029485D01*
X001317Y028705D01*
X001317Y028791D02*
X000339Y028791D01*
X000339Y028877D02*
X001317Y028877D01*
X001317Y028963D02*
X000339Y028963D01*
X000339Y029049D02*
X001317Y029049D01*
X001317Y029135D02*
X000339Y029135D01*
X000339Y029221D02*
X001317Y029221D01*
X001317Y029307D02*
X000339Y029307D01*
X000339Y029393D02*
X001317Y029393D01*
X001317Y029479D02*
X000339Y029479D01*
X000339Y025162D02*
X001317Y025162D01*
X000339Y025162D02*
X000339Y025942D01*
X001317Y025942D01*
X001317Y025162D01*
X001317Y025248D02*
X000339Y025248D01*
X000339Y025334D02*
X001317Y025334D01*
X001317Y025420D02*
X000339Y025420D01*
X000339Y025506D02*
X001317Y025506D01*
X001317Y025592D02*
X000339Y025592D01*
X000339Y025678D02*
X001317Y025678D01*
X001317Y025764D02*
X000339Y025764D01*
X000339Y025850D02*
X001317Y025850D01*
X001317Y025936D02*
X000339Y025936D01*
X001504Y025201D02*
X002482Y025201D01*
X001504Y025201D02*
X001504Y025981D01*
X002482Y025981D01*
X002482Y025201D01*
X002482Y025287D02*
X001504Y025287D01*
X001504Y025373D02*
X002482Y025373D01*
X002482Y025459D02*
X001504Y025459D01*
X001504Y025545D02*
X002482Y025545D01*
X002482Y025631D02*
X001504Y025631D01*
X001504Y025717D02*
X002482Y025717D01*
X002482Y025803D02*
X001504Y025803D01*
X001504Y025889D02*
X002482Y025889D01*
X002482Y025975D02*
X001504Y025975D01*
D25*
X001809Y026458D03*
X001809Y028190D03*
D26*
X017529Y018844D02*
X017529Y018244D01*
X018529Y018244D02*
X018529Y018844D01*
X019529Y018844D02*
X019529Y018244D01*
X020529Y018244D02*
X020529Y018844D01*
X021529Y018844D02*
X021529Y018244D01*
X022529Y018244D02*
X022529Y018844D01*
D27*
X036191Y025796D02*
X036667Y025796D01*
X036191Y025796D02*
X036191Y026672D01*
X036667Y026672D01*
X036667Y025796D01*
X036667Y025879D02*
X036191Y025879D01*
X036191Y025962D02*
X036667Y025962D01*
X036667Y026045D02*
X036191Y026045D01*
X036191Y026128D02*
X036667Y026128D01*
X036667Y026211D02*
X036191Y026211D01*
X036191Y026294D02*
X036667Y026294D01*
X036667Y026377D02*
X036191Y026377D01*
X036191Y026460D02*
X036667Y026460D01*
X036667Y026543D02*
X036191Y026543D01*
X036191Y026626D02*
X036667Y026626D01*
X037101Y025796D02*
X037577Y025796D01*
X037101Y025796D02*
X037101Y026672D01*
X037577Y026672D01*
X037577Y025796D01*
X037577Y025879D02*
X037101Y025879D01*
X037101Y025962D02*
X037577Y025962D01*
X037577Y026045D02*
X037101Y026045D01*
X037101Y026128D02*
X037577Y026128D01*
X037577Y026211D02*
X037101Y026211D01*
X037101Y026294D02*
X037577Y026294D01*
X037577Y026377D02*
X037101Y026377D01*
X037101Y026460D02*
X037577Y026460D01*
X037577Y026543D02*
X037101Y026543D01*
X037101Y026626D02*
X037577Y026626D01*
X038011Y025796D02*
X038487Y025796D01*
X038011Y025796D02*
X038011Y026672D01*
X038487Y026672D01*
X038487Y025796D01*
X038487Y025879D02*
X038011Y025879D01*
X038011Y025962D02*
X038487Y025962D01*
X038487Y026045D02*
X038011Y026045D01*
X038011Y026128D02*
X038487Y026128D01*
X038487Y026211D02*
X038011Y026211D01*
X038011Y026294D02*
X038487Y026294D01*
X038487Y026377D02*
X038011Y026377D01*
X038011Y026460D02*
X038487Y026460D01*
X038487Y026543D02*
X038011Y026543D01*
X038011Y026626D02*
X038487Y026626D01*
D28*
X038045Y028243D02*
X036633Y028243D01*
X036633Y029105D01*
X038045Y029105D01*
X038045Y028243D01*
X038045Y028327D02*
X036633Y028327D01*
X036633Y028411D02*
X038045Y028411D01*
X038045Y028495D02*
X036633Y028495D01*
X036633Y028579D02*
X038045Y028579D01*
X038045Y028663D02*
X036633Y028663D01*
X036633Y028747D02*
X038045Y028747D01*
X038045Y028831D02*
X036633Y028831D01*
X036633Y028915D02*
X038045Y028915D01*
X038045Y028999D02*
X036633Y028999D01*
X036633Y029083D02*
X038045Y029083D01*
D29*
X039819Y026204D03*
D30*
X041819Y026204D03*
D31*
X038039Y024434D03*
X035689Y024434D03*
X033509Y019484D03*
X031213Y019484D03*
X029109Y017974D03*
X028149Y017014D03*
X024349Y018214D03*
X024349Y019184D03*
X024189Y020414D03*
X024629Y020574D03*
X024849Y021174D03*
X024109Y022024D03*
X024339Y022304D03*
X023629Y022474D03*
X023469Y021964D03*
X022029Y021974D03*
X020999Y021974D03*
X020309Y021214D03*
X019509Y021854D03*
X019439Y022284D03*
X019169Y024354D03*
X019329Y025374D03*
X018279Y025374D03*
X020799Y026844D03*
X021239Y027154D03*
X020839Y027834D03*
X021239Y028094D03*
X023529Y029354D03*
X023529Y031064D03*
X021149Y025134D03*
X021149Y024614D03*
X025739Y022094D03*
X026609Y021594D03*
X022989Y017684D03*
X023659Y017014D03*
X019619Y014594D03*
X018639Y014344D03*
X015619Y018594D03*
X014339Y024354D03*
X015459Y024844D03*
X010839Y026814D03*
X010559Y027514D03*
X004889Y026714D03*
X035479Y015484D03*
X035479Y012334D03*
X039009Y011984D03*
D32*
X034839Y011484D03*
X033299Y015594D03*
X028389Y019134D03*
X028009Y020914D03*
X028789Y020914D03*
X025579Y021494D03*
X024999Y020644D03*
X023409Y020354D03*
X022199Y020314D03*
X022979Y022104D03*
X023609Y022924D03*
X019829Y021324D03*
X025979Y025664D03*
X025219Y026104D03*
X026889Y025664D03*
X027319Y026104D03*
X013149Y027554D03*
X009939Y027864D03*
X006089Y027864D03*
X003879Y027344D03*
X003599Y027014D03*
X007819Y018034D03*
X016339Y012544D03*
X019629Y015394D03*
D33*
X041819Y023504D03*
X045659Y021544D03*
D34*
X019159Y023544D03*
M02*
